<svg width="345" height="68" viewBox="0 0 345 68" fill="none" xmlns="http://www.w3.org/2000/svg">
<path d="M155.848 27.601C158.956 27.601 161.476 25.0741 161.476 21.9574C161.476 18.8401 158.956 16.3137 155.848 16.3137C152.74 16.3137 150.22 18.8401 150.22 21.9574C150.22 25.0741 152.74 27.601 155.848 27.601ZM341.578 46.8835C340.722 46.2799 340.061 46.18 339.513 47.352C330.061 67.8761 314.133 57.6343 315.715 58.5356C319.248 56.9153 328.54 49.444 327.136 39.1277C326.283 32.823 320.885 30.0264 315.156 31.0278C305.156 32.7757 301.477 43.5897 303.35 53.1637C303.678 54.8079 304.263 56.1639 304.848 57.4923C293.547 66.7057 289.059 49.2446 288.55 47.1579C288.53 47.0462 297.276 39.7376 299.709 22.3216C302.258 4.06866 296.45 0.745109 290.511 0.848804C279.521 1.04077 276.551 24.0616 280.541 43.2478C280.207 43.335 278.652 44.1986 276.153 44.2954C274.355 38.623 266.672 33.651 264.661 35.5669C259.628 40.3598 265.881 49.7301 270.281 50.465C267.638 66.7855 251.109 62.7435 254.186 42.2965C259.568 32.2753 263.662 17.3746 262.932 8.37918C262.673 5.19442 260.324 0.927506 255.012 1.13915C244.796 1.54436 243.685 24.5715 244.883 40.9149C244.824 40.5124 244.255 42.9006 240.069 44.088C239.078 38.5773 230.228 33.0458 228.144 35.7052C224.244 40.6825 231.003 49.5572 234.205 50.1762C231.562 66.4962 215.033 62.4542 218.11 42.0072C223.493 31.9865 227.586 17.0858 226.855 8.09043C226.597 4.90514 224.248 0.638224 218.936 0.849336C208.72 1.25508 207.609 24.2823 208.807 40.6257C208.747 40.2167 208.165 42.6836 203.808 43.8514C203.662 36.7017 194.779 33.4234 192.645 35.7047C188.842 39.7711 193.516 48.1146 197.84 50.1762C195.197 66.4962 178.668 62.4542 181.745 42.0072C187.128 31.9865 191.221 17.0858 190.491 8.09043C190.232 4.90514 187.884 0.638224 182.571 0.849336C172.356 1.25508 171.534 25.4399 172.731 41.7828C169.366 56.2368 158.082 74.2872 159.548 38.1285C159.693 35.5919 159.851 34.6289 158.589 33.6792C157.644 32.9411 155.495 33.2963 154.32 33.3255C152.892 33.383 152.534 34.2205 152.218 35.4866C151.483 38.756 151.351 41.9253 151.246 46.2496C151.177 48.2725 151.015 49.2164 150.238 51.9747C149.462 54.7324 145.035 59.7731 142.611 58.9302C139.248 57.7709 140.351 48.2533 140.982 41.7142C141.507 36.5465 139.825 34.2258 135.517 33.3819C132.995 32.8549 131.463 32.9357 128.836 32.1056C126.352 31.3208 125.79 26.6103 120.493 28.1801C117.595 29.0395 119.458 35.1947 118.761 39.7567C115.338 62.1979 108.214 62.8142 104.909 51.913C119.794 15.364 109.214 0.955158 103.022 0.955158C96.572 0.955158 89.1992 5.40925 92.3212 33.9078C90.8032 33.4638 90.3364 33.2245 88.6746 33.2245C79.2762 33.2245 72.873 40.8415 72.873 50.2379C72.873 59.6343 79.2767 67.2519 88.6752 67.2519C94.2233 67.2519 98.1187 64.7222 101.069 60.8089C102.994 63.5725 105.338 67.2944 109.624 67.1269C122.4 66.6281 126.116 40.3539 126.554 38.8884C127.92 39.0995 129.212 39.4988 130.474 39.7099C132.575 40.0263 132.728 40.8602 132.68 42.9793C132.123 60.8488 135.412 67.1056 142.873 67.1056C147.03 67.1056 150.735 63.011 153.287 60.0831C155.194 64.0277 158.231 66.9849 162.306 67.1051C172.181 67.3513 175.962 51.5721 175.617 53.6487C175.347 55.278 178.821 67.0163 188.987 67.0588C201.579 67.112 203.92 53.2286 204.199 50.9031C204.234 50.4405 204.25 50.4884 204.199 50.9031L204.19 51.0441C208.187 50.2985 210.25 48.1496 210.25 48.1496C210.25 48.1496 213.46 67.2747 225.351 67.0593C237.699 66.8349 240.028 54.2852 240.333 51.838C240.374 51.2573 240.397 51.3254 240.333 51.838C240.332 51.8619 240.33 51.8859 240.328 51.9098C245.077 50.1778 246.326 48.4395 246.326 48.4395C246.326 48.4395 248.878 67.1843 261.427 67.3481C272.611 67.4949 276.755 56.0134 276.78 51.2079C278.666 51.2281 282.155 50.0858 282.073 50.0209C282.073 50.0209 286.17 66.4101 297.609 67.2519C302.98 67.647 307.009 64.2218 309.306 62.6595C314.703 67.0418 332.676 72.6392 344.025 53.3493C345.627 50.5809 342.183 47.3105 341.578 46.8835ZM88.2217 60.8887C82.7382 60.8887 79.2221 55.8055 79.2221 50.3246C79.2221 44.8442 82.4497 39.761 87.9331 39.761C90.4006 39.761 91.7733 40.0333 93.695 41.7089C94.0435 43.0856 95.0311 46.2613 95.5117 47.7035C96.1556 49.6333 96.9215 51.2759 97.6938 53.0637C96.5905 57.6492 92.9736 60.8887 88.2217 60.8887ZM101.584 41.87C101.356 41.5057 101.404 41.7296 101.148 41.3856C100.143 38.6443 98.2062 32.5257 97.9818 25.5761C97.7283 17.7144 99.0352 8.49936 102.888 8.49936C105.499 8.49936 108.273 27.1751 101.583 41.87H101.584ZM178.792 33.6786C178.173 29.0134 178.141 8.21593 183.121 8.78865C185.871 9.90536 181.378 29.5303 178.792 33.6786ZM215.157 33.6786C214.538 29.0134 214.506 8.21593 219.486 8.78865C222.235 9.90536 217.742 29.5303 215.157 33.6786ZM251.233 33.9684C250.614 29.3027 250.582 8.50521 255.561 9.07793C258.311 10.1946 253.818 29.8201 251.233 33.9684ZM291.061 7.57143C295.614 7.09815 295.426 27.032 286.287 39.6169C285.108 35.0681 283.301 9.13323 291.061 7.57089V7.57143ZM310.198 50.465C308.736 43.059 312.514 38.1949 316.41 37.6616C317.771 37.4435 319.744 38.3279 320.138 39.9811C320.785 43.0968 320.044 47.7184 311.326 53.5822C311.338 53.6322 310.524 52.1145 310.199 50.465H310.198Z" fill="#7B7999" fill-opacity="0.5"/>
<path fill-rule="evenodd" clip-rule="evenodd" d="M0.822998 33.5081V33.7613C0.851129 41.3143 3.59113 48.2316 8.11466 53.5877C10.7541 56.7116 13.9832 59.2849 17.6174 61.1604C21.9923 63.4167 26.8451 64.5889 31.7675 64.5783C42.148 64.5783 51.3329 59.4698 56.9452 51.627C60.7031 46.3809 62.7202 40.0878 62.7121 33.6347C62.7121 24.4642 58.723 16.2219 52.3822 10.5593C46.4762 5.2629 38.7542 2.4495 30.8251 2.70523C23.2267 2.92192 15.977 5.94192 10.4721 11.1838C7.01513 14.4637 4.35862 18.4946 2.7078 22.9648C1.4701 26.3426 0.832241 29.9107 0.822998 33.5081ZM55.6258 42.1273C56.571 39.4718 57.0858 36.6137 57.0858 33.6347C57.095 26.994 54.4862 20.6173 49.8251 15.8872C47.5733 19.6279 44.5505 22.8462 40.9581 25.3278C42.2841 28.7674 42.9871 32.4157 43.0342 36.1018C47.6331 37.1321 51.9384 39.1923 55.6258 42.1273ZM42.5728 41.7785C46.4595 42.7737 50.0559 44.6735 53.0686 47.323C50.9261 50.6592 48.0294 53.4453 44.6123 55.4565C41.1952 57.4677 37.3533 58.6478 33.3964 58.9015C36.2092 56.2299 38.493 53.0519 40.1282 49.5341C41.3069 47.0051 42.1143 44.4002 42.5756 41.7785H42.5728ZM37.3826 35.3844C37.2752 32.9093 36.806 30.4632 35.9901 28.1239C31.4551 30.1632 26.4946 31.0769 21.5307 30.7874C16.5667 30.498 11.7461 29.0139 7.47889 26.4614C6.79355 28.7908 6.44679 31.2066 6.44928 33.6347C6.44139 38.8993 8.08227 44.0343 11.1416 48.3188C14.1124 44.169 18.062 40.817 22.6398 38.5606C27.2176 36.3042 32.2817 35.2131 37.3826 35.3844ZM15.0209 52.6228C17.3774 48.9623 20.637 45.9704 24.4857 43.9355C28.3344 41.9006 32.6423 40.8913 36.9944 41.0049C36.6035 43.1301 35.9427 45.1966 35.028 47.1542C32.9195 51.6946 29.5065 55.5041 25.2242 58.097C21.4451 57.0868 17.9523 55.2129 15.0209 52.6228ZM31.7675 8.31727C36.789 8.31727 41.4673 9.78005 45.4028 12.2977C43.6644 15.4016 41.2876 18.1015 38.4291 20.2193C35.4719 15.4061 31.247 11.4996 26.2172 8.9277C28.0393 8.52091 29.9006 8.3162 31.7675 8.31727ZM22.7824 13.5102C27.2264 15.5734 30.9725 18.8873 33.5623 23.0464C30.2613 24.5078 26.6853 25.2447 23.0754 25.2073C19.4654 25.1699 15.9055 24.3592 12.6354 22.8298C11.6222 22.3573 10.6411 21.8189 9.69846 21.2179C11.8354 17.4302 14.9076 14.2535 18.6217 11.9911C20.0283 12.3709 21.418 12.8744 22.7852 13.5102H22.7824Z" fill="#7B7999" fill-opacity="0.5"/>
</svg>
