<svg width="278" height="84" viewBox="0 0 278 84" fill="none" xmlns="http://www.w3.org/2000/svg">
<path d="M265.951 83.5955C267.459 83.597 268.952 83.3008 270.346 82.7238C271.74 82.1469 273.007 81.3005 274.074 80.2329C275.142 79.1653 275.989 77.8974 276.568 76.5018C277.146 75.1061 277.445 73.6098 277.446 72.0985C277.448 70.5872 277.152 69.0904 276.576 67.6935C276.001 66.2967 275.156 65.0271 274.091 63.9574C273.025 62.8877 271.76 62.0387 270.368 61.4589C268.975 60.8792 267.482 60.58 265.974 60.5784C262.928 60.5754 260.006 61.7849 257.85 63.941C255.694 66.0971 254.481 69.0231 254.478 72.0754C254.475 75.1276 255.682 78.0561 257.834 80.2165C259.985 82.3769 262.905 83.5924 265.951 83.5955ZM254.455 40.7422H244.645C238.343 40.7422 234.95 45.4844 234.95 53.3726V81.8952H216.368V40.7422H208.473C202.16 40.7422 198.778 45.4844 198.778 53.3726V81.8952H180.196V25.5209H198.778V34.08C201.825 27.4409 206.003 25.5209 212.201 25.5209H234.961V34.08C238.008 27.4409 242.175 25.5209 248.373 25.5209H254.455V40.7422ZM176.133 58.1033H137.365C138.381 64.4185 142.328 68.0272 148.976 68.0272C153.939 68.0272 157.424 66.0031 158.555 62.3944L175.002 67.0209C170.951 76.8291 160.922 82.7974 148.976 82.7974C128.801 82.7974 119.556 67.125 119.556 53.708C119.556 40.5224 127.67 24.7344 147.833 24.7344C169.255 24.7344 176.353 40.7422 176.353 52.5861C176.353 55.177 176.237 56.8657 176.122 58.1033H176.133ZM158.105 47.1731C157.644 42.3152 154.158 37.8043 147.845 37.8043C141.982 37.8043 138.496 40.4068 137.365 47.1731H158.105ZM87.101 81.8836H103.444L123.838 25.5093H105.141L95.2148 58.323L85.0812 25.5093H66.4645L87.101 81.8836ZM10.926 81.8836H29.4158V40.7306H47.0052V81.8836H65.368V25.5093H29.4158V22.0163C29.4158 18.1763 32.128 15.8168 36.41 15.8168H47.0052V0.595459H33.3399C19.9285 0.595459 10.9145 8.83069 10.9145 20.8944V25.5209H0.446167V40.7422H10.926V81.8952V81.8836Z" fill="#7B7999" fill-opacity="0.5"/>
</svg>
