<svg width="66" height="66" viewBox="0 0 66 66" fill="none" xmlns="http://www.w3.org/2000/svg">
<circle cx="33" cy="33" r="33" fill="#22314A"/>
<path d="M33 13C30.3736 13 27.7728 13.5302 25.3463 14.5602C22.9198 15.5903 20.715 17.1 18.8579 19.0033C15.1071 22.8471 13 28.0605 13 33.4965C13 42.556 18.74 50.2422 26.68 52.9683C27.68 53.1322 28 52.4968 28 51.9434V48.4795C22.46 49.7093 21.28 45.733 21.28 45.733C20.36 43.3554 19.06 42.72 19.06 42.72C17.24 41.4492 19.2 41.4902 19.2 41.4902C21.2 41.6337 22.26 43.6013 22.26 43.6013C24 46.7168 26.94 45.7945 28.08 45.3025C28.26 43.9703 28.78 43.0684 29.34 42.556C24.9 42.0436 20.24 40.2809 20.24 32.4717C20.24 30.1966 21 28.3724 22.3 26.9172C22.1 26.4047 21.4 24.2731 22.5 21.5061C22.5 21.5061 24.18 20.9527 28 23.5967C29.58 23.1458 31.3 22.9203 33 22.9203C34.7 22.9203 36.42 23.1458 38 23.5967C41.82 20.9527 43.5 21.5061 43.5 21.5061C44.6 24.2731 43.9 26.4047 43.7 26.9172C45 28.3724 45.76 30.1966 45.76 32.4717C45.76 40.3014 41.08 42.0231 36.62 42.5355C37.34 43.1709 38 44.4212 38 46.3274V51.9434C38 52.4968 38.32 53.1527 39.34 52.9683C47.28 50.2217 53 42.556 53 33.4965C53 30.8049 52.4827 28.1396 51.4776 25.6529C50.4725 23.1661 48.9993 20.9066 47.1421 19.0033C45.285 17.1 43.0802 15.5903 40.6537 14.5602C38.2272 13.5302 35.6264 13 33 13Z" fill="#235B62"/>
</svg>
