<svg width="38" height="29" viewBox="0 0 38 29" fill="none" xmlns="http://www.w3.org/2000/svg">
<path d="M38 3.96136V26.3634C38 27.8194 36.841 28.9984 35.4097 28.9984H29.3629V14.0648L19 21.9729L8.63708 14.0648V29H2.59033C2.25003 29 1.91307 28.9318 1.59869 28.7993C1.28431 28.6668 0.998687 28.4725 0.758132 28.2277C0.517576 27.9828 0.326807 27.6921 0.196723 27.3723C0.0666399 27.0524 -0.000207524 26.7096 4.83948e-07 26.3634V3.96136C4.83948e-07 0.703083 3.65592 -1.15718 6.21775 0.79811L8.63708 2.64549L19 10.5504L29.3629 2.64227L31.7823 0.79811C34.3425 -1.15557 38 0.703083 38 3.96136Z" fill="white"/>
</svg>
