<svg width="73" height="73" viewBox="0 0 73 73" fill="none" xmlns="http://www.w3.org/2000/svg">
<g clip-path="url(#clip0_0_31)">
<path d="M8.8969 15.6437C13.4708 14.2407 17.4573 18.6036 20.7537 17.5656C25.5728 16.0429 28.3674 15.7349 33.523 17.3318C38.7185 18.9458 44.781 23.4056 49.1895 26.491C53.0733 29.2114 58.1149 33.637 61.4683 37.0475C63.6412 39.2603 63.5842 40.783 63.1564 41.9237C62.6032 43.3951 61.0121 44.1821 59.0559 44.108C58.8506 44.1023 58.6909 44.2905 58.765 44.4844C59.4551 46.4063 58.8164 48.0545 57.8867 48.8758C56.5066 50.0905 54.9268 50.3472 53.1246 49.7027C53.0799 49.6874 53.0319 49.6845 52.9857 49.6943C52.9395 49.7041 52.8968 49.7264 52.8623 49.7586C52.8277 49.7908 52.8025 49.8318 52.7895 49.8772C52.7764 49.9226 52.776 49.9707 52.7882 50.0164C53.176 51.5049 52.714 52.9649 51.4878 53.866C50.1761 54.8241 48.9442 54.7899 46.9596 54.0656C46.7542 53.9915 46.5546 54.1398 46.5432 54.3565C46.4976 55.269 45.779 55.9705 45.357 56.3811C43.5035 58.1947 40.2983 56.9571 37.6178 55.6739C32.3539 53.1588 25.2991 47.8606 20.2404 44.9634C14.3035 41.5644 0.239559 34.0648 0.809871 27.797C1.06651 24.9569 4.66518 17.2234 8.8969 15.6437Z" fill="#FAC036"/>
<mask id="mask0_0_31" style="mask-type:luminance" maskUnits="userSpaceOnUse" x="0" y="15" width="64" height="43">
<path d="M8.8969 15.6437C13.4708 14.2407 17.4573 18.6036 20.7537 17.5656C25.5728 16.0429 28.3674 15.7349 33.523 17.3318C38.7185 18.9458 44.781 23.4056 49.1895 26.491C53.0733 29.2114 58.1149 33.637 61.4683 37.0475C63.6412 39.2603 63.5842 40.783 63.1564 41.9237C62.6032 43.3951 61.0121 44.1821 59.0559 44.108C58.8506 44.1023 58.6909 44.2905 58.765 44.4844C59.4551 46.4063 58.8164 48.0545 57.8867 48.8758C56.5066 50.0905 54.9268 50.3472 53.1246 49.7027C53.0799 49.6874 53.0319 49.6845 52.9857 49.6943C52.9395 49.7041 52.8968 49.7264 52.8623 49.7586C52.8277 49.7908 52.8025 49.8318 52.7895 49.8772C52.7764 49.9226 52.776 49.9707 52.7882 50.0164C53.176 51.5049 52.714 52.9649 51.4878 53.866C50.1761 54.8241 48.9442 54.7899 46.9596 54.0656C46.7542 53.9915 46.5546 54.1398 46.5432 54.3565C46.4976 55.269 45.779 55.9705 45.357 56.3811C43.5035 58.1947 40.2983 56.9571 37.6178 55.6739C32.3539 53.1588 25.2991 47.8606 20.2404 44.9634C14.3035 41.5644 0.239559 34.0648 0.809871 27.797C1.06651 24.9569 4.66518 17.2234 8.8969 15.6437Z" fill="white"/>
</mask>
<g mask="url(#mask0_0_31)">
<path d="M58.8106 34.3842C59.7346 35.4279 60.0596 37.6578 59.0274 39.1748C57.9096 40.8173 56.2442 40.7089 55.7937 41.1595C55.3374 41.6157 55.8165 43.2411 54.1797 44.7011C52.3889 46.2923 50.5183 45.4996 49.9024 45.9843C49.4005 46.3778 49.9936 47.9747 47.815 49.5089C45.568 51.0943 43.589 50.41 43.2354 50.7236C42.6993 51.2027 43.3951 51.9612 41.2735 53.8261C39.1463 55.6911 34.464 52.8908 33.2207 52.4346C32.8728 52.3091 31.9033 52.8623 31.9946 53.2216C32.0402 53.3984 41.1709 59.1528 44.3874 59.2213C47.7637 59.2897 51.2369 58.9532 54.2596 57.4362C55.4116 56.8602 56.4724 56.1245 57.4932 55.3432C60.0596 53.3756 62.4378 51.0145 63.7039 48.0375C64.6221 45.8874 64.9073 43.5206 65.0328 41.1823C65.1354 39.2946 65.0156 37.1274 63.5442 35.9411C62.3637 34.9887 60.2136 34.3157 58.8106 34.3842Z" fill="#E48C15"/>
</g>
<path d="M60.4987 38.0627C63.0879 36.3346 69.3557 32.8842 70.964 28.567C72.0476 25.6584 69.042 23.246 67.4508 21.3297C65.392 18.8603 61.6165 16.9554 58.611 17.6797C56.8145 18.1131 52.9421 19.5047 50.4897 19.4306C47.5013 19.3336 45.9158 19.2253 43.9483 18.923C42.4084 18.6892 40.1557 18.9743 37.3326 19.864C34.4868 20.7594 32.1941 21.7917 29.3311 23.6509C28.2019 24.3866 26.8389 25.6242 26.0975 26.8446C24.974 28.6924 26.4226 31.601 29.2171 31.9717C32.8215 32.4508 36.614 28.5385 40.6804 26.8446C41.8837 26.3428 43.1669 25.6356 44.7695 25.7724C46.5603 25.9321 54.2139 32.0345 60.4987 38.0627Z" fill="#E48C15"/>
<path d="M60.4987 38.0627C63.0879 36.3346 69.3557 32.8842 70.964 28.567C72.0476 25.6584 69.042 23.246 67.4508 21.3297C65.392 18.8603 61.6165 16.9554 58.611 17.6797C56.8145 18.1131 52.9421 19.5047 50.4897 19.4306C47.5013 19.3336 45.9158 19.2253 43.9483 18.923C42.4084 18.6892 40.1557 18.9743 37.3326 19.864C34.4868 20.7594 32.1941 21.7917 29.3311 23.6509C28.2019 24.3866 26.8389 25.6242 26.0975 26.8446C24.974 28.6924 26.4226 31.601 29.2171 31.9717C32.8215 32.4508 36.614 28.5385 40.6804 26.8446C41.8837 26.3428 43.1669 25.6356 44.7695 25.7724C46.5603 25.9321 54.2139 32.0345 60.4987 38.0627V38.0627Z" stroke="#E48C15" stroke-width="4" stroke-miterlimit="10"/>
<path d="M38.3193 48.8987C38.3193 48.8987 38.2965 51.602 37.9315 52.5145C37.5665 53.427 37.3155 54.5391 36.7053 55.2235L37.6805 55.7082C39.266 53.5011 39.6196 52.754 39.6196 51.2712C39.6139 49.6458 38.3193 48.8987 38.3193 48.8987ZM18.8431 39.249C18.8431 39.249 19.7727 40.7604 19.4077 41.6729C19.0427 42.5854 18.8488 43.515 18.2386 44.1993C18.2386 44.1993 18.461 43.9598 18.7519 44.1252C19.0313 44.2849 18.8545 44.6157 18.8545 44.6157L19.7328 43.6233C20.2518 42.9675 20.286 41.9352 20.0465 41.0284C19.7385 39.8536 18.8431 39.249 18.8431 39.249ZM25.5614 41.6843C25.5614 41.6843 25.7724 44.4446 25.4131 45.3571C25.0481 46.2696 24.8542 47.1992 24.244 47.8836C24.244 47.8836 24.5976 47.7011 24.8827 47.8607C25.1622 48.0204 25.0082 48.4653 25.0082 48.4653L26.2743 46.9825C26.7933 46.3266 26.9986 45.1118 26.9016 44.0339C26.7648 42.5169 25.5614 41.6843 25.5614 41.6843ZM33.2549 44.4218C33.2549 44.4218 32.0287 48.5508 31.6637 49.4633C31.2987 50.3758 31.1276 51.3282 30.5174 52.0126C30.5174 52.0126 30.8596 51.7959 31.1448 51.9556C31.4242 52.1153 31.2645 52.5715 31.2645 52.5715L32.8044 50.7807C33.3234 50.1249 34.4184 48.4196 34.4126 46.6973C34.4012 45.0719 33.2549 44.4218 33.2549 44.4218Z" fill="#E48C15"/>
<path d="M38.4448 54.3794C36.4316 56.4781 34.4583 57.864 32.6333 56.1074C30.8368 54.3851 32.1086 52.3319 34.1218 50.2275C36.135 48.123 38.4961 46.7429 40.1215 48.3055C41.7754 49.8967 40.458 52.2806 38.4448 54.3794Z" fill="#E48C15"/>
<path d="M38.4448 54.3794C36.4316 56.4781 34.4583 57.864 32.6333 56.1074C30.8368 54.3851 32.1086 52.3319 34.1218 50.2275C36.135 48.123 38.4961 46.7429 40.1215 48.3055C41.7754 49.8967 40.458 52.2806 38.4448 54.3794Z" stroke="#E48C15" stroke-width="2" stroke-miterlimit="10"/>
<path d="M32.3538 50.8719C29.4281 54.2197 27.4149 55.2747 25.396 53.3414C23.4113 51.4365 25.1565 49.0127 27.5746 46.2866C30.6429 42.8362 32.9698 41.8553 34.7662 43.5719C36.5969 45.3342 35.4677 47.3075 32.3538 50.8719Z" fill="#E48C15"/>
<path d="M32.3538 50.8719C29.4281 54.2197 27.4149 55.2747 25.396 53.3414C23.4113 51.4365 25.1565 49.0127 27.5746 46.2866C30.6429 42.8362 32.9698 41.8553 34.7662 43.5719C36.5969 45.3342 35.4677 47.3075 32.3538 50.8719V50.8719Z" stroke="#E48C15" stroke-width="2" stroke-miterlimit="10"/>
<path d="M25.2078 47.5184C22.995 49.8111 20.8621 51.3452 18.9401 49.4974C17.0524 47.6895 18.5466 45.5395 20.6624 43.1555C22.9779 40.5378 25.4246 39.323 27.1355 40.9598C28.8749 42.6309 27.8997 44.7296 25.2078 47.5184Z" fill="#E48C15"/>
<path d="M25.2078 47.5184C22.995 49.8111 20.8621 51.3452 18.9401 49.4974C17.0524 47.6895 18.5466 45.5395 20.6624 43.1555C22.9779 40.5378 25.4246 39.323 27.1355 40.9598C28.8749 42.6309 27.8997 44.7296 25.2078 47.5184Z" stroke="#E48C15" stroke-width="2" stroke-miterlimit="10"/>
<path d="M18.9629 43.9483C17.1949 45.7905 15.4212 46.9539 13.5506 45.1574C11.7142 43.3951 12.7693 41.5416 14.5372 39.6995C16.3052 37.8574 18.4496 36.7225 20.1149 38.3194C21.8087 39.9448 20.7308 42.1062 18.9629 43.9483Z" fill="#E48C15"/>
<path d="M18.9629 43.9483C17.1949 45.7905 15.4212 46.9539 13.5506 45.1574C11.7142 43.3951 12.7693 41.5416 14.5372 39.6995C16.3052 37.8574 18.4496 36.7225 20.1149 38.3194C21.8087 39.9448 20.7308 42.1062 18.9629 43.9483V43.9483Z" stroke="#E48C15" stroke-width="2" stroke-miterlimit="10"/>
<path d="M61.1432 36.7338C63.818 34.9487 70.3081 31.3786 71.9678 26.9073C73.0856 23.9018 69.9831 21.4038 68.3349 19.4191C66.2076 16.8641 62.301 14.8908 59.187 15.638C57.3278 16.0828 53.3242 17.5257 50.7806 17.4458C47.6838 17.3489 46.0527 17.2348 44.0167 16.9212C42.4199 16.6759 40.093 16.9725 37.173 17.8907C34.2302 18.8146 31.8577 19.8811 28.8977 21.8087C27.7343 22.5673 26.3199 23.8505 25.5557 25.1165C24.398 27.0328 25.8922 30.0383 28.7837 30.4205C32.5135 30.9166 36.4373 26.8674 40.6405 25.1165C41.8838 24.5976 43.2126 23.8676 44.8665 24.0101C46.7257 24.1869 54.6417 30.4946 61.1432 36.7338Z" fill="#FAC036"/>
<path d="M36.8707 55.0465C34.886 57.1111 32.9527 58.4741 31.1562 56.7461C29.3939 55.0522 30.6372 53.0333 32.6219 50.9631C34.6066 48.8986 36.9221 47.5355 38.5189 49.0696C40.15 50.638 38.8554 52.982 36.8707 55.0465Z" fill="#FAC036"/>
<path d="M30.8824 51.5963C28.0023 54.887 26.0233 55.9307 24.0386 54.0258C22.0882 52.1552 23.7991 49.7656 26.183 47.0908C29.2 43.6975 31.4926 42.7279 33.2549 44.4218C35.0514 46.1498 33.945 48.0946 30.8824 51.5963Z" fill="#FAC036"/>
<path d="M23.8505 48.294C21.6719 50.5467 19.5731 52.0524 17.6854 50.2445C15.8319 48.4651 17.2976 46.3492 19.3792 44.0052C21.6605 41.4331 24.0615 40.2355 25.7439 41.8495C27.4606 43.492 26.5024 45.5565 23.8505 48.294Z" fill="#FAC036"/>
<path d="M17.7139 44.7865C15.9745 46.6001 14.2293 47.7408 12.3872 45.9785C10.5793 44.2447 11.6173 42.4197 13.3567 40.6119C15.0962 38.7983 17.2063 37.6862 18.8431 39.2545C20.5142 40.8514 19.4534 42.9729 17.7139 44.7865Z" fill="#FAC036"/>
</g>
<defs>
<clipPath id="clip0_0_31">
<rect width="73" height="73" fill="white"/>
</clipPath>
</defs>
</svg>
