<svg width="38" height="36" viewBox="0 0 38 36" fill="none" xmlns="http://www.w3.org/2000/svg">
<path d="M7.97482 4.00178C7.97429 5.06258 7.55368 6.07973 6.80552 6.82946C6.05736 7.57919 5.04294 8.00009 3.98542 7.99956C2.92789 7.99903 1.91389 7.57711 1.16648 6.82663C0.419065 6.07616 -0.000528264 5.05859 4.99147e-07 3.99778C0.000529262 2.93697 0.421137 1.91982 1.1693 1.17009C1.91745 0.420365 2.93188 -0.000529903 3.9894 5.00695e-07C5.04693 0.000530904 6.06093 0.422443 6.80834 1.17292C7.55575 1.9234 7.97535 2.94097 7.97482 4.00178ZM8.09444 10.9614H0.119623V36H8.09444V10.9614ZM20.6947 10.9614H12.7597V36H20.6149V22.8607C20.6149 15.5411 30.1249 14.8612 30.1249 22.8607V36H38V20.1409C38 7.80157 23.9244 8.26154 20.6149 14.3212L20.6947 10.9614Z" fill="white"/>
</svg>
