<svg width="66" height="66" viewBox="0 0 66 66" fill="none" xmlns="http://www.w3.org/2000/svg">
<circle cx="33" cy="33" r="33" fill="#22314A"/>
<path d="M25.02 15H40.98C47.06 15 52 19.81 52 25.73V41.27C52 44.1158 50.839 46.845 48.7723 48.8573C46.7057 50.8695 43.9027 52 40.98 52H25.02C18.94 52 14 47.19 14 41.27V25.73C14 22.8842 15.161 20.155 17.2277 18.1427C19.2943 16.1305 22.0973 15 25.02 15ZM24.64 18.7C22.8259 18.7 21.0861 19.4017 19.8034 20.6507C18.5206 21.8997 17.8 23.5937 17.8 25.36V41.64C17.8 45.3215 20.859 48.3 24.64 48.3H41.36C43.1741 48.3 44.9139 47.5983 46.1966 46.3493C47.4794 45.1003 48.2 43.4063 48.2 41.64V25.36C48.2 21.6785 45.141 18.7 41.36 18.7H24.64ZM42.975 21.475C43.6049 21.475 44.209 21.7186 44.6544 22.1523C45.0998 22.586 45.35 23.1742 45.35 23.7875C45.35 24.4008 45.0998 24.989 44.6544 25.4227C44.209 25.8564 43.6049 26.1 42.975 26.1C42.3451 26.1 41.741 25.8564 41.2956 25.4227C40.8502 24.989 40.6 24.4008 40.6 23.7875C40.6 23.1742 40.8502 22.586 41.2956 22.1523C41.741 21.7186 42.3451 21.475 42.975 21.475ZM33 24.25C35.5196 24.25 37.9359 25.2246 39.7175 26.9593C41.4991 28.694 42.5 31.0467 42.5 33.5C42.5 35.9533 41.4991 38.306 39.7175 40.0407C37.9359 41.7754 35.5196 42.75 33 42.75C30.4804 42.75 28.0641 41.7754 26.2825 40.0407C24.5009 38.306 23.5 35.9533 23.5 33.5C23.5 31.0467 24.5009 28.694 26.2825 26.9593C28.0641 25.2246 30.4804 24.25 33 24.25ZM33 27.95C31.4883 27.95 30.0384 28.5347 28.9695 29.5756C27.9005 30.6164 27.3 32.028 27.3 33.5C27.3 34.972 27.9005 36.3836 28.9695 37.4244C30.0384 38.4653 31.4883 39.05 33 39.05C34.5117 39.05 35.9616 38.4653 37.0305 37.4244C38.0995 36.3836 38.7 34.972 38.7 33.5C38.7 32.028 38.0995 30.6164 37.0305 29.5756C35.9616 28.5347 34.5117 27.95 33 27.95Z" fill="#235B62"/>
</svg>
