<svg width="66" height="66" viewBox="0 0 66 66" fill="none" xmlns="http://www.w3.org/2000/svg">
<circle cx="33" cy="33" r="33" fill="#22314A"/>
<path d="M23.1354 20.5571C23.1349 21.5001 22.7586 22.4042 22.0892 23.0706C21.4197 23.7371 20.5121 24.1112 19.5659 24.1107C18.6197 24.1102 17.7124 23.7352 17.0437 23.0681C16.375 22.401 15.9995 21.4965 16 20.5536C16.0005 19.6106 16.3768 18.7065 17.0462 18.0401C17.7156 17.3737 18.6233 16.9995 19.5695 17C20.5157 17.0005 21.4229 17.3755 22.0917 18.0426C22.7604 18.7097 23.1358 19.6142 23.1354 20.5571ZM23.2424 26.7435H16.107V49H23.2424V26.7435ZM34.5163 26.7435H27.4166V49H34.4449V37.3207C34.4449 30.8143 42.9538 30.2099 42.9538 37.3207V49H50V34.903C50 23.9347 37.4061 24.3436 34.4449 29.73L34.5163 26.7435Z" fill="#235B62"/>
</svg>
