<svg width="44" height="42" viewBox="0 0 44 42" fill="none" xmlns="http://www.w3.org/2000/svg">
<path d="M22.2876 0C19.471 0 16.6819 0.556667 14.0797 1.63822C11.4774 2.71977 9.11296 4.30502 7.12129 6.30346C3.09894 10.3395 0.839203 15.8135 0.839203 21.5214C0.839203 31.0338 6.99489 39.1043 15.5099 41.9667C16.5823 42.1388 16.9255 41.4717 16.9255 40.8906V37.2535C10.9843 38.5448 9.71884 34.3696 9.71884 34.3696C8.73221 31.8731 7.33807 31.206 7.33807 31.206C5.38626 29.8717 7.48821 29.9147 7.48821 29.9147C9.63305 30.0653 10.7698 32.1314 10.7698 32.1314C12.6358 35.4026 15.7887 34.4342 17.0113 33.9177C17.2043 32.5188 17.762 31.5718 18.3625 31.0338C13.601 30.4958 8.60352 28.6449 8.60352 20.4453C8.60352 18.0564 9.41856 16.141 10.8127 14.613C10.5982 14.075 9.84753 11.8368 11.0272 8.93137C11.0272 8.93137 12.8289 8.35029 16.9255 11.1265C18.6199 10.6531 20.4645 10.4163 22.2876 10.4163C24.1107 10.4163 25.9553 10.6531 27.6497 11.1265C31.7463 8.35029 33.548 8.93137 33.548 8.93137C34.7277 11.8368 33.977 14.075 33.7625 14.613C35.1566 16.141 35.9717 18.0564 35.9717 20.4453C35.9717 28.6665 30.9528 30.4743 26.1698 31.0123C26.9419 31.6794 27.6497 32.9923 27.6497 34.9937V40.8906C27.6497 41.4717 27.9929 42.1604 29.0867 41.9667C37.6018 39.0828 43.736 31.0338 43.736 21.5214C43.736 18.6951 43.1812 15.8966 42.1033 13.2855C41.0255 10.6744 39.4456 8.30191 37.4539 6.30346C35.4622 4.30502 33.0978 2.71977 30.4956 1.63822C27.8933 0.556667 25.1042 0 22.2876 0Z" fill="black"/>
</svg>
