<svg width="96" height="96" viewBox="0 0 96 96" fill="none" xmlns="http://www.w3.org/2000/svg">
<path d="M38.775 68.7375C39.0075 68.5875 39.285 68.52 39.5175 68.3325C39.5775 68.28 39.63 68.2275 39.69 68.175C39.69 68.1675 39.69 68.16 39.6825 68.1525C39.405 67.3125 40.3275 66.8175 40.9575 66.4425C41.205 66.3075 41.475 66.255 41.7225 66.0825C42.0225 65.8725 42.2775 65.61 42.5925 65.415C43.0425 65.145 43.5525 65.1075 43.995 64.845C44.505 64.53 44.835 64.005 45.3675 63.7725C46.275 63.3675 47.2125 63.06 48.105 62.655C48.2025 62.5725 48.3 62.5275 48.39 62.5275C48.48 62.4825 48.5775 62.4525 48.66 62.4075C49.2825 62.085 49.785 61.71 50.265 61.185C50.4075 61.02 50.79 60.6 51 60.75C51.435 61.08 51.285 62.6775 51.2775 63.1575C51.2775 63.675 51.285 64.1925 51.2925 64.7025C51.42 70.845 52.17 76.5225 52.635 81.8925C52.6875 82.5225 52.7475 83.1525 52.8 83.775C52.8225 84.0975 52.7625 84.1875 52.695 84.465C52.6425 84.6975 52.7475 84.945 52.59 85.155C52.3425 85.5 51.9225 85.8825 51.585 86.16C51.54 86.1975 51.4875 86.235 51.435 86.2725C51.4425 86.46 51.4875 86.64 51.375 86.8125C51.1425 87.1725 50.7375 87.57 50.4225 87.87C49.5525 88.6875 48.5925 89.37 47.5875 90.0075C46.9425 90.42 46.2375 90.8625 45.6675 91.3725C45.0375 91.9425 44.13 92.8425 43.845 91.6575C43.5825 90.6 43.29 89.5425 43.0125 88.4625C42.3975 86.13 41.79 83.7225 40.98 81.3075C39.8925 78.06 38.745 74.79 37.8975 71.475C37.8225 71.1675 37.7025 70.8225 37.5825 70.53C37.26 69.69 38.16 69.1425 38.775 68.7375Z" fill="#ED6C30"/>
<path d="M45.5775 93.1575C47.7525 91.455 48.54 90.6825 50.1825 89.07C51.705 87.585 55.2825 84.1425 56.94 81.9075C57.8775 80.6325 58.3875 79.8225 57.555 78.63C57.2325 78.1725 56.58 78.1125 56.0625 78.2175C55.275 78.3825 54.66 78.8025 54.015 79.29C52.0575 80.775 48.2025 84.0525 46.3875 85.695C45.5775 86.43 44.55 87.5175 43.7775 88.305C41.67 90.4575 40.215 92.7 41.5875 94.0125C42.8325 95.1825 44.58 93.9375 45.5775 93.1575Z" fill="#ED6C30"/>
<path d="M26.1375 56.5201C26.2875 56.2876 26.355 56.0101 26.5425 55.7701C26.595 55.7101 26.6475 55.6576 26.7 55.5976C26.7075 55.6051 26.7225 55.6051 26.73 55.6051C27.57 55.8901 28.065 54.9601 28.44 54.3226C28.575 54.0826 28.6275 53.8051 28.8075 53.5576C29.0175 53.2576 29.28 53.0026 29.4675 52.6876C29.7375 52.2376 29.7825 51.7276 30.045 51.2851C30.3525 50.7751 30.8775 50.4526 31.1175 49.9126C31.5225 49.0051 31.83 48.0751 32.235 47.1751C32.3175 47.0776 32.3625 46.9726 32.3625 46.8826C32.4075 46.7926 32.4375 46.6951 32.4825 46.6126C32.805 45.9976 33.18 45.4876 33.705 45.0076C33.8625 44.8726 34.2825 44.4901 34.1325 44.2876C33.81 43.8526 32.205 44.0026 31.725 44.0101C31.2075 44.0101 30.69 43.9951 30.1875 43.9876C24.0525 43.8601 18.375 43.1101 12.9975 42.6526C12.3675 42.6001 11.7375 42.5326 11.115 42.4876C10.8 42.4576 10.7025 42.5251 10.4325 42.5851C10.2 42.6376 9.9525 42.5326 9.7425 42.6901C9.39 42.9451 9.015 43.3651 8.7375 43.6951C8.7 43.7401 8.6625 43.7926 8.625 43.8526C8.445 43.8376 8.2575 43.7926 8.085 43.9126C7.725 44.1526 7.3275 44.5501 7.035 44.8651C6.2175 45.7426 5.535 46.7026 4.89 47.7001C4.4775 48.3451 4.035 49.0501 3.525 49.6201C2.94 50.2501 2.04 51.1501 3.225 51.4426C4.275 51.7051 5.3325 51.9976 6.42 52.2751C8.7525 52.8901 11.1525 53.4976 13.5825 54.3076C16.83 55.3876 20.0925 56.5426 23.415 57.3826C23.7225 57.4651 24.06 57.5776 24.3675 57.6976C25.1775 58.0276 25.725 57.1276 26.1375 56.5201Z" fill="#ED6C30"/>
<path d="M1.71749 49.7101C3.41249 47.5351 4.19249 46.7476 5.79749 45.1051C7.28999 43.5826 10.725 40.0126 12.9675 38.3551C14.2425 37.4101 15.0525 36.9076 16.245 37.7401C16.7025 38.0551 16.77 38.7151 16.6575 39.2326C16.4925 40.0126 16.0725 40.6276 15.585 41.2726C14.0925 43.2301 10.8225 47.0851 9.17999 48.9001C8.44499 49.7101 7.34999 50.7451 6.56999 51.5101C4.41749 53.6176 2.17499 55.0726 0.869993 53.7001C-0.307507 52.4551 0.937493 50.7151 1.71749 49.7101Z" fill="#ED6C30"/>
<path d="M78.5625 18.69C77.835 17.9475 78.0075 16.6125 78.96 15.7125C81.645 13.3125 84.3675 10.8675 87.12 8.41502C87.5475 8.02502 87.8775 7.59002 88.3275 7.24502C89.205 6.57752 90.0675 5.85002 90.9 5.10752C91.635 4.44752 92.37 3.55502 93.2925 3.17252C94.005 2.88002 95.1075 2.97752 95.46 3.55502C96.1575 4.66502 94.26 6.45752 93.3375 7.26002C91.5975 8.76002 89.985 10.4025 88.3425 12C86.0925 14.19 83.8725 16.3575 81.615 18.4575C80.6625 19.3425 79.2975 19.4475 78.5625 18.69Z" fill="#ED6C30"/>
<path d="M48.645 25.7925C50.7225 23.9175 52.8825 22.14 55.1175 20.475C56.8125 19.2225 58.365 18.1725 59.6025 17.4C61.635 16.125 63.735 14.9475 65.8875 13.875C68.655 12.495 71.3625 11.4 73.965 10.56C76.8075 9.63746 79.785 8.89496 82.335 8.60246C84.15 8.39246 85.9875 8.39246 87.285 9.11996C88.7325 9.92246 89.37 11.97 89.2725 13.8825C89.0775 17.565 87.9825 21.765 86.175 26.085C85.3069 28.1851 84.2893 30.2204 83.13 32.175C73.9575 47.64 59.1675 59.49 43.2075 68.07C41.565 68.94 39.7875 69.6525 38.0775 70.6725C38.01 70.7175 37.935 70.7325 37.86 70.7775C37.4925 70.9575 37.2675 71.0475 37.215 71.0325C34.455 72.0225 30.48 70.8225 27.3975 67.6575C24.285 64.5075 23.1975 60.5625 24.2775 57.8025C24.2775 57.8025 24.3825 57.6 24.5775 57.2325C30.7875 45.66 38.805 34.65 48.645 25.7925Z" fill="#78A3AD"/>
<mask id="mask0_0_57" style="mask-type:luminance" maskUnits="userSpaceOnUse" x="23" y="8" width="67" height="64">
<path d="M48.645 25.7925C50.7225 23.9175 52.8825 22.14 55.1175 20.475C56.8125 19.2225 58.365 18.1725 59.6025 17.4C61.635 16.125 63.735 14.9475 65.8875 13.875C68.655 12.495 71.3625 11.4 73.965 10.56C76.8075 9.63746 79.785 8.89496 82.335 8.60246C84.15 8.39246 85.9875 8.39246 87.285 9.11996C88.7325 9.92246 89.37 11.97 89.2725 13.8825C89.0775 17.565 87.9825 21.765 86.175 26.085C85.3069 28.1851 84.2893 30.2204 83.13 32.175C73.9575 47.64 59.1675 59.49 43.2075 68.07C41.565 68.94 39.7875 69.6525 38.0775 70.6725C38.01 70.7175 37.935 70.7325 37.86 70.7775C37.4925 70.9575 37.2675 71.0475 37.215 71.0325C34.455 72.0225 30.48 70.8225 27.3975 67.6575C24.285 64.5075 23.1975 60.5625 24.2775 57.8025C24.2775 57.8025 24.3825 57.6 24.5775 57.2325C30.7875 45.66 38.805 34.65 48.645 25.7925Z" fill="white"/>
</mask>
<g mask="url(#mask0_0_57)">
<path d="M89.7225 22.6425C89.8125 22.2075 89.8575 21.7425 89.97 21.3975C90.5925 19.395 90.93 17.43 90.9675 15.36C90.9975 13.575 90.6975 11.685 90.135 10.0125C89.7075 8.72249 88.815 6.83249 87.5025 6.35999C85.9425 5.79749 84.345 5.96249 82.7175 6.08249C81.2175 6.19499 79.68 6.23249 78.2625 6.61499C76.815 6.99749 75.3825 7.85249 74.28 8.84999C73.8825 9.20999 73.095 9.88499 73.0125 10.4475C72.9075 11.145 73.7175 12.27 74.0325 12.8775C74.8575 14.4675 76.2675 15.645 77.385 17.025C78.9 18.93 80.6625 20.205 82.7175 21.54C83.88 22.29 85.02 23.1075 86.28 23.67C86.9625 23.9775 88.575 24.2625 89.205 23.73C89.4975 23.4675 89.6325 23.07 89.7225 22.6425Z" fill="#ED6C30"/>
</g>
<path d="M64.9125 26.235C64.5423 26.5802 64.2439 26.9951 64.0345 27.4558C63.825 27.9166 63.7086 28.4142 63.6919 28.9201C63.6751 29.426 63.7584 29.9302 63.937 30.4038C64.1156 30.8774 64.3859 31.3111 64.7325 31.68C65.0782 32.0496 65.4935 32.3474 65.9545 32.5562C66.4156 32.765 66.9133 32.8808 67.4192 32.8968C67.925 32.9128 68.4291 32.8288 68.9024 32.6496C69.3758 32.4704 69.8091 32.1995 70.1775 31.8525C70.548 31.5065 70.8465 31.0907 71.0558 30.629C71.2651 30.1673 71.3811 29.6688 71.3971 29.1621C71.4131 28.6554 71.3289 28.1505 71.1492 27.6765C70.9695 27.2025 70.6979 26.7687 70.35 26.4C68.91 24.8475 66.4725 24.7725 64.9125 26.235Z" fill="white"/>
<path d="M59.9695 41.4489C61.5222 39.9922 61.6001 37.5526 60.1434 35.9999C58.6867 34.4471 56.2471 34.3693 54.6944 35.8259C53.1417 37.2826 53.0638 39.7222 54.5205 41.275C55.9772 42.8277 58.4168 42.9056 59.9695 41.4489Z" fill="white"/>
<path d="M44.4675 45.4125C42.9225 46.8675 42.8325 49.305 44.295 50.8575C44.9946 51.6036 45.9617 52.0416 46.984 52.0753C48.0063 52.1091 49.0002 51.7358 49.7475 51.0375C51.3 49.575 51.375 47.1375 49.92 45.585C49.2193 44.8399 48.2517 44.4033 47.2294 44.371C46.2072 44.3386 45.2138 44.7132 44.4675 45.4125Z" fill="white"/>
<path d="M24 73.395C26.1675 71.6925 26.955 70.9125 28.605 69.3075C30.1275 67.8225 33.6975 64.38 35.355 62.1375C36.3 60.8625 36.795 60.0525 35.97 58.86C35.6475 58.4025 34.995 58.3425 34.4775 58.4475C33.6975 58.605 33.0825 59.0325 32.43 59.52C30.4725 61.005 26.6175 64.275 24.8025 65.925C23.9925 66.66 22.9575 67.7475 22.1925 68.535C20.0925 70.6875 18.63 72.93 20.0025 74.235C21.2475 75.42 23.0025 74.175 24 73.395Z" fill="#ED6C30"/>
</svg>
