<svg width="90" height="90" viewBox="0 0 90 90" fill="none" xmlns="http://www.w3.org/2000/svg">
<path d="M84.375 61.875H5.625C4.07109 61.875 2.8125 60.6164 2.8125 59.0625V8.4375C2.8125 6.88359 4.07109 5.625 5.625 5.625H84.375C85.9289 5.625 87.1875 6.88359 87.1875 8.4375V59.0625C87.1875 60.6164 85.9289 61.875 84.375 61.875Z" fill="url(#paint0_linear_0_77)"/>
<path opacity="0.3" d="M84.375 61.875H5.625C4.07109 61.875 2.8125 60.6164 2.8125 59.0625V8.4375C2.8125 6.88359 4.07109 5.625 5.625 5.625H84.375C85.9289 5.625 87.1875 6.88359 87.1875 8.4375V59.0625C87.1875 60.6164 85.9289 61.875 84.375 61.875Z" fill="url(#paint1_linear_0_77)"/>
<path opacity="0.3" d="M84.2555 61.875H5.50549C3.95159 61.875 2.69299 60.6164 2.69299 59.0625V8.4375C2.69299 6.88359 3.95159 5.625 5.50549 5.625H84.2555C85.8094 5.625 87.068 6.88359 87.068 8.4375V59.0625C87.068 60.6164 85.8094 61.875 84.2555 61.875Z" fill="url(#paint2_linear_0_77)"/>
<path d="M8.4375 11.25H25.3125V14.0625H8.4375V11.25ZM60.4688 11.25H71.7188V14.0625H60.4688V11.25ZM75.9375 11.25H81.5625V14.0625H75.9375V11.25ZM14.0625 19.6875H19.6875V22.5H14.0625V19.6875ZM8.4375 28.125H19.6875V30.9375H8.4375V28.125ZM8.4375 36.5625H14.0625V39.375H8.4375V36.5625ZM68.9062 36.5625H77.3438V39.375H68.9062V36.5625ZM73.125 28.125H81.5625V30.9375H73.125V28.125ZM8.4375 45H19.6875V47.8125H8.4375V45ZM67.5 45H81.5625V47.8125H67.5V45ZM70.3125 19.6875H78.75V22.5H70.3125V19.6875Z" fill="#76FF03"/>
<path d="M69.5391 56.0813C68.6602 54.4852 69.7781 52.861 71.6907 50.85C74.7211 47.6578 78.0188 40.2539 74.9531 32.7375C74.9742 32.6953 74.3485 31.4297 74.3696 31.3875L73.111 31.3242C72.7102 31.268 58.8657 31.2399 45.0071 31.2399C31.1485 31.2399 17.3039 31.268 16.9032 31.3242C16.9032 31.3242 15.0399 32.6953 15.0539 32.7375C11.9953 40.2539 15.286 47.6578 18.3164 50.85C20.2219 52.861 21.3399 54.4852 20.468 56.0813C19.6172 57.6352 17.086 57.8602 17.086 57.8602C17.086 57.8602 17.6696 59.4492 19.0758 60.3071C20.3766 61.1016 21.9797 61.2844 23.0836 61.3125C23.0836 61.3125 27.4078 67.2961 38.7141 67.2961H51.3C62.6063 67.2961 66.9305 61.3125 66.9305 61.3125C68.0344 61.2844 69.6375 61.1016 70.9383 60.3071C72.3446 59.4492 72.9282 57.8602 72.9282 57.8602C72.9282 57.8602 70.3899 57.6282 69.5391 56.0813Z" fill="#543930"/>
<path d="M44.993 67.2891V60.6516L65.0813 59.0625L66.9094 61.3125C66.9094 61.3125 62.5852 67.2961 51.2789 67.2961L44.993 67.2891Z" fill="url(#paint3_radial_0_77)"/>
<path d="M66.8672 58.4085C63.8578 53.8382 70.5305 52.1296 70.5305 52.1296L70.5375 52.1367C69.3774 53.5781 68.85 54.8367 69.532 56.0812C70.3828 57.6351 72.9141 57.8601 72.9141 57.8601C72.9141 57.8601 69.4617 60.9257 66.8672 58.4085Z" fill="url(#paint4_radial_0_77)"/>
<path d="M74.9672 32.7375C77.9555 40.0148 74.8125 47.5102 71.8664 50.6742C71.4656 51.1102 69.75 52.7906 69.3562 54.1336C69.3562 54.1336 62.6484 44.775 60.6445 39.2766C60.2437 38.1656 59.8711 37.0266 59.8219 35.8453C59.7867 34.9594 59.9203 33.9047 60.4336 33.1523C61.0594 32.2313 74.6086 31.957 74.6086 31.957C74.6086 31.9641 74.9672 32.7375 74.9672 32.7375Z" fill="url(#paint5_radial_0_77)"/>
<path d="M15.0469 32.7375C12.0586 40.0148 15.2016 47.5102 18.1476 50.6742C18.5555 51.1102 20.2641 52.7906 20.6578 54.1336C20.6578 54.1336 27.3656 44.775 29.3695 39.2766C29.7773 38.1656 30.143 37.0266 30.1922 35.8453C30.2273 34.9594 30.0937 33.9047 29.5805 33.1523C28.9547 32.2313 28.2234 32.4773 27.1617 32.4773C25.1367 32.4773 16.2703 31.957 15.5812 31.957C15.5883 31.9641 15.0469 32.7375 15.0469 32.7375Z" fill="url(#paint6_radial_0_77)"/>
<path d="M45.0211 67.2891V60.6516L24.9328 59.0625L23.1047 61.3125C23.1047 61.3125 27.4289 67.2961 38.7351 67.2961L45.0211 67.2891Z" fill="url(#paint7_radial_0_77)"/>
<path d="M23.1468 58.4085C26.1562 53.8382 19.4836 52.1296 19.4836 52.1296L19.4765 52.1367C20.6367 53.5781 21.164 54.8367 20.482 56.0812C19.6312 57.6351 17.1 57.8601 17.1 57.8601C17.1 57.8601 20.5523 60.9257 23.1468 58.4085Z" fill="url(#paint8_radial_0_77)"/>
<path d="M64.2164 35.3953H25.7836C21.6422 35.3953 18.2531 39.0023 18.2531 43.4179C18.2531 47.8335 21.6422 51.4406 25.7836 51.4406H64.2094C68.3508 51.4406 71.7398 47.8265 71.7398 43.4179C71.7469 39.0093 68.3578 35.3953 64.2164 35.3953Z" fill="#99674F"/>
<path d="M45 7.72034C32.7656 7.72034 21.4313 20.8055 21.4313 39.6422C21.4313 58.3735 33.1102 67.6336 45 67.6336C56.8899 67.6336 68.5688 58.3735 68.5688 39.6422C68.5688 20.8055 57.2344 7.72034 45 7.72034Z" fill="#BA8D68"/>
<path d="M38.5313 34.9594C37.8774 34.0946 36.3727 32.843 33.4477 32.843C30.5227 32.843 29.0109 34.1016 28.3641 34.9594C28.0758 35.3391 28.1461 35.7821 28.35 36.0493C28.5328 36.2954 29.0813 36.5274 29.6859 36.3235C30.2906 36.1196 31.4719 35.5079 33.4477 35.4938C35.4234 35.5079 36.6047 36.1196 37.2094 36.3235C37.8141 36.5274 38.3625 36.3024 38.5453 36.0493C38.7422 35.7891 38.8195 35.3461 38.5313 34.9594ZM61.643 34.9594C60.9891 34.0946 59.4844 32.843 56.5594 32.843C53.6344 32.843 52.1227 34.1016 51.4758 34.9594C51.1875 35.3391 51.2578 35.7821 51.4617 36.0493C51.6445 36.2954 52.193 36.5274 52.7977 36.3235C53.4024 36.1196 54.5836 35.5079 56.5594 35.4938C58.5352 35.5079 59.7164 36.1196 60.3211 36.3235C60.9258 36.5274 61.4742 36.3024 61.657 36.0493C61.8539 35.7891 61.9313 35.3461 61.643 34.9594Z" fill="#613E31"/>
<path d="M33.4406 44.8734C35.3551 44.8734 36.9071 43.2679 36.9071 41.2875C36.9071 39.307 35.3551 37.7015 33.4406 37.7015C31.5262 37.7015 29.9742 39.307 29.9742 41.2875C29.9742 43.2679 31.5262 44.8734 33.4406 44.8734Z" fill="#49362E"/>
<path d="M56.5594 44.8734C58.4739 44.8734 60.0258 43.2679 60.0258 41.2875C60.0258 39.307 58.4739 37.7015 56.5594 37.7015C54.645 37.7015 53.093 39.307 53.093 41.2875C53.093 43.2679 54.645 44.8734 56.5594 44.8734Z" fill="#49362E"/>
<path d="M50.9203 53.4727C48.6844 54.8016 41.3367 54.8016 39.1008 53.4727C37.8141 52.7063 36.4992 53.8805 37.0336 55.0477C37.5609 56.1938 41.5617 58.8587 45.0281 58.8587C48.4945 58.8587 52.4461 56.1938 52.9734 55.0477C53.5008 53.8805 52.207 52.7063 50.9203 53.4727Z" fill="#5D4037"/>
<path d="M47.7141 47.7844C47.6367 47.7563 47.5664 47.7352 47.4891 47.7281H42.5109C42.4336 47.7352 42.3562 47.7563 42.2859 47.7844C41.8359 47.9672 41.5898 48.4313 41.8008 48.9305C42.0117 49.4297 43.0031 50.8219 45 50.8219C46.9969 50.8219 47.9883 49.4227 48.1992 48.9305C48.4102 48.4383 48.1641 47.9672 47.7141 47.7844Z" fill="#99674F"/>
<path d="M73.1742 17.5922C71.4586 14.9976 67.6125 11.5172 64.1602 11.2851C63.6047 7.96638 60.0539 5.15388 56.6156 4.06404C47.3133 1.11795 41.2594 4.42263 38.0109 6.19451C37.3359 6.56013 32.9695 8.98592 29.918 7.2492C28.0055 6.15935 28.0406 3.21326 28.0406 3.21326C28.0406 3.21326 22.05 5.49842 24.0961 11.8617C22.0359 11.9461 19.3359 12.8179 17.9086 15.7078C16.207 19.1531 16.8117 22.0289 17.3039 23.407C15.532 24.9117 13.3031 28.1109 14.8289 32.2664C15.982 35.3953 20.5734 36.8367 20.5734 36.8367C20.1375 44.3883 22.1766 48.0515 22.1766 48.0515C22.1766 48.0515 25.4742 35.0789 25.2 33.0961C25.2 33.0961 30.6562 32.0133 36.8508 28.4695C41.0344 26.0719 43.8961 23.2664 48.6 22.2047C55.7578 20.5945 57.3539 25.7765 57.3539 25.7765C57.3539 25.7765 63.9773 24.5039 65.9742 33.7008C66.7969 37.4836 67.3312 43.7554 67.7812 47.6015C67.7391 47.264 70.0594 43.1508 70.4953 38.932C70.6078 37.8422 73.5469 36.4008 74.8125 31.7179C76.493 25.4742 74.4187 19.4695 73.1742 17.5922Z" fill="#543930"/>
<path d="M70.4672 38.9601C70.5797 37.8703 73.5187 36.4289 74.7844 31.746C74.9179 31.2468 75.0304 30.7406 75.1359 30.2343C76.1625 24.546 74.3203 19.3218 73.1742 17.5921C71.5851 15.1945 68.182 12.0445 64.9547 11.3976C64.6734 11.3625 64.3992 11.3273 64.139 11.3132C64.139 11.3132 64.3711 12.825 63.7594 14.0273C62.9719 15.5882 61.3617 15.9609 61.3617 15.9609C69.7781 24.3773 69.1804 31.4296 70.4672 38.9601Z" fill="url(#paint9_radial_0_77)"/>
<path d="M40.043 5.13276C39.2696 5.50542 38.5946 5.87808 38.0039 6.19448C37.3289 6.56011 32.9625 8.98589 29.911 7.24917C28.0336 6.18042 28.0336 3.32573 28.0336 3.22729C27.1688 4.3312 24.5531 12.2132 32.2031 12.7406C35.5008 12.9656 37.5328 10.0898 38.7422 7.65698C39.1781 6.76401 39.8602 5.47729 40.043 5.13276Z" fill="url(#paint10_radial_0_77)"/>
<path d="M55.6594 3.78287C60.8063 5.17505 63.5555 7.91021 64.1531 11.2922C64.336 12.3329 64.6946 21.8954 46.4133 11.011C39.6141 6.96099 41.4703 4.42974 42.2649 4.14146C45.3727 3.01646 49.8938 2.22193 55.6594 3.78287Z" fill="url(#paint11_radial_0_77)"/>
<path d="M28.0125 3.22737C28.0055 3.2344 27.9914 3.2344 27.9703 3.24846H27.9633C27.3094 3.52268 22.1695 5.90627 24.0891 11.8688L29.5594 12.7477C24.7149 7.83987 28.0336 3.22034 28.0336 3.22034C28.0336 3.22034 28.0195 3.22034 28.0125 3.22737Z" fill="url(#paint12_radial_0_77)"/>
<path d="M27.4711 12.4031L24.0891 11.8617C23.9555 11.8617 23.5055 11.9039 23.2594 11.939C21.3539 12.2062 19.111 13.1906 17.8945 15.7078C16.5867 18.4219 16.6219 20.7492 16.9805 22.3031C17.086 22.8234 17.2969 23.414 17.2969 23.414C17.2969 23.414 18.9703 21.825 22.957 21.7195L27.4711 12.4031Z" fill="url(#paint13_radial_0_77)"/>
<path d="M17.1352 23.5476C15.4688 25.0242 13.2258 28.3218 14.8781 32.414C16.1227 35.5007 20.5664 36.8367 20.5664 36.8367C20.5664 36.8507 21.4524 37.1179 21.9094 37.1179L22.95 21.7195C20.8196 21.7195 18.7735 22.3593 17.4516 23.2804C17.4727 23.3015 17.1281 23.5265 17.1352 23.5476Z" fill="url(#paint14_radial_0_77)"/>
<path d="M5.36487 87.1735H14.386C15.1735 87.1102 15.7992 86.3438 15.7992 85.4016V84.9446C15.7992 82.4274 14.6672 80.2266 12.9727 79.0032C12.9727 79.1086 12.9797 79.2141 12.9797 79.3196C12.9797 82.2024 11.5875 84.5368 9.87893 84.5368C8.17033 84.5368 6.77815 82.2024 6.77815 79.3196C6.77815 79.2141 6.78518 79.1086 6.78518 79.0032C5.09065 80.2336 3.95862 82.4274 3.95862 84.9446V85.4016C3.95158 86.3508 4.57737 87.1102 5.36487 87.1735Z" fill="url(#paint15_linear_0_77)"/>
<path d="M9.87888 84.5437C16.207 84.5437 12.9797 82.2093 12.9797 79.3265C12.9797 79.221 12.9726 79.1156 12.9726 79.0101C12.0726 78.3562 11.0109 77.9695 9.87888 77.9695C8.74685 77.9695 7.68513 78.3562 6.78513 79.0101C6.7781 79.1156 6.7781 79.221 6.7781 79.3265C6.77106 82.2093 3.5156 84.5437 9.87888 84.5437Z" fill="#E14301"/>
<path d="M19.6734 75.0938C19.5961 73.0969 18.1055 68.9766 16.1578 68.6321C16.1002 68.6246 16.0447 68.605 15.9951 68.5747C15.9454 68.5445 15.9026 68.5041 15.8695 68.4563C15.5602 67.9852 14.5688 66.7196 12.7547 67.718C12.0797 68.0907 11.8406 68.4212 11.9531 68.8993C11.8688 68.9977 11.7141 69.1172 11.4891 69.0258C10.7578 68.2102 9.85782 68.0415 8.81016 68.8571C7.62188 69.7852 7.62188 70.4462 7.83282 71.1001L7.82579 71.1071C7.82579 71.1071 7.77657 71.5641 7.43204 71.529C7.07344 71.2196 6.64454 71.2196 5.96251 71.7118C4.13438 73.0336 4.88673 74.2852 5.1961 75.0235C5.15391 75.0938 5.0836 75.143 4.9711 75.136C4.73204 75.0094 4.42969 75.0094 4.02188 75.2415C3.05157 75.7969 3.19219 77.6251 3.46641 78.2227C3.76876 78.8766 5.43516 81.1688 6.00469 81.8157C6.13829 81.9633 6.30001 82.0688 6.47579 82.1391C6.45662 82.1333 6.43783 82.1262 6.41954 82.118C6.91876 82.4274 7.79063 82.8001 8.64141 82.2727C8.64141 82.2727 9.18282 81.879 9.23204 81.4641C10.1531 81.9774 11.4258 81.0212 11.4258 81.0212C12.0234 80.5641 12.1781 80.0508 12.157 79.6079C12.4594 79.7907 12.7899 79.861 13.1063 79.868C14.0625 79.8961 14.9414 79.3337 14.9414 79.3337C16.3125 78.5532 16.5867 77.7376 16.5797 77.1962C17.2899 77.6391 18.1688 77.3086 18.1688 77.3086C19.7227 76.6055 19.6734 75.0938 19.6734 75.0938Z" fill="url(#paint16_linear_0_77)"/>
<path d="M75.9094 87.1734H84.9375C84.9375 87.1734 85.3313 80.2898 74.2781 79.9593C63.218 79.6359 75.9094 87.1734 75.9094 87.1734Z" fill="url(#paint17_linear_0_77)"/>
<path d="M69.9328 78.4969C70.0101 76.5 71.5008 72.3797 73.4484 72.0352C73.5679 72.0141 73.6734 71.9578 73.7367 71.8594C74.0461 71.3883 75.0375 70.1227 76.8515 71.1211C77.5265 71.4938 77.7656 71.8242 77.6531 72.3024C77.7375 72.4008 77.8922 72.5203 78.1172 72.4289C78.8484 71.6133 79.7484 71.4445 80.7961 72.2602C81.9844 73.1883 81.9844 73.8492 81.7734 74.5031L81.7804 74.5102C81.7804 74.5102 81.8297 74.9672 82.1742 74.932C82.5328 74.6227 82.9617 74.6227 83.6437 75.1149C85.4719 76.4367 84.7195 77.6883 84.4101 78.4266C84.4523 78.4969 84.5156 78.5461 84.6351 78.5391C84.8742 78.4125 85.1765 78.4125 85.5844 78.6445C86.5547 79.2 86.414 81.0281 86.1398 81.6258C85.8375 82.2797 84.1781 84.5719 83.6015 85.2188C83.4679 85.3664 83.3062 85.4719 83.1305 85.5422C83.1515 85.5352 83.1726 85.5281 83.1867 85.5211C82.6875 85.8305 81.8156 86.2031 80.9648 85.6758C80.9648 85.6758 80.4234 85.282 80.3742 84.8672C79.4531 85.3805 78.1805 84.4242 78.1805 84.4242C77.5828 83.9672 77.4281 83.4539 77.4492 83.0109C77.1469 83.1938 76.8164 83.2641 76.5 83.2711C75.5437 83.2992 74.6648 82.7367 74.6648 82.7367C73.2937 81.9563 73.0195 81.1406 73.0265 80.5992C72.3164 81.0422 71.4375 80.7117 71.4375 80.7117C69.8836 80.0086 69.9328 78.4969 69.9328 78.4969Z" fill="url(#paint18_linear_0_77)"/>
<path d="M81.7312 85.4719C81.6117 85.4086 81.4992 85.3383 81.3938 85.2469C81.3797 85.2328 81.3586 85.2188 81.3445 85.1977C81.1477 84.9797 81.0914 84.6281 81.6047 83.925C83.0109 82.0617 83.5664 80.6695 83.5664 80.6695C83.9531 79.6922 83.8125 79.5305 83.8125 79.5305C83.6789 79.3125 83.4047 79.9453 83.4047 79.9453C82.0125 82.4555 81.0563 83.5524 80.6414 83.9602C80.6203 83.9742 80.5992 83.9883 80.5781 83.9953C80.5008 84.0445 80.4164 84.0938 80.325 84.1289C80.2898 84.143 80.2477 84.157 80.2125 84.1711C80.1352 84.1992 80.0508 84.2133 79.9664 84.2274C79.9242 84.2344 79.882 84.2414 79.8328 84.2414C79.7414 84.2414 79.65 84.2344 79.5516 84.2133C79.5094 84.2063 79.4672 84.2063 79.425 84.1922C79.1947 84.1309 78.9794 84.0232 78.7922 83.8758C78.7641 83.8477 78.7289 83.8195 78.7008 83.7914C78.6727 83.7633 78.6375 83.7352 78.6094 83.707C78.5742 83.6649 78.5391 83.6156 78.5039 83.5734C78.4898 83.5524 78.4688 83.5313 78.4547 83.5031C78.4195 83.4469 78.3914 83.3906 78.3633 83.3274C78.3562 83.3063 78.3422 83.2852 78.3352 83.2641C78.307 83.2008 78.293 83.1305 78.2789 83.0602L78.2578 82.9969C78.2438 82.9266 78.2437 82.8492 78.2367 82.7789C78.2367 82.7508 78.2297 82.7297 78.2297 82.7086C78.2297 82.6313 78.2438 82.5539 78.2578 82.4766C78.2648 82.4484 78.2648 82.4203 78.2719 82.3852C78.2859 82.3078 78.3211 82.2305 78.3492 82.1461C78.3633 82.1109 78.3703 82.0758 78.3844 82.0477C79.9875 79.7836 80.8172 77.8078 80.8172 77.8078C81.0844 77.2594 81.1828 76.6828 81.1828 76.6828C81.007 76.3594 80.7258 76.8305 80.7258 76.8305C78.8977 80.2336 77.8148 81.5977 77.8148 81.5977C77.8148 81.5977 76.9641 83.0813 75.1008 81.9703C75.1008 81.9703 74.1797 81.3797 74.025 80.9649C73.8914 80.6203 73.807 80.0086 74.2781 79.1367C74.2781 79.1367 75.3961 76.8516 77.2383 73.9758C77.2383 73.9758 77.3578 73.5258 76.943 73.7789C76.6195 73.9758 76.3875 74.3836 76.275 74.5102C76.275 74.5102 75.1852 75.9656 73.6031 78.8695C73.6031 78.8695 73.2516 79.5375 72.8438 79.868C72.443 80.0367 71.9367 79.9734 71.3812 79.5586C70.1789 78.6586 70.6289 77.4 71.2969 76.1063C71.6625 75.4031 72.4992 73.8211 73.2937 72.5555C73.3711 72.5274 73.4484 72.4992 73.5258 72.4852C73.7789 72.443 73.9828 72.3094 74.1094 72.1125C74.7422 71.1492 74.243 70.2774 73.357 71.6203C71.1352 72 69.5602 76.3453 69.4828 78.4899C69.4828 78.5672 69.4477 80.3109 71.2477 81.1125C71.3039 81.1336 71.9578 81.3727 72.6609 81.2109C72.8367 81.7945 73.3148 82.4766 74.4328 83.1164C74.4539 83.1305 75.4313 83.7281 76.5 83.7141C76.6969 83.707 76.8938 83.6859 77.0766 83.6367C77.1891 84.0023 77.4281 84.4031 77.9062 84.7688C77.9625 84.8109 79.0594 85.6336 80.1141 85.4227C80.318 85.7461 80.6133 85.9711 80.6906 86.0274C81.0141 86.2313 81.3586 86.3367 81.7102 86.3649H82.0266C82.4766 86.3367 82.9477 86.182 83.4117 85.8938C83.4187 85.8938 83.4187 85.8867 83.4258 85.8867C84.5156 85.1414 86.0836 82.0266 86.0836 81.7102C86.0836 81.7031 83.7211 85.8094 81.7312 85.4719ZM19.9898 74.7C19.9055 72.5555 18.3305 68.2102 16.1156 67.8305C15.2367 66.4875 14.7305 67.3594 15.3633 68.3227C15.4898 68.5195 15.7008 68.6461 15.9469 68.6953C16.0242 68.7094 16.1016 68.7375 16.1789 68.7656C16.9734 70.0313 17.8102 71.6203 18.1758 72.3164C18.8437 73.6031 19.2867 74.8617 18.0914 75.7688C17.5359 76.1836 17.0367 76.2469 16.6289 76.0781C16.2281 75.7477 15.8695 75.0797 15.8695 75.0797C14.2875 72.1758 13.1977 70.7203 13.1977 70.7203C13.0852 70.5938 12.8602 70.193 12.5297 69.9891C12.1148 69.7359 12.2344 70.1859 12.2344 70.1859C14.0766 73.0547 15.1945 75.3469 15.1945 75.3469C15.6727 76.2188 15.5883 76.8305 15.4477 77.175C15.293 77.5899 14.3719 78.1805 14.3719 78.1805C12.5156 79.2914 11.6578 77.8078 11.6578 77.8078C11.6578 77.8078 10.568 76.4438 8.74687 73.0406C8.74687 73.0406 8.45859 72.5695 8.28984 72.893C8.28984 72.893 8.38828 73.4695 8.65547 74.018C8.65547 74.018 9.48516 75.9867 11.0883 78.2578C11.1023 78.293 11.1094 78.3281 11.1234 78.3563C11.1516 78.4336 11.1797 78.518 11.2008 78.5953C11.2078 78.6234 11.2078 78.6516 11.2148 78.6867C11.2289 78.7641 11.243 78.8414 11.243 78.9188C11.243 78.9469 11.2359 78.968 11.2359 78.9891C11.2359 79.0664 11.2289 79.1367 11.2148 79.207C11.2078 79.2281 11.2008 79.2492 11.2008 79.2703C11.1867 79.3406 11.1656 79.4109 11.1375 79.4742C11.1305 79.4953 11.1164 79.5164 11.1094 79.5375C11.0813 79.5938 11.0531 79.657 11.018 79.7133C11.0039 79.7344 10.9828 79.7555 10.9688 79.7836C10.9336 79.8328 10.8984 79.875 10.8633 79.9172C10.8352 79.9453 10.8 79.9734 10.7719 80.0016C10.7437 80.0297 10.7156 80.0578 10.6805 80.0859C10.6172 80.1352 10.5469 80.1844 10.4836 80.2195C10.3289 80.3039 10.1812 80.3672 10.0477 80.4024C10.0055 80.4164 9.96328 80.4164 9.91406 80.4234C9.81563 80.4375 9.72422 80.4516 9.63281 80.4516C9.59062 80.4516 9.54141 80.4445 9.49922 80.4375C9.41484 80.4234 9.33047 80.4094 9.25312 80.3813C9.21797 80.3672 9.17578 80.3531 9.14062 80.3391C9.05625 80.3039 8.97188 80.2547 8.8875 80.2055C8.86641 80.1914 8.84531 80.1844 8.82422 80.1703C8.40938 79.7625 7.45312 78.6656 6.06094 76.1555C6.06094 76.1555 5.78672 75.5227 5.65312 75.7406C5.65312 75.7406 5.5125 75.9094 5.89922 76.8797C5.89922 76.8797 6.45469 78.2719 7.86094 80.1352C8.37422 80.8383 8.31797 81.1899 8.12109 81.4078C8.10703 81.4219 8.08594 81.4359 8.07187 81.457C7.97344 81.5484 7.85391 81.6188 7.73438 81.682C5.74453 82.0266 3.375 77.9133 3.375 77.9133C3.375 78.2367 4.94297 81.3516 6.03281 82.0899C6.03984 82.0899 6.03984 82.0969 6.04688 82.0969C6.51094 82.3852 6.975 82.5399 7.43203 82.568H7.74844C8.10703 82.5399 8.45156 82.4344 8.76797 82.2305C8.84531 82.1742 9.14062 81.9422 9.34453 81.6258C10.3992 81.8367 11.5031 81.0141 11.5523 80.9719C12.0305 80.6063 12.2695 80.2055 12.382 79.8399C12.5648 79.8891 12.7547 79.9172 12.9586 79.9172C14.0273 79.9383 15.0047 79.3336 15.0258 79.3195C16.1438 78.6867 16.6219 77.9977 16.7977 77.4141C17.5008 77.5688 18.1547 77.3367 18.2109 77.3156C20.032 76.5211 19.9969 74.7774 19.9898 74.7Z" fill="#91674D"/>
<path d="M77.3438 87.1734V57.0726C77.3438 54.5554 75.2906 52.5023 72.7734 52.5023H17.2266C14.7094 52.5023 12.6562 54.5554 12.6562 57.0726V87.1804H77.3438V87.1734Z" fill="url(#paint19_linear_0_77)"/>
<path d="M55.5398 87.1734C55.1109 85.8164 54.5484 84.2835 54.0703 82.6523C53.107 79.3757 52.7063 73.9054 52.5375 70.0875C52.432 67.6757 50.4352 65.7703 48.0023 65.7703H41.9906C39.5578 65.7703 37.5609 67.6687 37.4555 70.0875C37.2867 73.9054 36.8859 79.3757 35.9227 82.6523C35.4445 84.2835 34.8891 85.8164 34.4531 87.1734H55.5398Z" fill="url(#paint20_linear_0_77)"/>
<defs>
<linearGradient id="paint0_linear_0_77" x1="45" y1="5.98359" x2="45" y2="61.9263" gradientUnits="userSpaceOnUse">
<stop offset="0.003" stop-color="#424242"/>
<stop offset="0.271" stop-color="#353535"/>
<stop offset="0.764" stop-color="#131313"/>
<stop offset="1"/>
</linearGradient>
<linearGradient id="paint1_linear_0_77" x1="45" y1="5.98359" x2="45" y2="61.9263" gradientUnits="userSpaceOnUse">
<stop offset="0.001" stop-color="#BFBEBE"/>
<stop offset="0.15" stop-color="#212121" stop-opacity="0"/>
<stop offset="0.776" stop-color="#212121" stop-opacity="0"/>
<stop offset="1" stop-color="#BFBEBE"/>
</linearGradient>
<linearGradient id="paint2_linear_0_77" x1="3.22877" y1="33.75" x2="87.1425" y2="33.75" gradientUnits="userSpaceOnUse">
<stop offset="0.001" stop-color="#BFBEBE"/>
<stop offset="0.1" stop-color="#212121" stop-opacity="0"/>
<stop offset="0.9" stop-color="#212121" stop-opacity="0"/>
<stop offset="1" stop-color="#BFBEBE"/>
</linearGradient>
<radialGradient id="paint3_radial_0_77" cx="0" cy="0" r="1" gradientUnits="userSpaceOnUse" gradientTransform="translate(55.2537 57.6972) scale(16.4665 8.08834)">
<stop offset="0.728" stop-color="#6D4C41" stop-opacity="0"/>
<stop offset="1" stop-color="#6D4C41"/>
</radialGradient>
<radialGradient id="paint4_radial_0_77" cx="0" cy="0" r="1" gradientUnits="userSpaceOnUse" gradientTransform="translate(71.4735 55.2475) rotate(154.924) scale(4.86608 3.60994)">
<stop offset="0.663" stop-color="#6D4C41"/>
<stop offset="1" stop-color="#6D4C41" stop-opacity="0"/>
</radialGradient>
<radialGradient id="paint5_radial_0_77" cx="0" cy="0" r="1" gradientUnits="userSpaceOnUse" gradientTransform="translate(58.8622 41.4842) rotate(-94.2783) scale(21.374 17.8139)">
<stop offset="0.725" stop-color="#6D4C41" stop-opacity="0"/>
<stop offset="1" stop-color="#6D4C41"/>
</radialGradient>
<radialGradient id="paint6_radial_0_77" cx="0" cy="0" r="1" gradientUnits="userSpaceOnUse" gradientTransform="translate(31.154 41.4838) rotate(-85.7217) scale(21.374 17.8139)">
<stop offset="0.725" stop-color="#6D4C41" stop-opacity="0"/>
<stop offset="1" stop-color="#6D4C41"/>
</radialGradient>
<radialGradient id="paint7_radial_0_77" cx="0" cy="0" r="1" gradientUnits="userSpaceOnUse" gradientTransform="translate(34.7618 57.6972) rotate(180) scale(16.4665 8.08834)">
<stop offset="0.728" stop-color="#6D4C41" stop-opacity="0"/>
<stop offset="1" stop-color="#6D4C41"/>
</radialGradient>
<radialGradient id="paint8_radial_0_77" cx="0" cy="0" r="1" gradientUnits="userSpaceOnUse" gradientTransform="translate(18.5439 55.248) rotate(25.0761) scale(4.86608 3.60994)">
<stop offset="0.663" stop-color="#6D4C41"/>
<stop offset="1" stop-color="#6D4C41" stop-opacity="0"/>
</radialGradient>
<radialGradient id="paint9_radial_0_77" cx="0" cy="0" r="1" gradientUnits="userSpaceOnUse" gradientTransform="translate(57.6683 30.2066) rotate(72.0851) scale(25.0541 18.5895)">
<stop offset="0.699" stop-color="#6D4C41" stop-opacity="0"/>
<stop offset="1" stop-color="#6D4C41"/>
</radialGradient>
<radialGradient id="paint10_radial_0_77" cx="0" cy="0" r="1" gradientUnits="userSpaceOnUse" gradientTransform="translate(33.2445 2.8901) rotate(28.2026) scale(6.56943 7.78943)">
<stop offset="0.58" stop-color="#6D4C41"/>
<stop offset="1" stop-color="#6D4C41" stop-opacity="0"/>
</radialGradient>
<radialGradient id="paint11_radial_0_77" cx="0" cy="0" r="1" gradientUnits="userSpaceOnUse" gradientTransform="translate(47.9165 14.818) rotate(-157.19) scale(20.5271 11.5363)">
<stop offset="0.699" stop-color="#6D4C41" stop-opacity="0"/>
<stop offset="1" stop-color="#6D4C41"/>
</radialGradient>
<radialGradient id="paint12_radial_0_77" cx="0" cy="0" r="1" gradientUnits="userSpaceOnUse" gradientTransform="translate(30.6063 8.88299) scale(6.0293 7.37564)">
<stop offset="0.702" stop-color="#6D4C41" stop-opacity="0"/>
<stop offset="1" stop-color="#6D4C41"/>
</radialGradient>
<radialGradient id="paint13_radial_0_77" cx="0" cy="0" r="1" gradientUnits="userSpaceOnUse" gradientTransform="translate(29.7757 19.5262) rotate(-164.942) scale(11.3088 10.583)">
<stop offset="0.66" stop-color="#6D4C41" stop-opacity="0"/>
<stop offset="1" stop-color="#6D4C41"/>
</radialGradient>
<radialGradient id="paint14_radial_0_77" cx="0" cy="0" r="1" gradientUnits="userSpaceOnUse" gradientTransform="translate(27.0954 30.4447) rotate(7.83355) scale(11.8734 16.684)">
<stop offset="0.598" stop-color="#6D4C41" stop-opacity="0"/>
<stop offset="1" stop-color="#6D4C41"/>
</radialGradient>
<linearGradient id="paint15_linear_0_77" x1="3.9551" y1="83.0918" x2="15.7971" y2="83.0918" gradientUnits="userSpaceOnUse">
<stop stop-color="#FB8C00"/>
<stop offset="0.482" stop-color="#F67F00"/>
<stop offset="1" stop-color="#EF6C00"/>
</linearGradient>
<linearGradient id="paint16_linear_0_77" x1="14.3634" y1="79.3948" x2="7.55649" y2="69.7079" gradientUnits="userSpaceOnUse">
<stop stop-color="#A47B62"/>
<stop offset="0.5" stop-color="#BA8D68"/>
</linearGradient>
<linearGradient id="paint17_linear_0_77" x1="69.7521" y1="83.565" x2="84.9368" y2="83.565" gradientUnits="userSpaceOnUse">
<stop stop-color="#FB8C00"/>
<stop offset="0.482" stop-color="#F67F00"/>
<stop offset="1" stop-color="#EF6C00"/>
</linearGradient>
<linearGradient id="paint18_linear_0_77" x1="75.247" y1="82.8" x2="82.0533" y2="73.1131" gradientUnits="userSpaceOnUse">
<stop stop-color="#A47B62"/>
<stop offset="0.5" stop-color="#BA8D68"/>
</linearGradient>
<linearGradient id="paint19_linear_0_77" x1="45" y1="52.4011" x2="45" y2="100.504" gradientUnits="userSpaceOnUse">
<stop stop-color="#4DD0E1"/>
<stop offset="1" stop-color="#00BCD4"/>
</linearGradient>
<linearGradient id="paint20_linear_0_77" x1="44.9993" y1="65.1065" x2="44.9993" y2="92.7239" gradientUnits="userSpaceOnUse">
<stop stop-color="#00BCD4"/>
<stop offset="1" stop-color="#0097A7"/>
</linearGradient>
</defs>
</svg>
