<svg width="291" height="87" viewBox="0 0 291 87" fill="none" xmlns="http://www.w3.org/2000/svg">
<path d="M79.5177 54.7525C74.7888 54.7525 70.3578 52.7531 66.3319 49.4984L67.3122 44.9039L67.3549 44.7336C68.2278 39.8416 70.9971 31.6303 79.5177 31.6303C85.9077 31.6303 91.1054 36.8208 91.1054 43.2019C91.0838 49.562 85.8866 54.7525 79.5177 54.7525ZM79.5177 19.91C68.6324 19.91 60.1976 26.9721 56.7685 38.5863C51.5282 30.737 47.566 21.314 45.2444 13.3796H33.5289V43.8188C33.5289 49.8174 28.6295 54.7093 22.6226 54.7093C16.6156 54.7093 11.7168 49.8174 11.7168 43.8188V13.3796H0.000133609V43.8188C-0.0424891 56.2842 10.1182 66.5153 22.6004 66.5153C35.0832 66.5153 45.2439 56.2842 45.2439 43.8188V38.714C47.5228 43.4573 50.3131 48.2431 53.7002 52.4977L46.5214 86.191H58.5143L63.7115 61.7505C68.2698 64.6647 73.5101 66.4943 79.5171 66.4943C92.3613 66.4943 102.82 55.9862 102.82 43.1593C102.82 30.354 92.3619 19.91 79.5177 19.91Z" fill="#7B7999" fill-opacity="0.5"/>
<path d="M138.585 21.229L146.147 51.6681L154.476 21.229H164.402L151.6 65.218H141.674L133.814 34.5871L125.975 65.1965H116.049L103.246 21.208H113.173L121.501 51.6471L129.063 21.208H138.584V21.2295L138.585 21.229ZM188.152 19.9101C175.265 19.9101 164.828 30.354 164.828 43.2019C164.828 56.0714 175.286 66.4944 188.152 66.4944C201.04 66.4944 211.498 56.0714 211.498 43.2019C211.498 30.333 201.04 19.9101 188.152 19.9101ZM188.152 56.9221C180.569 56.9221 174.435 50.7958 174.435 43.2235C174.435 35.6506 180.59 29.5249 188.152 29.5249C195.736 29.5249 201.87 35.6506 201.87 43.2235C201.87 50.7748 195.736 56.9221 188.152 56.9221ZM239.85 31.0776C233.183 31.0776 227.794 36.4803 227.794 43.1168V65.1965H217.803V21.229H227.794V27.9931C227.794 27.9931 232.054 21.2074 240.808 21.2074H243.875V31.0776H239.85ZM273.378 41.5005C280.47 37.5013 285.285 29.9074 285.285 21.2074H275.294C275.294 28.5459 269.33 34.502 261.982 34.502H260.639V0H250.65V65.1959H260.639V44.4783H261.833C262.812 44.4783 264.091 45.1167 264.666 45.9033L278.852 65.1965H290.823L273.378 41.5005Z" fill="#7B7999" fill-opacity="0.5"/>
</svg>
