<?xml version="1.0" encoding="UTF-8"?>
<svg version="1.1" xmlns="http://www.w3.org/2000/svg" width="2048" height="2048">
<path d="M0 0 C4.84392631 0.00916243 9.6873692 0.00230674 14.53125 -0.02050781 C44.26059813 -0.15987154 73.51205021 0.75098233 103.07290649 3.99214172 C108.84397173 4.61787116 114.62706936 5.06878207 120.41479492 5.50854492 C128.66168047 6.19912117 136.77201745 7.35016215 144.93041992 8.72729492 C149.1212667 9.42881417 153.31957836 9.95764423 157.53979492 10.44604492 C164.11819682 11.23466453 170.55731564 12.35821539 177.04760742 13.66479492 C180.65302624 14.35981542 184.2729 14.85751824 187.91088867 15.35229492 C195.44107871 16.40796655 202.85187573 17.87689644 210.28979492 19.44604492 C211.55114258 19.70643555 212.81249023 19.96682617 214.11206055 20.23510742 C219.93382572 21.45040474 225.65023248 22.76408735 231.35229492 24.44604492 C233.11804457 24.78609657 234.88899906 25.10060324 236.66479492 25.38354492 C241.10660521 26.15418687 245.29966423 27.2422763 249.57495117 28.66479492 C252.05095905 29.36128096 254.47705393 29.87881485 257.00073242 30.36401367 C262.38107617 31.41313347 267.63529835 32.7908619 272.91479492 34.25854492 C273.8707959 34.52207764 274.82679687 34.78561035 275.81176758 35.05712891 C289.06959158 38.72929183 302.2322708 42.6768435 315.35083008 46.81665039 C317.39543316 47.45961047 319.44188903 48.09631817 321.48901367 48.73120117 C343.44424449 55.54292567 343.44424449 55.54292567 349.03979492 58.00854492 C352.30082236 59.42370777 355.55954428 60.54294798 358.93432617 61.64526367 C373.65070386 66.51902365 388.07917763 72.41430916 402.35229492 78.44604492 C404.41457085 79.30075244 406.47707263 80.1549152 408.53979492 81.00854492 C412.73188898 82.75389147 416.888335 84.56102887 421.02807617 86.42651367 C423.67872537 87.58923542 426.35754905 88.67076489 429.03979492 89.75854492 C434.5328857 92.03415574 439.7923175 94.64779411 445.08666992 97.34838867 C451.62496724 100.61915412 458.32617754 103.56073256 465.00170898 106.53833008 C470.11425987 108.84553679 474.72749568 111.24727996 479.35229492 114.44604492 C481.87671723 115.81671377 484.45525637 117.06825561 487.03979492 118.32104492 C496.24628952 122.8578536 505.22403216 127.66411049 513.96557617 133.05151367 C516.70204059 134.65039714 519.51616107 136.03145365 522.35229492 137.44604492 C533.27762107 143.32001962 543.808157 149.71311607 554.10229492 156.63354492 C556.70172175 158.38039682 559.3100416 160.035932 562.03979492 161.57104492 C567.92604728 164.90288588 573.37605879 168.85310649 578.88745117 172.76245117 C581.32533145 174.42762772 583.81944749 175.93008883 586.35229492 177.44604492 C588.7441348 178.98337346 591.1119431 180.55583773 593.47729492 182.13354492 C594.13745605 182.5734375 594.79761719 183.01333008 595.4777832 183.46655273 C600.35317927 186.73414312 605.11598966 190.13234957 609.83276367 193.62573242 C613.06153112 195.95845433 616.39609006 198.10397602 619.77026367 200.21948242 C620.29233398 200.62424805 620.8144043 201.02901367 621.35229492 201.44604492 C621.35229492 202.10604492 621.35229492 202.76604492 621.35229492 203.44604492 C622.07416992 203.69483398 622.79604492 203.94362305 623.53979492 204.19995117 C626.62124562 205.56520502 628.77497489 207.22101233 631.35229492 209.38354492 C633.90420521 211.51678243 636.28311558 213.40597855 639.16479492 215.07495117 C640.24760742 215.75364258 640.24760742 215.75364258 641.35229492 216.44604492 C641.35229492 217.10604492 641.35229492 217.76604492 641.35229492 218.44604492 C642.06772461 218.69354492 642.7831543 218.94104492 643.52026367 219.19604492 C646.66639199 220.58468087 648.99040455 222.29068438 651.66479492 224.44604492 C652.98930664 225.49791992 652.98930664 225.49791992 654.34057617 226.57104492 C655.00444336 227.18979492 655.66831055 227.80854492 656.35229492 228.44604492 C656.35229492 229.10604492 656.35229492 229.76604492 656.35229492 230.44604492 C656.97104492 230.54916992 657.58979492 230.65229492 658.22729492 230.75854492 C660.35229492 231.44604492 660.35229492 231.44604492 662.35229492 234.44604492 C664.40233447 235.63837105 664.40233447 235.63837105 666.35229492 236.44604492 C666.35229492 237.10604492 666.35229492 237.76604492 666.35229492 238.44604492 C668.00229492 239.10604492 669.65229492 239.76604492 671.35229492 240.44604492 C671.35229492 241.10604492 671.35229492 241.76604492 671.35229492 242.44604492 C671.89370117 242.68323242 672.43510742 242.92041992 672.99291992 243.16479492 C675.9847963 244.78952249 678.46388891 246.79623262 681.10229492 248.94604492 C682.57956055 250.13713867 682.57956055 250.13713867 684.08666992 251.35229492 C684.83432617 252.04323242 685.58198242 252.73416992 686.35229492 253.44604492 C686.35229492 254.10604492 686.35229492 254.76604492 686.35229492 255.44604492 C687.43510742 255.78635742 687.43510742 255.78635742 688.53979492 256.13354492 C691.91811819 257.71009578 693.7902623 259.75591067 696.35229492 262.44604492 C697.58979492 263.43604492 697.58979492 263.43604492 698.85229492 264.44604492 C701.55669506 266.60956504 703.90465563 268.99840563 706.35229492 271.44604492 C707.58979492 272.43604492 707.58979492 272.43604492 708.85229492 273.44604492 C711.55437705 275.60771062 713.92721699 277.98778714 716.35229492 280.44604492 C719.45324276 283.57425222 722.55865983 286.69798925 725.66479492 289.82104492 C726.88972656 291.05854492 726.88972656 291.05854492 728.1394043 292.32104492 C731.83376223 296.03012141 735.53007921 299.65657575 739.52026367 303.04760742 C742.87703437 305.92507865 745.71572358 309.04594735 748.57495117 312.41088867 C751.65234957 315.93467893 755.01398235 319.1716847 758.35229492 322.44604492 C764.60836501 328.58226693 770.46620073 334.93390945 776.03979492 341.69604492 C778.26918055 344.4400079 778.26918055 344.4400079 780.66479492 346.69604492 C782.35229492 348.44604492 782.35229492 348.44604492 782.35229492 350.44604492 C783.18760742 350.75541992 783.18760742 350.75541992 784.03979492 351.07104492 C787.32241864 353.02287524 789.05902738 355.38835487 791.35229492 358.44604492 C791.35229492 359.10604492 791.35229492 359.76604492 791.35229492 360.44604492 C792.34229492 360.77604492 793.33229492 361.10604492 794.35229492 361.44604492 C796.20845069 363.61981604 797.94800323 365.79215646 799.66479492 368.07104492 C800.65718652 369.36225414 801.65066352 370.65262991 802.64526367 371.94213867 C803.11754395 372.55686035 803.58982422 373.17158203 804.07641602 373.80493164 C805.91161276 376.16547365 807.85246142 378.41970897 809.82104492 380.66870117 C813.42326945 384.84985464 816.87569276 389.16034262 820.35229492 393.44604492 C821.1025293 394.3406543 821.85276367 395.23526367 822.62573242 396.15698242 C824.35229492 398.44604492 824.35229492 398.44604492 824.35229492 400.44604492 C825.01229492 400.44604492 825.67229492 400.44604492 826.35229492 400.44604492 C827.38920704 402.09000083 828.38264345 403.7615409 829.35229492 405.44604492 C830.55484599 407.00856139 831.78557082 408.54969398 833.03979492 410.07104492 C836.02977846 413.7697653 838.95231315 417.50371333 841.78979492 421.32104492 C842.77786133 422.64749023 842.77786133 422.64749023 843.78588867 424.00073242 C845.22205053 426.24272076 845.92302204 427.84622326 846.35229492 430.44604492 C847.01229492 430.44604492 847.67229492 430.44604492 848.35229492 430.44604492 C849.93823242 432.42260742 849.93823242 432.42260742 851.72729492 435.07104492 C852.3537793 435.99143555 852.98026367 436.91182617 853.62573242 437.86010742 C855.53598079 440.72115815 857.44404081 443.58366376 859.35229492 446.44604492 C859.93366211 447.25299805 860.5150293 448.05995117 861.11401367 448.89135742 C861.74952148 449.7756543 862.3850293 450.65995117 863.03979492 451.57104492 C863.9427832 452.81241211 863.9427832 452.81241211 864.86401367 454.07885742 C866.2476658 456.27962695 866.91375654 457.90836948 867.35229492 460.44604492 C868.01229492 460.44604492 868.67229492 460.44604492 869.35229492 460.44604492 C870.97338867 462.67651367 870.97338867 462.67651367 872.78979492 465.63354492 C873.38663086 466.59647461 873.9834668 467.5594043 874.59838867 468.55151367 C875.68768425 470.34921529 876.77088857 472.15064104 877.84448242 473.95776367 C880.10036774 477.68055886 882.52477159 481.29264527 884.92651367 484.92260742 C886.35229492 487.44604492 886.35229492 487.44604492 886.35229492 490.44604492 C887.01229492 490.44604492 887.67229492 490.44604492 888.35229492 490.44604492 C889.64916992 492.28198242 889.64916992 492.28198242 891.10229492 494.82104492 C891.62952148 495.73112305 892.15674805 496.64120117 892.69995117 497.57885742 C893.24522461 498.5250293 893.79049805 499.47120117 894.35229492 500.44604492 C895.41199495 502.19774184 896.47438447 503.9478153 897.53979492 505.69604492 C899.65047628 509.21019233 901.55113539 512.76185497 903.35229492 516.44604492 C905.23085092 519.90988025 907.21259125 523.23860614 909.41479492 526.50854492 C911.33407572 529.41842226 912.81744459 532.31731156 914.35229492 535.44604492 C915.24339816 537.07364358 916.13988612 538.69829833 917.03979492 540.32104492 C919.54937093 544.89405009 921.91308813 549.52260786 924.22729492 554.19604492 C926.91300097 559.61910521 929.67449257 564.99064489 932.53979492 570.32104492 C940.91785191 585.93515596 940.91785191 585.93515596 943.60620117 593.43823242 C945.32993855 598.07698117 947.25658168 602.66551091 949.85229492 606.88354492 C951.68937557 610.02189104 952.9361317 613.26126289 954.25463867 616.64526367 C955.39472786 619.55431686 956.58459557 622.43838942 957.78979492 625.32104492 C958.42401367 626.83891602 958.42401367 626.83891602 959.07104492 628.38745117 C959.90354083 630.37478134 960.73682956 632.36177966 961.57104492 634.34838867 C964.92037759 642.34599392 968.16342006 650.38344605 971.35229492 658.44604492 C971.80991211 659.5984668 972.2675293 660.75088867 972.73901367 661.93823242 C974.96138626 667.61095525 976.98658693 673.26454237 978.67651367 679.11791992 C980.28426133 684.65674999 982.1632617 690.04829666 984.35229492 695.38354492 C985.98140278 699.39791259 987.31173002 703.41461463 988.51245117 707.57495117 C989.53443207 711.06869983 990.63127618 714.53753916 991.72729492 718.00854492 C993.78390885 724.54463302 995.7461419 731.1051073 997.65258789 737.68652344 C998.52929342 740.70243426 999.43629464 743.69562681 1000.43823242 746.67260742 C1001.21229797 749.02126784 1001.80491813 751.27627885 1002.28979492 753.69604492 C1002.99008666 756.98796751 1003.84875078 760.17119509 1004.85229492 763.38354492 C1006.1304543 767.52478131 1007.02531087 771.64323312 1007.82495117 775.89916992 C1008.36756936 778.5198148 1009.05517653 781.06047739 1009.78979492 783.63354492 C1011.3912427 789.31949335 1012.51410054 795.06806344 1013.60620117 800.86791992 C1014.30967975 804.46712495 1014.30967975 804.46712495 1015.38354492 808.01635742 C1016.28948882 811.22369108 1016.84691329 814.27263127 1017.28979492 817.57104492 C1017.93011173 821.97322297 1018.73176445 826.25075381 1019.78979492 830.57104492 C1021.49337347 837.66068492 1022.57243351 844.80964804 1023.66479492 852.01245117 C1024.17434051 855.36159353 1024.75919394 858.68444309 1025.41479492 862.00854492 C1026.41802899 867.36186772 1026.97003952 872.75432896 1027.53442383 878.16723633 C1028.04244073 882.94142954 1028.67158678 887.67637088 1029.40942383 892.42016602 C1031.54631664 906.25922149 1032.67650212 920.19018241 1033.76694489 934.14355659 C1034.09966555 938.40042675 1034.45934548 942.65337418 1034.85084534 946.90525818 C1036.22219615 962.19767751 1036.67848093 977.36713546 1036.68823242 992.71557617 C1036.69469582 995.17518686 1036.70142645 997.63479685 1036.70840454 1000.09440613 C1036.72027262 1005.22148408 1036.72409683 1010.34849525 1036.72290039 1015.47558594 C1036.72273886 1020.63035265 1036.73648389 1025.7847601 1036.76391602 1030.93945312 C1036.92462738 1061.58302328 1036.20148945 1091.7539501 1032.8072052 1122.22216797 C1032.1757212 1127.95337185 1031.72738838 1133.69731245 1031.28979492 1139.44604492 C1030.57787153 1147.94110196 1029.4104273 1156.31806644 1028.07104492 1164.73510742 C1027.36703657 1169.21032718 1026.84056949 1173.6929534 1026.35229492 1178.19604492 C1025.66501254 1184.42963792 1024.66776068 1190.54958318 1023.45776367 1196.70214844 C1022.64503516 1200.83505761 1021.9528382 1204.96477367 1021.35229492 1209.13354492 C1020.55232855 1214.51513688 1019.39665548 1219.74719663 1018.12963867 1225.03588867 C1017.31312967 1228.61786033 1016.63349799 1232.20636698 1015.97729492 1235.82104492 C1014.7110993 1242.76606727 1013.27793261 1249.67030987 1011.78979492 1256.57104492 C1011.57983887 1257.55508301 1011.36988281 1258.53912109 1011.15356445 1259.55297852 C1010.12036719 1264.30078539 1008.92129572 1268.84320856 1007.35229492 1273.44604492 C1006.55511001 1276.98953185 1005.8450828 1280.54464472 1005.13354492 1284.10620117 C1004.43991242 1287.07148011 1003.49861317 1289.63826136 1002.35229492 1292.44604492 C1002.00026327 1294.02106061 1001.68769824 1295.60540842 1001.41479492 1297.19604492 C1000.64396676 1301.25932517 999.56116112 1305.02910692 998.19604492 1308.92651367 C997.19047769 1311.92924915 996.33354613 1314.95987632 995.47729492 1318.00854492 C992.14500539 1329.79192617 988.38940604 1341.42622165 984.47729492 1353.02807617 C983.49650936 1356.00789342 982.59253848 1358.99371189 981.72729492 1362.00854492 C980.63688341 1365.73922252 979.09227204 1368.96609069 977.35229492 1372.44604492 C976.91372652 1373.87701491 976.49999171 1375.31568158 976.10229492 1376.75854492 C974.52915806 1382.26040577 972.34090287 1387.42922165 970.11767578 1392.69091797 C967.64614624 1398.59415361 965.47943889 1404.56977065 963.48193359 1410.64941406 C961.9126855 1415.29678074 959.84250843 1419.21916948 957.35229492 1423.44604492 C956.64402209 1425.03228095 955.97164269 1426.63552198 955.35229492 1428.25854492 C955.01842773 1429.11577148 954.68456055 1429.97299805 954.34057617 1430.85620117 C953.70998124 1432.50870883 953.08209411 1434.16225407 952.45776367 1435.81713867 C950.03331021 1442.10008403 947.10749524 1448.06564341 944.03588867 1454.05151367 C942.34005233 1457.47072894 940.84600509 1460.93431723 939.35229492 1464.44604492 C934.95146817 1474.1409972 930.32890184 1483.71382729 925.2434082 1493.06835938 C922.30497097 1498.47859291 919.5843527 1503.98240099 916.89526367 1509.52026367 C915.55147406 1512.06836093 914.11823544 1514.18623968 912.35229492 1516.44604492 C911.91916992 1517.31229492 911.48604492 1518.17854492 911.03979492 1519.07104492 C909.59059115 1521.96945246 908.03402827 1524.68052787 906.35229492 1527.44604492 C904.74812931 1530.08820004 903.23542519 1532.67978438 901.85229492 1535.44604492 C900.07221097 1539.00621282 898.04403074 1542.3686455 895.97338867 1545.76635742 C894.86212269 1547.60329348 893.77193537 1549.45309909 892.69995117 1551.31323242 C892.17272461 1552.22331055 891.64549805 1553.13338867 891.10229492 1554.07104492 C890.38299805 1555.32788086 890.38299805 1555.32788086 889.64916992 1556.61010742 C889.22120117 1557.2159668 888.79323242 1557.82182617 888.35229492 1558.44604492 C887.69229492 1558.44604492 887.03229492 1558.44604492 886.35229492 1558.44604492 C886.24916992 1559.18081055 886.14604492 1559.91557617 886.03979492 1560.67260742 C885.28363166 1563.72303876 884.24089756 1565.32913866 882.35229492 1567.82104492 C878.64579197 1572.88583156 875.47512376 1578.17125243 872.3737793 1583.61938477 C871.41933755 1585.26009547 870.391957 1586.85796639 869.35229492 1588.44604492 C868.69229492 1588.44604492 868.03229492 1588.44604492 867.35229492 1588.44604492 C867.07772461 1589.18467773 866.8031543 1589.92331055 866.52026367 1590.68432617 C865.43216317 1593.25719258 864.23815412 1595.33600943 862.66479492 1597.63354492 C862.13756836 1598.40698242 861.6103418 1599.18041992 861.06713867 1599.97729492 C858.70893273 1603.372252 856.34342265 1606.76171738 853.95776367 1610.13745117 C852.60065127 1612.08891937 851.31063166 1614.06321736 850.03979492 1616.07104492 C849.48291992 1616.85479492 848.92604492 1617.63854492 848.35229492 1618.44604492 C847.69229492 1618.44604492 847.03229492 1618.44604492 846.35229492 1618.44604492 C846.23764893 1619.03305176 846.12300293 1619.62005859 846.00488281 1620.22485352 C845.30351554 1622.61207366 844.41293089 1624.01508273 842.91088867 1625.98510742 C842.41355225 1626.64309326 841.91621582 1627.3010791 841.40380859 1627.97900391 C840.87118408 1628.66937744 840.33855957 1629.35975098 839.78979492 1630.07104492 C839.24621338 1630.78526611 838.70263184 1631.4994873 838.14257812 1632.23535156 C834.54608131 1636.94427672 830.88597616 1641.59980722 827.16088867 1646.20776367 C821.37832313 1653.32722968 821.37832313 1653.32722968 816.10229492 1660.82104492 C814.6118067 1663.05677726 813.24632391 1664.5893367 811.35229492 1666.44604492 C805.0129524 1673.4094678 798.57821203 1680.60716926 793.35229492 1688.44604492 C792.69229492 1688.44604492 792.03229492 1688.44604492 791.35229492 1688.44604492 C791.12541992 1688.98229492 790.89854492 1689.51854492 790.66479492 1690.07104492 C788.89659403 1693.27064654 786.81559289 1695.73641715 784.35229492 1698.44604492 C783.69229492 1698.44604492 783.03229492 1698.44604492 782.35229492 1698.44604492 C782.12541992 1699.16791992 781.89854492 1699.88979492 781.66479492 1700.63354492 C780.05965969 1704.07312042 778.13126889 1705.84830839 775.35229492 1708.44604492 C774.05475138 1709.71087728 772.7635631 1710.98224781 771.47729492 1712.25854492 C770.86112305 1712.86311523 770.24495117 1713.46768555 769.61010742 1714.09057617 C767.75120969 1716.02987605 766.005287 1718.00175685 764.25854492 1720.03979492 C759.66761304 1725.32188099 754.69614285 1730.2099316 749.72729492 1735.13354492 C748.79916992 1736.0571582 747.87104492 1736.98077148 746.91479492 1737.93237305 C745.1898859 1739.64863281 743.46394325 1741.36385489 741.73657227 1743.07763672 C737.87747694 1746.9110469 734.03599068 1750.76151471 730.20776367 1754.62573242 C728.65183593 1756.19089807 727.09584472 1757.75600062 725.53979492 1759.32104492 C724.77086914 1760.09834961 724.00194336 1760.8756543 723.2097168 1761.67651367 C717.44768754 1767.46285528 711.47293906 1772.88878474 705.16479492 1778.07104492 C702.32465709 1780.40189943 702.32465709 1780.40189943 699.78979492 1783.00854492 C697.43212376 1785.36621609 694.95943206 1787.37370515 692.35229492 1789.44604492 C691.63041992 1790.18854492 690.90854492 1790.93104492 690.16479492 1791.69604492 C688.35229492 1793.44604492 688.35229492 1793.44604492 686.35229492 1793.44604492 C686.1434668 1794.01323242 685.93463867 1794.58041992 685.71948242 1795.16479492 C683.84545361 1798.29174586 681.43462383 1799.83470008 678.47729492 1801.94604492 C675.48402103 1804.09355347 672.68710987 1806.10775438 670.09448242 1808.72729492 C668.35229492 1810.44604492 668.35229492 1810.44604492 666.35229492 1810.44604492 C666.02229492 1811.43604492 665.69229492 1812.42604492 665.35229492 1813.44604492 C664.36229492 1813.77604492 663.37229492 1814.10604492 662.35229492 1814.44604492 C661.67166992 1815.12666992 660.99104492 1815.80729492 660.28979492 1816.50854492 C659.65041992 1817.14791992 659.01104492 1817.78729492 658.35229492 1818.44604492 C657.69229492 1818.44604492 657.03229492 1818.44604492 656.35229492 1818.44604492 C656.35229492 1819.10604492 656.35229492 1819.76604492 656.35229492 1820.44604492 C654.52416992 1822.06713867 654.52416992 1822.06713867 652.10229492 1823.88354492 C651.31338867 1824.48038086 650.52448242 1825.0772168 649.71166992 1825.69213867 C648.93307617 1826.27092773 648.15448242 1826.8497168 647.35229492 1827.44604492 C646.63557617 1828.01452148 645.91885742 1828.58299805 645.18041992 1829.16870117 C643.35229492 1830.44604492 643.35229492 1830.44604492 641.35229492 1830.44604492 C641.35229492 1831.10604492 641.35229492 1831.76604492 641.35229492 1832.44604492 C639.94574806 1833.43146997 638.53167071 1834.40796937 637.08081055 1835.3269043 C633.20272313 1837.83780157 629.61799579 1840.79836515 625.96166992 1843.61791992 C623.35229492 1845.44604492 623.35229492 1845.44604492 621.35229492 1845.44604492 C621.35229492 1846.10604492 621.35229492 1846.76604492 621.35229492 1847.44604492 C619.94910025 1848.4377765 618.53745264 1849.41965434 617.08618164 1850.33959961 C614.27932633 1852.13073848 611.61154049 1854.11998447 608.91479492 1856.07104492 C603.258023 1860.14017793 597.51069646 1864.04932867 591.69848633 1867.89233398 C587.21925119 1870.8565164 582.80370573 1873.90004535 578.41479492 1876.99682617 C575.75920773 1878.86277854 573.06156483 1880.65907966 570.35229492 1882.44604492 C569.63041992 1882.95393555 568.90854492 1883.46182617 568.16479492 1883.98510742 C566.98916992 1884.80108398 566.98916992 1884.80108398 565.78979492 1885.63354492 C565.06663086 1886.14272461 564.3434668 1886.6519043 563.59838867 1887.17651367 C561.167037 1888.55075592 559.10138952 1889.04503464 556.35229492 1889.44604492 C556.35229492 1890.10604492 556.35229492 1890.76604492 556.35229492 1891.44604492 C554.51635742 1892.74291992 554.51635742 1892.74291992 551.97729492 1894.19604492 C550.61024414 1894.98881836 550.61024414 1894.98881836 549.21557617 1895.79760742 C548.27069336 1896.3415918 547.32581055 1896.88557617 546.35229492 1897.44604492 C544.62106171 1898.4842734 542.89181053 1899.52581581 541.16479492 1900.57104492 C537.85887001 1902.55562815 534.53472187 1904.49698357 531.17651367 1906.39135742 C528.98050696 1907.66099727 526.8267653 1908.99430316 524.66479492 1910.32104492 C519.91877924 1913.1903918 515.01763245 1915.63292042 510.03979492 1918.07104492 C506.97227274 1919.64047488 504.19705601 1921.50643509 501.35229492 1923.44604492 C500.15976875 1924.06962496 498.95682728 1924.67349612 497.74682617 1925.26245117 C494.01147203 1927.10591683 490.33123635 1929.03724386 486.65600586 1930.99731445 C480.04300476 1934.52215594 473.42234979 1937.96314874 466.60229492 1941.07104492 C461.45440587 1943.42261843 456.45289788 1945.93777903 451.47729492 1948.63354492 C446.19135917 1951.49320458 440.89683482 1954.12741915 435.35229492 1956.44604492 C433.06000802 1957.42375869 430.76839863 1958.40306175 428.47729492 1959.38354492 C427.27202148 1959.89788086 426.06674805 1960.4122168 424.82495117 1960.94213867 C421.83411475 1962.23738279 418.87162362 1963.57559228 415.91479492 1964.94604492 C409.16691682 1968.04131054 402.25672674 1970.72519857 395.35229492 1973.44604492 C393.68512074 1974.11144139 392.01838741 1974.77794461 390.35229492 1975.44604492 C389.58014648 1975.75413086 388.80799805 1976.0622168 388.01245117 1976.37963867 C385.91403037 1977.22085582 383.81822252 1978.06859099 381.72338867 1978.91870117 C375.71010094 1981.35322452 369.71295026 1983.75253283 363.53198242 1985.73510742 C357.92546159 1987.56375759 352.36660087 1989.55079783 346.97729492 1991.94604492 C342.76372607 1993.68959065 338.4946942 1994.97196576 334.12963867 1996.28198242 C329.92754548 1997.57693979 325.76690867 1998.97390089 321.60229492 2000.38354492 C313.61247675 2003.07382168 305.56685983 2005.50308099 297.46557617 2007.83276367 C295.33035593 2008.45241169 293.20026822 2009.08736442 291.07104492 2009.72729492 C280.05753948 2013.030719 268.98045711 2015.90766046 257.78198242 2018.51245117 C256.64116211 2018.77819946 256.64116211 2018.77819946 255.47729492 2019.04931641 C254.02231173 2019.38669695 252.56662231 2019.72105235 251.11010742 2020.05175781 C248.08794289 2020.74836381 245.15193687 2021.51357854 242.21166992 2022.50463867 C238.49455546 2023.72844275 234.80159005 2024.22856957 230.93823242 2024.78588867 C227.80950421 2025.36187458 224.78478984 2026.07166266 221.70385742 2026.85620117 C215.61911816 2028.4034957 209.5093889 2029.72167567 203.35229492 2030.94604492 C202.2764917 2031.16107666 201.20068848 2031.3761084 200.09228516 2031.59765625 C192.44706418 2033.09870052 184.79038762 2034.38930106 177.07299805 2035.45776367 C173.18959715 2035.99759351 169.36231594 2036.62986724 165.52416992 2037.43432617 C159.89730832 2038.58948808 154.24190864 2039.2774272 148.53979492 2039.94604492 C139.20456769 2041.06654003 139.20456769 2041.06654003 129.91479492 2042.50854492 C123.02132587 2043.60789554 116.08593311 2044.10376606 109.12806702 2044.60826111 C103.17014834 2045.04355131 97.23127835 2045.54773407 91.29223633 2046.19287109 C65.95167231 2048.84095799 40.66895725 2048.90895512 15.21020508 2048.8371582 C9.08253189 2048.82006766 2.95524981 2048.83022282 -3.17241001 2048.84749222 C-28.54301895 2048.90800902 -53.64641618 2048.59494559 -78.88368225 2045.84211731 C-84.49459339 2045.25170458 -90.11428691 2044.77426537 -95.73532104 2044.29182434 C-106.10265098 2043.38995921 -116.40206267 2042.37455731 -126.64355469 2040.49414062 C-131.33912845 2039.63282898 -136.01925776 2039.07803308 -140.77270508 2038.63354492 C-152.9177063 2037.43820878 -164.88061256 2034.89446303 -176.8490448 2032.5680542 C-180.89298081 2031.78200988 -184.93981687 2031.01555048 -188.99145508 2030.27026367 C-196.78133483 2028.83351157 -204.47392191 2027.37699797 -212.08520508 2025.15307617 C-215.06474907 2024.33097638 -218.0586064 2023.6980833 -221.08520508 2023.07104492 C-241.09289153 2018.86921306 -261.02113821 2013.58258399 -280.51098633 2007.41870117 C-283.36954447 2006.53229896 -286.24103862 2005.70992908 -289.12133789 2004.89770508 C-308.26099077 1999.45097495 -327.08992705 1992.61021039 -345.64770508 1985.44604492 C-346.77692383 1985.01807617 -347.90614258 1984.59010742 -349.06958008 1984.14916992 C-355.30324645 1981.77862074 -361.47020238 1979.2839408 -367.61645508 1976.69604492 C-370.77520077 1975.39346938 -373.95481841 1974.1623827 -377.14770508 1972.94604492 C-386.6449117 1969.31242952 -395.8397594 1965.40910046 -404.90161133 1960.78979492 C-407.80408681 1959.36952242 -410.71381957 1958.22072408 -413.75317383 1957.13745117 C-422.32926148 1954.00762125 -430.41122058 1949.60736921 -438.5480957 1945.50170898 C-440.55181005 1944.49426005 -442.55959601 1943.49560369 -444.56958008 1942.50073242 C-458.21804292 1935.73912437 -471.78879412 1928.83068977 -484.87817383 1921.03198242 C-487.83341591 1919.33969993 -490.84069047 1917.82099978 -493.89770508 1916.32104492 C-499.81957992 1913.41422385 -505.24650537 1910.06317942 -510.71020508 1906.38354492 C-515.09846252 1903.48916235 -519.70093768 1900.97277565 -524.28833008 1898.41088867 C-525.49145508 1897.73510742 -526.69458008 1897.05932617 -527.89770508 1896.38354492 C-528.81422852 1895.87597656 -528.81422852 1895.87597656 -529.74926758 1895.3581543 C-532.79467371 1893.63929516 -535.21645524 1891.93177655 -537.64770508 1889.44604492 C-539.30960613 1888.48374615 -541.00099063 1887.57155621 -542.71020508 1886.69604492 C-547.48871666 1884.15254205 -551.86495197 1881.31686752 -556.25708008 1878.16088867 C-558.48472363 1876.56295482 -560.73866507 1875.02439162 -563.02270508 1873.50854492 C-564.10551758 1872.78924805 -564.10551758 1872.78924805 -565.21020508 1872.05541992 C-567.06185802 1870.83285419 -568.91657845 1869.61493286 -570.77270508 1868.39916992 C-571.84520508 1867.69276367 -572.91770508 1866.98635742 -574.02270508 1866.25854492 C-575.02043945 1865.60499023 -576.01817383 1864.95143555 -577.04614258 1864.27807617 C-579.18151019 1862.77434133 -580.85977142 1861.32119486 -582.64770508 1859.44604492 C-584.30135914 1858.42467035 -585.9714701 1857.42992198 -587.64770508 1856.44604492 C-589.25996567 1855.43804334 -590.8636161 1854.4161896 -592.46020508 1853.38354492 C-593.25040039 1852.87694336 -594.0405957 1852.3703418 -594.85473633 1851.84838867 C-595.44641602 1851.38561523 -596.0380957 1850.9228418 -596.64770508 1850.44604492 C-596.64770508 1849.78604492 -596.64770508 1849.12604492 -596.64770508 1848.44604492 C-597.2071582 1848.35967773 -597.76661133 1848.27331055 -598.34301758 1848.18432617 C-601.3283066 1847.22802172 -603.12628069 1845.64549624 -605.52270508 1843.63354492 C-608.36519858 1841.28302145 -611.14574207 1839.02911938 -614.27270508 1837.07104492 C-615.05645508 1836.53479492 -615.84020508 1835.99854492 -616.64770508 1835.44604492 C-616.64770508 1834.78604492 -616.64770508 1834.12604492 -616.64770508 1833.44604492 C-617.19040039 1833.37643555 -617.7330957 1833.30682617 -618.29223633 1833.23510742 C-621.62355025 1832.11914488 -623.68560097 1830.11390495 -626.33520508 1827.82104492 C-627.39520413 1826.9107928 -628.45641437 1826.00194932 -629.51879883 1825.09448242 C-630.04328613 1824.64556641 -630.56777344 1824.19665039 -631.1081543 1823.73413086 C-634.0101263 1821.30615682 -637.0567517 1819.06632259 -640.10083008 1816.82104492 C-640.61129883 1816.36729492 -641.12176758 1815.91354492 -641.64770508 1815.44604492 C-641.64770508 1814.78604492 -641.64770508 1814.12604492 -641.64770508 1813.44604492 C-642.18911133 1813.37256836 -642.73051758 1813.2990918 -643.28833008 1813.22338867 C-646.58569761 1812.13700434 -648.73079134 1810.21333472 -651.39770508 1808.00854492 C-652.38254883 1807.20545898 -653.36739258 1806.40237305 -654.38208008 1805.57495117 C-655.12973633 1804.87241211 -655.87739258 1804.16987305 -656.64770508 1803.44604492 C-656.64770508 1802.78604492 -656.64770508 1802.12604492 -656.64770508 1801.44604492 C-657.18911133 1801.20885742 -657.73051758 1800.97166992 -658.28833008 1800.72729492 C-661.28020645 1799.10256735 -663.75929907 1797.09585723 -666.39770508 1794.94604492 C-667.38254883 1794.15198242 -668.36739258 1793.35791992 -669.38208008 1792.53979492 C-670.12973633 1791.84885742 -670.87739258 1791.15791992 -671.64770508 1790.44604492 C-671.64770508 1789.78604492 -671.64770508 1789.12604492 -671.64770508 1788.44604492 C-672.28708008 1788.17791992 -672.92645508 1787.90979492 -673.58520508 1787.63354492 C-675.64770508 1786.44604492 -675.64770508 1786.44604492 -676.64770508 1783.44604492 C-677.22520508 1783.32229492 -677.80270508 1783.19854492 -678.39770508 1783.07104492 C-681.73186036 1782.14489068 -683.28038461 1779.92609494 -685.64770508 1777.44604492 C-686.59645508 1776.68291992 -687.54520508 1775.91979492 -688.52270508 1775.13354492 C-691.5936358 1772.63449671 -694.04791953 1769.76578208 -696.54614258 1766.70385742 C-698.3024372 1764.81698327 -700.04337234 1763.21725148 -701.99926758 1761.55151367 C-707.86969617 1756.48449246 -713.30669985 1750.97308066 -718.78686523 1745.4921875 C-720.66608147 1743.61519023 -722.55320131 1741.74637603 -724.44067383 1739.87768555 C-725.63517152 1738.68611653 -726.82919972 1737.49407664 -728.02270508 1736.30151367 C-728.58820068 1735.74320358 -729.15369629 1735.18489349 -729.73632812 1734.60966492 C-733.64770508 1730.67490939 -733.64770508 1730.67490939 -733.64770508 1728.44604492 C-734.63770508 1728.11604492 -735.62770508 1727.78604492 -736.64770508 1727.44604492 C-738.33129883 1725.77416992 -738.33129883 1725.77416992 -740.08520508 1723.69604492 C-740.70266602 1722.9715918 -741.32012695 1722.24713867 -741.95629883 1721.50073242 C-743.21900798 1719.96681784 -744.44362542 1718.40139948 -745.64770508 1716.82104492 C-747.42891327 1714.70586019 -749.13852047 1713.1762275 -751.27270508 1711.44604492 C-754.2451465 1708.99740952 -755.33222401 1707.08891558 -756.64770508 1703.44604492 C-757.24196289 1703.16760742 -757.8362207 1702.88916992 -758.44848633 1702.60229492 C-761.30375532 1701.1011233 -762.66378627 1699.23606219 -764.64770508 1696.69604492 C-768.22797043 1692.19715885 -771.88758318 1687.79560422 -775.64770508 1683.44604492 C-783.22601117 1674.63950179 -790.52956852 1665.6950653 -797.45239258 1656.36010742 C-799.52468829 1653.60933767 -801.66084474 1650.92895704 -803.83520508 1648.25854492 C-806.92815086 1644.43857204 -809.69413499 1640.50741203 -812.32348633 1636.35620117 C-813.56008197 1634.44525608 -813.56008197 1634.44525608 -815.06567383 1633.05322266 C-816.68913431 1631.40395717 -817.96314269 1629.71912033 -819.28442383 1627.82104492 C-819.77563721 1627.11947266 -820.26685059 1626.41790039 -820.77294922 1625.69506836 C-821.28849365 1624.95289063 -821.80403809 1624.21071289 -822.33520508 1623.44604492 C-823.41004805 1621.90911231 -824.48557009 1620.37265437 -825.56176758 1618.83666992 C-826.08673828 1618.08708008 -826.61170898 1617.33749023 -827.15258789 1616.56518555 C-829.72497398 1612.9191517 -832.37133196 1609.32897464 -835.02661133 1605.74291992 C-836.69779865 1603.37506897 -838.16097979 1600.93293086 -839.64770508 1598.44604492 C-840.80026601 1596.76959266 -841.967179 1595.10292363 -843.14770508 1593.44604492 C-845.4712356 1590.18494945 -847.60730138 1586.89048879 -849.64770508 1583.44604492 C-851.22004931 1580.8975128 -852.80916763 1578.35950725 -854.39770508 1575.82104492 C-854.83872559 1575.11536377 -855.27974609 1574.40968262 -855.73413086 1573.68261719 C-858.81550027 1568.75813859 -861.92846362 1563.85501975 -865.07739258 1558.97338867 C-869.0774832 1552.53543188 -872.67825493 1545.84389411 -876.38012695 1539.23120117 C-877.97003165 1536.3980831 -879.56804356 1533.57861888 -881.24145508 1530.79370117 C-882.77249392 1528.23771689 -884.18327816 1525.63760381 -885.58520508 1523.00854492 C-887.83323707 1518.80178463 -890.10480493 1514.6117037 -892.42114258 1510.44213867 C-898.86614335 1498.80918555 -904.85778246 1487.05594239 -910.4597168 1474.99536133 C-912.03455989 1471.61588916 -913.63636672 1468.24952704 -915.23876953 1464.88305664 C-916.72604561 1461.75560986 -918.20382436 1458.62372552 -919.6809082 1455.49145508 C-920.52432627 1453.7070721 -921.37450264 1451.92588666 -922.22583008 1450.14526367 C-929.52006648 1434.69510909 -935.87629994 1418.66176033 -941.82348633 1402.64526367 C-942.7880628 1400.07153592 -943.78059121 1397.50928792 -944.77270508 1394.94604492 C-947.30278012 1388.37402072 -949.79255007 1381.78705937 -952.27270508 1375.19604492 C-952.65700684 1374.17833008 -953.04130859 1373.16061523 -953.43725586 1372.11206055 C-956.90426961 1362.88074125 -959.95760401 1353.56058589 -962.84106445 1344.13354492 C-963.96491722 1340.49775791 -965.22125822 1336.97202396 -966.64770508 1333.44604492 C-967.11480379 1331.61101426 -967.57896711 1329.77514538 -968.02270508 1327.93432617 C-969.95053619 1320.25914858 -972.18969903 1312.67519675 -974.77270508 1305.19604492 C-976.23385744 1300.89187517 -977.28303511 1296.69697317 -978.09692383 1292.23120117 C-978.90400033 1288.15002708 -979.9519908 1284.13463865 -980.97583008 1280.10327148 C-982.64739555 1273.49936777 -984.22154089 1266.8739037 -985.78491211 1260.24365234 C-986.91600267 1255.46293867 -988.08806929 1250.69711488 -989.31982422 1245.94140625 C-990.9824208 1239.50445605 -992.23714706 1233.14879405 -993.15551758 1226.56713867 C-993.64991545 1223.43202838 -994.33116158 1220.4032949 -995.08520508 1217.32104492 C-996.96827365 1209.47492587 -998.11685115 1201.53614195 -999.32006836 1193.56420898 C-999.72364673 1190.95508386 -1000.1838678 1188.357567 -1000.64770508 1185.75854492 C-1001.85536773 1178.63333529 -1002.66818051 1171.45335809 -1003.54003906 1164.28100586 C-1004.16543273 1159.16840272 -1004.83416916 1154.0854145 -1005.71020508 1149.00854492 C-1006.80472385 1142.13640245 -1007.30644336 1135.22391497 -1007.80992126 1128.28773499 C-1008.24995187 1122.25149815 -1008.7581543 1116.23271858 -1009.39453125 1110.21386719 C-1012.03815441 1084.16227405 -1012.11067863 1058.16793281 -1012.03881836 1032.00170898 C-1012.02172789 1025.70936612 -1012.0318771 1019.41740421 -1012.04916096 1013.12507439 C-1012.10993064 986.93695673 -1011.74906626 961.01881156 -1008.99845886 934.96255493 C-1008.54252296 930.39153317 -1008.21364538 925.81640373 -1007.90670776 921.23327637 C-1007.11587836 909.51293654 -1005.47314012 898.01229248 -1003.58911133 886.42260742 C-1002.77781866 881.39941315 -1002.1259306 876.37967451 -1001.58520508 871.32104492 C-1000.8511322 864.54070211 -999.68030737 857.90577054 -998.36645508 851.21948242 C-997.70745239 847.75971831 -997.15397951 844.30590056 -996.64770508 840.82104492 C-995.79969589 835.10404964 -994.61590061 829.49744777 -993.36645508 823.85620117 C-992.69806968 820.68500306 -992.1485619 817.52235477 -991.64770508 814.32104492 C-990.84858512 809.32819625 -989.71098464 804.4932291 -988.43676758 799.60229492 C-987.28316295 794.98787642 -986.34194285 790.33297636 -985.39379883 785.67260742 C-984.64770508 782.44604492 -984.64770508 782.44604492 -983.61645508 779.36401367 C-982.6981026 776.59784713 -982.15733735 774.00796669 -981.71020508 771.13354492 C-980.97107153 766.84310566 -979.87414182 762.94124298 -978.42114258 758.84838867 C-977.54723791 756.13398781 -976.93876779 753.42058448 -976.33520508 750.63354492 C-974.28052112 741.42511839 -971.43053476 732.45471397 -968.64770508 723.44604492 C-968.31053467 722.34776367 -968.31053467 722.34776367 -967.96655273 721.22729492 C-965.38461535 712.82080479 -962.68647901 704.45712299 -959.88208008 696.12182617 C-959.09167199 693.76811094 -958.30962315 691.41156183 -957.53833008 689.05151367 C-953.50878575 676.75588353 -949.08616719 664.59902872 -944.64770508 652.44604492 C-944.38231934 651.71788574 -944.11693359 650.98972656 -943.84350586 650.23950195 C-941.96844354 645.16084087 -939.89096211 640.17749627 -937.77270508 635.19604492 C-937.06156612 633.5164427 -936.35062835 631.83675529 -935.63989258 630.15698242 C-935.12700684 628.94606934 -935.12700684 628.94606934 -934.60375977 627.71069336 C-933.35510934 624.75296064 -932.12546694 621.78750061 -930.89770508 618.82104492 C-929.18744941 614.70842344 -927.42530078 610.62468635 -925.59692383 606.56323242 C-924.98487781 605.19809275 -924.38254049 603.82853835 -923.79223633 602.45385742 C-921.28107252 596.64199359 -918.45324088 591.00695117 -915.55297852 585.38134766 C-913.55839201 581.46257754 -911.89925773 577.54507052 -910.40087891 573.41308594 C-909.15224105 570.15205669 -907.60082235 567.05795922 -906.02270508 563.94604492 C-905.68078125 563.26606445 -905.33885742 562.58608398 -904.98657227 561.88549805 C-902.08360626 556.17397143 -898.98720721 550.57980095 -895.79370117 545.02612305 C-893.24151878 540.57760029 -890.89817739 536.05421533 -888.64770508 531.44604492 C-884.03168151 522.0133011 -878.65668613 513.05485565 -873.21411133 504.08276367 C-870.64320232 499.82578425 -868.12861501 495.54552436 -865.68286133 491.21508789 C-862.74080331 486.00958806 -859.72327222 480.91451473 -856.33911133 475.98120117 C-854.04468429 472.54221007 -851.88528849 469.02382307 -849.71020508 465.50854492 C-846.4036992 460.18057832 -843.00398457 454.96612421 -839.35473633 449.86401367 C-837.41448623 447.11569602 -835.56216956 444.31705806 -833.71020508 441.50854492 C-830.44935058 436.58888049 -827.03443509 431.81081494 -823.53442383 427.05932617 C-821.23915335 423.88016271 -819.08891872 420.62088796 -816.97192383 417.32104492 C-815.64770508 415.44604492 -815.64770508 415.44604492 -814.24145508 414.04370117 C-812.04573966 411.8426041 -810.30351708 409.38588175 -808.46020508 406.88354492 C-804.91691417 402.10525106 -801.27284896 397.4247348 -797.53442383 392.79760742 C-795.77001093 390.5984841 -794.04886559 388.37229381 -792.33520508 386.13354492 C-788.96206887 381.77689747 -785.4095144 377.58023218 -781.83813477 373.38647461 C-778.8834263 369.91474265 -775.966116 366.41712239 -773.08520508 362.88354492 C-772.37106445 362.00956055 -771.65692383 361.13557617 -770.92114258 360.23510742 C-769.71875024 358.76000754 -768.51700088 357.28437181 -767.32055664 355.80444336 C-765.95581677 354.11802169 -764.58357766 352.43793939 -763.21020508 350.75854492 C-762.38649414 349.74405273 -761.5627832 348.72956055 -760.71411133 347.68432617 C-759.69124023 346.57637695 -759.69124023 346.57637695 -758.64770508 345.44604492 C-757.98770508 345.44604492 -757.32770508 345.44604492 -756.64770508 345.44604492 C-756.30739258 344.64166992 -756.30739258 344.64166992 -755.96020508 343.82104492 C-753.08315124 338.6149475 -748.81750552 334.61584536 -744.64770508 330.44604492 C-744.02895508 329.64166992 -743.41020508 328.83729492 -742.77270508 328.00854492 C-741.01544079 325.88949093 -739.43501004 324.36389645 -737.33520508 322.63354492 C-734.88047104 320.59205096 -732.76927747 318.51308536 -730.72583008 316.06323242 C-725.90519547 310.48316088 -720.67152122 305.32033634 -715.45068359 300.11865234 C-713.71376908 298.38709792 -711.98226619 296.65026133 -710.2512207 294.9128418 C-705.04099642 289.69981749 -699.83365263 284.54741695 -694.20092773 279.78491211 C-692.72450864 278.51224906 -691.33851647 277.13685632 -689.96020508 275.75854492 C-687.64770508 273.44604492 -687.64770508 273.44604492 -685.02270508 271.38354492 C-682.5883648 269.56776758 -682.5883648 269.56776758 -681.02270508 267.19604492 C-680.34208008 266.32979492 -680.34208008 266.32979492 -679.64770508 265.44604492 C-678.65770508 265.44604492 -677.66770508 265.44604492 -676.64770508 265.44604492 C-676.37958008 264.80666992 -676.11145508 264.16729492 -675.83520508 263.50854492 C-674.64770508 261.44604492 -674.64770508 261.44604492 -671.64770508 260.44604492 C-671.64770508 259.78604492 -671.64770508 259.12604492 -671.64770508 258.44604492 C-669.95496224 256.88171706 -668.19200656 255.3927592 -666.39770508 253.94604492 C-665.42317383 253.15198242 -664.44864258 252.35791992 -663.44458008 251.53979492 C-661.19875746 249.85856458 -659.20112478 248.56468593 -656.64770508 247.44604492 C-656.64770508 246.78604492 -656.64770508 246.12604492 -656.64770508 245.44604492 C-654.95809239 243.85839162 -653.19453137 242.34875798 -651.39770508 240.88354492 C-650.42317383 240.07788086 -649.44864258 239.2722168 -648.44458008 238.44213867 C-645.64770508 236.44604492 -645.64770508 236.44604492 -643.41333008 235.91870117 C-642.5393457 235.68473633 -642.5393457 235.68473633 -641.64770508 235.44604492 C-641.36282227 234.8659668 -641.07793945 234.28588867 -640.78442383 233.68823242 C-639.12539863 230.41579096 -636.35980238 228.68464105 -633.46020508 226.57104492 C-632.28054433 225.69254653 -631.10214859 224.81234682 -629.92504883 223.93041992 C-629.35898926 223.50696289 -628.79292969 223.08350586 -628.2097168 222.6472168 C-626.23194367 221.12632843 -624.37368749 219.4929 -622.52270508 217.82104492 C-619.64770508 215.44604492 -619.64770508 215.44604492 -616.64770508 215.44604492 C-616.31770508 214.45604492 -615.98770508 213.46604492 -615.64770508 212.44604492 C-613.36567368 210.66600274 -611.09739767 209.00891788 -608.71020508 207.38354492 C-603.9614955 204.1857322 -603.9614955 204.1857322 -599.64770508 200.44604492 C-598.65770508 200.44604492 -597.66770508 200.44604492 -596.64770508 200.44604492 C-596.64770508 199.78604492 -596.64770508 199.12604492 -596.64770508 198.44604492 C-594.67114258 196.86010742 -594.67114258 196.86010742 -592.02270508 195.07104492 C-591.10231445 194.44456055 -590.18192383 193.81807617 -589.23364258 193.17260742 C-586.37259185 191.26235905 -583.51008624 189.35429903 -580.64770508 187.44604492 C-576.47190421 184.54780551 -572.31138174 181.62764834 -568.16723633 178.68432617 C-562.97817496 175.01320963 -557.70284664 171.5311411 -552.32348633 168.14526367 C-549.08320739 166.08756829 -545.89665757 163.9567428 -542.71801758 161.80541992 C-540.39970664 160.28320821 -538.0273817 158.87024532 -535.64770508 157.44604492 C-532.94571145 155.72840591 -530.25347342 153.99615796 -527.56176758 152.26245117 C-522.39606714 149.04254406 -517.06389626 146.11501558 -511.75024414 143.14868164 C-506.29619663 140.1005244 -500.87835489 137.04014917 -495.60864258 133.68041992 C-487.64868213 128.66976753 -479.44730143 124.27473985 -471.01098633 120.12573242 C-468.05602227 118.6499664 -465.1605018 117.11047114 -462.27270508 115.50854492 C-455.8664095 111.97241984 -449.31473168 108.74309334 -442.7590332 105.49584961 C-440.62963895 104.437062 -438.50520723 103.36890119 -436.38208008 102.29760742 C-429.53918272 98.84755397 -422.69304633 95.46746597 -415.64770508 92.44604492 C-414.29278837 91.8435622 -412.93865987 91.23930465 -411.58520508 90.63354492 C-408.69797482 89.34920782 -405.80574538 88.07689802 -402.90942383 86.81323242 C-402.23621094 86.5194873 -401.56299805 86.22574219 -400.86938477 85.9230957 C-399.46783926 85.31175552 -398.06614568 84.70075469 -396.66430664 84.09008789 C-392.69893175 82.35837354 -388.75922651 80.58262375 -384.83520508 78.75854492 C-380.47302767 76.76273499 -376.05533853 75.07670554 -371.53442383 73.47729492 C-361.61437941 69.93346309 -351.73362623 66.11530859 -342.08520508 61.88354492 C-338.96382733 60.5782415 -335.8263485 59.49759493 -332.61572266 58.43847656 C-328.90102759 57.19637444 -325.20041299 55.91535275 -321.49926758 54.63354492 C-319.98367626 54.11000989 -318.46805059 53.58657432 -316.95239258 53.06323242 C-314.61322591 52.25544151 -312.27443371 51.44664546 -309.93676758 50.63452148 C-294.06501074 45.12349481 -294.06501074 45.12349481 -285.92260742 43.08666992 C-283.41208242 42.37969229 -281.06059572 41.43202181 -278.64770508 40.44604492 C-276.98902608 39.99863809 -275.32116576 39.58452687 -273.64770508 39.19604492 C-267.86690103 37.79528429 -262.16971864 36.17013073 -256.46020508 34.50854492 C-248.76693317 32.28447514 -241.06560259 30.27663174 -233.25708008 28.50463867 C-229.79993181 27.71996707 -226.35573331 26.89072248 -222.91333008 26.04370117 C-192.74755301 18.63297129 -161.67269996 11.80122581 -130.69458008 8.87182617 C-126.10562457 8.42624175 -121.57356134 7.67530044 -117.02270508 6.94604492 C-107.93574519 5.52557683 -98.86010929 4.68652451 -89.69042969 4.01269531 C-85.00284915 3.65396533 -80.33334833 3.21305756 -75.65942383 2.70751953 C-50.45823726 0.08868414 -25.31866674 -0.05026019 0 0 Z M-18.12426758 177.89526367 C-20.26028813 179.20795742 -22.38667371 180.36860509 -24.64770508 181.44604492 C-24.64770508 182.10604492 -24.64770508 182.76604492 -24.64770508 183.44604492 C-25.48688477 183.81149414 -25.48688477 183.81149414 -26.34301758 184.18432617 C-35.88923204 189.41047409 -43.62107898 198.96568025 -48.64770508 208.44604492 C-49.35926758 209.70094727 -49.35926758 209.70094727 -50.08520508 210.98120117 C-52.99892555 216.16033931 -55.53387704 221.30662074 -57.65551758 226.85620117 C-58.74565723 229.70172319 -59.90828994 232.51033765 -61.08520508 235.32104492 C-61.71749023 236.83311523 -61.71749023 236.83311523 -62.36254883 238.37573242 C-62.99870117 239.89553711 -62.99870117 239.89553711 -63.64770508 241.44604492 C-64.48140723 243.44589121 -65.31474258 245.44589045 -66.14770508 247.44604492 C-71.14770508 259.44604492 -76.14770508 271.44604492 -81.14770508 283.44604492 C-81.56407227 284.44635742 -81.98043945 285.44666992 -82.40942383 286.47729492 C-83.20070685 288.37437725 -83.99470969 290.27032892 -84.79223633 292.16479492 C-87.4799297 298.56492095 -90.07686258 304.99834567 -92.64770508 311.44604492 C-96.51828438 321.14985185 -100.50045614 330.79434749 -104.64770508 340.38354492 C-107.06815184 346.0084392 -109.31949228 351.67846787 -111.47192383 357.41088867 C-112.53031239 360.14300798 -113.65560069 362.83595496 -114.81982422 365.52441406 C-115.7327352 367.64341209 -116.62517771 369.77033066 -117.51489258 371.89916992 C-123.56809093 386.36516115 -123.56809093 386.36516115 -126.33520508 392.32104492 C-128.5996941 397.21355299 -130.49495917 402.21626827 -132.39770508 407.25854492 C-133.55476512 410.20904802 -134.81146459 413.07312787 -136.14770508 415.94604492 C-138.46816818 420.94229204 -140.44669645 426.0288387 -142.39379883 431.18041992 C-143.99888716 435.36064998 -145.72588517 439.48385092 -147.46411133 443.61010742 C-148.55808052 446.23130094 -149.60943153 448.86490866 -150.64770508 451.50854492 C-152.02385689 454.97932137 -153.51412281 458.37166353 -155.08520508 461.75854492 C-157.37768442 466.72908882 -159.34955452 471.77963626 -161.24145508 476.91479492 C-162.40361236 479.83310098 -163.64659123 482.6613592 -164.96020508 485.51245117 C-167.88678551 491.8913126 -170.52388968 498.37545378 -173.14770508 504.88354492 C-174.07431041 507.17410293 -175.0013906 509.4644689 -175.92895508 511.75463867 C-176.37883789 512.86572998 -176.8287207 513.97682129 -177.29223633 515.12158203 C-179.02017191 519.35956813 -180.78159474 523.58307268 -182.55200195 527.8034668 C-183.61258786 530.36135044 -184.63428259 532.93167144 -185.64770508 535.50854492 C-186.98507835 538.87743444 -188.42283874 542.17393213 -189.94848633 545.46166992 C-192.75857806 551.6149791 -195.30870952 557.85952135 -197.83520508 564.13354492 C-202.64426968 576.00843729 -207.5391627 587.84507198 -212.484375 599.66381836 C-215.36169904 606.54524224 -218.22745631 613.43147123 -221.08520508 620.32104492 C-223.3839536 625.8438244 -225.74407378 631.33904076 -228.12036133 636.82885742 C-229.28530074 639.58776764 -230.41559478 642.35149015 -231.52270508 645.13354492 C-233.81379986 650.88926181 -236.19582608 656.60556255 -238.58520508 662.32104492 C-239.0022168 663.32006836 -239.41922852 664.3190918 -239.84887695 665.34838867 C-240.6896032 667.36249329 -241.53058524 669.37649116 -242.37182617 671.39038086 C-244.46678032 676.40768781 -246.5570702 681.42693706 -248.64770508 686.44604492 C-249.48101649 688.44605405 -250.3143473 690.44605511 -251.14770508 692.44604492 C-251.56020508 693.43604492 -251.97270508 694.42604492 -252.39770508 695.44604492 C-256.77270508 705.94604492 -256.77270508 705.94604492 -261.14770508 716.44604492 C-261.54086914 717.39036377 -261.9340332 718.33468262 -262.33911133 719.30761719 C-263.13125479 721.20743139 -263.92504734 723.10656073 -264.72192383 725.00439453 C-267.273656 731.09329756 -269.77159246 737.20251412 -272.24145508 743.32495117 C-272.55828247 744.10985931 -272.87510986 744.89476746 -273.20153809 745.70346069 C-274.51462596 748.95749002 -275.82725668 752.21169657 -277.13647461 755.46728516 C-280.48847666 763.79904808 -283.833733 772.11098688 -287.640625 780.24853516 C-289.02184313 783.26243683 -290.22124333 786.33760416 -291.43286133 789.42260742 C-293.03551377 793.41120225 -294.71926543 797.36386531 -296.39770508 801.32104492 C-299.29708326 808.16297822 -302.09894738 815.03733618 -304.83520508 821.94604492 C-307.23382511 828.00052851 -309.73553566 833.96337631 -312.49536133 839.86401367 C-314.34635458 844.01149346 -315.91915362 848.2620523 -317.52661133 852.50854492 C-319.0783713 856.57448045 -320.79169405 860.54339855 -322.57739258 864.51245117 C-324.33073761 868.42009998 -326.01836987 872.33446017 -327.58520508 876.32104492 C-328.97977529 879.85649831 -330.48435079 883.31170553 -332.08520508 886.75854492 C-334.41899062 891.8257857 -336.42713183 896.97997447 -338.40161133 902.19604492 C-341.29434686 909.74073447 -344.51708788 917.14985545 -347.71020508 924.57104492 C-350.11289849 930.16299124 -352.41659725 935.78390572 -354.64770508 941.44604492 C-355.646979 943.94816387 -356.64896311 946.44918266 -357.65161133 948.94995117 C-358.31066054 950.60145096 -358.9643963 952.25508201 -359.61254883 953.91088867 C-361.30391701 958.21063187 -363.08117297 962.4403318 -365.02270508 966.63354492 C-367.28131041 971.53637114 -369.29392878 976.51354253 -371.27172852 981.53540039 C-373.16961032 986.32362321 -375.1908464 991.04764386 -377.27270508 995.75854492 C-379.50713272 1000.81493174 -381.66867646 1005.88664445 -383.69067383 1011.03198242 C-385.6067068 1015.86507783 -387.64034599 1020.65034812 -389.64770508 1025.44604492 C-390.48140723 1027.44589121 -391.31474258 1029.44589045 -392.14770508 1031.44604492 C-414.64770508 1085.44604492 -414.64770508 1085.44604492 -437.14770508 1139.44604492 C-437.56407227 1140.44635742 -437.98043945 1141.44666992 -438.40942383 1142.47729492 C-439.20070685 1144.37437725 -439.99470969 1146.27032892 -440.79223633 1148.16479492 C-443.84569199 1155.43590004 -446.77727702 1162.75278095 -449.69677734 1170.07836914 C-451.93580107 1175.68894295 -454.22107863 1181.27704902 -456.56567383 1186.84448242 C-457.64890622 1189.44893287 -458.68250439 1192.06925782 -459.71020508 1194.69604492 C-461.16983127 1198.37735113 -462.83858427 1201.87205209 -464.64770508 1205.39135742 C-466.55424464 1209.30870042 -468.06904307 1213.38839024 -469.64770508 1217.44604492 C-470.31258021 1219.11342709 -470.97923797 1220.78009956 -471.64770508 1222.44604492 C-472.63868002 1224.92155431 -473.62842406 1227.3974911 -474.61254883 1229.87573242 C-476.39440313 1234.35541432 -478.21642762 1238.81435853 -480.08520508 1243.25854492 C-482.34254865 1248.63449546 -484.41711697 1254.06656639 -486.43676758 1259.53588867 C-487.61701173 1262.37228188 -489.063507 1264.82141405 -490.64770508 1267.44604492 C-491.19737769 1268.88639076 -491.70031471 1270.34572192 -492.14770508 1271.82104492 C-493.65127085 1276.54208565 -495.55100084 1281.0104476 -497.58520508 1285.52807617 C-500.08907942 1291.11288964 -502.40203581 1296.75292244 -504.64770508 1302.44604492 C-505.64394238 1304.94052973 -506.64283651 1307.43392122 -507.64379883 1309.92651367 C-508.33241529 1311.65475344 -509.01163125 1313.38675975 -509.68286133 1315.12182617 C-512.33992438 1321.94128458 -512.33992438 1321.94128458 -514.21020508 1325.00854492 C-515.53071822 1327.24767591 -516.24606598 1329.11096466 -517.02270508 1331.57104492 C-518.13422633 1335.07928389 -519.46691604 1338.36082218 -521.02270508 1341.69604492 C-523.44054394 1346.88128971 -525.50177468 1352.15944374 -527.52661133 1357.50854492 C-529.0783713 1361.57448045 -530.79169405 1365.54339855 -532.57739258 1369.51245117 C-535.08534033 1375.1018696 -537.39989296 1380.74748997 -539.64770508 1386.44604492 C-540.64698962 1388.94815974 -541.64896307 1391.44918256 -542.65161133 1393.94995117 C-543.31066054 1395.60145096 -543.9643963 1397.25508201 -544.61254883 1398.91088867 C-546.26932678 1403.12269767 -548.00132619 1407.27366692 -549.89770508 1411.38354492 C-554.84907913 1422.14473558 -559.37298561 1433.12170004 -563.72583008 1444.13745117 C-565.64015536 1448.93137592 -567.65462783 1453.68446827 -569.64770508 1458.44604492 C-570.48140723 1460.44589121 -571.31474258 1462.44589045 -572.14770508 1464.44604492 C-585.48103841 1496.44604492 -598.81437174 1528.44604492 -612.14770508 1560.44604492 C-612.56407227 1561.44635742 -612.98043945 1562.44666992 -613.40942383 1563.47729492 C-614.20070685 1565.37437725 -614.99470969 1567.27032892 -615.79223633 1569.16479492 C-618.41862849 1575.41894616 -620.95313418 1581.70593011 -623.46020508 1588.00854492 C-628.55739947 1600.80238178 -633.79492489 1613.53328886 -639.56567383 1626.03979492 C-641.40016952 1630.11939545 -643.01781845 1634.28151828 -644.64770508 1638.44604492 C-645.27134378 1640.00908875 -645.89637211 1641.57157877 -646.52270508 1643.13354492 C-647.70961743 1646.09384396 -648.88844483 1649.05689702 -650.05786133 1652.02416992 C-650.56642172 1653.31084744 -651.07554645 1654.59730203 -651.58520508 1655.88354492 C-651.96515625 1656.84248657 -651.96515625 1656.84248657 -652.3527832 1657.82080078 C-654.31499107 1662.72444811 -656.47187533 1667.51507752 -658.76489258 1672.27416992 C-659.83598298 1674.51850189 -659.83598298 1674.51850189 -659.64770508 1677.44604492 C-592.32770508 1677.44604492 -525.00770508 1677.44604492 -455.64770508 1677.44604492 C-452.20623619 1671.48826078 -452.20623619 1671.48826078 -449.77270508 1665.38354492 C-448.23906667 1660.98188194 -446.51046621 1656.71916279 -444.64770508 1652.44604492 C-442.85116554 1648.31400398 -441.14723828 1644.19472233 -439.64770508 1639.94604492 C-437.71383855 1634.46675642 -435.40121686 1629.17912201 -433.08520508 1623.85229492 C-431.84169171 1620.90570891 -430.71171663 1617.96074432 -429.64770508 1614.94604492 C-427.71383855 1609.46675642 -425.40121686 1604.17912201 -423.08520508 1598.85229492 C-421.84169171 1595.90570891 -420.71171663 1592.96074432 -419.64770508 1589.94604492 C-417.71383855 1584.46675642 -415.40121686 1579.17912201 -413.08520508 1573.85229492 C-411.84169171 1570.90570891 -410.71171663 1567.96074432 -409.64770508 1564.94604492 C-407.71383855 1559.46675642 -405.40121686 1554.17912201 -403.08520508 1548.85229492 C-401.84169171 1545.90570891 -400.71171663 1542.96074432 -399.64770508 1539.94604492 C-397.71383855 1534.46675642 -395.40121686 1529.17912201 -393.08520508 1523.85229492 C-391.84169171 1520.90570891 -390.71171663 1517.96074432 -389.64770508 1514.94604492 C-387.75420511 1509.58112835 -385.51093482 1504.39769476 -383.21020508 1499.19604492 C-381.54363326 1495.31458726 -380.14742193 1491.34276905 -378.71899414 1487.36889648 C-376.92611796 1482.47730268 -374.97132061 1477.65224617 -373.02270508 1472.82104492 C-372.13463733 1470.61012626 -371.24661786 1468.39918822 -370.35864258 1466.18823242 C-369.9084375 1465.06900391 -369.45823242 1463.94977539 -368.99438477 1462.79663086 C-366.87191923 1457.51586273 -364.76012053 1452.23083933 -362.64770508 1446.94604492 C-361.81963631 1444.87570993 -360.9915111 1442.80539751 -360.16333008 1440.73510742 C-359.75147461 1439.70546875 -359.33961914 1438.67583008 -358.9152832 1437.61499023 C-357.61254883 1434.3581543 -356.30981445 1431.10131836 -355.00708008 1427.84448242 C-354.57355225 1426.76062256 -354.14002441 1425.6767627 -353.69335938 1424.56005859 C-352.83816591 1422.42215551 -351.9828622 1420.28429651 -351.12744141 1418.14648438 C-349.36990515 1413.75386887 -347.61287723 1409.36106946 -345.86254883 1404.96557617 C-343.6447594 1399.39946731 -341.40653868 1393.84495915 -339.08520508 1388.32104492 C-336.91235444 1383.14230188 -334.89687074 1377.91260479 -332.89770508 1372.66479492 C-331.30718119 1368.56919592 -329.60255013 1364.52630192 -327.89770508 1360.47729492 C-326.59512954 1357.31854923 -325.36404286 1354.13893159 -324.14770508 1350.94604492 C-322.16582284 1345.74360404 -320.05789439 1340.60774453 -317.89770508 1335.47729492 C-316.59512954 1332.31854923 -315.36404286 1329.13893159 -314.14770508 1325.94604492 C-312.54845014 1321.74800071 -310.89098459 1317.58633375 -309.14770508 1313.44604492 C-306.98036479 1308.29439184 -304.95911226 1303.09765999 -302.96801758 1297.87573242 C-300.59311091 1291.70659617 -298.11338276 1285.57933229 -295.64770508 1279.44604492 C-294.98061402 1277.77954807 -294.31389512 1276.11290216 -293.64770508 1274.44604492 C-286.98103841 1257.77937826 -280.31437174 1241.11271159 -273.64770508 1224.44604492 C-273.17977539 1223.27235352 -273.17977539 1223.27235352 -272.70239258 1222.07495117 C-271.90202878 1220.0799703 -271.09322924 1218.08837124 -270.28051758 1216.09838867 C-267.23635424 1208.61406993 -264.39240697 1201.09597098 -261.82788086 1193.43212891 C-260.64576758 1189.97262281 -259.33522336 1186.72353163 -257.65551758 1183.47338867 C-255.56398529 1179.41862985 -254.08117874 1175.27009458 -252.64770508 1170.94604492 C-250.97004841 1165.88542123 -249.06985845 1161.19572168 -246.62036133 1156.4597168 C-244.98133502 1153.06647157 -243.83188809 1149.51811347 -242.64770508 1145.94604492 C-240.97004841 1140.88542123 -239.06985845 1136.19572168 -236.62036133 1131.4597168 C-234.98133502 1128.06647157 -233.83188809 1124.51811347 -232.64770508 1120.94604492 C-230.97004841 1115.88542123 -229.06985845 1111.19572168 -226.62036133 1106.4597168 C-224.98133502 1103.06647157 -223.83188809 1099.51811347 -222.64770508 1095.94604492 C-220.93411938 1090.77704192 -219.02930669 1085.97898121 -216.41723633 1081.19018555 C-215.44587236 1079.3063181 -215.44587236 1079.3063181 -215.64770508 1076.44604492 C-210.77270508 1079.19604492 -210.77270508 1079.19604492 -209.64770508 1081.44604492 C-209.02895508 1081.75541992 -208.41020508 1082.06479492 -207.77270508 1082.38354492 C-205.50998191 1083.5149065 -204.42399799 1084.65750171 -202.64770508 1086.44604492 C-195.64208226 1092.45412537 -195.64208226 1092.45412537 -188.14770508 1097.82104492 C-185.9619565 1099.24178149 -184.39373921 1100.54128042 -182.64770508 1102.44604492 C-179.63496889 1105.66592451 -179.63496889 1105.66592451 -175.64770508 1107.44604492 C-174.50900175 1108.58474825 -173.3742259 1109.72759095 -172.25708008 1110.88745117 C-169.58109955 1113.47899542 -166.62857589 1115.71457404 -163.70629883 1118.02026367 C-160.07575537 1120.89966021 -156.48748345 1123.82862078 -152.89770508 1126.75854492 C-147.79418973 1130.91887592 -142.65539749 1135.02587753 -137.46020508 1139.07104492 C-132.3499161 1143.05204003 -127.38931927 1147.17673264 -122.47119141 1151.3918457 C-118.2677098 1154.97332176 -113.92982604 1158.34112044 -109.52685547 1161.67236328 C-105.01237129 1165.11006039 -100.70682746 1168.75917606 -96.40844727 1172.46142578 C-92.01487152 1176.21343198 -87.44079366 1179.58842121 -82.69458008 1182.88745117 C-80.64770508 1184.44604492 -80.64770508 1184.44604492 -79.64770508 1186.44604492 C-79.02895508 1186.75541992 -78.41020508 1187.06479492 -77.77270508 1187.38354492 C-75.54204905 1188.49887294 -74.38273023 1189.68040965 -72.64770508 1191.44604492 C-71.61378211 1192.30465124 -70.56494839 1193.1455672 -69.50317383 1193.96948242 C-68.90827148 1194.43354492 -68.31336914 1194.89760742 -67.70043945 1195.37573242 C-67.08491211 1195.85268555 -66.46938477 1196.32963867 -65.83520508 1196.82104492 C-60.23711825 1201.17046564 -54.75929637 1205.6187063 -49.39770508 1210.25854492 C-46.97249193 1212.65355278 -46.97249193 1212.65355278 -44.64770508 1212.44604492 C-44.64770508 1213.10604492 -44.64770508 1213.76604492 -44.64770508 1214.44604492 C-43.00413622 1215.95378282 -43.00413622 1215.95378282 -40.83520508 1217.50854492 C-36.15852983 1221.0252865 -31.68501204 1224.74037922 -27.22583008 1228.52807617 C-24.7501796 1230.54729177 -24.7501796 1230.54729177 -21.88208008 1231.52026367 C-21.14473633 1231.82577148 -20.40739258 1232.1312793 -19.64770508 1232.44604492 C-19.31770508 1233.43604492 -18.98770508 1234.42604492 -18.64770508 1235.44604492 C-16.76272378 1237.03464551 -14.88516251 1238.4970949 -12.89770508 1239.94604492 C-8.18081006 1243.47196312 -3.60985089 1247.10284631 0.85229492 1250.94604492 C5.6584737 1255.07039333 10.5810275 1258.98931715 15.62231445 1262.8215332 C19.96002822 1266.12415529 24.18302924 1269.5466289 28.38745117 1273.01635742 C32.57704846 1276.44972964 36.81310669 1279.82406943 41.05102539 1283.19750977 C44.85927128 1286.23368971 48.6177873 1289.31959824 52.35229492 1292.44604492 C56.00865209 1295.45875342 59.68004675 1298.45274142 63.35229492 1301.44604492 C64.29717773 1302.22463867 65.24206055 1303.00323242 66.21557617 1303.80541992 C67.10631836 1304.53245117 67.99706055 1305.25948242 68.91479492 1306.00854492 C69.72045898 1306.66983398 70.52612305 1307.33112305 71.35620117 1308.01245117 C73.21344466 1309.640492 73.21344466 1309.640492 75.35229492 1309.44604492 C75.35229492 1310.10604492 75.35229492 1310.76604492 75.35229492 1311.44604492 C75.92979492 1311.69354492 76.50729492 1311.94104492 77.10229492 1312.19604492 C79.64579747 1313.60910189 81.3052841 1315.3990341 83.35229492 1317.44604492 C84.01229492 1317.44604492 84.67229492 1317.44604492 85.35229492 1317.44604492 C85.35229492 1318.10604492 85.35229492 1318.76604492 85.35229492 1319.44604492 C87.06246767 1321.022458 87.06246767 1321.022458 89.28979492 1322.63354492 C90.10448242 1323.24713867 90.91916992 1323.86073242 91.75854492 1324.49291992 C93.04245117 1325.4597168 93.04245117 1325.4597168 94.35229492 1326.44604492 C96.73960797 1328.34705346 99.12450231 1330.25090271 101.50463867 1332.16088867 C103.25083216 1333.6363828 103.25083216 1333.6363828 105.35229492 1333.44604492 C105.68229492 1334.43604492 106.01229492 1335.42604492 106.35229492 1336.44604492 C107.34229492 1336.69354492 107.34229492 1336.69354492 108.35229492 1336.94604492 C109.34229492 1337.19354492 109.34229492 1337.19354492 110.35229492 1337.44604492 C110.68229492 1338.43604492 111.01229492 1339.42604492 111.35229492 1340.44604492 C113.21660857 1342.01301987 115.07440732 1343.4545337 117.03979492 1344.88354492 C122.02424833 1348.60069376 126.79708049 1352.47796579 131.47729492 1356.57104492 C136.5719211 1361.01802508 141.77505894 1365.071432 147.34057617 1368.92260742 C149.35229492 1370.44604492 149.35229492 1370.44604492 150.35229492 1372.44604492 C151.28041992 1372.91010742 151.28041992 1372.91010742 152.22729492 1373.38354492 C154.45795095 1374.49887294 155.61726977 1375.68040965 157.35229492 1377.44604492 C158.38621789 1378.30465124 159.43505161 1379.1455672 160.49682617 1379.96948242 C161.09172852 1380.43354492 161.68663086 1380.89760742 162.29956055 1381.37573242 C162.91508789 1381.85268555 163.53061523 1382.32963867 164.16479492 1382.82104492 C175.84606916 1391.89678414 175.84606916 1391.89678414 179.53979492 1395.69604492 C181.33309188 1397.67934141 181.33309188 1397.67934141 184.35229492 1398.44604492 C185.70985163 1399.75470658 187.0393326 1401.09264716 188.35229492 1402.44604492 C190.16857114 1403.98720871 192.00295017 1405.50722246 193.85229492 1407.00854492 C194.79073242 1407.77295898 195.72916992 1408.53737305 196.69604492 1409.32495117 C198.01088867 1410.37489258 198.01088867 1410.37489258 199.35229492 1411.44604492 C200.08448242 1412.03256836 200.81666992 1412.6190918 201.57104492 1413.22338867 C203.26703362 1414.63468319 203.26703362 1414.63468319 205.35229492 1414.44604492 C205.68229492 1415.43604492 206.01229492 1416.42604492 206.35229492 1417.44604492 C207.34229492 1417.77604492 208.33229492 1418.10604492 209.35229492 1418.44604492 C210.68562826 1419.77937826 212.01896159 1421.11271159 213.35229492 1422.44604492 C214.01229492 1422.44604492 214.67229492 1422.44604492 215.35229492 1422.44604492 C215.35229492 1423.10604492 215.35229492 1423.76604492 215.35229492 1424.44604492 C217.56648109 1426.33757562 219.78796476 1428.12254171 222.10229492 1429.88354492 C222.73651367 1430.3740332 223.37073242 1430.86452148 224.02416992 1431.36987305 C225.25187608 1432.31750873 226.4828866 1433.26088247 227.7175293 1434.19946289 C229.05020958 1435.21569132 230.36766188 1436.25186467 231.68041992 1437.29370117 C233.28832877 1438.63521431 233.28832877 1438.63521431 235.35229492 1438.44604492 C236.01229492 1439.76604492 236.67229492 1441.08604492 237.35229492 1442.44604492 C238.34229492 1442.44604492 239.33229492 1442.44604492 240.35229492 1442.44604492 C240.68487305 1443.31229492 240.68487305 1443.31229492 241.02416992 1444.19604492 C242.75951234 1447.13591913 244.8149934 1448.47853797 247.60229492 1450.44604492 C252.41608334 1453.91624496 256.94994254 1457.60064518 261.41479492 1461.50854492 C266.53059265 1465.97841217 271.74951991 1470.05375973 277.34057617 1473.92260742 C279.35229492 1475.44604492 279.35229492 1475.44604492 280.35229492 1477.44604492 C281.28041992 1477.91010742 281.28041992 1477.91010742 282.22729492 1478.38354492 C284.45959505 1479.49969498 285.61686949 1480.67765641 287.35229492 1482.44604492 C289.61826875 1484.35861324 291.95789448 1486.1771969 294.28979492 1488.00854492 C294.91047852 1488.50290039 295.53116211 1488.99725586 296.1706543 1489.5065918 C299.11267858 1491.82198684 301.87680369 1493.97396969 305.35229492 1495.44604492 C305.35229492 1496.10604492 305.35229492 1496.76604492 305.35229492 1497.44604492 C306.28041992 1497.84823242 306.28041992 1497.84823242 307.22729492 1498.25854492 C309.35229492 1499.44604492 309.35229492 1499.44604492 311.35229492 1502.44604492 C312.34229492 1502.77604492 313.33229492 1503.10604492 314.35229492 1503.44604492 C315.70985163 1504.75470658 317.0393326 1506.09264716 318.35229492 1507.44604492 C320.16857114 1508.98720871 322.00295017 1510.50722246 323.85229492 1512.00854492 C324.79073242 1512.77295898 325.72916992 1513.53737305 326.69604492 1514.32495117 C328.01088867 1515.37489258 328.01088867 1515.37489258 329.35229492 1516.44604492 C330.08448242 1517.03256836 330.81666992 1517.6190918 331.57104492 1518.22338867 C333.26703362 1519.63468319 333.26703362 1519.63468319 335.35229492 1519.44604492 C335.68229492 1520.43604492 336.01229492 1521.42604492 336.35229492 1522.44604492 C337.34229492 1522.77604492 338.33229492 1523.10604492 339.35229492 1523.44604492 C340.68562826 1524.77937826 342.01896159 1526.11271159 343.35229492 1527.44604492 C344.01229492 1527.44604492 344.67229492 1527.44604492 345.35229492 1527.44604492 C345.68229492 1528.43604492 346.01229492 1529.42604492 346.35229492 1530.44604492 C348.4239198 1532.20273659 350.48470984 1533.83642728 352.66479492 1535.44604492 C353.5378125 1536.1034668 353.5378125 1536.1034668 354.4284668 1536.77416992 C356.0648316 1538.0046866 357.70837011 1539.22564652 359.35229492 1540.44604492 C360.10897461 1541.04416992 360.8656543 1541.64229492 361.64526367 1542.25854492 C363.279355 1543.63639975 363.279355 1543.63639975 365.35229492 1543.44604492 C365.61171875 1544.04803711 365.87114258 1544.6500293 366.13842773 1545.27026367 C367.45595956 1547.63185733 368.60595549 1548.67544044 370.77416992 1550.25854492 C371.46293213 1550.770625 372.15169434 1551.28270508 372.86132812 1551.81030273 C373.60084717 1552.35009766 374.34036621 1552.88989258 375.10229492 1553.44604492 C380.79251805 1557.68829606 386.32534715 1562.01920605 391.66479492 1566.69604492 C396.72937194 1571.12136869 401.95289447 1575.19947031 407.37573242 1579.18432617 C411.08288315 1582.00117692 414.59676886 1585.01883708 418.11914062 1588.05932617 C423.52403745 1592.68079938 429.18027254 1596.95752277 434.88037109 1601.20678711 C435.57751221 1601.73046875 436.27465332 1602.25415039 436.99291992 1602.79370117 C437.61714844 1603.25784424 438.24137695 1603.7219873 438.88452148 1604.20019531 C440.35229492 1605.44604492 440.35229492 1605.44604492 441.35229492 1607.44604492 C442.05354492 1607.85854492 442.75479492 1608.27104492 443.47729492 1608.69604492 C447.79913083 1611.32672765 451.40004584 1614.71905535 455.18041992 1618.06323242 C458.43694718 1620.90915407 461.61242002 1623.24611851 465.35229492 1625.44604492 C465.68229492 1626.10604492 466.01229492 1626.76604492 466.35229492 1627.44604492 C467.28041992 1627.91010742 467.28041992 1627.91010742 468.22729492 1628.38354492 C470.48199601 1629.51089546 471.58425524 1630.66561244 473.35229492 1632.44604492 C474.96479082 1633.79447355 476.59160663 1635.12584547 478.22729492 1636.44604492 C482.47700797 1639.89963758 486.6803795 1643.39901703 490.85229492 1646.94604492 C499.09214238 1653.93271599 507.27784186 1660.85750305 516.21166992 1666.95385742 C518.35229492 1668.44604492 518.35229492 1668.44604492 520.97729492 1670.63354492 C524.20096296 1673.09371264 527.7046411 1674.72635168 531.35229492 1676.44604492 C532.25592773 1676.91139648 533.15956055 1677.37674805 534.09057617 1677.85620117 C555.88053244 1688.6819609 583.14419467 1692.11531946 606.66479492 1684.75854492 C609.60647244 1683.75255941 612.48343116 1682.64260982 615.35229492 1681.44604492 C616.47635742 1680.99358398 617.60041992 1680.54112305 618.75854492 1680.07495117 C623.8302739 1677.88674552 628.61064928 1675.27085509 633.35229492 1672.44604492 C634.01229492 1672.11604492 634.67229492 1671.78604492 635.35229492 1671.44604492 C635.35229492 1670.78604492 635.35229492 1670.12604492 635.35229492 1669.44604492 C636.05870117 1669.2165918 636.76510742 1668.98713867 637.49291992 1668.75073242 C652.29507713 1661.99674266 664.23642987 1642.75312862 670.35229492 1628.44604492 C671.34013199 1625.78006662 672.23686771 1623.09152519 673.10229492 1620.38354492 C673.31297607 1619.73530762 673.52365723 1619.08707031 673.74072266 1618.41918945 C682.25116799 1590.63211477 673.83106175 1561.18688964 662.34838867 1535.71948242 C661.31307447 1533.35653002 660.35784167 1530.97221616 659.41479492 1528.57104492 C658.02022471 1525.03559154 656.51564921 1521.58038431 654.91479492 1518.13354492 C652.58221247 1513.06891635 650.57445405 1507.91775312 648.60229492 1502.70385742 C646.63251157 1497.57010957 644.48827763 1492.51232892 642.35229492 1487.44604492 C641.51803609 1485.4464308 640.68470463 1483.44642951 639.85229492 1481.44604492 C638.59279622 1478.42166873 637.33211081 1475.3978239 636.06713867 1472.37573242 C633.09856945 1465.27658522 630.19409473 1458.15536232 627.39135742 1450.98901367 C625.73230279 1446.7750149 623.99988527 1442.62104842 622.10229492 1438.50854492 C617.15092087 1427.74735426 612.62701439 1416.7703898 608.27416992 1405.75463867 C606.35984464 1400.96071392 604.34537217 1396.20762158 602.35229492 1391.44604492 C601.51859277 1389.44619864 600.68525742 1387.44619939 599.85229492 1385.44604492 C599.43979492 1384.45604492 599.02729492 1383.46604492 598.60229492 1382.44604492 C574.85229492 1325.44604492 574.85229492 1325.44604492 573.59057617 1322.41479492 C572.79929315 1320.51771259 572.00529031 1318.62176093 571.20776367 1316.72729492 C568.15430801 1309.45618981 565.22272298 1302.1393089 562.30322266 1294.8137207 C560.06419893 1289.20314689 557.77892137 1283.61504083 555.43432617 1278.04760742 C554.35109378 1275.44315697 553.31749561 1272.82283202 552.28979492 1270.19604492 C550.82107248 1266.48558823 549.16521206 1262.9478571 547.28198242 1259.43041992 C546.35229492 1257.44604492 546.35229492 1257.44604492 545.47729492 1254.78979492 C544.03112685 1250.49146203 542.25912633 1246.36420628 540.47729492 1242.19604492 C536.14210231 1231.99102673 536.14210231 1231.99102673 534.16479492 1226.94604492 C532.8548548 1223.61948646 531.41831758 1220.37725585 529.91479492 1217.13354492 C527.56543786 1212.03126026 525.53124754 1206.84293225 523.54370117 1201.59057617 C520.41418855 1193.33071498 517.03474945 1185.1904087 513.41479492 1177.13354492 C511.25602668 1172.2906808 509.29760077 1167.37769921 507.35229492 1162.44604492 C506.35301038 1159.9439301 505.35103693 1157.44290728 504.34838867 1154.94213867 C503.68933946 1153.29063888 503.0356037 1151.63700784 502.38745117 1149.98120117 C500.67879397 1145.63750635 498.87881363 1141.36846027 496.91479492 1137.13354492 C495.06459247 1133.12194389 493.41255908 1129.07903306 491.85229492 1124.94604492 C490.01367234 1120.08479511 487.99214587 1115.37342148 485.80541992 1110.66088867 C481.35584149 1100.81679445 477.24394226 1090.8009485 473.27416992 1080.75463867 C471.35984464 1075.96071392 469.34537217 1071.20762158 467.35229492 1066.44604492 C466.51859277 1064.44619864 465.68525742 1062.44619939 464.85229492 1060.44604492 C464.43979492 1059.45604492 464.02729492 1058.46604492 463.60229492 1057.44604492 C419.85229492 952.44604492 419.85229492 952.44604492 418.61010742 949.46166992 C417.75367389 947.40835723 416.89417684 945.35632026 416.03198242 943.30541992 C415.60143555 942.27932617 415.17088867 941.25323242 414.72729492 940.19604492 C414.3431543 939.28338867 413.95901367 938.37073242 413.56323242 937.43041992 C412.65218454 935.18512772 411.78609515 932.94033465 410.94604492 930.66870117 C409.24657497 926.10400914 407.37508785 921.61878329 405.47729492 917.13354492 C404.94894043 915.88069702 404.94894043 915.88069702 404.40991211 914.60253906 C402.16930936 909.31165653 399.84168339 904.06957746 397.43432617 898.85229492 C395.59979637 894.77261853 393.98345067 890.61013359 392.35229492 886.44604492 C391.70734068 884.84152461 391.06149543 883.23736219 390.41479492 881.63354492 C388.83468616 877.68949392 387.30649495 873.72739471 385.78979492 869.75854492 C383.79668107 864.56308045 381.70579104 859.45444595 379.42260742 854.37963867 C377.66926239 850.47198986 375.98163013 846.55762967 374.41479492 842.57104492 C373.02022471 839.03559154 371.51564921 835.58038431 369.91479492 832.13354492 C367.58100938 827.06630414 365.57286817 821.91211538 363.59838867 816.69604492 C360.70565314 809.15135538 357.48291212 801.7422344 354.28979492 794.32104492 C351.54085399 787.92325401 348.92940166 781.48215073 346.39526367 774.99682617 C344.69929951 770.69272588 342.92125634 766.45700473 340.97729492 762.25854492 C338.80158121 757.52587461 336.83956416 752.7323494 334.92602539 747.88842773 C331.29857355 738.73781548 327.46413769 729.67208276 323.66674805 720.59106445 C321.55756663 715.54454235 319.4551766 710.49519455 317.35229492 705.44604492 C316.51899629 703.44603047 315.6856629 701.44603049 314.85229492 699.44604492 C309.85229492 687.44604492 304.85229492 675.44604492 299.85229492 663.44604492 C299.43979492 662.45612549 299.02729492 661.46620605 298.60229492 660.44628906 C297.76873046 658.44557154 296.93539724 656.44475766 296.10229492 654.44384766 C294.02438011 649.45401121 291.94251876 644.46589512 289.85229492 639.48120117 C285.06811635 628.05798298 280.37368972 616.60583895 275.83862305 605.08105469 C273.54240454 599.28020857 271.10274304 593.57701368 268.4765625 587.91748047 C266.12587248 582.75004614 264.11167557 577.44740326 262.09838867 572.14135742 C261.66655273 571.0044043 261.2347168 569.86745117 260.78979492 568.69604492 C260.39663086 567.64932617 260.0034668 566.60260742 259.59838867 565.52416992 C258.33524494 562.40392772 256.87174127 559.44827537 255.35229492 556.44604492 C254.74707442 555.01762196 254.16291625 553.58005374 253.60229492 552.13354492 C251.75903795 547.44418619 249.84471091 542.78765327 247.91479492 538.13354492 C245.750791 532.91139667 243.65796464 527.67405714 241.66479492 522.38354492 C240.392738 519.0299403 239.09516904 515.80146334 237.41479492 512.63354492 C235.38535598 508.77106436 233.91404155 504.72257119 232.41479492 500.63354492 C230.01306717 494.08749664 227.32577029 487.75586046 224.35229492 481.44604492 C221.89082013 476.05078284 219.5941804 470.61183742 217.41088867 465.09838867 C214.49322703 457.78808514 211.40247296 450.54998486 208.28979492 443.32104492 C206.25850136 438.59686601 204.3027355 433.85382773 202.41479492 429.07104492 C201.10771515 425.84178901 199.73126009 422.64524411 198.35229492 419.44604492 C196.27839305 414.63292931 194.27154488 409.80381753 192.34448242 404.93041992 C190.40652136 400.07788751 188.36977328 395.26591723 186.35229492 390.44604492 C185.51859277 388.44619864 184.68525742 386.44619939 183.85229492 384.44604492 C183.23354492 382.96104492 183.23354492 382.96104492 182.60229492 381.44604492 C168.85229492 348.44604492 168.85229492 348.44604492 167.59057617 345.41479492 C166.79929315 343.51771259 166.00529031 341.62176093 165.20776367 339.72729492 C163.27569012 335.12650439 161.37400327 330.51643175 159.53979492 325.87573242 C155.92392782 316.73156242 152.21268833 307.66185422 148.14208984 298.70922852 C145.71255959 293.35036435 143.50961807 287.91958381 141.35229492 282.44604492 C140.6980672 280.80252889 140.04312435 279.15929733 139.38745117 277.51635742 C138.90405273 276.30387329 138.90405273 276.30387329 138.41088867 275.06689453 C135.12408156 266.83134819 131.80014969 258.61574185 128.35229492 250.44604492 C127.42212672 248.23524103 126.49241617 246.024245 125.56274414 243.81323242 C124.87945435 242.19029687 124.19487866 240.56790212 123.5090332 238.94604492 C121.73871597 234.75759199 119.98677126 230.56311522 118.27026367 226.35229492 C111.52695495 209.88238121 103.52041986 195.76326667 89.35229492 184.44604492 C88.57885742 183.80280273 87.80541992 183.15956055 87.00854492 182.49682617 C72.12712877 171.00749753 54.89408827 165.63437959 36.35229492 164.44604492 C35.42545898 164.37514648 34.49862305 164.30424805 33.54370117 164.23120117 C15.3619574 163.5220848 -2.74103438 168.39137576 -18.12426758 177.89526367 Z " fill="#000000" transform="translate(1011.647705078125,-0.446044921875)"/>
<path d="M0 0 C0.99 0 1.98 0 3 0 C3.56267578 1.41539062 3.56267578 1.41539062 4.13671875 2.859375 C7.35389006 10.93668606 10.63277011 18.98382045 14 27 C18.14727431 36.87318851 22.14107629 46.80163852 26.09375 56.75390625 C27.83379381 61.12506468 29.61428686 65.47529111 31.4375 69.8125 C33.19763045 74.01635896 34.87693812 78.24137055 36.5 82.5 C38.46442028 87.65277843 40.54168724 92.74533193 42.6796875 97.828125 C44.17262218 101.4147018 45.62274843 105.01682283 47.0625 108.625 C47.44716431 109.58853394 47.44716431 109.58853394 47.83959961 110.5715332 C48.91710081 113.27378822 49.99107655 115.97737857 51.05859375 118.68359375 C52.95441402 123.47427652 54.94933719 128.21072222 57 132.9375 C59.2038422 138.04842049 61.21387031 143.18158914 63.07421875 148.42578125 C65.30949092 154.64115831 67.88071413 160.72415365 70.4375 166.8125 C72.20746109 171.03442553 73.88149389 175.28030829 75.5 179.5625 C77.04080194 183.61192011 78.67506075 187.57067767 80.5 191.5 C82.78869133 196.43387664 84.75652651 201.44906068 86.6796875 206.53515625 C89.03750515 212.72268364 91.53143874 218.8560253 94 225 C94.68770441 226.72908538 95.37523065 228.45824165 96.0625 230.1875 C97.91821664 234.83064162 99.84834632 239.44161108 101.77734375 244.0546875 C103.86024209 249.07227647 105.86759715 254.11987037 107.85546875 259.17578125 C110.11240394 264.8821807 112.48444077 270.53617331 114.875 276.1875 C118.35533255 284.41858333 121.71339392 292.68972275 125 301 C127.09983584 306.29128308 129.23141742 311.56448989 131.4375 316.8125 C133.19763045 321.01635896 134.87693812 325.24137055 136.5 329.5 C138.87326965 335.72241637 141.41116381 341.8647017 144 348 C148.14907409 357.87239495 152.14109572 367.80168744 156.09375 377.75390625 C157.83379381 382.12506468 159.61428686 386.47529111 161.4375 390.8125 C163.6672776 396.1407109 165.75683867 401.51421751 167.81640625 406.91015625 C170.24768882 413.25716784 172.80483775 419.54659981 175.4375 425.8125 C177.20746109 430.03442553 178.88149389 434.28030829 180.5 438.5625 C182.04080194 442.61192011 183.67506075 446.57067767 185.5 450.5 C187.82220919 455.50000666 189.80214148 460.59035574 191.75 465.74609375 C192.94503413 468.85691697 194.20543453 471.92945252 195.5 475 C197.19934697 479.03726841 198.81858786 483.09301709 200.375 487.1875 C202.9180242 493.86193574 205.63841803 500.4564579 208.37109375 507.0546875 C209.96214249 510.89828326 211.50817672 514.7586303 213.04296875 518.625 C214.14742913 521.36586493 215.29189485 524.08858435 216.4375 526.8125 C218.20746109 531.03442553 219.88149389 535.28030829 221.5 539.5625 C223.05659757 543.656498 224.71532923 547.6538653 226.5625 551.625 C228.1791274 555.10350168 229.60721785 558.56757734 230.875 562.1875 C232.53352812 566.90014698 234.46941303 571.43972016 236.5 576 C238.89890998 581.39250243 241.08585985 586.79176696 243.04296875 592.36328125 C244.84116744 597.31750212 246.94244107 602.14914894 249 607 C251.45714489 612.79290523 253.88258903 618.57295002 256 624.5 C258.60426859 631.77327602 261.60824615 638.86682527 264.734375 645.9296875 C267.72361618 652.68416883 270.59762737 659.40087115 273.046875 666.375 C274.44532232 670.22646148 276.05149702 673.98354678 277.64453125 677.7578125 C279.15317557 681.36638537 280.61370707 684.99209025 282.0625 688.625 C282.3188623 689.26719482 282.57522461 689.90938965 282.83935547 690.57104492 C283.91698451 693.27344434 284.99100997 695.97720978 286.05859375 698.68359375 C287.95441402 703.47427652 289.94933719 708.21072222 292 712.9375 C294.2038422 718.04842049 296.21387031 723.18158914 298.07421875 728.42578125 C300.30949092 734.64115831 302.88071413 740.72415365 305.4375 746.8125 C307.20746109 751.03442553 308.88149389 755.28030829 310.5 759.5625 C312.04080194 763.61192011 313.67506075 767.57067767 315.5 771.5 C317.78990049 776.43648331 319.75813678 781.45469217 321.68359375 786.54296875 C324.76972724 794.64750328 328.01883082 802.69125799 331.375 810.6875 C334.69016062 818.59453359 337.84274974 826.56719206 341.01586914 834.53198242 C342.00834192 837.02091998 343.0038902 839.50860981 344 841.99609375 C345.32887454 845.31617591 346.64996817 848.63919379 347.96484375 851.96484375 C351.1480429 859.99753475 354.36846511 867.96184976 358.03515625 875.7890625 C359.35176751 878.80607454 360.21921915 881.80589651 361 885 C357.43770549 885 356.58890321 884.23890991 353.8125 882.125 C353.09707031 881.59132813 352.38164063 881.05765625 351.64453125 880.5078125 C350.83048828 879.76144531 350.83048828 879.76144531 350 879 C350 878.34 350 877.68 350 877 C349.18595703 876.89558594 349.18595703 876.89558594 348.35546875 876.7890625 C345.02415483 875.67309996 342.96210411 873.66786003 340.3125 871.375 C339.24571387 870.46376302 338.17799735 869.55361417 337.109375 868.64453125 C336.58408203 868.1954541 336.05878906 867.74637695 335.51757812 867.28369141 C331.23291408 863.65937295 326.88722607 860.12430489 322.0625 857.25 C320 856 320 856 318 853 C317.01 852.67 316.02 852.34 315 852 C315 851.34 315 850.68 315 850 C314.4225 849.72929688 313.845 849.45859375 313.25 849.1796875 C307.81582113 846.33051733 303.31101186 842.31101186 299 838 C296.86690808 836.76487921 296.86690808 836.76487921 295 836 C295 835.34 295 834.68 295 834 C294.28070312 833.75378906 293.56140625 833.50757813 292.8203125 833.25390625 C289.67438821 831.85523354 287.50076542 830.15960297 284.875 827.9375 C283.91207031 827.13183594 282.94914062 826.32617188 281.95703125 825.49609375 C280.98121094 824.67238281 280.00539063 823.84867188 279 823 C272.40405189 817.51435414 265.70005588 812.2528011 258.8046875 807.1484375 C255.59195063 804.68742736 252.58469902 802.0657849 249.62109375 799.3125 C247.92017441 797.77828683 247.92017441 797.77828683 245 797 C243.90695037 795.87279257 242.81637948 794.74307828 241.73828125 793.6015625 C238.51746661 790.63407036 234.82800083 788.25501246 231.23046875 785.76953125 C230.49441406 785.18558594 229.75835938 784.60164063 229 784 C229 783.34 229 782.68 229 782 C228.0409375 781.8453125 228.0409375 781.8453125 227.0625 781.6875 C226.381875 781.460625 225.70125 781.23375 225 781 C224.67 780.01 224.34 779.02 224 778 C222.34225689 777.31144353 220.67375374 776.64866835 219 776 C217.22447747 774.68540421 215.49756941 773.30369991 213.8125 771.875 C212.36423828 770.66263672 212.36423828 770.66263672 210.88671875 769.42578125 C209.45779297 768.22501953 209.45779297 768.22501953 208 767 C200.44749136 760.85094966 192.72796775 754.92510011 185 749 C180.08008349 745.22150412 175.22752294 741.37990571 170.4375 737.4375 C165.11397793 733.06220697 159.73530229 728.82353486 154 725 C154 724.34 154 723.68 154 723 C153.28972656 722.76152344 152.57945312 722.52304688 151.84765625 722.27734375 C148.53965686 720.79350863 146.20124363 718.90341776 143.4375 716.5625 C139.63341645 713.34208741 139.63341645 713.34208741 135.66015625 710.33984375 C134.83837891 709.67662109 134.83837891 709.67662109 134 709 C134 708.34 134 707.68 134 707 C133.45730469 706.93039062 132.91460938 706.86078125 132.35546875 706.7890625 C129.02415483 705.67309996 126.96210411 703.66786003 124.3125 701.375 C123.23926425 700.45718263 122.16503834 699.54052187 121.08984375 698.625 C120.56374512 698.17511719 120.03764648 697.72523438 119.49560547 697.26171875 C116.80242128 694.98970179 114.00349015 692.85827943 111.2109375 690.7109375 C108.78528986 688.83384622 106.39141495 686.92049016 104 685 C95.47271307 678.04159275 95.47271307 678.04159275 86.5 671.6875 C84 670 84 670 83 668 C80.98330173 666.86649466 80.98330173 666.86649466 79 666 C79 665.34 79 664.68 79 664 C78.28457031 663.7525 77.56914063 663.505 76.83203125 663.25 C73.68590294 661.86136405 71.36189037 660.15536054 68.6875 658 C67.80449219 657.29875 66.92148438 656.5975 66.01171875 655.875 C65.01591797 654.946875 65.01591797 654.946875 64 654 C64 653.34 64 652.68 64 652 C63.360625 651.896875 62.72125 651.79375 62.0625 651.6875 C61.381875 651.460625 60.70125 651.23375 60 651 C59.67 650.01 59.34 649.02 59 648 C57.34759794 647.29872284 55.67817941 646.63713115 54 646 C51.7109375 644.37109375 51.7109375 644.37109375 49.375 642.4375 C48.50230469 641.72207031 47.62960937 641.00664063 46.73046875 640.26953125 C45.82941406 639.52058594 44.92835938 638.77164063 44 638 C34.265231 629.96701284 24.52125148 621.98890048 14 615 C12.97980427 614.0206121 11.97850195 613.02104551 11 612 C6.80280482 608.5496367 2.4352967 605.34645555 -1.97851562 602.1796875 C-3.35521266 601.16725937 -4.68255593 600.08841472 -6 599 C-6 598.34 -6 597.68 -6 597 C-7.65 596.34 -9.3 595.68 -11 595 C-11 594.34 -11 593.68 -11 593 C-11.71027344 592.76152344 -12.42054688 592.52304688 -13.15234375 592.27734375 C-16.46034314 590.79350863 -18.79875637 588.90341776 -21.5625 586.5625 C-25.36658355 583.34208741 -25.36658355 583.34208741 -29.33984375 580.33984375 C-30.16162109 579.67662109 -30.16162109 579.67662109 -31 579 C-31 578.34 -31 577.68 -31 577 C-31.81404297 576.89558594 -31.81404297 576.89558594 -32.64453125 576.7890625 C-35.97584517 575.67309996 -38.03789589 573.66786003 -40.6875 571.375 C-41.76073575 570.45718263 -42.83496166 569.54052187 -43.91015625 568.625 C-44.43625488 568.17511719 -44.96235352 567.72523438 -45.50439453 567.26171875 C-48.19757872 564.98970179 -50.99650985 562.85827943 -53.7890625 560.7109375 C-56.21471014 558.83384622 -58.60858505 556.92049016 -61 555 C-69.52728693 548.04159275 -69.52728693 548.04159275 -78.5 541.6875 C-81 540 -81 540 -82 538 C-84.01669827 536.86649466 -84.01669827 536.86649466 -86 536 C-86 535.34 -86 534.68 -86 534 C-86.71542969 533.7525 -87.43085937 533.505 -88.16796875 533.25 C-91.31409706 531.86136405 -93.63810963 530.15536054 -96.3125 528 C-97.19550781 527.29875 -98.07851563 526.5975 -98.98828125 525.875 C-99.65214844 525.25625 -100.31601562 524.6375 -101 524 C-101 523.34 -101 522.68 -101 522 C-101.81404297 521.89558594 -101.81404297 521.89558594 -102.64453125 521.7890625 C-105.97584517 520.67309996 -108.03789589 518.66786003 -110.6875 516.375 C-111.76726902 515.45200059 -112.84800371 514.5301297 -113.9296875 513.609375 C-114.4565918 513.15884766 -114.98349609 512.70832031 -115.52636719 512.24414062 C-118.10428636 510.06768666 -120.78489505 508.02981689 -123.4609375 505.9765625 C-125.50417524 504.38598051 -127.52549447 502.77604515 -129.5390625 501.1484375 C-135.90305918 496.00645716 -142.23729898 490.95364201 -149.046875 486.40234375 C-150.91837948 485.05860354 -152.38509541 483.6352948 -154 482 C-158.18457332 478.53542993 -162.56546593 475.34590838 -166.97851562 472.1796875 C-168.35521266 471.16725937 -169.68255593 470.08841472 -171 469 C-171 468.34 -171 467.68 -171 467 C-172.65 466.34 -174.3 465.68 -176 465 C-176 464.34 -176 463.68 -176 463 C-177.2065625 462.6596875 -177.2065625 462.6596875 -178.4375 462.3125 C-181 461 -181 461 -181.76171875 458.69921875 C-182.02878054 455.67397782 -181.6077521 454.24781385 -180.375 451.5 C-179.81232422 450.19675781 -179.81232422 450.19675781 -179.23828125 448.8671875 C-178.82964844 447.92101562 -178.42101562 446.97484375 -178 446 C-177.17850227 443.87846218 -176.36634955 441.75328738 -175.5625 439.625 C-173.55538949 434.38318844 -171.4279606 429.20390642 -169.25 424.03125 C-167.94742446 420.87250431 -166.71633778 417.69288667 -165.5 414.5 C-163.90074506 410.30195579 -162.24327951 406.14028883 -160.5 402 C-158.33265971 396.84834692 -156.31140719 391.65161507 -154.3203125 386.4296875 C-151.94540583 380.26055125 -149.46567768 374.13328737 -147 368 C-146.33290894 366.33350315 -145.66619004 364.66685724 -145 363 C-111.5625 279.40625 -111.5625 279.40625 -110.78857422 277.47167969 C-110.26393553 276.15992055 -109.73952053 274.84807192 -109.21533203 273.53613281 C-108.1044089 270.7563594 -106.99097789 267.97772471 -105.8671875 265.203125 C-104.18198952 261.03657252 -102.5757608 256.8573071 -101.0625 252.625 C-99.29577736 247.71130265 -97.31693006 242.91071518 -95.28515625 238.1015625 C-93.96703834 234.92045118 -92.72500395 231.71803547 -91.5 228.5 C-89.51811776 223.29755912 -87.41018931 218.16169961 -85.25 213.03125 C-83.94742446 209.87250431 -82.71633778 206.69288667 -81.5 203.5 C-79.51603761 198.29209874 -77.40645392 193.15071674 -75.2421875 188.015625 C-73.97806965 184.94676028 -72.79538207 181.85571973 -71.625 178.75 C-69.69670916 173.67298108 -67.58194489 168.70956297 -65.375 163.75 C-63.29476133 159.06864314 -61.38657628 154.42597618 -59.87109375 149.53125 C-57.81581298 143.55895432 -55.23578187 137.76759844 -52.80615234 131.93994141 C-50.28593441 125.87523769 -47.90489356 119.7601856 -45.5625 113.625 C-43.55538949 108.38318844 -41.4279606 103.20390642 -39.25 98.03125 C-37.94742446 94.87250431 -36.71633778 91.69288667 -35.5 88.5 C-33.51811776 83.29755912 -31.41018931 78.16169961 -29.25 73.03125 C-27.94742446 69.87250431 -26.71633778 66.69288667 -25.5 63.5 C-23.51811776 58.29755912 -21.41018931 53.16169961 -19.25 48.03125 C-17.94742446 44.87250431 -16.71633778 41.69288667 -15.5 38.5 C-13.52061409 33.30411199 -11.41588994 28.17451856 -9.2578125 23.05078125 C-7.46847387 18.71080152 -5.8080137 14.32399023 -4.13671875 9.9375 C-2.83922959 6.58453832 -1.45287598 3.28808774 0 0 Z " fill="#000000" transform="translate(1042,460)"/>
</svg>
