<svg width="150" height="154" viewBox="0 0 150 154" fill="none" xmlns="http://www.w3.org/2000/svg">
<path d="M0 12C0 5.37259 5.37258 0 12 0H138C144.627 0 150 5.37258 150 12V142C150 148.627 144.627 154 138 154H12C5.37258 154 0 148.627 0 142V12Z" fill="#22314A" fill-opacity="0.7"/>
<path d="M49.4144 42.8195C44.4931 42.8195 40.8514 47.1523 41.0145 51.8511C41.1711 56.3652 40.9676 62.2122 39.5044 66.9802C38.0368 71.762 35.5544 74.7911 31.5 75.1802V79.5709C35.5544 79.96 38.0368 82.9891 39.5044 87.7713C40.9676 92.5392 41.1711 98.3856 41.0145 102.9C40.8514 107.598 44.4931 111.932 49.4151 111.932H99.842C104.764 111.932 108.404 107.599 108.241 102.9C108.085 98.3859 108.288 92.5392 109.751 87.7713C111.22 82.9894 113.696 79.9597 117.75 79.5709V75.1802C113.696 74.7911 111.22 71.762 109.752 66.9802C108.288 62.2129 108.085 56.3656 108.241 51.8511C108.404 47.1529 104.764 42.8195 99.842 42.8195H49.4137H49.4144ZM89.9748 85.3624C89.9748 91.8326 85.1772 95.7564 77.2152 95.7564H63.6611C63.2735 95.7563 62.9017 95.6013 62.6277 95.3256C62.3536 95.0498 62.1996 94.6758 62.1996 94.2859V60.4652C62.1996 60.2721 62.2373 60.0808 62.3108 59.9024C62.3842 59.7239 62.4919 59.5618 62.6277 59.4252C62.7634 59.2886 62.9246 59.1803 63.102 59.1064C63.2794 59.0324 63.4695 58.9944 63.6615 58.9944H77.1377C83.7766 58.9944 88.1336 62.6121 88.1336 68.166C88.1336 72.0643 85.2024 75.5543 81.4684 76.1653V76.369C86.5521 76.9299 89.9748 80.4711 89.9748 85.3624ZM75.7368 63.6559H68.009V74.6362H74.5182C79.5497 74.6362 82.3245 72.5981 82.3245 68.955C82.3245 65.5412 79.9381 63.6559 75.7368 63.6559ZM68.009 78.9931V91.0935H76.0215C81.2598 91.0935 84.0353 88.9791 84.0353 85.0052C84.0353 81.0306 81.1827 78.9924 75.6846 78.9924H68.009V78.9931Z" fill="#7E13F8"/>
</svg>
