<svg width="150" height="154" viewBox="0 0 150 154" fill="none" xmlns="http://www.w3.org/2000/svg">
<path d="M0 12C0 5.37259 5.37258 0 12 0H138C144.627 0 150 5.37258 150 12V142C150 148.627 144.627 154 138 154H12C5.37258 154 0 148.627 0 142V12Z" fill="#22314A" fill-opacity="0.7"/>
<g clip-path="url(#clip0_0_143)">
<path d="M74.9507 133.431L41.9868 124.343L34.6408 42.5192H115.359L108.006 124.33L74.9507 133.431Z" fill="#264DE4"/>
<path d="M101.71 119.121L107.994 49.2094H75V126.474L101.71 119.121Z" fill="#2965F1"/>
<path d="M51.4812 79.5565L52.3867 89.5918H75V79.5565H51.4812ZM49.6612 59.2449L50.5798 69.2802H75V59.2449H49.6612ZM75 105.619L74.9557 105.631L63.7018 102.613L62.9822 94.6096H52.8383L54.2539 110.367L74.9535 116.073L75 116.06V105.619Z" fill="#EBEBEB"/>
<path d="M53.6375 20.283H65.8761V25.3658H58.7557V30.4487H65.8767V35.5312H53.6375V20.283ZM68.3241 20.283H80.5631V24.7028H73.4423V25.5867H80.5631V35.7524H68.3245V31.111H75.4452V30.2271H68.3238L68.3241 20.283ZM83.0111 20.283H95.25V24.7028H88.1293V25.5867H95.25V35.7524H83.0111V31.111H90.1318V30.2271H83.0114V20.283H83.0111Z" fill="black"/>
<path d="M98.4542 79.5565L100.278 59.2449H74.9652V69.2802H89.2041L88.2846 79.5565H74.9652V89.5918H87.4085L86.2353 102.607L74.9649 105.628V116.068L95.6809 110.367L95.8328 108.671L98.2078 82.2513L98.4542 79.5565Z" fill="white"/>
</g>
<defs>
<clipPath id="clip0_0_143">
<rect width="81" height="113.434" fill="white" transform="translate(34.5 20.283)"/>
</clipPath>
</defs>
</svg>
