<?xml version="1.0" encoding="UTF-8"?>
<svg version="1.1" xmlns="http://www.w3.org/2000/svg" width="900" height="900">
<path d="M0 0 C297 0 594 0 900 0 C900 297 900 594 900 900 C603 900 306 900 0 900 C0 603 0 306 0 0 Z " fill="#1E63ED" transform="translate(0,0)"/>
<path d="M0 0 C5.1602239 2.76745766 9.53073499 5.84256833 13.9375 9.6875 C14.54795166 10.21786865 15.15840332 10.7482373 15.78735352 11.29467773 C24.0849735 18.60676932 30.40885462 26.4437056 36 36 C36.4021875 36.67804688 36.804375 37.35609375 37.21875 38.0546875 C41.80088047 46.42054691 43.47258047 55.54839052 43 65 C43.72058594 64.7834375 44.44117188 64.566875 45.18359375 64.34375 C67.71735287 58.5006624 93.31705801 60.6699214 113.96875 71.56640625 C114.6390625 72.03949219 115.309375 72.51257813 116 73 C116 73.66 116 74.32 116 75 C116.99 75.33 117.98 75.66 119 76 C114.44805877 93.60083941 101.556366 107.55919052 86.2578125 116.625 C68.7887008 126.09335323 51.28964161 125.50844554 32 125 C31.78065796 126.15181763 31.78065796 126.15181763 31.55688477 127.3269043 C29.36219906 137.86158813 23.81920178 147.6750517 18.93164062 157.16748047 C17.67902505 159.63135167 16.50386147 162.13103548 15.3125 164.625 C8.41645805 178.39819063 0.40132731 191.79654922 -9 204 C-10.25301798 205.74784037 -11.50289666 207.49793457 -12.75 209.25 C-16.11982433 213.8810061 -19.62282052 218.39350155 -23.1875 222.875 C-23.68668945 223.50567383 -24.18587891 224.13634766 -24.70019531 224.78613281 C-27.61233347 228.41903969 -30.65215041 231.75327782 -34 235 C-34.82757812 235.85078125 -35.65515625 236.7015625 -36.5078125 237.578125 C-42.67070634 243.86979573 -49.07048055 249.54621154 -56 255 C-57.15186658 255.92996876 -58.30286971 256.86100776 -59.453125 257.79296875 C-77.09992979 272 -77.09992979 272 -82 272 C-82 272.66 -82 273.32 -82 274 C-92.45350186 279.75774276 -102.81248143 284.82881931 -114 289 C-114.88300781 289.35578125 -115.76601563 289.7115625 -116.67578125 290.078125 C-125.08521553 293.37389085 -133.87081888 295.36699576 -142.64355469 297.44042969 C-144.65373396 297.91777437 -146.65942116 298.41397074 -148.6640625 298.9140625 C-189.82962258 308.64053135 -234.14999058 303.44955049 -274 291 C-274 290.34 -274 289.68 -274 289 C-274.69480469 288.88140625 -275.38960938 288.7628125 -276.10546875 288.640625 C-279.31045173 287.93129003 -282.2424599 286.91183553 -285.3125 285.75 C-286.38113281 285.35296875 -287.44976562 284.9559375 -288.55078125 284.546875 C-292.64225012 282.71196937 -296.26317125 280.46285897 -300 278 C-300.65105713 277.57493164 -301.30211426 277.14986328 -301.97290039 276.71191406 C-310.55626656 271.05321078 -318.62044813 265.20314824 -326 258 C-326.845625 257.175 -327.69125 256.35 -328.5625 255.5 C-329.366875 254.675 -330.17125 253.85 -331 253 C-331.66515625 252.36835937 -332.3303125 251.73671875 -333.015625 251.0859375 C-359.16103544 225.9187567 -372.3151845 189.09662969 -378 154 C-378.11859375 153.30342285 -378.2371875 152.6068457 -378.359375 151.88916016 C-379.81046078 143.20639839 -380.10051193 134.77420294 -380.046875 125.9921875 C-380.04349121 124.93185303 -380.04010742 123.87151855 -380.03662109 122.77905273 C-380.02785585 120.18600125 -380.01556793 117.59301806 -380 115 C-379.34024951 114.99902319 -378.68049902 114.99804638 -378.00075608 114.99703997 C-338.77683452 114.93859048 -299.55296887 114.86466109 -260.32911487 114.77101372 C-255.60474546 114.75974744 -250.88037576 114.74860868 -246.15600586 114.73754883 C-245.21558798 114.73534514 -244.2751701 114.73314146 -243.30625471 114.730871 C-228.13921724 114.69563316 -212.9721798 114.6706931 -197.80511675 114.64965298 C-182.20738315 114.62778264 -166.60970201 114.59462734 -151.01201314 114.55129844 C-141.4107727 114.52497369 -131.80959746 114.50713777 -122.20832279 114.50065396 C-115.59741206 114.49534066 -108.98658291 114.47892901 -102.37571613 114.45433434 C-98.57875932 114.44051921 -94.78194779 114.4310714 -90.98496437 114.43499184 C-76.32699315 114.44687257 -61.78228342 114.12816623 -47.19035339 112.66047668 C-46.02741959 112.54443484 -44.86448578 112.428393 -43.66631156 112.30883473 C-31.12110966 110.9028551 -19.26367704 107.70828882 -8 102 C-7.34 102 -6.68 102 -6 102 C-6.60328125 100.94683594 -7.2065625 99.89367187 -7.828125 98.80859375 C-19.49740236 77.98746711 -22.51426274 56.36735906 -16.83984375 32.9375 C-16.56269531 31.968125 -16.28554688 30.99875 -16 30 C-15.69255859 28.9171875 -15.69255859 28.9171875 -15.37890625 27.8125 C-14.70281 25.79680932 -13.89916665 23.92778531 -13 22 C-12.24009766 20.36224609 -12.24009766 20.36224609 -11.46484375 18.69140625 C-8.26263333 11.9715277 -4.83989528 5.70859443 0 0 Z " fill="#FDFEFE" transform="translate(603,344)"/>
<path d="M0 0 C18.15 0 36.3 0 55 0 C55 17.82 55 35.64 55 54 C36.85 54 18.7 54 0 54 C0 36.18 0 18.36 0 0 Z " fill="#FEFEFE" transform="translate(433,389)"/>
<path d="M0 0 C18.15 0 36.3 0 55 0 C55 17.82 55 35.64 55 54 C36.85 54 18.7 54 0 54 C0 36.18 0 18.36 0 0 Z " fill="#F6FAFE" transform="translate(363,321)"/>
<path d="M0 0 C18.15 0 36.3 0 55 0 C55 17.82 55 35.64 55 54 C36.85 54 18.7 54 0 54 C0 36.18 0 18.36 0 0 Z " fill="#F7FAFE" transform="translate(433,321)"/>
<path d="M0 0 C18.15 0 36.3 0 55 0 C55 17.82 55 35.64 55 54 C36.85 54 18.7 54 0 54 C0 36.18 0 18.36 0 0 Z " fill="#F8FBFE" transform="translate(433,253)"/>
<path d="M0 0 C17.82 0 35.64 0 54 0 C54 17.82 54 35.64 54 54 C36.18 54 18.36 54 0 54 C0 36.18 0 18.36 0 0 Z " fill="#FEFEFE" transform="translate(503,389)"/>
<path d="M0 0 C17.82 0 35.64 0 54 0 C54 17.82 54 35.64 54 54 C36.18 54 18.36 54 0 54 C0 36.18 0 18.36 0 0 Z " fill="#FDFEFE" transform="translate(364,389)"/>
<path d="M0 0 C17.82 0 35.64 0 54 0 C54 17.82 54 35.64 54 54 C36.18 54 18.36 54 0 54 C0 36.18 0 18.36 0 0 Z " fill="#FAFCFE" transform="translate(294,389)"/>
<path d="M0 0 C17.82 0 35.64 0 54 0 C54 17.82 54 35.64 54 54 C36.18 54 18.36 54 0 54 C0 36.18 0 18.36 0 0 Z " fill="#FDFEFE" transform="translate(224,389)"/>
<path d="M0 0 C17.82 0 35.64 0 54 0 C54 17.82 54 35.64 54 54 C36.18 54 18.36 54 0 54 C0 36.18 0 18.36 0 0 Z " fill="#F9FCFE" transform="translate(294,321)"/>
<path d="M0 0 C1.50767957 0.00056958 1.50767957 0.00056958 3.04581732 0.00115067 C4.2008123 -0.00084038 5.35580728 -0.00283143 6.54580212 -0.00488281 C7.83079316 -0.00196997 9.11578421 0.00094287 10.43971437 0.00394398 C11.80588655 0.0035084 13.17205865 0.00263373 14.5382303 0.00135481 C18.30990245 -0.00089271 22.08154648 0.00313463 25.85321504 0.00813287 C29.91390344 0.01243352 33.97459013 0.01099123 38.03528017 0.0102306 C45.07652408 0.00970512 52.11775875 0.01285443 59.15900034 0.01846844 C69.33957362 0.02658018 79.52014241 0.02919832 89.70071857 0.03045643 C106.21625368 0.03264746 122.73178387 0.03930894 139.2473163 0.04875904 C155.29484209 0.05793184 171.34236655 0.06501332 187.38989443 0.06926686 C188.37832724 0.06952958 189.36676005 0.0697923 190.38514537 0.07006299 C195.34360232 0.07136798 200.30205927 0.0726317 205.26051623 0.07387489 C246.42482085 0.0842491 287.58912005 0.10186881 328.75341982 0.1241985 C328.75341982 0.4541985 328.75341982 0.7841985 328.75341982 1.1241985 C319.86802664 1.92992816 311.07503766 2.26618419 302.1555652 2.24445301 C300.84997158 2.24530744 299.54437796 2.24616186 298.1992209 2.24704218 C294.61428216 2.24925618 291.02937386 2.24530878 287.44443899 2.24026412 C283.56392235 2.23591486 279.6834072 2.2374092 275.80288881 2.23816639 C269.09252897 2.23868881 262.38217891 2.23557161 255.67182153 2.22992855 C245.96996747 2.22177516 236.26811809 2.21919441 226.56626097 2.21794056 C210.82273637 2.21575606 195.07921698 2.20911233 179.33569521 2.19963795 C164.04923714 2.19044824 148.76278048 2.18337504 133.47632021 2.17913014 C132.06112692 2.17873605 132.06112692 2.17873605 130.61734387 2.17833401 C125.88391153 2.1770289 121.15047919 2.1757652 116.41704684 2.1745221 C77.19583419 2.16416824 37.97462735 2.14656634 -1.24658018 2.1241985 C-1.10045496 5.81358183 -0.94866737 9.50271179 -0.79589659 13.19182545 C-0.75481276 14.23085263 -0.71372893 15.2698798 -0.67140013 16.34039265 C-0.37429688 23.42633158 0.2162665 30.31187687 1.37841982 37.3116985 C1.66924158 39.11657918 1.95339635 40.92255027 2.22998232 42.72966725 C2.35453798 43.48401051 2.47909364 44.23835377 2.60742372 45.01555592 C2.76407922 47.27815378 2.41911911 48.9681504 1.75341982 51.1241985 C-4.29192389 35.46126253 -4.31156359 17.70930135 -3.24658018 1.1241985 C-2.24658018 0.1241985 -2.24658018 0.1241985 0 0 Z " fill="#4E7DDA" transform="translate(224.246580183506,456.8758015036583)"/>
<path d="M0 0 C18.15 0 36.3 0 55 0 C55 17.82 55 35.64 55 54 C36.85 54 18.7 54 0 54 C0 36.18 0 18.36 0 0 Z M2 3 C2 19.5 2 36 2 53 C19.16 53 36.32 53 54 53 C54.0309375 40.9034375 54.0309375 40.9034375 54.0625 28.5625 C54.071604 26.01345947 54.08070801 23.46441895 54.09008789 20.83813477 C54.09300688 18.83089246 54.09555548 16.82364957 54.09765625 14.81640625 C54.10277222 13.76352417 54.10788818 12.71064209 54.11315918 11.62585449 C54.11328003 10.63114136 54.11340088 9.63642822 54.11352539 8.61157227 C54.115746 7.74331314 54.11796661 6.87505402 54.12025452 5.98048401 C54.21954667 3.99856319 54.21954667 3.99856319 53 3 C51.40389018 2.90666295 49.80366572 2.88254628 48.20483398 2.88647461 C46.67335976 2.88658791 46.67335976 2.88658791 45.11094666 2.88670349 C44.0005452 2.89186478 42.89014374 2.89702606 41.74609375 2.90234375 C40.05021873 2.90446617 40.05021873 2.90446617 38.32008362 2.90663147 C34.69252935 2.91224981 31.06503576 2.92480542 27.4375 2.9375 C24.98502693 2.94251264 22.5325529 2.94707595 20.08007812 2.95117188 C14.05334296 2.9613763 8.02673978 2.98094814 2 3 Z " fill="#C9E0FB" transform="translate(433,389)"/>
<path d="M0 0 C17.82 0 35.64 0 54 0 C54 17.82 54 35.64 54 54 C36.18 54 18.36 54 0 54 C0 36.18 0 18.36 0 0 Z M2 3 C2 19.17 2 35.34 2 52 C4.86842214 52.95614071 6.66200813 53.12652444 9.63916016 53.12939453 C10.57668121 53.13254669 11.51420227 53.13569885 12.48013306 53.13894653 C13.48957977 53.1369223 14.49902649 53.13489807 15.5390625 53.1328125 C16.5756601 53.13376923 17.61225769 53.13472595 18.68026733 53.13571167 C20.87082988 53.13639222 23.06139445 53.13454665 25.25195312 53.13037109 C28.61853521 53.12501029 31.98498452 53.13032589 35.3515625 53.13671875 C37.4765628 53.13605816 39.60156301 53.13477739 41.7265625 53.1328125 C42.74005768 53.13483673 43.75355286 53.13686096 44.79776001 53.13894653 C45.72897675 53.13579437 46.66019348 53.13264221 47.61962891 53.12939453 C48.85514999 53.12820114 48.85514999 53.12820114 50.1156311 53.12698364 C52.01259023 53.20673113 52.01259023 53.20673113 53 52 C53.09319449 50.4651703 53.117458 48.92607918 53.11352539 47.38842773 C53.11334412 45.89635803 53.11334412 45.89635803 53.11315918 44.37414551 C53.10804321 43.32126343 53.10292725 42.26838135 53.09765625 41.18359375 C53.09664917 40.22134888 53.09564209 39.259104 53.09460449 38.2677002 C53.0893546 34.65762142 53.07539348 31.04755957 53.0625 27.4375 C53.041875 19.373125 53.02125 11.30875 53 3 C36.17 3 19.34 3 2 3 Z " fill="#DAEEFE" transform="translate(503,389)"/>
<path d="M0 0 C17.82 0 35.64 0 54 0 C53.34 0.33 52.68 0.66 52 1 C52 1.66 52 2.32 52 3 C35.5 3 19 3 2 3 C2.03952926 17.9134704 2.03952926 17.9134704 2.09008789 32.8269043 C2.09300939 34.70100854 2.0955574 36.57511341 2.09765625 38.44921875 C2.10277222 39.41686157 2.10788818 40.38450439 2.11315918 41.38146973 C2.11328003 42.31479126 2.11340088 43.24811279 2.11352539 44.2097168 C2.115746 45.0157988 2.11796661 45.8218808 2.12025452 46.65238953 C1.99073534 49.18086474 1.55273825 51.53226148 1 54 C0.67 54 0.34 54 0 54 C0 36.18 0 18.36 0 0 Z " fill="#D8E9FD" transform="translate(224,389)"/>
<path d="M0 0 C17.82 0 35.64 0 54 0 C54 17.82 54 35.64 54 54 C36.18 54 18.36 54 0 54 C0 36.84 0 19.68 0 2 C0.33 2 0.66 2 1 2 C1 18.83 1 35.66 1 53 C13.3440625 52.7834375 13.3440625 52.7834375 25.9375 52.5625 C28.53874756 52.51939697 31.13999512 52.47629395 33.82006836 52.43188477 C35.86833408 52.39378006 37.9165931 52.35531251 39.96484375 52.31640625 C41.03931763 52.29993042 42.1137915 52.28345459 43.2208252 52.26647949 C44.23584106 52.24629761 45.25085693 52.22611572 46.29663086 52.20532227 C47.62566689 52.18200584 47.62566689 52.18200584 48.98155212 52.15821838 C50.99637541 52.22018675 50.99637541 52.22018675 52 51 C52.12263388 49.43551617 52.17779522 47.86567228 52.20532227 46.29663086 C52.22550415 45.28161499 52.24568604 44.26659912 52.26647949 43.2208252 C52.28295532 42.14635132 52.29943115 41.07187744 52.31640625 39.96484375 C52.33505737 38.98294067 52.3537085 38.0010376 52.3729248 36.98937988 C52.4414572 33.3055154 52.50145568 29.62149617 52.5625 25.9375 C52.706875 17.708125 52.85125 9.47875 53 1 C35.51 1 18.02 1 0 1 C0 0.67 0 0.34 0 0 Z " fill="#C8E2FD" transform="translate(364,389)"/>
<path d="M0 0 C17.49 0 34.98 0 53 0 C53 0.99 53 1.98 53 3 C36.83 3 20.66 3 4 3 C4 2.34 4 1.68 4 1 C2.68 0.67 1.36 0.34 0 0 Z " fill="#E5F5FD" transform="translate(434,253)"/>
<path d="M0 0 C9.24 0 18.48 0 28 0 C28 0.66 28 1.32 28 2 C26.83428467 2.029729 26.83428467 2.029729 25.64501953 2.06005859 C22.13799309 2.15507009 18.63158206 2.26484559 15.125 2.375 C13.29001953 2.42140625 13.29001953 2.42140625 11.41796875 2.46875 C10.25136719 2.50742187 9.08476563 2.54609375 7.8828125 2.5859375 C6.80402832 2.6173584 5.72524414 2.6487793 4.61376953 2.68115234 C1.84238346 2.74676322 1.84238346 2.74676322 0 5 C0 3.35 0 1.7 0 0 Z " fill="#4D7CD9" transform="translate(635,469)"/>
<path d="M0 0 C0 0.66 0 1.32 0 2 C-2.37191584 3.29761299 -4.74724614 4.58816317 -7.125 5.875 C-7.79015625 6.23980469 -8.4553125 6.60460937 -9.140625 6.98046875 C-14.61958425 9.93480952 -19.62691272 12.37488749 -26 12 C-22.78546023 9.30166369 -19.62396058 7.97333487 -15.6875 6.5625 C-11.21429107 4.90389444 -4.5761236 0 0 0 Z " fill="#356CD8" transform="translate(515,621)"/>
<path d="M0 0 C0.66 0.99 1.32 1.98 2 3 C0.16007775 6.8842803 -1.86853817 10.64229073 -4 14.375 C-4.7425 15.68597656 -4.7425 15.68597656 -5.5 17.0234375 C-5.995 17.67570313 -6.49 18.32796875 -7 19 C-7.99 19 -8.98 19 -10 19 C-9.41992188 18.07380859 -9.41992188 18.07380859 -8.828125 17.12890625 C-5.41354622 11.57598977 -2.47623403 6.03035817 0 0 Z M1 5 C1.33 5.66 1.66 6.32 2 7 C1.34 6.67 0.68 6.34 0 6 C0.33 5.67 0.66 5.34 1 5 Z " fill="#346CDA" transform="translate(621,501)"/>
<path d="M0 0 C0.33 0 0.66 0 1 0 C1.53330505 3.5815927 2.04946167 7.16545271 2.5625 10.75 C2.71396484 11.76578125 2.86542969 12.7815625 3.02148438 13.828125 C3.16005859 14.8078125 3.29863281 15.7875 3.44140625 16.796875 C3.57232666 17.69760742 3.70324707 18.59833984 3.83813477 19.52636719 C3.99736203 21.95968635 3.73710222 23.69214003 3 26 C-0.75058597 17.40490715 -0.28499689 9.19378855 0 0 Z " fill="#4275D9" transform="translate(223,482)"/>
<path d="M0 0 C3.465 1.98 3.465 1.98 7 4 C7 4.99 7 5.98 7 7 C6.01 6.34 5.02 5.68 4 5 C0.59367293 5.17468344 -0.74468586 5.77228739 -3.3125 8.0625 C-4.1478125 9.0215625 -4.1478125 9.0215625 -5 10 C-5 6.60406522 -4.47834052 5.93380119 -2.5 3.3125 C-2.0359375 2.68988281 -1.571875 2.06726563 -1.09375 1.42578125 C-0.7328125 0.95527344 -0.371875 0.48476563 0 0 Z " fill="#D8EAFE" transform="translate(603,344)"/>
<path d="M0 0 C0.5625 1.9375 0.5625 1.9375 1 4 C0.67 4.33 0.34 4.66 0 5 C-0.45282714 7.25068541 -0.8344029 9.50815228 -1.20703125 11.7734375 C-2.2007574 14.56370305 -3.53349982 15.44905668 -6 17 C-5.57312017 15.10174715 -5.13300518 13.20646817 -4.6875 11.3125 C-4.44386719 10.25675781 -4.20023438 9.20101563 -3.94921875 8.11328125 C-3.00739175 5.02424372 -1.77627063 2.68182036 0 0 Z " fill="#CCE1FB" transform="translate(592,362)"/>
<path d="M0 0 C0.33 0.99 0.66 1.98 1 3 C-0.62415057 5.51005088 -1.71933982 7.1858385 -4 9 C-7.3125 9.375 -7.3125 9.375 -10 9 C-6.83047153 5.73991357 -3.60062011 2.77762123 0 0 Z " fill="#356EDB" transform="translate(551,595)"/>
<path d="M0 0 C2.22023926 2.22023926 2.99988963 3.98529101 4.1875 6.875 C4.55230469 7.73867188 4.91710937 8.60234375 5.29296875 9.4921875 C6.04664008 12.16543056 5.9388856 13.42852989 5 16 C4.67 14.68 4.34 13.36 4 12 C3.34 12 2.68 12 2 12 C0.86235649 7.73383684 0 4.43513689 0 0 Z " fill="#CADFFC" transform="translate(639,382)"/>
<path d="M0 0 C0.33 0.66 0.66 1.32 1 2 C-0.85579659 6.63949148 -3.34117479 9.6378363 -7 13 C-7.99 12.67 -8.98 12.34 -10 12 C-6.7 8.04 -3.4 4.08 0 0 Z " fill="#3D71D9" transform="translate(585,559)"/>
<path d="M0 0 C-6.03076923 4.06153846 -6.03076923 4.06153846 -10.9375 3.75 C-11.948125 3.5025 -12.95875 3.255 -14 3 C-9.7368213 0.15788087 -5.03577274 -2.0143091 0 0 Z " fill="#CBE0FB" transform="translate(583,453)"/>
<path d="M0 0 C0.66 0 1.32 0 2 0 C0.58707905 4.8274799 -1.42974154 8.7162359 -4 13 C-4.33 11.68 -4.66 10.36 -5 9 C-4.34 9 -3.68 9 -3 9 C-3.33 8.01 -3.66 7.02 -4 6 C-3.34 5.01 -2.68 4.02 -2 3 C-1.34 3 -0.68 3 0 3 C0 2.01 0 1.02 0 0 Z " fill="#D4E7FE" transform="translate(719,423)"/>
<path d="M0 0 C2.1519437 3.22791555 2.20086443 4.28400809 2 8 C2.66 8 3.32 8 4 8 C4 9.65 4 11.3 4 13 C0.95950199 9.35140239 -0.96518762 5.2555467 -3 1 C-2.01 0.67 -1.02 0.34 0 0 Z " fill="#2B64DA" transform="translate(637,371)"/>
<path d="M0 0 C0 3 0 3 -2 6 C-2.66 6 -3.32 6 -4 6 C-4.33 6.99 -4.66 7.98 -5 9 C-5.99 8.34 -6.98 7.68 -8 7 C-5.36 4.69 -2.72 2.38 0 0 Z " fill="#376FDB" transform="translate(560,587)"/>
<path d="M0 0 C0.33 0.99 0.66 1.98 1 3 C-2.42346555 6.14958831 -5.44262737 6.56179109 -10 7 C-6.76478258 4.51137122 -3.40739705 2.24578442 0 0 Z " fill="#376FDA" transform="translate(698,454)"/>
<path d="M0 0 C1 2 1 2 0.3125 4.9375 C-1.06192878 8.14450048 -2.06205603 9.23723362 -5 11 C-5.66 10.67 -6.32 10.34 -7 10 C-3.535 5.05 -3.535 5.05 0 0 Z " fill="#3E70DA" transform="translate(596,544)"/>
<path d="M0 0 C-5.56864697 3.09369276 -9.75703309 3.10170004 -16 2 C-16 1.67 -16 1.34 -16 1 C-10.62915894 0.31798844 -5.41499441 -0.11521265 0 0 Z " fill="#CCE1FC" transform="translate(569,456)"/>
<path d="M0 0 C2.31 0 4.62 0 7 0 C4.93243723 2.7972908 3.85559629 3.02692273 0.3125 3.6875 C-0.780625 3.790625 -1.87375 3.89375 -3 4 C-2.34 3.67 -1.68 3.34 -1 3 C-0.67 2.01 -0.34 1.02 0 0 Z " fill="#CCE2FC" transform="translate(478,633)"/>
<path d="M0 0 C0.66 0 1.32 0 2 0 C2 0.66 2 1.32 2 2 C2.99 2.33 3.98 2.66 5 3 C6.25 4.8125 6.25 4.8125 7 7 C6.67 8.32 6.34 9.64 6 11 C4.02 7.37 2.04 3.74 0 0 Z " fill="#D5E8FE" transform="translate(245,560)"/>
<path d="M0 0 C1.32 0.33 2.64 0.66 4 1 C0.37 2.32 -3.26 3.64 -7 5 C-7.33 4.01 -7.66 3.02 -8 2 C-6.865625 1.855625 -5.73125 1.71125 -4.5625 1.5625 C-1.19222799 1.38828522 -1.19222799 1.38828522 0 0 Z " fill="#376DD8" transform="translate(589,447)"/>
<path d="M0 0 C0.66 0.33 1.32 0.66 2 1 C1 3 0 5 -1 7 C-1.66 7 -2.32 7 -3 7 C-3 7.66 -3 8.32 -3 9 C-3.66 8.67 -4.32 8.34 -5 8 C-3.35 5.36 -1.7 2.72 0 0 Z " fill="#346ADB" transform="translate(606,529)"/>
<path d="M0 0 C4.42857143 5.14285714 4.42857143 5.14285714 5 9 C3.68 8.67 2.36 8.34 1 8 C0.67 5.36 0.34 2.72 0 0 Z " fill="#356CDA" transform="translate(592,437)"/>
<path d="M0 0 C1 3 1 3 0.22265625 5.04296875 C-0.16019531 5.75066406 -0.54304687 6.45835937 -0.9375 7.1875 C-1.31777344 7.90292969 -1.69804688 8.61835938 -2.08984375 9.35546875 C-2.54037109 10.16951172 -2.54037109 10.16951172 -3 11 C-3.66 10.01 -4.32 9.02 -5 8 C-4.01 7.67 -3.02 7.34 -2 7 C-2.33 5.68 -2.66 4.36 -3 3 C-2.01 2.67 -1.02 2.34 0 2 C0 1.34 0 0.68 0 0 Z " fill="#D1E5FE" transform="translate(628,484)"/>
<path d="M0 0 C-0.33 0.66 -0.66 1.32 -1 2 C-4.3 2 -7.6 2 -11 2 C-11 1.67 -11 1.34 -11 1 C-3.375 -1.125 -3.375 -1.125 0 0 Z " fill="#336BDA" transform="translate(675,467)"/>
<path d="M0 0 C3 1 3 1 4 3 C4.039992 4.99960012 4.04346799 7.00047242 4 9 C1.49701566 6.06171403 0.53069061 3.82097239 0 0 Z " fill="#D5E5FC" transform="translate(237,541)"/>
<path d="M0 0 C0.99 0 1.98 0 3 0 C2.39816251 2.02045442 1.72693904 4.02111039 1 6 C0.01 6.495 0.01 6.495 -1 7 C-2 4 -2 4 -1.0625 1.8125 C-0.5365625 0.9153125 -0.5365625 0.9153125 0 0 Z " fill="#C8DDF9" transform="translate(615,508)"/>
<path d="M0 0 C3.96 0.33 7.92 0.66 12 1 C12 1.33 12 1.66 12 2 C8.7 2.33 5.4 2.66 2 3 C2 2.34 2 1.68 2 1 C1.34 0.67 0.68 0.34 0 0 Z " fill="#CCE3FD" transform="translate(686,407)"/>
<path d="M0 0 C3.93673644 1.31224548 6.22719294 2.91910327 9 6 C4.58763974 6 3.21615077 3.9302707 0 1 C0 0.67 0 0.34 0 0 Z " fill="#3C71D8" transform="translate(610,348)"/>
</svg>
