<?xml version="1.0" encoding="UTF-8"?>
<svg version="1.1" xmlns="http://www.w3.org/2000/svg" width="320" height="320">
<path d="M0 0 C105.6 0 211.2 0 320 0 C320 105.6 320 211.2 320 320 C214.4 320 108.8 320 0 320 C0 214.4 0 108.8 0 0 Z " fill="#000000" transform="translate(0,0)"/>
<path d="M0 0 C1.010625 0.24492188 2.02125 0.48984375 3.0625 0.7421875 C22.64299206 6.06092693 39.80137359 19.2716604 50.26171875 36.64453125 C60.91910605 55.30220566 64.26215906 77.0061779 59 98 C55.42214637 110.27091986 48.5678982 128.55648375 36.76171875 135.2734375 C36.18035156 135.51320312 35.59898437 135.75296875 35 136 C35 136.66 35 137.32 35 138 C18.7573646 152.41948245 -2.44160318 159.29365356 -23.890625 158.41015625 C-45.33575314 156.96627009 -64.35450293 147.25129788 -79.25 131.8125 C-94.57871953 114.07638542 -99.93015118 92.93723588 -99 70 C-97.15100409 49.07591967 -86.48761143 29.54253894 -70.55078125 15.9453125 C-50.1855854 0.41412179 -25.1748724 -6.51849375 0 0 Z " fill="#010100" transform="translate(179,82)"/>
<path d="M0 0 C1.010625 0.24492188 2.02125 0.48984375 3.0625 0.7421875 C22.64299206 6.06092693 39.80137359 19.2716604 50.26171875 36.64453125 C60.91910605 55.30220566 64.26215906 77.0061779 59 98 C55.42214637 110.27091986 48.5678982 128.55648375 36.76171875 135.2734375 C36.18035156 135.51320312 35.59898437 135.75296875 35 136 C35 136.66 35 137.32 35 138 C18.7573646 152.41948245 -2.44160318 159.29365356 -23.890625 158.41015625 C-45.33575314 156.96627009 -64.35450293 147.25129788 -79.25 131.8125 C-94.57871953 114.07638542 -99.93015118 92.93723588 -99 70 C-97.15100409 49.07591967 -86.48761143 29.54253894 -70.55078125 15.9453125 C-50.1855854 0.41412179 -25.1748724 -6.51849375 0 0 Z M-79.375 27.75 C-87.77403123 38.44218778 -92.97404567 49.76786073 -96 63 C-96.19207031 63.79535156 -96.38414063 64.59070313 -96.58203125 65.41015625 C-99.77367854 85.18643808 -94.69970828 105.9483152 -83.5625 122.4375 C-82.39902351 123.97678969 -81.21178271 125.49844316 -80 127 C-79.11054687 128.13308594 -79.11054687 128.13308594 -78.203125 129.2890625 C-68.13095635 141.40063719 -54.1671262 149.89563431 -39 154 C-38.28070313 154.20496094 -37.56140625 154.40992188 -36.8203125 154.62109375 C-16.22134867 159.64946034 5.61438413 154.63695942 23.5078125 143.96484375 C41.63835762 132.15641543 53.17303961 114.23317621 58.3125 93.25 C61.96066807 71.5363843 56.99618311 50.82054074 44.8984375 32.62109375 C32.46282827 15.45176496 14.19149045 3.89028491 -6.74707031 0.29736328 C-34.83424321 -3.40985135 -60.68149888 6.51258206 -79.375 27.75 Z " fill="#ACD745" transform="translate(179,82)"/>
<path d="M0 0 C2.375 0.0625 2.375 0.0625 5 1 C9.67434076 6.27248749 12.86802164 12.45558933 16.3125 18.5625 C16.97056641 19.69880859 17.62863281 20.83511719 18.30664062 22.00585938 C18.92345703 23.09833984 19.54027344 24.19082031 20.17578125 25.31640625 C20.74208252 26.31099854 21.30838379 27.30559082 21.8918457 28.33032227 C23 31 23 31 22.80151367 33.23022461 C22 35 22 35 20 37 C17.25390625 37.25390625 17.25390625 37.25390625 14 36 C11.53309823 32.89140494 9.76931259 29.44748928 7.9375 25.9375 C6.92720329 24.07084423 5.91550273 22.20494753 4.90234375 20.33984375 C4.42015381 19.43621094 3.93796387 18.53257812 3.44116211 17.6015625 C1.73105801 14.51451027 -0.15013337 11.57217416 -2.12109375 8.64624023 C-3 7 -3 7 -2.9375 4.125 C-2 2 -2 2 0 0 Z " fill="#BCEC4B" transform="translate(159,128)"/>
<path d="M0 0 C3.72398808 0.62066468 4.44724104 2.42587795 6.625 5.4375 C7.73065796 7.24215614 8.7962686 9.07185289 9.82421875 10.921875 C10.39333984 11.93894531 10.96246094 12.95601562 11.54882812 14.00390625 C12.13083984 15.05449219 12.71285156 16.10507813 13.3125 17.1875 C14.48169467 19.28722638 15.65219549 21.38622617 16.82421875 23.484375 C17.33815186 24.41088867 17.85208496 25.33740234 18.3815918 26.29199219 C19.45094203 28.34918658 19.45094203 28.34918658 20.625 29.4375 C20.33769945 31.77694736 20.00563221 34.1114143 19.625 36.4375 C16.655 36.9325 16.655 36.9325 13.625 37.4375 C9.22479696 31.00597847 5.14793971 24.43430429 1.25 17.6875 C0.43208984 16.30884766 0.43208984 16.30884766 -0.40234375 14.90234375 C-1.17384766 13.56623047 -1.17384766 13.56623047 -1.9609375 12.203125 C-2.4254834 11.40680664 -2.8900293 10.61048828 -3.36865234 9.79003906 C-4.51530396 7.10951142 -4.71719784 5.32407508 -4.375 2.4375 C-2.375 0.4375 -2.375 0.4375 0 0 Z " fill="#BDED4B" transform="translate(194.375,145.5625)"/>
<path d="M0 0 C2.88549805 0.01782227 2.88549805 0.01782227 6 1 C8.04223633 3.46850586 8.04223633 3.46850586 9.83203125 6.71484375 C10.15411057 7.28578262 10.47618988 7.8567215 10.80802917 8.44496155 C11.82918402 10.26565136 12.82079088 12.1006362 13.8125 13.9375 C14.49746885 15.16966684 15.18429918 16.40080082 15.87304688 17.63085938 C22.35877216 29.25964545 22.35877216 29.25964545 22 35 C21.34 35.66 20.68 36.32 20 37 C17.09643555 36.96191406 17.09643555 36.96191406 14 36 C12.08129883 33.67089844 12.08129883 33.67089844 10.45703125 30.609375 C9.55887695 28.95615234 9.55887695 28.95615234 8.64257812 27.26953125 C8.03865234 26.10808594 7.43472656 24.94664062 6.8125 23.75 C5.58995856 21.47389666 4.36730631 19.19785284 3.14453125 16.921875 C2.61190674 15.90706055 2.07928223 14.89224609 1.53051758 13.84667969 C0.51209586 11.95247053 -0.56847869 10.0903691 -1.70825195 8.26660156 C-3 6 -3 6 -2.8125 3.8125 C-2 2 -2 2 0 0 Z " fill="#BEEE4C" transform="translate(141,149)"/>
<path d="M0 0 C3.6725841 1.28100613 4.43915895 3.12869027 6.359375 6.47265625 C6.689375 7.04113281 7.019375 7.60960937 7.359375 8.1953125 C8.07302607 9.43088748 8.77911518 10.67085372 9.47851562 11.91455078 C10.66704192 14.01191994 11.89297621 16.08416711 13.125 18.15625 C13.95439218 19.57347793 14.78254004 20.99143487 15.609375 22.41015625 C16.00737305 23.07990479 16.40537109 23.74965332 16.81542969 24.43969727 C20.44360249 30.79860648 20.44360249 30.79860648 19.609375 34.91015625 C16.609375 36.91015625 16.609375 36.91015625 14.15625 36.8828125 C10.5751169 35.51517118 9.75464246 33.64817545 7.859375 30.34765625 C7.5301001 29.77845459 7.2008252 29.20925293 6.86157227 28.62280273 C6.14916253 27.38619523 5.44378561 26.14551575 4.74462891 24.90136719 C3.55244457 22.8103015 2.31035488 20.7551101 1.05859375 18.69921875 C0.22018504 17.29106002 -0.61707565 15.88221706 -1.453125 14.47265625 C-1.85950195 13.81128662 -2.26587891 13.14991699 -2.68457031 12.46850586 C-4.53803169 9.26467707 -5.40290981 7.2351454 -5.26171875 3.5 C-4.13721773 0.15675259 -3.47072111 -0.1304356 0 0 Z " fill="#BEEE4C" transform="translate(110.390625,128.08984375)"/>
<path d="M0 0 C14.6688906 -0.57275495 28.86940476 2.82266231 41.6875 10 C42.28796143 10.33209473 42.88842285 10.66418945 43.50708008 11.00634766 C46.74674383 12.9087328 48.75174668 14.39214524 50 18 C49.33355469 17.62488281 48.66710937 17.24976562 47.98046875 16.86328125 C32.1328852 8.0639936 17.22734777 2.62422424 -1 2 C-0.67 1.34 -0.34 0.68 0 0 Z " fill="#AFDB46" transform="translate(158,80)"/>
<path d="M0 0 C-4.96003456 4.13939624 -10.99614897 5.8415603 -17 8 C-18.2375 8.45375 -19.475 8.9075 -20.75 9.375 C-25.0067893 10.19361333 -28.75504905 9.71230469 -33 9 C-33 8.67 -33 8.34 -33 8 C-31.51113281 7.77957031 -31.51113281 7.77957031 -29.9921875 7.5546875 C-21.24053114 6.14610099 -13.78149335 3.97034201 -5.79296875 0.109375 C-3 -1 -3 -1 0 0 Z " fill="#A8D243" transform="translate(200,229)"/>
<path d="M0 0 C0.99 0.33 1.98 0.66 3 1 C2.67386719 1.66644531 2.34773438 2.33289063 2.01171875 3.01953125 C-0.76242453 8.87060041 -2.82849585 14.4575429 -4.2265625 20.78515625 C-5 23 -5 23 -8 25 C-7.20494263 16.25436891 -4.25848245 7.66526842 0 0 Z " fill="#A4CE42" transform="translate(89,122)"/>
<path d="M0 0 C-1.144604 3.43381201 -2.72594464 4.58572759 -5.5 6.79296875 C-7.11655494 8.0937903 -8.57342089 9.4941665 -10 11 C-10 7 -10 7 -8.3203125 5.078125 C-7.59585938 4.47484375 -6.87140625 3.8715625 -6.125 3.25 C-5.04605469 2.32960938 -5.04605469 2.32960938 -3.9453125 1.390625 C-2 0 -2 0 0 0 Z " fill="#9FC740" transform="translate(110,99)"/>
<path d="M0 0 C0.66 0 1.32 0 2 0 C1.22095672 10.55808656 1.22095672 10.55808656 -1 15 C-1.33 15 -1.66 15 -2 15 C-1.03644647 4.44191344 -1.03644647 4.44191344 0 0 Z " fill="#AFDB46" transform="translate(237,170)"/>
<path d="M0 0 C1.27609323 0.90933009 2.54565553 1.82782853 3.8125 2.75 C4.87404297 3.51570313 4.87404297 3.51570313 5.95703125 4.296875 C8.02977691 6.02482358 9.47375854 7.78526476 11 10 C7.6989701 9.40114059 5.78574977 8.30314403 3.25 6.125 C2.63640625 5.61195312 2.0228125 5.09890625 1.390625 4.5703125 C0 3 0 3 0 0 Z " fill="#A2CB40" transform="translate(208,96)"/>
<path d="M0 0 C0.99 0.33 1.98 0.66 3 1 C0.36 3.97 -2.28 6.94 -5 10 C-5.66 9.34 -6.32 8.68 -7 8 C-4.69 5.36 -2.38 2.72 0 0 Z " fill="#A0C940" transform="translate(221,208)"/>
<path d="M0 0 C0.33 0 0.66 0 1 0 C1.66 4.95 2.32 9.9 3 15 C2.01 15.495 2.01 15.495 1 16 C-1.0662997 10.28728907 -1.0006709 5.96345767 0 0 Z " fill="#A0C840" transform="translate(82,167)"/>
<path d="M0 0 C0.66 0.66 1.32 1.32 2 2 C1.86328125 4.3125 1.86328125 4.3125 1.3125 7 C1.14363281 7.886875 0.97476563 8.77375 0.80078125 9.6875 C0 12 0 12 -3 14 C-2.40380045 9.13103697 -1.43023178 4.67209049 0 0 Z " fill="#9AC13D" transform="translate(84,133)"/>
<path d="M0 0 C-3.66830909 2.44553939 -6.63377915 2.95607424 -11 3 C-13.5 2.0625 -13.5 2.0625 -15 1 C-9.91913204 0.15318867 -5.15171623 -0.09038099 0 0 Z " fill="#A1CA40" transform="translate(182,236)"/>
<path d="M0 0 C3.65316671 1.24976756 4.78065836 1.67098753 7 5 C6.01 5.495 6.01 5.495 5 6 C3.2925002 4.71937515 1.62626404 3.38232443 0 2 C0 1.34 0 0.68 0 0 Z " fill="#9DC63F" transform="translate(104,216)"/>
</svg>
