<?xml version="1.0" encoding="UTF-8"?>
<svg version="1.1" xmlns="http://www.w3.org/2000/svg" width="185" height="185">
<path d="M0 0 C4.48381118 -0.36799866 4.48381118 -0.36799866 6.83178711 1.3059082 C7.4119458 1.86109131 7.99210449 2.41627441 8.58984375 2.98828125 C13.70169731 7.06364097 18.27309218 6.56700322 24.5625 6.1875 C48.93328571 5.47196293 69.90739487 13.46052513 88 30 C102.48230536 44.08263135 112.68031959 63.5268145 113.3359375 83.9140625 C113.66556253 111.67063997 107.77962668 133.80303129 88.0625 154.3125 C77 165 77 165 70 165 C71.06489073 162.51525497 71.97563097 161.02208443 74 159.1875 C76.6255602 156.31579354 77.24391666 153.78041672 78 150 C77.67 149.01 77.34 148.02 77 147 C74.86814236 145.99240636 74.86814236 145.99240636 72 146 C69.30976736 147.48522434 67.04249341 149.47519742 64.6875 151.4375 C59.28207675 155.70981046 53.93411269 159.44381438 47.75 162.5 C47.15018311 162.80091553 46.55036621 163.10183105 45.93237305 163.41186523 C43.97781986 164.34398843 42.00571485 165.1835163 40 166 C39.13600586 166.35827881 38.27201172 166.71655762 37.38183594 167.08569336 C29.13447315 170.19400634 21.51097031 170.65917574 12.75 170.5625 C12.06945557 170.55923706 11.38891113 170.55597412 10.68774414 170.5526123 C-3.0876973 170.4562409 -14.18267418 168.31270162 -26 161 C-26.495 160.01 -26.495 160.01 -27 159 C-27.90878906 158.56300781 -27.90878906 158.56300781 -28.8359375 158.1171875 C-31.38321765 156.80216562 -32.76527753 155.29604165 -34.625 153.125 C-35.51058594 152.10792969 -35.51058594 152.10792969 -36.4140625 151.0703125 C-37.91318087 149.11333531 -38.98569068 147.23951463 -40 145 C-40.66 145 -41.32 145 -42 145 C-43.58614945 142.88413081 -45.02624742 140.79146647 -46.4375 138.5625 C-46.84347412 137.92594482 -47.24944824 137.28938965 -47.66772461 136.63354492 C-51.10260079 131.10544275 -54 125.68018858 -54 119 C-54.66 118.67 -55.32 118.34 -56 118 C-62.57529582 96.9321097 -59.11340442 71.04682593 -49.27758789 51.78588867 C-44.40434629 42.73430809 -37.45678771 30.72839385 -28 26 C-27.90912109 24.19402344 -27.90912109 24.19402344 -27.81640625 22.3515625 C-27.73200268 20.77602923 -27.64735459 19.20050904 -27.5625 17.625 C-27.52318359 16.8309375 -27.48386719 16.036875 -27.44335938 15.21875 C-27.11328125 9.2265625 -27.11328125 9.2265625 -26 7 C-22.59937086 7.42507864 -20.08824699 8.43098463 -17.125 10.0625 C-13.26846176 12.05625751 -10.38547676 12.59035264 -6 12 C-3.5392464 11.21750908 -3.5392464 11.21750908 -2 9 C-1.08020804 6.03564192 -0.48797448 3.06268192 0 0 Z " fill="#5E5E5E" transform="translate(65,7)"/>
<path d="M0 0 C5.45743924 -0.46038152 7.73159386 1.61743555 11.828125 4.9375 C13.86075228 6.86776475 15.19809078 8.64636568 16.6875 11 C20.13225444 16.02116749 25.27713366 17.95133449 30.66015625 20.359375 C36.66343047 23.30835181 40.33413399 26.85337445 43 33 C43.50250781 34.70161375 43.98081551 36.41051969 44.4375 38.125 C46.72063588 46.1220156 53.08854815 49.96437486 60 54 C61.65337905 54.69897064 63.31729777 55.37491167 65 56 C63.11260557 60.88191968 59.68432567 62.28658643 55.2109375 64.60546875 C47.46177418 67.97098129 39.42144448 69.49537909 31 69 C31.309375 69.53625 31.61875 70.0725 31.9375 70.625 C33.78781456 74.76099725 34.09401136 79.01721588 34.3125 83.5 C34.36857422 84.56734375 34.36857422 84.56734375 34.42578125 85.65625 C33.28540475 91.93355186 28.39985733 95.66759137 23.5625 99.25 C23.00240234 99.683125 22.44230469 100.11625 21.86523438 100.5625 C16.99269116 104.24675671 13.1577196 106.35186969 7 106 C6.42065841 100.59281183 6.65779917 97.89350344 10 93.5 C10.98191175 92.31806919 11.97612198 91.14576826 13 90 C-2.71423739 89.21754835 -15.96172356 92.02638925 -28.0625 102.84375 C-34.59964929 109.71902771 -38.72431195 118.48876239 -39 128 C-39.061875 128.9384375 -39.12375 129.876875 -39.1875 130.84375 C-39.44338147 137.17681637 -38.8204612 141.66339457 -35.77734375 147.2578125 C-35.39255859 148.12019531 -35.39255859 148.12019531 -35 149 C-35.33 149.66 -35.66 150.32 -36 151 C-37.37562854 149.71034824 -38.70766393 148.37310707 -40 147 C-40 146.34 -40 145.68 -40 145 C-40.66 145 -41.32 145 -42 145 C-43.58614945 142.88413081 -45.02624742 140.79146647 -46.4375 138.5625 C-46.84347412 137.92594482 -47.24944824 137.28938965 -47.66772461 136.63354492 C-51.10260079 131.10544275 -54 125.68018858 -54 119 C-54.66 118.67 -55.32 118.34 -56 118 C-62.57529582 96.9321097 -59.11340442 71.04682593 -49.27758789 51.78588867 C-44.40434629 42.73430809 -37.45678771 30.72839385 -28 26 C-27.90912109 24.19402344 -27.90912109 24.19402344 -27.81640625 22.3515625 C-27.73200268 20.77602923 -27.64735459 19.20050904 -27.5625 17.625 C-27.52318359 16.8309375 -27.48386719 16.036875 -27.44335938 15.21875 C-27.11328125 9.2265625 -27.11328125 9.2265625 -26 7 C-22.59937086 7.42507864 -20.08824699 8.43098463 -17.125 10.0625 C-13.26846176 12.05625751 -10.38547676 12.59035264 -6 12 C-3.5392464 11.21750908 -3.5392464 11.21750908 -2 9 C-1.08020804 6.03564192 -0.48797448 3.06268192 0 0 Z " fill="#FCFCFC" transform="translate(65,7)"/>
<path d="M0 0 C19.40562065 12.94576304 33.7208768 32.22511801 38.53076172 55.28125 C41.79726247 78.18459118 38.30402626 98.94047859 26.91015625 118.94140625 C26.25015625 119.60140625 25.59015625 120.26140625 24.91015625 120.94140625 C25.32603717 117.9609263 25.7645531 115.29631393 26.91015625 112.50390625 C29.96013317 104.68834039 30.20332619 94.72833697 27.41015625 86.81640625 C24.17645002 79.60098345 18.92785157 73.6204797 11.91015625 69.94140625 C7.84778303 68.7188056 3.86558907 68.83061064 -0.33984375 68.87890625 C-1.08492187 68.88341797 -1.83 68.88792969 -2.59765625 68.89257812 C-4.42842015 68.90431379 -6.25914248 68.92224775 -8.08984375 68.94140625 C-6.76984375 67.62140625 -5.44984375 66.30140625 -4.08984375 64.94140625 C-16.00231471 64.49700319 -26.25334572 64.12690086 -36.75390625 70.578125 C-39.08984375 71.94140625 -39.08984375 71.94140625 -41.08984375 71.94140625 C-41.06664063 71.19117187 -41.0434375 70.4409375 -41.01953125 69.66796875 C-40.89864739 62.81212688 -41.44048248 56.59775708 -43.08984375 49.94140625 C-41.97867188 49.77125 -40.8675 49.60109375 -39.72265625 49.42578125 C-28.94088379 47.70016409 -18.93989874 45.74914086 -10.08984375 38.94140625 C-9.59484375 37.95140625 -9.59484375 37.95140625 -9.08984375 36.94140625 C-9.80011719 36.8434375 -10.51039063 36.74546875 -11.2421875 36.64453125 C-14.53499164 35.83149319 -16.79909582 34.51684999 -19.65234375 32.69140625 C-20.58175781 32.10875 -21.51117188 31.52609375 -22.46875 30.92578125 C-27.27389231 27.28790898 -29.46314359 23.67444922 -31.15234375 17.94140625 C-33.74928318 9.20320664 -37.26094874 5.36912255 -45.08984375 0.94140625 C-46.6429284 0.27324832 -48.20536548 -0.37368611 -49.77734375 -0.99609375 C-54.40811611 -2.92152015 -57.42582611 -5.81705979 -60.08984375 -10.05859375 C-60.08984375 -10.71859375 -60.08984375 -11.37859375 -60.08984375 -12.05859375 C-40.28154518 -17.57825925 -16.84998085 -10.27871032 0 0 Z " fill="#343434" transform="translate(139.08984375,26.05859375)"/>
<path d="M0 0 C5.54216448 1.01117486 11.18659522 1.20409986 16.8046875 1.51171875 C16.8046875 1.84171875 16.8046875 2.17171875 16.8046875 2.51171875 C14.1646875 2.51171875 11.5246875 2.51171875 8.8046875 2.51171875 C9.1140625 3.04796875 9.4234375 3.58421875 9.7421875 4.13671875 C11.59250206 8.272716 11.89869886 12.52893463 12.1171875 17.01171875 C12.17326172 18.0790625 12.17326172 18.0790625 12.23046875 19.16796875 C11.09009225 25.44527061 6.20454483 29.17931012 1.3671875 32.76171875 C0.80708984 33.19484375 0.24699219 33.62796875 -0.33007812 34.07421875 C-5.20262134 37.75847546 -9.0375929 39.86358844 -15.1953125 39.51171875 C-15.77465409 34.10453058 -15.53751333 31.40522219 -12.1953125 27.01171875 C-11.21340075 25.82978794 -10.21919052 24.65748701 -9.1953125 23.51171875 C-24.90954989 22.7292671 -38.15703606 25.538108 -50.2578125 36.35546875 C-56.79496179 43.23074646 -60.91962445 52.00048114 -61.1953125 61.51171875 C-61.2571875 62.45015625 -61.3190625 63.38859375 -61.3828125 64.35546875 C-61.63869397 70.68853512 -61.0157737 75.17511332 -57.97265625 80.76953125 C-57.58787109 81.63191406 -57.58787109 81.63191406 -57.1953125 82.51171875 C-57.6903125 83.50171875 -57.6903125 83.50171875 -58.1953125 84.51171875 C-59.57094104 83.22206699 -60.90297643 81.88482582 -62.1953125 80.51171875 C-62.1953125 79.85171875 -62.1953125 79.19171875 -62.1953125 78.51171875 C-62.8553125 78.51171875 -63.5153125 78.51171875 -64.1953125 78.51171875 C-64.67542744 76.38549542 -65.1527656 74.2586124 -65.6171875 72.12890625 C-65.98507306 70.46347837 -66.36878719 68.80141022 -66.7734375 67.14453125 C-70.21081537 52.16738483 -67.80862089 38.76056212 -59.9453125 25.63671875 C-50.31870472 11.65324107 -36.18123696 2.11307822 -19.47265625 -1.17578125 C-12.71329991 -2.10330871 -6.61471333 -1.48989549 0 0 Z " fill="#CBCBCB" transform="translate(87.1953125,73.48828125)"/>
<path d="M0 0 C0.39832031 1.10408203 0.39832031 1.10408203 0.8046875 2.23046875 C1.15789063 3.20628906 1.51109375 4.18210937 1.875 5.1875 C2.22304688 6.15042969 2.57109375 7.11335938 2.9296875 8.10546875 C3.90990488 10.75634859 4.93720434 13.3813098 6 16 C5.56429687 16.4125 5.12859375 16.825 4.6796875 17.25 C1.44030835 20.39121615 -1.48423819 23.52206759 -4.125 27.1875 C-6.41676288 30.36023625 -8.77602969 32.72425625 -12 35 C-10.02 35.33 -8.04 35.66 -6 36 C-7.85106552 37.92819325 -9.71036258 39.76879269 -11.80078125 41.4375 C-21.24073841 49.06278579 -26.79360606 59.09517116 -29 71 C-29.67502735 77.65017438 -29.86680675 84.32035856 -30 91 C-36.47161843 79.35108683 -34.59623171 56.28272259 -31.5 43.625 C-27.64019951 32.09977116 -14.45091938 0 0 0 Z " fill="#373737" transform="translate(40,32)"/>
<path d="M0 0 C4.19499653 -0.34651114 6.14360718 0.34818318 9.4375 2.9375 C10.15808594 3.48277344 10.87867188 4.02804688 11.62109375 4.58984375 C14.99768482 8.0107907 17.44252435 11.94673439 20 16 C15.12535909 16.07443657 10.25105272 16.12873667 5.37597656 16.16479492 C3.71934237 16.17983465 2.06274769 16.20027177 0.40625 16.22631836 C-1.9818703 16.26291515 -4.36946188 16.27977439 -6.7578125 16.29296875 C-7.85973434 16.31619453 -7.85973434 16.31619453 -8.98391724 16.33988953 C-13.74353768 16.34142964 -16.92003815 15.43282457 -21 13 C-20.44655096 17.16596186 -17.96827771 19.93924307 -15.4375 23.125 C-11 28.7408953 -11 28.7408953 -11 31 C-11.7425 31.433125 -12.485 31.86625 -13.25 32.3125 C-16.27178496 34.16677714 -17.92480878 36.15621943 -20 39 C-20.84324672 37.421924 -21.67423918 35.8372958 -22.5 34.25 C-22.9640625 33.36828125 -23.428125 32.4865625 -23.90625 31.578125 C-25 29 -25 29 -25 25 C-25.66 25 -26.32 25 -27 25 C-28.12228724 19.13916665 -28.75159436 12.50318871 -26 7 C-22.59937086 7.42507864 -20.08824699 8.43098463 -17.125 10.0625 C-13.26846176 12.05625751 -10.38547676 12.59035264 -6 12 C-3.5392464 11.21750908 -3.5392464 11.21750908 -2 9 C-1.08020804 6.03564192 -0.48797448 3.06268192 0 0 Z " fill="#CACACA" transform="translate(65,7)"/>
<path d="M0 0 C1.5625 1.25 1.5625 1.25 3 3 C2.80859375 5.00390625 2.80859375 5.00390625 2 7 C0.12422527 7.90439139 -1.75545062 8.8018049 -3.65625 9.65234375 C-8.15009066 12.23630213 -11.50980743 16.21895805 -15 20 C-15 17 -15 17 -13.7578125 15.60546875 C-13.21898437 15.13753906 -12.68015625 14.66960938 -12.125 14.1875 C-9.11309605 11.35152502 -8.20953953 8.97420132 -7 5 C-4.67649253 2.2267814 -3.45589795 1.15196598 0 0 Z " fill="#E9E9E9" transform="translate(54,37)"/>
<path d="M0 0 C0.66 0 1.32 0 2 0 C2.8353125 0.86625 2.8353125 0.86625 3.6875 1.75 C6.55711651 4.54205931 9.47973295 6.10447159 13 8 C13 8.33 13 8.66 13 9 C9.87501235 9.45731527 7.75985004 9.47775003 5.04296875 7.76953125 C3.20124623 6.25039149 1.51760381 4.84537031 0 3 C0 2.01 0 1.02 0 0 Z " fill="#828282" transform="translate(88,43)"/>
<path d="M0 0 C3 1 3 1 4.75 3.9375 C5.1625 4.948125 5.575 5.95875 6 7 C5.67 7.66 5.34 8.32 5 9 C1.7457985 6.16569547 0.4793247 4.31392226 0 0 Z " fill="#C1C1C1" transform="translate(24,149)"/>
</svg>
