<svg width="150" height="154" viewBox="0 0 150 154" fill="none" xmlns="http://www.w3.org/2000/svg">
<path d="M0 12C0 5.37259 5.37258 0 12 0H138C144.627 0 150 5.37258 150 12V142C150 148.627 144.627 154 138 154H12C5.37258 154 0 148.627 0 142V12Z" fill="#22314A" fill-opacity="0.7"/>
<g clip-path="url(#clip0_0_174)">
<path d="M113.435 73.8123L78.557 38.8787C76.5498 36.8669 73.292 36.8669 71.2816 38.8787L64.0397 46.1337L73.2269 55.3358C75.3626 54.6138 77.8103 55.0981 79.5119 56.8025C81.2224 58.5177 81.7021 60.9903 80.9636 63.1365L89.8179 72.0058C91.96 71.2661 94.4324 71.744 96.1423 73.4605C98.5343 75.8545 98.5343 79.7355 96.1423 82.1308C95.5738 82.7005 94.8989 83.1523 94.156 83.4606C93.4132 83.7689 92.617 83.9276 91.8129 83.9276C91.0088 83.9276 90.2126 83.7689 89.4697 83.4606C88.7269 83.1523 88.0519 82.7005 87.4835 82.1308C86.6294 81.2748 86.0473 80.185 85.8102 78.9983C85.5732 77.8117 85.6919 76.5814 86.1514 75.4622L77.8945 67.1918L77.8932 88.9585C78.4923 89.254 79.0392 89.6454 79.5126 90.1172C81.9033 92.5112 81.9033 96.391 79.5126 98.7901C77.1212 101.184 73.2452 101.184 70.8563 98.7901C68.4656 96.3916 68.4656 92.5119 70.8563 90.1172C71.4291 89.5426 72.1104 89.0879 72.8605 88.7798V66.8115C72.1098 66.5042 71.4283 66.0492 70.8563 65.4735C69.0452 63.6607 68.6092 60.9985 69.5382 58.7699L60.4807 49.6978L36.5655 73.6506C35.6007 74.6174 35.0586 75.9283 35.0586 77.2952C35.0586 78.6622 35.6007 79.9731 36.5655 80.9398L71.4442 115.873C73.4528 117.885 76.7092 117.885 78.7209 115.873L113.436 81.1021C114.4 80.1351 114.942 78.824 114.942 77.457C114.942 76.0901 114.4 74.7791 113.435 73.8123Z" fill="#F34F29"/>
</g>
<defs>
<clipPath id="clip0_0_174">
<rect width="81" height="81.1317" fill="white" transform="translate(34.5 36.8098)"/>
</clipPath>
</defs>
</svg>
