<?xml version="1.0" encoding="UTF-8"?>
<svg version="1.1" xmlns="http://www.w3.org/2000/svg" width="280" height="280">
<path d="M0 0 C1.16402344 -0.01933594 2.32804688 -0.03867188 3.52734375 -0.05859375 C10.29053325 0.89049472 14.84403992 4.84402961 19.5536499 9.54769897 C20.31286173 10.29989084 20.31286173 10.29989084 21.08741117 11.0672785 C22.76563447 12.73362575 24.4330349 14.41038049 26.10058594 16.08740234 C27.30793879 17.29068627 28.51592808 18.49333188 29.72450256 19.69538879 C32.99361488 22.95086148 36.25321071 26.21570784 39.51074123 29.48276472 C42.92545409 32.90508976 46.34749973 36.32007004 49.76837158 39.73623657 C55.51000553 45.47241826 61.24529774 51.21488371 66.97705078 56.9609375 C73.59991564 63.60013557 80.23352909 70.22844671 86.87281394 76.85122144 C92.57870275 82.54348962 98.27871609 88.24159168 103.97387338 93.94459689 C107.37287877 97.34827459 110.77386734 100.74990412 114.18016815 104.1462822 C117.3815478 107.33898587 120.57548037 110.53895847 123.76385307 113.74464989 C124.93392722 114.91868513 126.10655134 116.09018544 127.28191566 117.25892448 C128.88808939 118.85687815 130.48470304 120.46382397 132.07928467 122.07333374 C132.97447186 122.969652 133.86965904 123.86597027 134.79197311 124.78944969 C139.0929626 129.80557022 140.48032502 133.94063515 140.4375 140.5 C140.44523437 141.68722656 140.45296875 142.87445313 140.4609375 144.09765625 C139.73582031 150.1758445 136.347028 153.34339547 132.0625 157.4375 C130.7264594 158.76812056 129.39332472 160.10166276 128.0625 161.4375 C125.88677092 163.61729586 123.70454228 165.78672705 121.5 167.9375 C119.48196098 170.00728361 117.62072258 172.11313696 115.75 174.3125 C112.70936228 177.8301005 109.43586132 180.85053175 105.8984375 183.859375 C103.48797773 185.93134468 101.28177679 188.16274129 99.0625 190.4375 C97.73053209 191.77219736 96.39707769 193.10541219 95.0625 194.4375 C94.423125 195.076875 93.78375 195.71625 93.125 196.375 C61.0625 228.4375 61.0625 228.4375 58.30981445 231.17431641 C56.3443499 233.15365985 54.5376901 235.17436941 52.75 237.3125 C49.70936228 240.8301005 46.43586132 243.85053175 42.8984375 246.859375 C40.48797773 248.93134468 38.28177679 251.16274129 36.0625 253.4375 C34.73053209 254.77219736 33.39707769 256.10541219 32.0625 257.4375 C31.37285156 258.1284375 30.68320313 258.819375 29.97265625 259.53125 C28.49128323 261.00959362 26.99801481 262.47602214 25.5 263.9375 C23.44318533 266.04705351 21.53723218 268.19960383 19.625 270.4375 C11.81406511 279.42007513 11.81406511 279.42007513 6.0625 280.4375 C4.2526352 280.55348239 2.43853366 280.61242348 0.625 280.625 C-0.30183594 280.63917969 -1.22867188 280.65335937 -2.18359375 280.66796875 C-5.11583373 280.42257562 -7.27611389 279.65951577 -9.9375 278.4375 C-9.9375 277.7775 -9.9375 277.1175 -9.9375 276.4375 C-10.9275 276.4375 -11.9175 276.4375 -12.9375 276.4375 C-12.9375 275.7775 -12.9375 275.1175 -12.9375 274.4375 C-13.9275 274.1075 -14.9175 273.7775 -15.9375 273.4375 C-15.9375 272.7775 -15.9375 272.1175 -15.9375 271.4375 C-16.5975 271.4375 -17.2575 271.4375 -17.9375 271.4375 C-19.29136936 269.78747172 -20.62428142 268.1200613 -21.9375 266.4375 C-22.5975 266.1075 -23.2575 265.7775 -23.9375 265.4375 C-23.9375 264.7775 -23.9375 264.1175 -23.9375 263.4375 C-24.9275 263.1075 -25.9175 262.7775 -26.9375 262.4375 C-26.9375 261.7775 -26.9375 261.1175 -26.9375 260.4375 C-27.5975 260.4375 -28.2575 260.4375 -28.9375 260.4375 C-30.29136936 258.78747172 -31.62428142 257.1200613 -32.9375 255.4375 C-33.5975 255.1075 -34.2575 254.7775 -34.9375 254.4375 C-34.9375 253.7775 -34.9375 253.1175 -34.9375 252.4375 C-35.9275 252.1075 -36.9175 251.7775 -37.9375 251.4375 C-37.9375 250.7775 -37.9375 250.1175 -37.9375 249.4375 C-38.5975 249.4375 -39.2575 249.4375 -39.9375 249.4375 C-41.29136936 247.78747172 -42.62428142 246.1200613 -43.9375 244.4375 C-44.5975 244.1075 -45.2575 243.7775 -45.9375 243.4375 C-45.9375 242.7775 -45.9375 242.1175 -45.9375 241.4375 C-46.9275 241.1075 -47.9175 240.7775 -48.9375 240.4375 C-48.9375 239.7775 -48.9375 239.1175 -48.9375 238.4375 C-49.5975 238.4375 -50.2575 238.4375 -50.9375 238.4375 C-52.29136936 236.78747172 -53.62428142 235.1200613 -54.9375 233.4375 C-55.5975 233.1075 -56.2575 232.7775 -56.9375 232.4375 C-56.9375 231.7775 -56.9375 231.1175 -56.9375 230.4375 C-57.9275 230.1075 -58.9175 229.7775 -59.9375 229.4375 C-59.9375 228.7775 -59.9375 228.1175 -59.9375 227.4375 C-60.5975 227.4375 -61.2575 227.4375 -61.9375 227.4375 C-63.29136936 225.78747172 -64.62428142 224.1200613 -65.9375 222.4375 C-66.5975 222.1075 -67.2575 221.7775 -67.9375 221.4375 C-67.9375 220.7775 -67.9375 220.1175 -67.9375 219.4375 C-68.9275 219.1075 -69.9175 218.7775 -70.9375 218.4375 C-70.9375 217.7775 -70.9375 217.1175 -70.9375 216.4375 C-71.5975 216.4375 -72.2575 216.4375 -72.9375 216.4375 C-74.29136936 214.78747172 -75.62428142 213.1200613 -76.9375 211.4375 C-77.5975 211.1075 -78.2575 210.7775 -78.9375 210.4375 C-78.9375 209.7775 -78.9375 209.1175 -78.9375 208.4375 C-79.5975 208.4375 -80.2575 208.4375 -80.9375 208.4375 C-82.29136936 206.78747172 -83.62428142 205.1200613 -84.9375 203.4375 C-85.5975 203.1075 -86.2575 202.7775 -86.9375 202.4375 C-86.9375 201.7775 -86.9375 201.1175 -86.9375 200.4375 C-87.9275 200.1075 -88.9175 199.7775 -89.9375 199.4375 C-89.9375 198.7775 -89.9375 198.1175 -89.9375 197.4375 C-90.5975 197.4375 -91.2575 197.4375 -91.9375 197.4375 C-93.29136936 195.78747172 -94.62428142 194.1200613 -95.9375 192.4375 C-96.5975 192.1075 -97.2575 191.7775 -97.9375 191.4375 C-97.9375 190.7775 -97.9375 190.1175 -97.9375 189.4375 C-98.9275 189.1075 -99.9175 188.7775 -100.9375 188.4375 C-100.9375 187.7775 -100.9375 187.1175 -100.9375 186.4375 C-101.5975 186.4375 -102.2575 186.4375 -102.9375 186.4375 C-104.29136936 184.78747172 -105.62428142 183.1200613 -106.9375 181.4375 C-107.5975 181.1075 -108.2575 180.7775 -108.9375 180.4375 C-108.9375 179.7775 -108.9375 179.1175 -108.9375 178.4375 C-109.9275 178.1075 -110.9175 177.7775 -111.9375 177.4375 C-111.9375 176.7775 -111.9375 176.1175 -111.9375 175.4375 C-112.5975 175.4375 -113.2575 175.4375 -113.9375 175.4375 C-115.29136936 173.78747172 -116.62428142 172.1200613 -117.9375 170.4375 C-118.5975 170.1075 -119.2575 169.7775 -119.9375 169.4375 C-119.9375 168.7775 -119.9375 168.1175 -119.9375 167.4375 C-120.9275 167.1075 -121.9175 166.7775 -122.9375 166.4375 C-122.9375 165.7775 -122.9375 165.1175 -122.9375 164.4375 C-123.5975 164.4375 -124.2575 164.4375 -124.9375 164.4375 C-126.29136936 162.78747172 -127.62428142 161.1200613 -128.9375 159.4375 C-129.5975 159.1075 -130.2575 158.7775 -130.9375 158.4375 C-130.9375 157.7775 -130.9375 157.1175 -130.9375 156.4375 C-131.9275 156.1075 -132.9175 155.7775 -133.9375 155.4375 C-133.9375 154.7775 -133.9375 154.1175 -133.9375 153.4375 C-134.5975 153.4375 -135.2575 153.4375 -135.9375 153.4375 C-135.9375 152.4475 -135.9375 151.4575 -135.9375 150.4375 C-136.5975 150.4375 -137.2575 150.4375 -137.9375 150.4375 C-139.59977326 146.79633 -140.2099556 143.93459631 -140.1875 139.9375 C-140.19265625 139.0196875 -140.1978125 138.101875 -140.203125 137.15625 C-138.87744266 123.58750132 -120.29740745 110.67054735 -111.21484375 101.6171875 C-109.5011285 99.90534042 -107.78763619 98.19327013 -106.07435608 96.48098755 C-101.59353536 92.00396063 -97.10971828 87.52994661 -92.62524414 83.05657959 C-88.03804251 78.47965997 -83.45371747 73.89986103 -78.86914062 69.3203125 C-69.89472064 60.35657443 -60.91722617 51.39592226 -51.9375 42.4375 C-49.0861124 43.81257696 -46.9798812 45.13446966 -44.71362305 47.35498047 C-44.11007492 47.9425412 -43.50652679 48.53010193 -42.88468933 49.13546753 C-42.24598404 49.76881012 -41.60727875 50.40215271 -40.94921875 51.0546875 C-39.9553289 52.03503464 -39.9553289 52.03503464 -38.94136047 53.03518677 C-37.54599991 54.41606348 -36.15341391 55.79974874 -34.76342773 57.18603516 C-32.62740446 59.310109 -30.47344113 61.41481909 -28.31835938 63.51953125 C-26.96500102 64.86343144 -25.61274833 66.2084462 -24.26171875 67.5546875 C-23.6128923 68.18398163 -22.96406586 68.81327576 -22.295578 69.4616394 C-21.70779068 70.05550446 -21.12000336 70.64936951 -20.5144043 71.26123047 C-19.72975044 72.03827835 -19.72975044 72.03827835 -18.929245 72.83102417 C-17.9375 74.4375 -17.9375 74.4375 -18.2615509 76.49026489 C-18.48461411 77.13285248 -18.70767731 77.77544006 -18.9375 78.4375 C-19.65256436 85.43575286 -18.82726069 89.60285896 -14.9375 95.4375 C-14.9375 96.0975 -14.9375 96.7575 -14.9375 97.4375 C-13.4525 97.9325 -13.4525 97.9325 -11.9375 98.4375 C-11.9375 99.0975 -11.9375 99.7575 -11.9375 100.4375 C-11.31875 100.581875 -10.7 100.72625 -10.0625 100.875 C-7.9375 101.4375 -7.9375 101.4375 -5.9375 102.4375 C-5.9375 128.1775 -5.9375 153.9175 -5.9375 180.4375 C-6.9275 180.4375 -7.9175 180.4375 -8.9375 180.4375 C-8.9375 181.0975 -8.9375 181.7575 -8.9375 182.4375 C-9.659375 182.788125 -10.38125 183.13875 -11.125 183.5 C-15.83300278 186.74329081 -18.31550114 191.30262572 -19.42578125 196.8984375 C-19.79134546 203.52037202 -17.85665165 209.104724 -13.9375 214.4375 C-11.64154044 216.30481475 -9.69383785 217.24135339 -6.9375 218.4375 C-6.2775 218.7675 -5.6175 219.0975 -4.9375 219.4375 C1.50282357 219.93884255 7.67093401 220.41698918 13.0625 216.4375 C18.11023935 211.49949411 21.11780077 207.19884878 21.25 200 C21.17181378 196.40343379 20.78676804 192.96830668 20.0625 189.4375 C19.4025 189.4375 18.7425 189.4375 18.0625 189.4375 C15.0625 185.97596154 15.0625 185.97596154 15.0625 183.4375 C14.0725 183.4375 13.0825 183.4375 12.0625 183.4375 C12.0625 182.7775 12.0625 182.1175 12.0625 181.4375 C11.4025 181.4375 10.7425 181.4375 10.0625 181.4375 C10.0625 155.6975 10.0625 129.9575 10.0625 103.4375 C15.99830304 108.52533117 21.82809504 113.65405374 27.47216797 119.05761719 C28.5346603 120.06302135 29.60941308 121.05562103 30.69580078 122.03515625 C39.78550683 130.25122077 39.78550683 130.25122077 40.47509766 135.6940918 C40.1640625 138.89453125 40.1640625 138.89453125 39.53369141 141.78442383 C38.78035014 146.0261645 40.25398132 148.61178741 42.0625 152.4375 C42.3925 153.4275 42.7225 154.4175 43.0625 155.4375 C44.86182579 156.50466704 44.86182579 156.50466704 47.0625 157.4375 C47.908125 157.953125 48.75375 158.46875 49.625 159 C54.34986866 161.78646101 58.70910195 162.06220771 64.0625 161.4375 C69.40998556 159.68360099 73.46157194 156.7797956 77.0625 152.4375 C80.03977039 146.24099024 80.23543976 139.40882395 78.29296875 132.83203125 C75.76705024 127.50350351 72.40848851 124.61523567 67.02856445 122.27075195 C63.67364263 121.32825889 61.62531194 121.69069545 58.20703125 122.20703125 C50.40270429 122.31365981 46.56500578 118.53669689 41.24551392 113.36830139 C39.90687337 112.01669473 38.57995294 110.65338961 37.2644043 109.27929688 C35.25096618 107.1885033 33.17908733 105.17302222 31.09179688 103.15625 C21.58226572 93.67164667 21.58226572 93.67164667 20.25244141 87.95556641 C20.30078125 84.7734375 20.30078125 84.7734375 20.7590332 82.00927734 C21.21449907 78.14935983 19.70453298 75.52968753 17.9375 72.1796875 C17.0625 70.4375 17.0625 70.4375 17.0625 68.4375 C16.52625 68.169375 15.99 67.90125 15.4375 67.625 C13.70700102 66.75975051 12.01187715 65.82266453 10.34204102 64.84545898 C6.54545741 63.21552541 4.29967637 63.43594724 0.21484375 63.72265625 C-11.11329588 63.1693538 -17.11935049 54.76830105 -24.375 46.875 C-25.79678815 45.38287604 -27.22189679 43.89390863 -28.65039062 42.40820312 C-32.11882409 38.78660328 -35.53939494 35.12511687 -38.9375 31.4375 C-37.14473771 27.5816774 -34.68725539 24.88098883 -31.703125 21.90234375 C-31.18747986 21.38241348 -30.67183472 20.86248322 -30.14056396 20.32679749 C-29.05036158 19.23086532 -27.95754666 18.13752663 -26.86230469 17.04663086 C-25.19832885 15.38580833 -23.54810129 13.71213367 -21.8984375 12.03710938 C-20.83414535 10.97054327 -19.76906607 9.90476191 -18.703125 8.83984375 C-18.21539612 8.34290512 -17.72766724 7.84596649 -17.22515869 7.33396912 C-11.9644658 2.14246643 -7.37329486 0.00814729 0 0 Z " fill="#F05033" transform="translate(139.9375,-0.4375)"/>
</svg>
