<?xml version="1.0" standalone="no"?>
<!DOCTYPE svg PUBLIC "-//W3C//DTD SVG 20010904//EN"
 "http://www.w3.org/TR/2001/REC-SVG-20010904/DTD/svg10.dtd">
<svg version="1.0" xmlns="http://www.w3.org/2000/svg"
 width="640.000000pt" height="640.000000pt" viewBox="0 0 640.000000 640.000000"
 preserveAspectRatio="xMidYMid meet">

<g transform="translate(0.000000,640.000000) scale(0.100000,-0.100000)"
fill="#000000" stroke="none">
<path d="M0 3200 l0 -3200 3200 0 3200 0 0 3200 0 3200 -3200 0 -3200 0 0
-3200z m3455 2175 c893 -105 1637 -752 1860 -1620 53 -208 68 -324 68 -550 0
-221 -14 -339 -63 -536 -75 -301 -229 -609 -427 -851 -74 -90 -245 -259 -333
-329 -194 -153 -507 -322 -668 -359 -45 -11 -97 5 -122 37 -19 25 -20 38 -20
378 0 448 -11 517 -105 645 l-36 49 48 6 c497 71 778 279 886 656 41 141 51
224 51 399 0 138 -4 178 -23 245 -34 126 -99 251 -169 327 l-25 27 17 68 c37
145 31 291 -17 445 l-23 73 -47 3 c-103 7 -295 -64 -473 -175 l-82 -51 -78 19
c-285 68 -729 64 -982 -10 -29 -9 -40 -5 -115 41 -172 107 -336 170 -450 172
l-71 1 -22 -72 c-48 -149 -53 -295 -17 -443 l15 -66 -51 -67 c-136 -180 -188
-399 -161 -676 41 -435 229 -699 595 -836 61 -23 250 -68 338 -80 l48 -6 -31
-39 c-38 -48 -76 -131 -92 -198 -13 -61 -29 -73 -130 -97 -88 -21 -184 -19
-260 5 -102 31 -174 91 -258 216 -57 84 -140 162 -207 195 -62 30 -192 34
-220 7 -16 -17 -16 -19 3 -45 12 -16 49 -48 83 -72 81 -56 147 -146 224 -299
70 -142 120 -197 220 -242 96 -43 168 -54 330 -47 78 4 154 9 170 13 l27 6 0
-216 c0 -274 -8 -296 -115 -296 -124 0 -483 186 -715 370 -105 84 -295 279
-374 383 -224 299 -365 637 -422 1012 -23 153 -23 451 0 610 72 492 296 932
648 1271 475 457 1120 675 1773 599z"/>
</g>
</svg>
