<?xml version="1.0" encoding="UTF-8"?>
<svg version="1.1" xmlns="http://www.w3.org/2000/svg" width="500" height="500">
<path d="M0 0 C0.89919159 0.00215515 1.79838318 0.0043103 2.724823 0.00653076 C31.63073253 0.11745949 64.28104999 3.01478964 89.0625 19.3125 C93.34557406 21.91884466 95.68169433 22.70140338 100.625 21.75 C101.60855469 21.50765625 102.59210938 21.2653125 103.60546875 21.015625 C113.57917108 18.87074278 124.37500849 19.681458 133.875 23.3125 C135.09896484 23.77076172 135.09896484 23.77076172 136.34765625 24.23828125 C147.77089603 29.2167138 157.50325467 39.14887283 162.875 50.3125 C168.03690279 64.11979826 169.98343423 77.16467329 164.875 91.3125 C161.89146368 97.66632735 158.84454423 102.69811909 153.3125 107.0625 C150.7338433 109.55155087 149.91401534 110.61765541 149.7109375 114.234375 C150.05607833 116.82576025 150.46995413 119.33049374 150.96337891 121.89160156 C155.16552191 145.46908585 155.37777541 169.62241456 155.54455566 193.49554443 C155.57515386 197.44635419 155.62139342 201.39698442 155.66601562 205.34765625 C155.75032125 213.00251194 155.818398 220.65738371 155.875 228.3125 C157.03733154 228.52398682 157.03733154 228.52398682 158.22314453 228.73974609 C167.65469306 230.77679386 175.46060961 238.48563665 180.6875 246.25 C184.4694389 252.69422484 186.08735383 259.96388017 184.41015625 267.36328125 C181.31619013 277.67039916 176.19431333 287.45464591 166.875 293.3125 C164.01174837 294.17669867 161.90150779 294.3125 158.875 294.3125 C158.9471875 294.94929688 159.019375 295.58609375 159.09375 296.2421875 C161.60954427 322.58814414 160.60899942 350.43476329 154.875 376.3125 C154.62194092 377.47458984 154.62194092 377.47458984 154.36376953 378.66015625 C149.98509274 398.37787296 143.32055741 416.00811272 132.875 433.3125 C133.58076172 434.34697266 133.58076172 434.34697266 134.30078125 435.40234375 C141.38067467 446.08814562 145.50611776 456.36998083 142.9375 469.3125 C139.93614511 479.76364649 132.84968923 486.11924325 123.8359375 491.75 C119.87050828 493.84257479 116.32554937 494.92286046 111.875 495.3125 C110.740625 495.415625 109.60625 495.51875 108.4375 495.625 C96.22171057 494.55343952 86.80358332 488.46812598 78.875 479.3125 C78.545 478.6525 78.215 477.9925 77.875 477.3125 C76.96838623 477.58622437 76.96838623 477.58622437 76.04345703 477.86547852 C52.72181841 484.88711957 28.94146468 491.29312643 4.4140625 491.55078125 C3.63411423 491.56052979 2.85416595 491.57027832 2.05058289 491.58032227 C-24.56159054 491.84406537 -51.02468488 490.16920211 -76.35546875 481.1640625 C-79.28108651 480.26450725 -81.10213408 479.80789561 -84.125 480.3125 C-87.00195037 482.29200994 -87.00195037 482.29200994 -89.8125 484.9375 C-99.66462472 493.56478246 -108.69380395 498.90596197 -122.15234375 498.5390625 C-132.77918158 497.72913268 -139.84345052 491.68039196 -147.125 484.3125 C-152.90217728 477.46190147 -154.60972523 469.7045849 -154.3671875 460.87890625 C-153.58653361 452.60649325 -150.28403313 446.45707389 -145.6484375 439.66015625 C-143.9856031 437.31288592 -143.9856031 437.31288592 -143.125 434.3125 C-144.23594958 432.13275069 -145.39378021 430.12903966 -146.6875 428.0625 C-169.50860251 389.47282252 -167.01957277 341.39103235 -163.125 298.3125 C-163.94049316 298.05927979 -164.75598633 297.80605957 -165.59619141 297.54516602 C-166.67046387 297.20155029 -167.74473633 296.85793457 -168.8515625 296.50390625 C-169.91455566 296.16818604 -170.97754883 295.83246582 -172.07275391 295.48657227 C-181.03648504 292.0385973 -185.31464471 284.74038865 -189.125 276.3125 C-192.55158638 268.16627577 -193.0036896 261.39513339 -190.21484375 252.92578125 C-185.80237452 242.34534427 -177.47354542 235.02635014 -167.125 230.3125 C-164.125 229.3125 -164.125 229.3125 -161.125 229.3125 C-161.20540527 228.54099609 -161.28581055 227.76949219 -161.36865234 226.97460938 C-164.80246034 193.68479607 -168.08458128 160.34713576 -164.5625 126.9375 C-163.97231007 121.62934558 -163.97231007 121.62934558 -164.125 116.3125 C-165.59274559 114.48551226 -165.59274559 114.48551226 -167.6875 113.125 C-177.75031318 104.91445686 -181.51657076 93.83458533 -183.125 81.3125 C-183.27240251 77.79385947 -182.89577338 74.73878457 -182.125 71.3125 C-181.95871094 70.37277344 -181.79242188 69.43304688 -181.62109375 68.46484375 C-179.97696293 60.45099855 -176.66808075 54.07291951 -172.125 47.3125 C-171.68542969 46.65507813 -171.24585938 45.99765625 -170.79296875 45.3203125 C-163.96377345 36.36602018 -152.7879563 30.2220323 -142.125 27.3125 C-141.31675781 27.07789062 -140.50851563 26.84328125 -139.67578125 26.6015625 C-132.20699062 24.74939864 -124.25716996 25.04233085 -116.7890625 26.890625 C-109.93683089 28.46994976 -105.39901575 24.96298759 -99.7734375 21.50390625 C-84.50072221 12.14906558 -66.19385069 8.25665216 -48.875 4.5625 C-47.95477051 4.36390381 -47.03454102 4.16530762 -46.08642578 3.96069336 C-30.74818086 0.82619293 -15.61483497 -0.06764288 0 0 Z " fill="#72CDDC" transform="translate(254.125,0.6875)"/>
<path d="M0 0 C0.89919159 0.00215515 1.79838318 0.0043103 2.724823 0.00653076 C31.63073253 0.11745949 64.28104999 3.01478964 89.0625 19.3125 C93.34557406 21.91884466 95.68169433 22.70140338 100.625 21.75 C101.60855469 21.50765625 102.59210938 21.2653125 103.60546875 21.015625 C113.57917108 18.87074278 124.37500849 19.681458 133.875 23.3125 C135.09896484 23.77076172 135.09896484 23.77076172 136.34765625 24.23828125 C147.77089603 29.2167138 157.50325467 39.14887283 162.875 50.3125 C168.03690279 64.11979826 169.98343423 77.16467329 164.875 91.3125 C161.89146368 97.66632735 158.84454423 102.69811909 153.3125 107.0625 C150.7338433 109.55155087 149.91401534 110.61765541 149.7109375 114.234375 C150.05607833 116.82576025 150.46995413 119.33049374 150.96337891 121.89160156 C155.16552191 145.46908585 155.37777541 169.62241456 155.54455566 193.49554443 C155.57515386 197.44635419 155.62139342 201.39698442 155.66601562 205.34765625 C155.75032125 213.00251194 155.818398 220.65738371 155.875 228.3125 C157.03733154 228.52398682 157.03733154 228.52398682 158.22314453 228.73974609 C167.65469306 230.77679386 175.46060961 238.48563665 180.6875 246.25 C184.4694389 252.69422484 186.08735383 259.96388017 184.41015625 267.36328125 C181.31619013 277.67039916 176.19431333 287.45464591 166.875 293.3125 C164.01174837 294.17669867 161.90150779 294.3125 158.875 294.3125 C158.9471875 294.94929688 159.019375 295.58609375 159.09375 296.2421875 C161.60954427 322.58814414 160.60899942 350.43476329 154.875 376.3125 C154.62194092 377.47458984 154.62194092 377.47458984 154.36376953 378.66015625 C149.98509274 398.37787296 143.32055741 416.00811272 132.875 433.3125 C133.58076172 434.34697266 133.58076172 434.34697266 134.30078125 435.40234375 C141.38067467 446.08814562 145.50611776 456.36998083 142.9375 469.3125 C139.93614511 479.76364649 132.84968923 486.11924325 123.8359375 491.75 C119.87050828 493.84257479 116.32554937 494.92286046 111.875 495.3125 C110.740625 495.415625 109.60625 495.51875 108.4375 495.625 C96.22171057 494.55343952 86.80358332 488.46812598 78.875 479.3125 C78.545 478.6525 78.215 477.9925 77.875 477.3125 C76.96838623 477.58622437 76.96838623 477.58622437 76.04345703 477.86547852 C52.72181841 484.88711957 28.94146468 491.29312643 4.4140625 491.55078125 C3.63411423 491.56052979 2.85416595 491.57027832 2.05058289 491.58032227 C-24.56159054 491.84406537 -51.02468488 490.16920211 -76.35546875 481.1640625 C-79.28108651 480.26450725 -81.10213408 479.80789561 -84.125 480.3125 C-87.00195037 482.29200994 -87.00195037 482.29200994 -89.8125 484.9375 C-99.66462472 493.56478246 -108.69380395 498.90596197 -122.15234375 498.5390625 C-132.77918158 497.72913268 -139.84345052 491.68039196 -147.125 484.3125 C-152.90217728 477.46190147 -154.60972523 469.7045849 -154.3671875 460.87890625 C-153.58653361 452.60649325 -150.28403313 446.45707389 -145.6484375 439.66015625 C-143.9856031 437.31288592 -143.9856031 437.31288592 -143.125 434.3125 C-144.23594958 432.13275069 -145.39378021 430.12903966 -146.6875 428.0625 C-169.50860251 389.47282252 -167.01957277 341.39103235 -163.125 298.3125 C-163.94049316 298.05927979 -164.75598633 297.80605957 -165.59619141 297.54516602 C-166.67046387 297.20155029 -167.74473633 296.85793457 -168.8515625 296.50390625 C-169.91455566 296.16818604 -170.97754883 295.83246582 -172.07275391 295.48657227 C-181.03648504 292.0385973 -185.31464471 284.74038865 -189.125 276.3125 C-192.55158638 268.16627577 -193.0036896 261.39513339 -190.21484375 252.92578125 C-185.80237452 242.34534427 -177.47354542 235.02635014 -167.125 230.3125 C-164.125 229.3125 -164.125 229.3125 -161.125 229.3125 C-161.20540527 228.54099609 -161.28581055 227.76949219 -161.36865234 226.97460938 C-164.80246034 193.68479607 -168.08458128 160.34713576 -164.5625 126.9375 C-163.97231007 121.62934558 -163.97231007 121.62934558 -164.125 116.3125 C-165.59274559 114.48551226 -165.59274559 114.48551226 -167.6875 113.125 C-177.75031318 104.91445686 -181.51657076 93.83458533 -183.125 81.3125 C-183.27240251 77.79385947 -182.89577338 74.73878457 -182.125 71.3125 C-181.95871094 70.37277344 -181.79242188 69.43304688 -181.62109375 68.46484375 C-179.97696293 60.45099855 -176.66808075 54.07291951 -172.125 47.3125 C-171.68542969 46.65507813 -171.24585938 45.99765625 -170.79296875 45.3203125 C-163.96377345 36.36602018 -152.7879563 30.2220323 -142.125 27.3125 C-141.31675781 27.07789062 -140.50851563 26.84328125 -139.67578125 26.6015625 C-132.20699062 24.74939864 -124.25716996 25.04233085 -116.7890625 26.890625 C-109.93683089 28.46994976 -105.39901575 24.96298759 -99.7734375 21.50390625 C-84.50072221 12.14906558 -66.19385069 8.25665216 -48.875 4.5625 C-47.95477051 4.36390381 -47.03454102 4.16530762 -46.08642578 3.96069336 C-30.74818086 0.82619293 -15.61483497 -0.06764288 0 0 Z M-104.6953125 45.94140625 C-107.125 47.3125 -107.125 47.3125 -110.2109375 47.125 C-113.125 46.3125 -113.125 46.3125 -116.625 44.75 C-125.24813876 41.41945692 -135.21980104 42.46533832 -143.59765625 45.99609375 C-153.15570776 50.97455335 -160.17205947 58.63485461 -164.0625 68.75 C-166.32226198 76.77215503 -165.88380756 84.36868855 -162.44921875 91.9609375 C-158.65080862 98.70619679 -153.22946583 104.10004589 -146.125 107.3125 C-145.135 107.3125 -144.145 107.3125 -143.125 107.3125 C-143.40214844 108.49585937 -143.67929688 109.67921875 -143.96484375 110.8984375 C-144.33104933 112.49471825 -144.69691652 114.09107666 -145.0625 115.6875 C-145.24490234 116.46222656 -145.42730469 117.23695312 -145.61523438 118.03515625 C-148.13404568 129.117926 -148.39735524 140.17280806 -148.4375 151.5 C-148.44111542 152.29109161 -148.44473083 153.08218323 -148.44845581 153.89724731 C-148.48941974 176.83676531 -146.42810063 199.68242539 -144.58251953 222.53076172 C-144.02733422 229.45377369 -143.55364035 236.38054832 -143.125 243.3125 C-144.218125 243.23 -145.31125 243.1475 -146.4375 243.0625 C-156.09176142 243.113671 -164.26471353 247.82104614 -171.125 254.3125 C-174.14053471 257.87631375 -174.60123386 260.85527804 -174.4140625 265.3984375 C-173.98514539 268.2385643 -172.81745721 270.01559378 -171.125 272.3125 C-170.42375 273.385 -169.7225 274.4575 -169 275.5625 C-167.38447379 278.1149901 -167.38447379 278.1149901 -166.125 279.3125 C-158.83934628 280.19429539 -153.50768772 278.71494443 -147.125 275.3125 C-145.7927089 274.64375292 -144.45951315 273.9768018 -143.125 273.3125 C-143.24617188 274.39926025 -143.36734375 275.48602051 -143.4921875 276.60571289 C-145.89580128 298.55346741 -147.53213265 320.34786431 -147.5 342.4375 C-147.50217529 343.89145676 -147.50217529 343.89145676 -147.50439453 345.37478638 C-147.50178983 360.69286936 -147.40196979 376.65009778 -142.9375 391.4375 C-142.72464355 392.168479 -142.51178711 392.89945801 -142.29248047 393.65258789 C-137.66273243 408.91891057 -130.80135343 422.80683153 -119.7265625 434.4375 C-118.125 436.3125 -118.125 436.3125 -117.125 439.3125 C-117.96224609 439.69535156 -117.96224609 439.69535156 -118.81640625 440.0859375 C-125.86951982 443.83327703 -133.39456665 449.56026462 -136.125 457.3125 C-136.9461079 462.49805528 -136.82122704 466.73842147 -134.6875 471.5625 C-130.10524132 476.4800459 -125.9466171 480.67536066 -119.25 482.1875 C-109.8933359 481.22594559 -101.73601254 472.50962425 -94.94921875 466.546875 C-90.15779179 462.75614717 -86.31783177 460.59674557 -80.125 461.3125 C-77.48121275 462.15626189 -74.95212953 463.05353515 -72.375 464.0625 C-66.27977312 466.32781688 -60.22890207 468.17335453 -53.875 469.5625 C-53.19211914 469.71299805 -52.50923828 469.86349609 -51.80566406 470.01855469 C-49.58435128 470.48460098 -47.35687199 470.90007649 -45.125 471.3125 C-44.27204346 471.49055176 -43.41908691 471.66860352 -42.5402832 471.85205078 C-32.1247809 473.78600035 -21.66166861 473.68467745 -11.1003418 473.68310547 C-7.85735985 473.68744004 -4.61578583 473.72374584 -1.37304688 473.76171875 C13.40484577 473.84021449 27.39893654 472.23677857 41.875 469.3125 C42.65561295 469.1565033 43.43622589 469.00050659 44.24049377 468.83978271 C54.08214171 466.84633854 62.78639268 463.44930311 71.87182617 459.22192383 C72.72365479 458.83286865 73.5754834 458.44381348 74.453125 458.04296875 C75.21012695 457.68614014 75.96712891 457.32931152 76.74707031 456.96166992 C79.24860277 456.19852458 80.45501958 456.38492103 82.875 457.3125 C84.76953125 458.87890625 84.76953125 458.87890625 86.6875 460.875 C87.38230469 461.59300781 88.07710938 462.31101562 88.79296875 463.05078125 C90.7520911 465.17898358 92.63175652 467.35457589 94.5 469.5625 C99.24037519 475.00982053 99.24037519 475.00982053 105.81640625 477.65234375 C111.99340635 477.94537032 116.29429138 475.63637592 121.125 471.9375 C125.07622082 468.16588013 125.72060583 465.88217404 126.25 460.5 C125.87052397 449.81475391 117.00396721 442.3503622 109.875 435.3125 C111.37446504 432.01822075 113.29345691 429.36147321 115.5 426.5 C126.98870825 410.7731426 133.77703543 392.98441305 137.6875 374 C137.97983521 372.59935303 137.97983521 372.59935303 138.27807617 371.17041016 C141.5532752 353.9730892 142.19353596 336.50393946 142.08081055 319.04321289 C142.06243919 316.11530847 142.06030298 313.18772212 142.06054688 310.25976562 C142.03754999 298.24898425 141.6331466 286.29889374 140.875 274.3125 C141.56053955 274.63033447 142.2460791 274.94816895 142.95239258 275.27563477 C148.77256908 277.9167972 152.67283447 279.20468609 158.875 277.3125 C163.46566988 272.9258599 166.51986615 268.15357079 167.3125 261.8125 C166.53805248 255.61691986 162.75290937 251.54949905 158.06640625 247.703125 C151.85323811 243.7603659 145.14050022 242.20536711 137.875 242.3125 C137.87944122 241.50437363 137.88388245 240.69624725 137.88845825 239.8636322 C137.92924209 232.08845585 137.95933203 224.31333433 137.97862434 216.53807735 C137.9888773 212.54478681 138.0026776 208.55158758 138.02587891 204.55834961 C138.87944717 152.75429847 138.87944717 152.75429847 128.875 102.3125 C129.75929688 102.06757812 130.64359375 101.82265625 131.5546875 101.5703125 C138.31332892 99.00998011 144.17583522 93.38914462 147.4375 86.9375 C150.67241618 78.77988529 151.76189411 68.69571177 148.25 60.375 C142.58304676 49.79668728 135.31614018 42.56935763 124.0546875 38.23046875 C115.5782546 35.78334132 108.36531242 36.96589794 100.34765625 40.33984375 C95.63928397 42.19195228 95.63928397 42.19195228 92.875 42.3125 C90.4785976 41.02850168 88.44052872 39.75717721 86.25 38.1875 C80.34418143 34.18549024 74.52906416 30.95006368 67.875 28.3125 C66.34552734 27.68408203 66.34552734 27.68408203 64.78515625 27.04296875 C15.97629258 8.19147065 -63.19117272 10.86841912 -104.6953125 45.94140625 Z " fill="#FDFDFD" transform="translate(254.125,0.6875)"/>
<path d="M0 0 C2.73286332 2.28242147 2.73286332 2.28242147 5.37109375 1.75390625 C8.03954443 0.98865962 10.50489867 0.01377567 13.0625 -1.0625 C21.40065991 -4.10268699 28.77732525 -4.14077187 37.125 -1.0625 C47.73152971 3.89369255 54.29137311 11.40124574 59 22 C61.26774945 28.80324836 61.17477642 38.25807764 58.4375 44.9375 C54.42860787 52.40669901 48.68203374 58.32675168 41 62 C40.34 62 39.68 62 39 62 C39.27263672 62.87785156 39.27263672 62.87785156 39.55078125 63.7734375 C47.53955853 91.05818453 48.20119904 120.8120114 48.09765625 149.0703125 C48.0957831 150.61400302 48.09436346 152.15769416 48.09336853 153.7013855 C48.0896138 157.69604232 48.07984697 161.69066073 48.06866455 165.68530273 C48.05829572 169.78889446 48.05383834 173.8924926 48.04882812 177.99609375 C48.03821567 185.99741314 48.02122807 193.99870175 48 202 C48.66821777 202.05333496 49.33643555 202.10666992 50.02490234 202.16162109 C51.35448975 202.27884521 51.35448975 202.27884521 52.7109375 202.3984375 C53.58540527 202.47239746 54.45987305 202.54635742 55.36083984 202.62255859 C63.25468043 203.75150194 69.6912933 208.19479555 75 214 C77.26030576 217.81888261 77.51126566 220.544685 77 225 C75.06822174 229.46537976 72.78739604 233.85018068 69 237 C61.93690201 238.85871 57.47121489 236.99724229 51 234 C51.10501831 235.66035278 51.10501831 235.66035278 51.2121582 237.35424805 C51.92114411 249.19996875 52.18629115 261.01219718 52.18530273 272.87817383 C52.18749048 275.79979011 52.20574802 278.7210279 52.22460938 281.64257812 C52.27748709 299.03506188 51.39730969 316.48724586 47.875 333.5625 C47.55849487 335.1101001 47.55849487 335.1101001 47.2355957 336.68896484 C42.73734127 357.35524907 34.19831063 377.19123285 20 393 C21.42787094 396.3097316 23.17846666 398.31238597 25.8125 400.75 C31.3949286 406.18018055 35.72795242 411.85127434 36.25 419.8125 C36.15958315 423.93400124 35.40085651 426.54876877 33 430 C27.81116601 434.61590024 23.36189255 437.51555381 16.16455078 437.40429688 C8.17331004 435.91168525 1.97645095 426.80045736 -2.97460938 420.95117188 C-6.03860237 417.19309371 -6.03860237 417.19309371 -10.39453125 415.82421875 C-11.25433594 416.21222656 -12.11414063 416.60023438 -13 417 C-13.90528442 417.3858728 -13.90528442 417.3858728 -14.82885742 417.77954102 C-16.26806308 418.39774488 -17.70042655 419.03203092 -19.12695312 419.67895508 C-26.76602118 423.12675256 -34.33734035 425.89024594 -42.5 427.8125 C-43.26763672 427.99458008 -44.03527344 428.17666016 -44.82617188 428.36425781 C-47.54209186 428.96619437 -50.26543509 429.48892013 -53 430 C-53.63264771 430.12494843 -54.26529541 430.24989685 -54.91711426 430.37863159 C-67.80526326 432.88466056 -80.41895985 433.49887277 -93.53222656 433.44604492 C-96.73307988 433.43754493 -99.93213411 433.46641283 -103.1328125 433.49804688 C-126.19427531 433.57722217 -148.55964681 429.63955082 -170 421 C-175.3994561 419.99545003 -178.78994507 422.21252176 -183.21484375 425.015625 C-186.33636885 427.23965691 -189.27066327 429.64363467 -192.1875 432.125 C-203.8454256 442.03368669 -203.8454256 442.03368669 -210.7421875 441.72265625 C-216.3942324 439.91361074 -222.06127322 434.96683947 -225.2890625 430.02734375 C-227.04240979 425.02741383 -227.00339762 419.51873281 -225.04296875 414.59765625 C-221.09339145 408.12126004 -215.19079364 403.2789309 -209 399 C-208.34 399 -207.68 399 -207 399 C-208.71964924 395.7630132 -210.69378413 393.20993808 -213.1875 390.5625 C-234.69650028 366.37621909 -237.4210474 332.90289072 -237.375 302.125 C-237.3764502 301.12806122 -237.37790039 300.13112244 -237.37939453 299.10397339 C-237.37587865 276.93483441 -235.45477587 255.01627107 -233 233 C-233.68707031 233.34933594 -234.37414062 233.69867188 -235.08203125 234.05859375 C-235.98308594 234.51363281 -236.88414062 234.96867187 -237.8125 235.4375 C-238.70582031 235.88996094 -239.59914063 236.34242188 -240.51953125 236.80859375 C-245.63160311 239.26399834 -250.39771638 239.81085684 -256 239 C-259.46055627 235.98310479 -261.03736638 232.11218473 -263 228 C-263.33 227.67 -263.66 227.34 -264 227 C-264.61869916 221.9620211 -264.44976895 219.01731969 -261.5 214.8125 C-256.25369885 208.54642603 -249.0202985 204.56091252 -241 203 C-239.61558255 202.96737567 -238.23046271 202.95915776 -236.84570312 202.9699707 C-235.57662109 202.97988037 -234.30753906 202.98979004 -233 203 C-233.32118214 198.36152491 -233.64291715 193.72308939 -233.96557617 189.0847168 C-234.24118803 185.1214739 -234.51447052 181.15807881 -234.78637695 177.19458008 C-235.63505407 164.82544891 -235.63505407 164.82544891 -236.64453125 152.46875 C-237.79246542 139.38448138 -238.20635411 126.37820717 -238.25 113.25 C-238.25526703 112.44911957 -238.26053406 111.64823914 -238.26596069 110.8230896 C-238.33229926 97.85030648 -237.50263418 85.21520191 -234.375 72.5625 C-234.11460937 71.49128906 -233.85421875 70.42007813 -233.5859375 69.31640625 C-233.39257812 68.55199219 -233.19921875 67.78757812 -233 67 C-233.7425 66.89042969 -234.485 66.78085938 -235.25 66.66796875 C-241.84086291 65.06706313 -247.25182131 59.41403588 -251 54 C-255.11028333 46.3589159 -256.62895949 38.75953533 -254.234375 30.29296875 C-250.06612755 19.26034554 -242.51250754 10.40415448 -231.9765625 4.953125 C-223.58057326 1.64466827 -213.72291859 1.50100664 -205.4375 5.0625 C-204.32181641 5.63677734 -204.32181641 5.63677734 -203.18359375 6.22265625 C-200.33898855 7.23531535 -198.85467479 6.93067767 -196 6 C-193.82425344 4.65930189 -193.82425344 4.65930189 -191.6875 2.9375 C-169.33716623 -13.23577273 -141.51787044 -18.8789028 -114.62475586 -21.7175293 C-112.98327083 -21.89418246 -111.34305763 -22.08366422 -109.70532227 -22.29223633 C-74.53855275 -26.71120043 -28.96890665 -22.40757309 0 0 Z M-195 14 C-195.80953125 14.65355469 -196.6190625 15.30710937 -197.453125 15.98046875 C-212.38322261 28.55197732 -221.66624697 47.20744761 -226 66 C-226.17515137 66.75780762 -226.35030273 67.51561523 -226.53076172 68.29638672 C-227.09713349 70.77803489 -227.64682076 73.26263197 -228.1875 75.75 C-228.35475586 76.51803955 -228.52201172 77.2860791 -228.69433594 78.07739258 C-230.52905771 86.91715773 -231.15492052 95.70726067 -231.16796875 104.72265625 C-231.17211288 105.61772888 -231.17625702 106.51280151 -231.18052673 107.43499756 C-231.19012751 110.31087443 -231.19019427 113.18660968 -231.1875 116.0625 C-231.18756042 117.04664886 -231.18762085 118.03079773 -231.18768311 119.04476929 C-231.17367573 135.05047523 -230.3675997 150.73836727 -228.72563171 166.66055298 C-227.31040562 180.59768972 -226.68171288 194.39897475 -226.73925781 208.40673828 C-226.7499973 211.49922265 -226.73926658 214.59112647 -226.7265625 217.68359375 C-226.71847128 229.70999758 -227.35607829 241.53617528 -228.49829102 253.50488281 C-232.57155646 296.63535201 -237.15722323 349.61149568 -208.6875 385.75 C-186.93033687 411.02347232 -156.07155351 421.26944586 -124 426 C-123.29746094 426.10530029 -122.59492188 426.21060059 -121.87109375 426.3190918 C-114.6932461 427.25892869 -107.47765601 427.20024911 -100.25 427.1875 C-99.56436981 427.18656342 -98.87873962 427.18562683 -98.17233276 427.18466187 C-73.45546143 427.1117571 -47.96263216 424.82201166 -25 415 C-24.33452148 414.71785645 -23.66904297 414.43571289 -22.98339844 414.14501953 C1.65708234 403.56160248 21.17892161 387.05572953 32 362 C40.84390038 339.81896013 45.1019923 317.02537366 45.203125 293.1875 C45.20995804 292.07879044 45.21679108 290.97008087 45.22383118 289.82777405 C45.24094395 286.21848475 45.24717782 282.60932767 45.25 279 C45.25200409 277.74395966 45.25400818 276.48791931 45.256073 275.19381714 C45.26238209 258.92420533 44.77262676 242.85633692 43.35122681 226.65426636 C41.36553447 203.38252565 41.51683226 180.00207639 41.39319897 156.66165638 C41.70251098 79.49913178 41.70251098 79.49913178 6.25 13.6875 C0.06842426 7.58483446 -6.27412235 3.04038831 -14 -1 C-15.12535156 -1.61359375 -16.25070312 -2.2271875 -17.41015625 -2.859375 C-27.74860341 -8.24430919 -38.64916041 -10.65399673 -50 -13 C-51.5778125 -13.35384766 -51.5778125 -13.35384766 -53.1875 -13.71484375 C-97.88460046 -23.04945162 -159.18157186 -16.52409843 -195 14 Z " fill="#0B0E0F" transform="translate(344,41)"/>
<path d="M0 0 C0.86496094 -0.020625 1.72992188 -0.04125 2.62109375 -0.0625 C13.84402473 -0.12980393 22.85119537 3.95586815 31.125 11.4375 C34.97992046 15.44204066 36.67866381 20.03331022 38.375 25.25 C38.87 26.735 38.87 26.735 39.375 28.25 C40.29876155 39.6386602 39.66381599 49.42034786 32.390625 58.8125 C24.05755305 67.79566976 13.07035782 72.43605098 0.953125 73.5703125 C-10.87247911 73.95761394 -20.1804523 70.88897924 -29.125 63.0625 C-36.04999205 55.27188395 -40.02586102 48.05092117 -39.9375 37.4375 C-39.93186035 36.73044922 -39.9262207 36.02339844 -39.92041016 35.29492188 C-39.6776182 24.82361735 -36.15088501 18.12211841 -29.06640625 10.59375 C-20.89920885 2.91619274 -10.89027814 0.06322368 0 0 Z " fill="#FBFBFB" transform="translate(190.625,53.75)"/>
<path d="M0 0 C8.17451139 6.00154001 13.6851868 14.09402307 15.80078125 24.0703125 C17.35253491 34.50258408 15.31230982 43.35398531 9.80859375 52.41796875 C3.4629156 60.60769012 -7.79100781 65.89436897 -17.875 67.25 C-27.52397576 67.83160822 -36.2423454 68.17857231 -44.875 63.25 C-46.05835938 62.59644531 -46.05835938 62.59644531 -47.265625 61.9296875 C-52.80103342 58.57544995 -56.51227854 54.75913941 -59.875 49.25 C-60.49568359 48.28513672 -60.49568359 48.28513672 -61.12890625 47.30078125 C-65.37475454 39.53398559 -65.00908384 29.83029333 -63.28515625 21.34765625 C-59.50927275 10.33321269 -50.02982112 2.32036838 -39.875 -2.75 C-27.13166755 -7.86927272 -11.78272468 -7.38147241 0 0 Z " fill="#FBFBFB" transform="translate(321.875,54.75)"/>
<path d="M0 0 C2.77519132 1.68409046 4.76450758 3.33613191 6.3125 6.25 C6.40144531 6.89066406 6.49039063 7.53132813 6.58203125 8.19140625 C7.63563615 11.16065643 9.32557703 11.72591836 12.0625 13.1875 C18.3117088 16.73940073 22.90718038 20.81772961 26.3125 27.25 C27.1845695 31.64558264 26.69245634 34.51823224 24.625 38.5 C21.88563507 41.75762316 19.13507278 44.33871361 15.3125 46.25 C12.9795134 46.29022391 10.64543334 46.29320247 8.3125 46.25 C8.37050781 47.49136719 8.42851562 48.73273438 8.48828125 50.01171875 C8.53519238 51.65360814 8.58069109 53.29553832 8.625 54.9375 C8.66689453 55.75412109 8.70878906 56.57074219 8.75195312 57.41210938 C8.84188812 61.85489788 8.78914722 63.64593224 5.9453125 67.25 C1.53059684 70.6036119 -2.10677048 71.94759119 -7.6875 71.25 C-10.5625 69.25 -10.5625 69.25 -12.6875 67.25 C-16.23268884 68.64759905 -16.23268884 68.64759905 -19.6875 70.25 C-22.79631755 70.79715189 -25.58877548 70.89057667 -28.6875 70.25 C-32.78072388 67.19085373 -35.16574667 63.07472944 -36.6875 58.25 C-36.8828125 54.91796875 -36.8828125 54.91796875 -36.8125 51.4375 C-36.79445312 50.27605469 -36.77640625 49.11460937 -36.7578125 47.91796875 C-36.73460937 47.03753906 -36.71140625 46.15710938 -36.6875 45.25 C-37.44546875 45.15460938 -38.2034375 45.05921875 -38.984375 44.9609375 C-42.07600099 44.14782199 -42.96929128 43.3300814 -44.9375 40.875 C-45.68773437 39.96621094 -45.68773437 39.96621094 -46.453125 39.0390625 C-49.33595223 34.86078758 -49.38281777 30.12512575 -48.6875 25.25 C-46.36477341 19.63340683 -42.62248511 15.67427538 -37.6875 12.25 C-36.635625 11.940625 -35.58375 11.63125 -34.5 11.3125 C-30.65810177 9.86111623 -30.36346617 7.89340471 -28.6875 4.25 C-21.17357036 -2.86845966 -9.44279827 -4.45812409 0 0 Z " fill="#272525" transform="translate(260.6875,115.75)"/>
<path d="M0 0 C7.17938329 5.14914785 12.15330797 11.06540422 16 19 C16.50853516 20.00740234 16.50853516 20.00740234 17.02734375 21.03515625 C21.20948494 31.03760454 20.20139095 44.43564935 16.3203125 54.35546875 C10.41961396 66.17432352 0.21706316 73.54477469 -12 78 C-25.42872166 82.14520025 -39.23436626 80.74604329 -51.7890625 74.64453125 C-62.77406112 68.4550985 -68.18840611 60.49889387 -73 49 C-75.95529413 37.80724809 -73.90065028 26.89901953 -68.375 16.9375 C-61.16871976 5.76076924 -50.8614228 -1.75435777 -38.07104492 -5.57641602 C-25.19808189 -8.20928067 -11.14650841 -7.07599029 0 0 Z M-59.375 15.3125 C-66.01431458 23.32268521 -68.0990894 31.57398254 -67.57421875 41.88671875 C-66.69599322 50.41374603 -62.29763588 58.30965545 -56.0625 64.125 C-48.09231547 70.24523841 -39.65011799 73.35702973 -29.625 73.25 C-28.90828125 73.25773437 -28.1915625 73.26546875 -27.453125 73.2734375 C-16.53048323 73.23400558 -6.26665317 69.2599488 2.4375 62.625 C9.15227607 55.7464489 13.01786621 47.38758948 13.4375 37.75 C13.07731848 27.03459978 9.55953606 17.63667419 2 10 C-6.61050282 2.00453309 -17.14833434 -0.41510032 -28.6796875 -0.2734375 C-41.15536882 0.75397155 -50.84351736 6.41964701 -59.375 15.3125 Z " fill="#0A0D0F" transform="translate(325,49)"/>
<path d="M0 0 C7.65787445 5.93253012 12.97584597 14.48313955 15 24 C16.16265129 37.29271252 15.43230039 49.46963778 6.6875 60.16015625 C-1.94573863 69.57278447 -13.84229303 76.73952194 -26.8671875 77.43359375 C-28.53629541 77.45695172 -30.20585198 77.45779066 -31.875 77.4375 C-33.190448 77.42614014 -33.190448 77.42614014 -34.5324707 77.41455078 C-46.62848676 77.10752823 -55.60589035 72.5019083 -64.6875 64.6875 C-75.03371175 52.66352418 -77.1506176 42.02218769 -76.24560547 26.45654297 C-75.23314098 16.3298852 -69.42784037 8.60383273 -62 2 C-58.79889895 -0.31163481 -55.52677796 -2.23073306 -52 -4 C-51.3709375 -4.31582031 -50.741875 -4.63164063 -50.09375 -4.95703125 C-33.65120694 -12.54302271 -14.80288972 -10.01304867 0 0 Z M-63.3125 12.5 C-70.58084913 21.46693073 -71.03108783 31.90527021 -70 43 C-68.01847919 51.66207667 -63.02470384 59.09842583 -55.8125 64.25 C-45.03509688 70.8242159 -34.26384886 73.06279307 -21.83203125 70.08203125 C-14.34593157 68.04729446 -7.60018742 65.54772665 -2 60 C-1.37738281 59.40316406 -0.75476563 58.80632812 -0.11328125 58.19140625 C7.28547865 50.48242581 9.61882689 42.53881826 9.47070312 31.97265625 C8.93820413 20.00842348 4.12355162 12.65250919 -4.4375 4.75 C-23.0547711 -7.96423392 -48.40589756 -4.04669318 -63.3125 12.5 Z " fill="#0B0E0F" transform="translate(221,56)"/>
<path d="M0 0 C4.96413668 2.79273565 8.46541373 5.66880757 11.5625 10.4375 C11.97242188 10.98535156 12.38234375 11.53320312 12.8046875 12.09765625 C17.01947582 18.71051379 16.54196425 26.94345954 15.5625 34.4375 C12.87376666 41.77317625 7.15639236 45.700961 0.5625 49.4375 C-1.73979874 47.13520126 -2.08182606 45.72681803 -2.9375 42.625 C-3.67996871 39.95776185 -4.40806689 37.5012379 -5.5703125 34.984375 C-6.63955675 31.84407206 -6.30790279 29.76210144 -5.8125 26.5 C-5.41784528 22.48932137 -5.35595693 20.65247718 -6.8125 16.8125 C-9.58380265 14.30513093 -10.15170005 14.16196129 -13.625 13.6875 C-20.22358628 12.70100039 -23.54052766 7.43078371 -27.4375 2.4375 C-20.64320813 -5.4295748 -8.54092275 -3.99357361 0 0 Z " fill="#71CAD9" transform="translate(381.4375,47.5625)"/>
<path d="M0 0 C5.02358991 2.79481411 10.08638531 5.93284402 13 11 C13.5625 14 13.5625 14 13 17 C10.55795207 20.40406682 9.08958249 21.7998726 4.9375 22.5625 C1.41201877 22.05885982 -1.19644589 21.23716993 -4.5 20 C-14.83765143 16.37729362 -24.59911469 16.90528456 -34.625 21.09765625 C-38.04422355 22.39673625 -40.38747566 22.52682647 -44 22 C-46.61593153 20.16884793 -46.96989455 19.09031634 -48 16 C-48.39544498 11.80828319 -48.26960901 9.51924698 -46.3125 5.75 C-43.97228777 2.96704492 -42.35127898 1.3895547 -39 0 C-36.35297486 0.19368477 -34.60914925 0.61855654 -32.359375 2.02734375 C-28.90413643 3.45177157 -25.4931406 3.38099909 -21.8125 3.375 C-21.05235596 3.37701416 -20.29221191 3.37902832 -19.5090332 3.38110352 C-14.28984177 3.28675724 -10.3035857 2.51351917 -5.76171875 -0.22265625 C-3.39006275 -1.26912974 -2.39683559 -0.92677643 0 0 Z " fill="#F1CE9E" transform="translate(267,133)"/>
<path d="M0 0 C0.86625 0.495 1.7325 0.99 2.625 1.5 C0.11478147 6.81868084 -2.81370278 11.71204674 -7.375 15.5 C-10.60611688 16.00577638 -13.4013232 15.82594838 -16.65234375 15.5546875 C-19.61564177 15.25492644 -19.61564177 15.25492644 -22.625 17.4375 C-24.95936375 21.52263656 -25.49186933 24.89714457 -24.375 29.5 C-23.50875 30.325 -22.6425 31.15 -21.75 32 C-19.375 34.5 -19.375 34.5 -19.41796875 36.58984375 C-19.94146364 38.95541088 -20.59815222 41.20568273 -21.375 43.5 C-21.74625 44.675625 -22.1175 45.85125 -22.5 47.0625 C-22.933125 48.2690625 -22.933125 48.2690625 -23.375 49.5 C-30.02165351 47.28444883 -34.828103 44.08701652 -38.3125 37.9375 C-41.28861436 31.28326423 -41.74278372 24.72386074 -39.48828125 17.76171875 C-35.62504824 9.30367705 -29.70198056 3.29111255 -21.2578125 -0.62109375 C-14.49063994 -2.68425612 -6.58207725 -2.77702245 0 0 Z " fill="#71CAD9" transform="translate(136.375,52.5)"/>
<path d="M0 0 C3.44464831 2.61286972 4.31913773 4.21553125 5.11328125 8.50390625 C4.34851648 12.93954194 2.98782302 14.12372237 -0.39453125 16.8671875 C-5.76907039 20.07009551 -10.92193333 20.49320364 -17.01171875 20.50390625 C-17.74519531 20.52839844 -18.47867188 20.55289063 -19.234375 20.578125 C-24.46304419 20.60618584 -27.33405286 19.51382228 -31.51171875 16.12890625 C-32.17171875 15.46890625 -32.83171875 14.80890625 -33.51171875 14.12890625 C-33.4307732 9.27217341 -33.0292229 6.93560389 -30.38671875 2.81640625 C-22.42703595 -4.6241668 -9.42462057 -5.79200451 0 0 Z " fill="#060809" transform="translate(262.51171875,116.87109375)"/>
<path d="M0 0 C1.98 0 3.96 0 6 0 C6.01981934 0.62567871 6.03963867 1.25135742 6.06005859 1.89599609 C6.15514226 4.72276519 6.26488746 7.54877815 6.375 10.375 C6.4059375 11.35984375 6.436875 12.3446875 6.46875 13.359375 C6.50742188 14.30039063 6.54609375 15.24140625 6.5859375 16.2109375 C6.63306885 17.51490479 6.63306885 17.51490479 6.68115234 18.84521484 C6.81229433 21.20961794 6.81229433 21.20961794 9 23 C11.22128555 23.02308597 11.22128555 23.02308597 13.625 22.625 C15.790625 22.315625 15.790625 22.315625 18 22 C17.505 13.09 17.505 13.09 17 4 C18.98 4.33 20.96 4.66 23 5 C24.21640326 8.64920978 24.29960139 12.07079743 24.375 15.875 C24.43107422 16.93654297 24.43107422 16.93654297 24.48828125 18.01953125 C24.5557302 22.04398538 24.19227474 23.76274501 21.62890625 26.92578125 C18.07371378 29.73084396 15.4782413 30.81521984 11 31.375 C7.28316162 30.9103952 5.68887443 29.53070535 3 27 C-0.54518884 28.39759905 -0.54518884 28.39759905 -4 30 C-7.10881755 30.54715189 -9.90127548 30.64057667 -13 30 C-17.09322388 26.94085373 -19.47824667 22.82472944 -21 18 C-21.1953125 14.66796875 -21.1953125 14.66796875 -21.125 11.1875 C-21.10695312 10.02605469 -21.08890625 8.86460937 -21.0703125 7.66796875 C-21.04710937 6.78753906 -21.02390625 5.90710938 -21 5 C-19.02 5 -17.04 5 -15 5 C-14.83564453 6.32064453 -14.83564453 6.32064453 -14.66796875 7.66796875 C-14.50941406 8.82941406 -14.35085937 9.99085938 -14.1875 11.1875 C-14.03667969 12.33605469 -13.88585937 13.48460937 -13.73046875 14.66796875 C-12.99597495 18.01836027 -11.92950074 20.1929729 -10 23 C-6.06924356 22.42547254 -6.06924356 22.42547254 -3 20 C-2.74706304 17.75805873 -2.59511218 15.5041587 -2.5 13.25 C-2.29548425 8.44387997 -1.71400591 4.50617682 0 0 Z " fill="#090C0D" transform="translate(245,156)"/>
<path d="M0 0 C2.92360864 1.02214714 5.00534748 2.36946647 7.49609375 4.20703125 C8.35847656 4.83351563 9.22085938 5.46 10.109375 6.10546875 C11.32173828 6.99105469 11.32173828 6.99105469 12.55859375 7.89453125 C14.54499685 9.25014362 16.54946224 10.57273421 18.55859375 11.89453125 C14.54903901 16.03051339 10.13498661 19.41527034 5.55859375 22.89453125 C4.82511719 23.46042969 4.09164062 24.02632813 3.3359375 24.609375 C2.64628906 25.13660156 1.95664063 25.66382813 1.24609375 26.20703125 C0.63121094 26.67753906 0.01632813 27.14804687 -0.6171875 27.6328125 C-4.34373623 30.21027554 -6.87565277 31.14818422 -11.44140625 30.89453125 C-12.25390625 28.89453125 -12.25390625 28.89453125 -12.44140625 25.89453125 C-11.285149 23.793422 -9.94726598 21.87457428 -8.58984375 19.8984375 C-7.02639046 17.17037104 -7.05708689 14.96908616 -7.44140625 11.89453125 C-10.55198013 12.51664603 -12.10398527 13.39569537 -13.88671875 16.03125 C-15.13035357 18.29466538 -16.31723994 20.56965965 -17.44140625 22.89453125 C-18.10140625 22.89453125 -18.76140625 22.89453125 -19.44140625 22.89453125 C-19.8420253 18.68803118 -19.45264334 15.98752894 -16.9140625 12.5390625 C-13.73811534 8.99244777 -10.10694053 5.92117839 -6.44140625 2.89453125 C-5.79171875 2.30027344 -5.14203125 1.70601563 -4.47265625 1.09375 C-2.44140625 -0.10546875 -2.44140625 -0.10546875 0 0 Z " fill="#F3D09F" transform="translate(143.44140625,444.10546875)"/>
<path d="M0 0 C3.13594153 1.26772104 4.56546548 2.52051364 6.8125 5 C8.66339373 9.67594205 8.8903344 14.05369779 8 19 C5.75897949 23.03101802 3.39019909 25.5366003 -1 27 C-7.70527386 27.78228195 -7.70527386 27.78228195 -11.04296875 25.765625 C-14.69928524 22.71995106 -16.71954288 20.67123911 -17.23828125 15.73046875 C-17.40745111 9.93417498 -16.98003501 6.54861143 -13 2 C-8.74178609 -0.83880927 -4.99661255 -0.51165313 0 0 Z " fill="#090A0B" transform="translate(174,79)"/>
<path d="M0 0 C4.36045847 2.22136563 7.13277421 4.43567029 9 9 C9.71118494 15.1974688 8.77716869 19.92880129 5 25 C1.02718283 27.7636989 -2.19839298 28.70023436 -7 28 C-11.84973524 25.52758595 -14.24513429 23.16710458 -16 18 C-16.69609825 13.2132503 -16.49794885 9.96032992 -14.25 5.625 C-9.95704635 0.61655408 -6.78047628 -1.17580514 0 0 Z " fill="#0B0C0D" transform="translate(280,75)"/>
<path d="M0 0 C6.89267059 4.34458226 12.10359911 9.80586397 16 17 C16.60562402 20.01392578 16.46459577 21.92205305 16 25 C15.34 25 14.68 25 14 25 C13.73445313 24.44570313 13.46890625 23.89140625 13.1953125 23.3203125 C12.84210938 22.59585937 12.48890625 21.87140625 12.125 21.125 C11.77695312 20.40570313 11.42890625 19.68640625 11.0703125 18.9453125 C10.03442457 16.84864981 10.03442457 16.84864981 8 15 C5.89179203 15.3185177 5.89179203 15.3185177 4 16 C4.57528027 19.59550171 6.23372126 22.20226816 8.16015625 25.21875 C9 27 9 27 9 31 C4.67352906 31.43425545 2.66265726 31.49721773 -0.87890625 28.83984375 C-1.76449219 27.88207031 -2.65007812 26.92429687 -3.5625 25.9375 C-4.03212158 25.43742432 -4.50174316 24.93734863 -4.9855957 24.42211914 C-6.34296272 22.96577011 -7.67217622 21.48333467 -9 20 C-9.67289062 19.2678125 -10.34578125 18.535625 -11.0390625 17.78125 C-15 13.35100711 -15 13.35100711 -15 11 C-12.71890987 9.23105139 -10.43814453 7.56974556 -8.0625 5.9375 C-3.84343916 3.19157611 -3.84343916 3.19157611 0 0 Z " fill="#F0CE9E" transform="translate(357,440)"/>
<path d="M0 0 C0.05402274 2.10388569 0.09280256 4.20816714 0.125 6.3125 C0.14820312 7.48425781 0.17140625 8.65601563 0.1953125 9.86328125 C0 13 0 13 -2 16 C-4.2585508 17.33681017 -6.46480115 18.53411769 -8.8125 19.6875 C-9.42931641 20.00783203 -10.04613281 20.32816406 -10.68164062 20.65820312 C-14.26117786 22.44226579 -16.99240068 23.40457669 -21 23 C-21.33 22.01 -21.66 21.02 -22 20 C-21.34 19.5875 -20.68 19.175 -20 18.75 C-19.34 18.1725 -18.68 17.595 -18 17 C-18 15.68 -18 14.36 -18 13 C-21.04386724 12.91773332 -23.07175348 13.02391783 -26 14 C-24.60627521 8.73481746 -21.34780293 5.97841618 -17 3 C-11.43556673 -0.03103276 -6.24480427 -0.39030027 0 0 Z " fill="#EDCA9B" transform="translate(112,251)"/>
<path d="M0 0 C7.43387043 0 10.92950659 1.1254416 17 5 C19.625 7.625 19.625 7.625 21 10 C21 10.99 21 11.98 21 13 C18.69 12.67 16.38 12.34 14 12 C14.27034634 14.43717258 14.27034634 14.43717258 15 17 C15.99 17.66 16.98 18.32 18 19 C17.67 19.99 17.34 20.98 17 22 C9.94253953 22.50260846 5.9789413 19.49986808 0 16 C0 10.72 0 5.44 0 0 Z " fill="#F0CD9E" transform="translate(393,250)"/>
<path d="M0 0 C3.79911118 0.71840092 7.34658827 1.72555405 11 3 C11.84023188 7.35332736 12.10770995 11.44442519 12.0625 15.875 C12.05347656 17.02742188 12.04445313 18.17984375 12.03515625 19.3671875 C12.02355469 20.23601562 12.01195312 21.10484375 12 22 C8.78173668 23.71504054 6.69116133 24.47322581 3 24 C0.78596261 22.35493681 0.07334777 21.48851195 -0.34057617 18.73168945 C-0.32486572 17.86761475 -0.30915527 17.00354004 -0.29296875 16.11328125 C-0.28330078 15.17548828 -0.27363281 14.23769531 -0.26367188 13.27148438 C-0.23853516 12.29501953 -0.21339844 11.31855469 -0.1875 10.3125 C-0.17396484 9.32443359 -0.16042969 8.33636719 -0.14648438 7.31835938 C-0.11112203 4.87835769 -0.06177033 2.43945281 0 0 Z " fill="#F3F3F3" transform="translate(251,156)"/>
<path d="M0 0 C-0.05197921 3.08469706 -0.14707135 6.16661559 -0.25 9.25 C-0.27126953 10.55904297 -0.27126953 10.55904297 -0.29296875 11.89453125 C-0.5399199 18.36465129 -0.5399199 18.36465129 -2.88671875 21.60546875 C-5 23 -5 23 -7.5625 23.0625 C-10.83713153 21.63509651 -11.47576302 20.20615365 -13 17 C-13.29296875 13.66796875 -13.29296875 13.66796875 -13.1875 10.1875 C-13.16042969 9.02605469 -13.13335937 7.86460937 -13.10546875 6.66796875 C-13.07066406 5.78753906 -13.03585938 4.90710938 -13 4 C-11.39850114 3.32694982 -9.79368971 2.66177773 -8.1875 2 C-7.29417969 1.62875 -6.40085938 1.2575 -5.48046875 0.875 C-3 0 -3 0 0 0 Z " fill="#F5F5F5" transform="translate(244,157)"/>
<path d="M0 0 C0.99 0.33 1.98 0.66 3 1 C2.68546875 1.49628906 2.3709375 1.99257813 2.046875 2.50390625 C-0.75029709 6.94399568 -3.4272587 11.4262377 -6 16 C-6.66 16 -7.32 16 -8 16 C-8.50731767 10.67316448 -7.26718004 8.17473006 -4 4 C-2.70317626 2.63113049 -1.38176866 1.2830709 0 0 Z " fill="#E2C295" transform="translate(132,451)"/>
<path d="M0 0 C1.65 0.33 3.3 0.66 5 1 C5 2.65 5 4.3 5 6 C3.125 6.625 3.125 6.625 1 7 C0.34 6.34 -0.32 5.68 -1 5 C-0.625 2.375 -0.625 2.375 0 0 Z " fill="#E8E8E8" transform="translate(173,92)"/>
<path d="M0 0 C1.32 0.66 2.64 1.32 4 2 C3.67 3.65 3.34 5.3 3 7 C1.68 7 0.36 7 -1 7 C-1.625 4.625 -1.625 4.625 -2 2 C-1.34 1.34 -0.68 0.68 0 0 Z " fill="#E7E7E7" transform="translate(281,88)"/>
<path d="M0 0 C3.39672268 0.45725113 5.24234171 1.7959627 7.75 4.0625 C8.67039062 4.88427734 8.67039062 4.88427734 9.609375 5.72265625 C10.29773438 6.35494141 10.29773438 6.35494141 11 7 C10.34 8.65 9.68 10.3 9 12 C8.773125 11.443125 8.54625 10.88625 8.3125 10.3125 C6.02395941 6.28030943 2.82412102 3.54941401 -1 1 C-0.67 0.67 -0.34 0.34 0 0 Z " fill="#6ABECC" transform="translate(259,114)"/>
<path d="M0 0 C0.99 0.33 1.98 0.66 3 1 C2.34 1.66 1.68 2.32 1 3 C1.33 3.66 1.66 4.32 2 5 C-2.75 8 -2.75 8 -5 8 C-3.8141763 4.62496331 -2.72426311 2.35277269 0 0 Z " fill="#E5C698" transform="translate(91,257)"/>
</svg>
