<svg width="79" height="112" viewBox="0 0 79 112" fill="none" xmlns="http://www.w3.org/2000/svg">
<g clip-path="url(#clip0_0_114)">
<path d="M78.8633 22.5798L71.714 102.765L39.5772 111.685L7.52906 102.778L0.387115 22.5798H78.8633Z" fill="#E44D26"/>
<path d="M39.625 104.867L65.5931 97.6594L71.7024 29.1371H39.625V104.867Z" fill="#F16529"/>
<path d="M25.7268 48.8092H39.625V38.9733H14.9901L15.2251 41.612L17.6399 68.7173H39.625V58.8813H26.6248L25.7268 48.8092ZM27.9411 73.6354H18.0789L19.4551 89.0793L39.5798 94.6722L39.625 94.6599V84.4264L39.5819 84.4378L28.6406 81.4799L27.9411 73.6354Z" fill="#EBEBEB"/>
<path d="M7.68817 0.7854H12.6808V5.72385H17.248V0.7854H22.2409V15.7403H17.2483V10.7325H12.6811V15.7403H7.68848L7.68817 0.7854ZM28.8061 5.74479H24.4115V0.7854H38.197V5.74479H33.7996V15.7403H28.807V5.74479H28.8061ZM40.3848 0.7854H45.5906L48.7929 6.04014L51.9921 0.7854H57.2001V15.7403H52.2278V8.32781L48.7929 13.6451H48.7068L45.2698 8.32781V15.7403H40.3848V0.7854ZM59.6847 0.7854H64.6789V10.7972H71.6999V15.7403H59.6844V0.7854H59.6847Z" fill="black"/>
<path d="M39.5912 68.7173H51.6888L50.5482 81.4738L39.5909 84.4347V94.6676L59.7315 89.0793L59.8791 87.4175L62.1881 61.5226L62.4277 58.8813H39.5912V68.7173ZM39.5912 48.7852V48.8092H63.3217L63.5186 46.5985L63.9664 41.612L64.2012 38.9733H39.5912V48.7852Z" fill="white"/>
</g>
<defs>
<clipPath id="clip0_0_114">
<rect width="78.75" height="111.18" fill="white" transform="translate(0.25 0.7854)"/>
</clipPath>
</defs>
</svg>
