<svg width="150" height="154" viewBox="0 0 150 154" fill="none" xmlns="http://www.w3.org/2000/svg">
<rect width="150" height="154" rx="12" fill="#22314A" fill-opacity="0.7"/>
<g clip-path="url(#clip0_0_112)">
<path d="M113.863 43.5798L106.714 123.765L74.5772 132.685L42.5291 123.778L35.3871 43.5798H113.863Z" fill="#E44D26"/>
<path d="M74.625 125.867L100.593 118.659L106.702 50.1371H74.625V125.867Z" fill="#F16529"/>
<path d="M60.7268 69.8092H74.625V59.9733H49.9901L50.2251 62.612L52.6399 89.7173H74.625V79.8813H61.6248L60.7268 69.8092ZM62.9411 94.6354H53.0789L54.4551 110.079L74.5798 115.672L74.625 115.66V105.426L74.5819 105.438L63.6406 102.48L62.9411 94.6354Z" fill="#EBEBEB"/>
<path d="M42.6882 21.7854H47.6808V26.7238H52.248V21.7854H57.2409V36.7403H52.2483V31.7325H47.6811V36.7403H42.6885L42.6882 21.7854ZM63.8061 26.7448H59.4115V21.7854H73.197V26.7448H68.7996V36.7403H63.807V26.7448H63.8061ZM75.3848 21.7854H80.5906L83.7929 27.0401L86.9921 21.7854H92.2001V36.7403H87.2278V29.3278L83.7929 34.6451H83.7068L80.2698 29.3278V36.7403H75.3848V21.7854ZM94.6847 21.7854H99.6789V31.7972H106.7V36.7403H94.6844V21.7854H94.6847Z" fill="black"/>
<path d="M74.5912 89.7173H86.6888L85.5482 102.474L74.5909 105.435V115.668L94.7315 110.079L94.8791 108.417L97.1881 82.5226L97.4277 79.8813H74.5912V89.7173ZM74.5912 69.7852V69.8092H98.3217L98.5186 67.5985L98.9664 62.612L99.2012 59.9733H74.5912V69.7852Z" fill="white"/>
</g>
<defs>
<clipPath id="clip0_0_112">
<rect width="78.75" height="111.18" fill="white" transform="translate(35.25 21.7854)"/>
</clipPath>
</defs>
</svg>
