<svg width="150" height="154" viewBox="0 0 150 154" fill="none" xmlns="http://www.w3.org/2000/svg">
<path d="M0 12C0 5.37259 5.37258 0 12 0H138C144.627 0 150 5.37258 150 12V142C150 148.627 144.627 154 138 154H12C5.37258 154 0 148.627 0 142V12Z" fill="#22314A" fill-opacity="0.7"/>
<g clip-path="url(#clip0_0_133)">
<path d="M74.6753 34.5565C81.5536 34.5565 88.0301 36.1661 94.1056 39.2841L94.9087 39.6866L94.2059 40.2397C92.499 41.5976 91.1433 43.3577 90.2895 45.3691L90.0386 45.9222L89.5367 45.6709C84.8672 43.4582 79.8967 42.3016 74.7253 42.3016C55.5963 42.3016 40.0824 57.8911 40.0824 77.0008C40.0824 96.1105 55.546 111.7 74.6753 111.7C93.8043 111.7 109.318 96.1108 109.318 77.0008C109.318 72.4248 108.465 67.9489 106.657 63.7245L106.406 63.1714L106.958 62.92C109.017 62.1656 110.825 60.9086 112.28 59.299L112.833 58.595L113.184 59.3998C115.745 64.9819 117 70.916 117 76.9003C117 100.285 97.9713 119.344 74.625 119.344C51.2787 119.344 32.25 100.285 32.25 76.9006C32.25 53.5167 51.2787 34.4567 74.6753 34.5565ZM74.6753 57.6898C85.2691 57.6898 93.9549 66.3397 94.0049 77.0512C94.0049 87.7626 85.3694 96.4126 74.6753 96.4126C63.9809 96.4126 55.3454 87.7626 55.3454 77.0512C55.3454 66.3397 64.0312 57.6898 74.6753 57.6898ZM102.34 41.6981C107.22 41.6981 111.176 45.6606 111.176 50.5489C111.176 55.437 107.22 59.3998 102.34 59.3998C97.4592 59.3998 93.5031 55.4373 93.5031 50.5489C93.5031 45.6606 97.4592 41.6981 102.34 41.6981Z" fill="#3880FF"/>
</g>
<defs>
<clipPath id="clip0_0_133">
<rect width="84.75" height="84.8878" fill="white" transform="translate(32.25 34.5562)"/>
</clipPath>
</defs>
</svg>
