<?xml version="1.0" encoding="UTF-8"?>
<svg version="1.1" xmlns="http://www.w3.org/2000/svg" width="1154" height="1201">
<path d="M0 0 C1.98940387 1.15655654 3.96167865 2.34296151 5.91796875 3.5546875 C7.52901489 4.50432373 7.52901489 4.50432373 9.17260742 5.47314453 C11.40455592 6.79139268 13.62959612 8.12140578 15.84765625 9.46289062 C19.87061176 11.89161736 23.93130789 14.2512716 27.99633789 16.60864258 C30.96341305 18.33106851 33.92340188 20.065225 36.8828125 21.80078125 C43.55522929 25.70323418 50.26527012 29.5390433 56.98046875 33.3671875 C71.4552494 41.62085522 85.88769054 49.94686315 100.31445312 58.28417969 C103.5361515 60.14571422 106.75817954 62.00667589 109.98046875 63.8671875 C111.04652344 64.48271484 112.11257813 65.09824219 113.2109375 65.73242188 C121.79542472 70.68421792 130.40127168 75.59793618 139.01019287 80.50704956 C148.04363151 85.66011471 157.03824723 90.87658969 166.01245117 96.13208008 C173.22238696 100.34790222 180.46426978 104.50489118 187.72039795 108.64044189 C191.80420814 110.96906572 195.8843247 113.30416428 199.96533203 115.63769531 C201.9410743 116.76519867 203.91839179 117.88995063 205.89794922 119.01074219 C208.26372517 120.35030557 210.62286053 121.70081872 212.98046875 123.0546875 C213.95971313 123.60237793 213.95971313 123.60237793 214.95874023 124.16113281 C221.11800077 127.72775715 225.88423911 131.54859137 228.10546875 138.4296875 C228.28938008 141.1587325 228.37057455 143.78283771 228.35156441 146.51002979 C228.3538721 147.32284164 228.35617978 148.13565348 228.3585574 148.97309598 C228.36386868 151.70804201 228.35486392 154.44275452 228.34597778 157.1776886 C228.34684962 159.15365901 228.34860019 161.1296292 228.35115612 163.10559815 C228.35563797 168.54428315 228.34761444 173.9828897 228.33759999 179.4215647 C228.32897986 185.28315394 228.33188463 191.1447386 228.33340454 197.0063324 C228.3344543 207.16489527 228.32816817 217.32343249 228.31692886 227.48198891 C228.30514793 238.13701881 228.29739753 248.79203594 228.29522324 259.44707298 C228.29508576 260.10940305 228.29494828 260.77173311 228.29480663 261.45413378 C228.29412997 264.81773044 228.2935272 268.18132712 228.29295288 271.5449238 C228.2887513 295.37346203 228.27527448 319.20198688 228.25634766 343.03051758 C228.23798095 366.18058196 228.22381266 389.33064268 228.21533203 412.48071289 C228.21506898 413.19421399 228.21480593 413.90771508 228.2145349 414.64283742 C228.21189788 421.80806446 228.20934625 428.97329152 228.20685718 436.13851861 C228.20178467 450.73510208 228.19614216 465.33168531 228.19015503 479.92826843 C228.18974316 480.93497432 228.18974316 480.93497432 228.18932297 481.96201769 C228.17091954 526.78457991 228.13918732 571.6071345 228.10546875 616.4296875 C232.02700486 614.24130482 235.94720038 612.05053094 239.8671875 609.859375 C240.96059448 609.24924561 242.05400146 608.63911621 243.18054199 608.01049805 C250.47108459 603.93339919 257.71250937 599.78025403 264.91796875 595.5546875 C266.0174585 594.91088135 267.11694824 594.2670752 268.24975586 593.60375977 C269.11866455 593.09385498 269.98757324 592.5839502 270.8828125 592.05859375 C277.55522929 588.15614082 284.26527012 584.3203317 290.98046875 580.4921875 C303.30595658 573.46406849 315.60269231 566.38728149 327.88769531 559.28857422 C334.37671971 555.53990716 340.86883825 551.79660083 347.36035156 548.05224609 C352.75295189 544.94150411 358.14484697 541.82955423 363.53515625 538.71484375 C374.98327611 532.10163619 386.44465034 525.51270502 397.92578125 518.95703125 C399.21493799 518.22068495 400.50408192 517.48431623 401.79321289 516.7479248 C404.89715148 514.9749221 408.00126019 513.2022175 411.10546875 511.4296875 C411.10693531 510.16408997 411.10840187 508.89849243 411.10991287 507.59454346 C411.14562528 477.5426896 411.20188145 447.49095065 411.2833897 417.43918937 C411.293407 413.73924514 411.30325115 410.03930046 411.31298828 406.33935547 C411.31492965 405.6027721 411.31687103 404.86618874 411.31887123 404.10728467 C411.34988091 392.18518563 411.36686899 380.26310585 411.37866297 368.34097409 C411.39107989 356.10510633 411.41859348 343.86933945 411.46008182 331.63353539 C411.48520181 324.08513038 411.49858713 316.53689273 411.49689832 308.98844534 C411.49686501 303.19743174 411.51784969 297.4066405 411.54663658 291.61570549 C411.55515455 289.24217113 411.5568727 286.8686011 411.55127144 284.49505806 C411.54463894 281.25259881 411.56253567 278.01115578 411.58648682 274.76879883 C411.5787264 273.83103733 411.57096598 272.89327583 411.5629704 271.92709732 C411.64115376 265.94206481 412.74352698 261.44339376 416.10546875 256.4296875 C418.2265625 254.38085937 418.2265625 254.38085937 420.54296875 252.8984375 C421.4246875 252.32867187 422.30640625 251.75890625 423.21484375 251.171875 C427.88688495 248.35602314 432.58144028 245.59355648 437.33795166 242.92233276 C439.16393703 241.89685146 440.98641074 240.86535781 442.80810547 239.83227539 C444.70658299 238.75565539 446.60521235 237.6793195 448.50485229 236.60475159 C454.7674816 233.06147091 461.00113141 229.46864199 467.23046875 225.8671875 C469.37890625 224.62630208 471.52734375 223.38541667 473.67578125 222.14453125 C474.73571289 221.53206543 475.79564453 220.91959961 476.88769531 220.28857422 C482.2921752 217.16644145 487.69894287 214.04827546 493.10546875 210.9296875 C495.27214625 209.67970628 497.43881292 208.42970629 499.60546875 207.1796875 C503.93880208 204.6796875 508.27213542 202.1796875 512.60546875 199.6796875 C513.67780762 199.06101807 514.75014648 198.44234863 515.85498047 197.80493164 C518.02323139 196.5540427 520.19152572 195.30322898 522.35986328 194.05249023 C527.7526479 190.94170415 533.14468968 187.82964512 538.53515625 184.71484375 C550.29753448 177.92007186 562.07562382 171.15375594 573.87341309 164.42071533 C582.33742687 159.5896933 590.79003142 154.73932023 599.23046875 149.8671875 C600.28363281 149.25955566 601.33679688 148.65192383 602.421875 148.02587891 C607.41181865 145.14536217 612.39923329 142.26060293 617.38082886 139.36567688 C619.14770262 138.3392658 620.91528925 137.31409352 622.68310547 136.28930664 C624.89190688 135.00842872 627.09936518 133.72523056 629.30517578 132.43920898 C649.73665031 120.60125124 649.73665031 120.60125124 657.10546875 122.4296875 C670.64364729 127.80538324 683.16516857 136.12773731 695.703125 143.44628906 C701.11912388 146.60354903 706.54966001 149.73549285 711.98046875 152.8671875 C713.04555664 153.48207031 714.11064453 154.09695312 715.20800781 154.73046875 C723.79320946 159.68337069 732.40025495 164.5973564 741.01019287 169.50704956 C750.05018583 174.66385358 759.05072196 179.88512519 768.03222656 185.14306641 C775.65452653 189.59885094 783.31078186 193.99365896 790.98046875 198.3671875 C803.30572071 205.39572257 815.60268942 212.47209184 827.88769531 219.57080078 C832.2091685 222.06728765 836.53206848 224.5612955 840.85546875 227.05444336 C843.00983076 228.29750636 845.16348555 229.54179591 847.31640625 230.78735352 C852.34604188 233.69549311 857.38116155 236.5922473 862.44146729 239.44665527 C864.22435568 240.45307667 866.00505486 241.46326791 867.78515625 242.47460938 C870.01267698 243.738639 872.24420259 244.99564828 874.48046875 246.24414062 C890.52859354 255.38095468 890.52859354 255.38095468 892.79741192 262.98610592 C894.29505935 268.44359969 894.52327563 273.58167084 894.47969055 279.2144928 C894.48366496 280.25390925 894.48763936 281.29332571 894.49173421 282.36423963 C894.50130411 285.82247705 894.48957107 289.28029992 894.4777832 292.73852539 C894.4802129 295.22783053 894.48393394 297.71713468 894.48884583 300.20643616 C894.49726002 306.25074943 894.49176267 312.29490224 894.47958288 318.33919699 C894.46591562 325.38591183 894.46760488 332.43259859 894.46971621 339.47932332 C894.47290132 352.05630844 894.46126551 364.63323679 894.44165039 377.21020508 C894.42264425 389.4000013 894.41556451 401.58973103 894.42114258 413.77954102 C894.42720702 427.0714458 894.42701142 440.36332141 894.41565675 453.65522379 C894.41444952 455.07379846 894.41324354 456.49237313 894.4120388 457.9109478 C894.4111335 458.95774938 894.4111335 458.95774938 894.4102099 460.02569847 C894.40633877 464.93180409 894.40672123 469.8378988 894.40862465 474.7440052 C894.41097429 481.35226119 894.40238186 487.96044413 894.38656425 494.56868553 C894.38232736 496.99180881 894.38146684 499.41494073 894.38425446 501.8380661 C894.38748558 505.14942561 894.37837076 508.46053232 894.36616516 511.77186584 C894.36994448 512.72712994 894.37372381 513.68239404 894.37761766 514.66660553 C894.32410379 522.89284978 893.91704515 530.61164117 888.01074219 536.81201172 C884.27474151 539.9840697 880.04121441 542.19979519 875.73046875 544.4921875 C873.65270337 545.63109481 871.57590944 546.77177584 869.5 547.9140625 C868.4373291 548.49478516 867.3746582 549.07550781 866.27978516 549.67382812 C861.27438413 552.44254403 856.34769289 555.34152595 851.41796875 558.2421875 C842.72010811 563.33921363 833.98822012 568.37394546 825.23046875 573.3671875 C816.13457954 578.55395372 807.04834484 583.7565033 797.98046875 588.9921875 C796.91441406 589.60771484 795.84835937 590.22324219 794.75 590.85742188 C791.53489352 592.71438944 788.32011497 594.57192329 785.10546875 596.4296875 C771.15702507 604.49058054 757.19542987 612.52678176 743.20074463 620.50704956 C734.17614617 625.65507189 725.19019437 630.86621144 716.22485352 636.11669922 C706.94780846 641.54130027 697.61790386 646.87179402 688.27929688 652.18945312 C687.15587891 652.82947266 686.03246094 653.46949219 684.875 654.12890625 C683.38383667 654.97714966 683.38383667 654.97714966 681.86254883 655.8425293 C680.01241006 656.90759191 678.18120547 658.00618693 676.36987305 659.13598633 C674.10546875 660.4296875 674.10546875 660.4296875 672.10546875 660.4296875 C672.10823413 661.6901313 672.11099951 662.9505751 672.11384869 664.24921417 C672.17884142 694.17879888 672.2282999 724.10836536 672.25866474 754.03800336 C672.2624168 757.72292684 672.26629977 761.40785018 672.27026367 765.09277344 C672.2710506 765.82636619 672.27183753 766.55995894 672.27264831 767.31578177 C672.28569735 779.18940952 672.30934843 791.06299363 672.33692714 802.9365955 C672.36499531 815.12268513 672.38164799 827.30875194 672.38773423 839.49487257 C672.39184775 847.01258023 672.40483356 854.53016454 672.42921815 862.04783422 C672.4469711 867.81526544 672.4488308 873.58261786 672.44479179 879.35007095 C672.44561707 881.71395247 672.45158377 884.07783867 672.46308517 886.44169235 C672.47802582 889.67081292 672.47441624 892.89940711 672.4662323 896.12854004 C672.47497082 897.06241059 672.48370935 897.99628114 672.49271268 898.95845079 C672.45041837 905.13883311 671.91320009 911.2326756 667.64378899 916.09402323 C662.61604602 920.83289074 656.2726177 924.00831492 650.29296875 927.3671875 C648.5495933 928.35946444 646.80622433 929.35175302 645.06326294 930.34475708 C643.26399049 931.3686572 641.4629413 932.38937551 639.66162109 933.40966797 C634.12400945 936.55016411 628.61651872 939.74289759 623.10546875 942.9296875 C620.93632532 944.18121042 618.76705415 945.43251198 616.59765625 946.68359375 C612.28945224 949.16899652 607.98224086 951.65610727 603.67578125 954.14453125 C591.86917391 960.96471387 580.04519875 967.7529201 568.20074463 974.50704956 C560.14283663 979.10362973 552.11129089 983.7429291 544.10546875 988.4296875 C535.51024203 993.4614944 526.88234745 998.43357822 518.23046875 1003.3671875 C509.13466888 1008.55411176 500.04834612 1013.75650256 490.98046875 1018.9921875 C489.91441406 1019.60771484 488.84835937 1020.22324219 487.75 1020.85742188 C484.53489352 1022.71438944 481.32011497 1024.57192329 478.10546875 1026.4296875 C464.15702507 1034.49058054 450.19542987 1042.52678176 436.20074463 1050.50704956 C428.14283663 1055.10362973 420.11129089 1059.7429291 412.10546875 1064.4296875 C402.3304411 1070.15217199 392.50759919 1075.7881219 382.66796875 1081.3984375 C374.8000947 1085.88524487 366.94721473 1090.39733508 359.10546875 1094.9296875 C350.08016029 1100.14611236 341.03619072 1105.32883725 331.98046875 1110.4921875 C323.32851016 1115.42565484 314.7006937 1120.39788163 306.10546875 1125.4296875 C296.33412984 1131.15001253 286.51529891 1136.78438742 276.67895508 1142.3918457 C268.70153052 1146.94048378 260.74235088 1151.51964597 252.79296875 1156.1171875 C213.63890142 1178.75023589 213.63890142 1178.75023589 204.10546875 1177.4296875 C199.13281243 1175.65327572 194.65970711 1173.06645771 190.10546875 1170.4296875 C189.27418457 1169.95192871 188.44290039 1169.47416992 187.58642578 1168.98193359 C182.61363513 1166.1157898 177.66022814 1163.21782621 172.71484375 1160.3046875 C165.92016563 1156.30829583 159.07973087 1152.39390868 152.23046875 1148.4921875 C149.86044032 1147.1410399 147.49068348 1145.78941682 145.12109375 1144.4375 C144.53589966 1144.10364288 143.95070557 1143.76978577 143.34777832 1143.42581177 C131.83751341 1136.85514649 120.37170043 1130.20679461 108.89648438 1123.57519531 C105.674786 1121.71366078 102.45275796 1119.85269911 99.23046875 1117.9921875 C97.63138672 1117.06889648 97.63138672 1117.06889648 96 1116.12695312 C87.41551278 1111.17515708 78.80966582 1106.26143882 70.20074463 1101.35232544 C61.16075167 1096.19552142 52.16021554 1090.97424981 43.17871094 1085.71630859 C35.55641097 1081.26052406 27.90015564 1076.86571604 20.23046875 1072.4921875 C5.75596506 1064.23803114 -8.67674971 1055.91251378 -23.10351562 1047.57519531 C-26.325214 1045.71366078 -29.54724204 1043.85269911 -32.76953125 1041.9921875 C-34.36861328 1041.06889648 -34.36861328 1041.06889648 -36 1040.12695312 C-44.58448722 1035.17515708 -53.19033418 1030.26143882 -61.79925537 1025.35232544 C-70.83924833 1020.19552142 -79.83978446 1014.97424981 -88.82128906 1009.71630859 C-96.44358903 1005.26052406 -104.09984436 1000.86571604 -111.76953125 996.4921875 C-126.24403494 988.23803114 -140.67674971 979.91251378 -155.10351562 971.57519531 C-158.325214 969.71366078 -161.54724204 967.85269911 -164.76953125 965.9921875 C-165.83558594 965.37666016 -166.90164062 964.76113281 -168 964.12695312 C-175.40251845 959.85695299 -182.8198208 955.61351481 -190.24331665 951.38015747 C-201.67577871 944.86025792 -213.07618986 938.28837063 -224.42578125 931.625 C-227.93032373 929.56878845 -231.44896272 927.54259576 -234.98828125 925.546875 C-235.76985596 925.10134277 -236.55143066 924.65581055 -237.35668945 924.19677734 C-238.77693012 923.38810493 -240.20212 922.58802251 -241.63354492 921.79931641 C-246.88967981 918.78479829 -250.91587451 915.36565773 -252.89453125 909.4296875 C-252.98847992 907.6608662 -253.02344655 905.8886746 -253.02563375 904.11736143 C-253.0294184 903.00632749 -253.03320304 901.89529356 -253.03710237 900.75059193 C-253.03619044 899.52249092 -253.03527851 898.29438991 -253.03433895 897.02907372 C-253.03876609 895.07278924 -253.03876609 895.07278924 -253.04328266 893.07698387 C-253.05137055 889.43319659 -253.05318109 885.78942845 -253.05400561 882.14563326 C-253.05597097 878.19035603 -253.06364487 874.23508926 -253.07057816 870.27981818 C-253.08341345 862.42431236 -253.09078227 854.56880985 -253.09647694 846.71329598 C-253.10352697 837.30833912 -253.11628524 827.90339214 -253.12902614 818.49844158 C-253.16090154 794.68377541 -253.18071562 770.86910269 -253.19831166 747.05442232 C-253.2030781 740.60618463 -253.20808698 734.15794714 -253.21311688 727.70970964 C-253.24416023 687.70004331 -253.27078414 647.69037532 -253.28753567 607.6807003 C-253.29147305 598.40839001 -253.29548486 589.13607976 -253.29956055 579.86376953 C-253.30006221 578.71177646 -253.30056388 577.55978339 -253.30108075 576.37288144 C-253.31750326 539.01240918 -253.35596549 501.65200235 -253.40684765 464.29156229 C-253.45904148 425.8981676 -253.49184616 387.50480777 -253.4991132 349.11137688 C-253.50014184 343.69134334 -253.50137816 338.27130987 -253.50273323 332.8512764 C-253.50299127 331.78453053 -253.50324931 330.71778467 -253.50351516 329.61871318 C-253.50821458 312.43451028 -253.5331678 295.25039349 -253.56548466 278.06622286 C-253.59748174 260.80065205 -253.60750655 243.53517843 -253.59505271 226.26958148 C-253.58830426 216.00668359 -253.59831675 205.74411898 -253.63217971 195.48127303 C-253.65314294 188.62894485 -253.65238096 181.77684305 -253.6338463 174.92450841 C-253.62390171 171.01801515 -253.62348817 167.11215802 -253.64950912 163.20572464 C-253.67731133 158.99844966 -253.658757 154.79265071 -253.63561153 150.58534813 C-253.65108777 149.37129411 -253.666564 148.1572401 -253.68250921 146.90639657 C-253.58841229 139.1947203 -252.11215676 134.2198137 -246.89453125 128.4296875 C-244.20751953 126.25317383 -244.20751953 126.25317383 -241.46484375 124.76171875 C-240.43504395 124.18623291 -239.40524414 123.61074707 -238.34423828 123.01782227 C-237.24708496 122.43186279 -236.14993164 121.84590332 -235.01953125 121.2421875 C-233.26198305 120.26709593 -231.50445103 119.29197255 -229.7482605 118.31443787 C-227.95656461 117.32005351 -226.16023527 116.33445337 -224.36328125 115.34960938 C-219.19438413 112.48867138 -214.10901795 109.49134931 -209.01953125 106.4921875 C-199.20518596 100.74871288 -189.33984102 95.09643401 -179.46191406 89.46337891 C-171.55230872 84.95223898 -163.6551227 80.42023456 -155.76953125 75.8671875 C-154.70347656 75.25166016 -153.63742188 74.63613281 -152.5390625 74.00195312 C-149.32395602 72.14498556 -146.10917747 70.28745171 -142.89453125 68.4296875 C-128.94608757 60.36879446 -114.98449237 52.33259324 -100.98980713 44.35232544 C-92.93189741 39.75574429 -84.90044647 35.11628879 -76.89453125 30.4296875 C-66.94147336 24.60536116 -56.96379191 18.82441532 -46.92749023 13.14453125 C-41.77039544 10.22489694 -36.63074285 7.29355172 -31.578125 4.1953125 C-30.78519043 3.72125977 -29.99225586 3.24720703 -29.17529297 2.75878906 C-27.77366584 1.91898518 -26.38391195 1.05873557 -25.01220703 0.17089844 C-17.09953411 -4.48985144 -8.0649024 -4.08717805 0 0 Z M-18.8125 41 C-20.30390503 41.83893799 -20.30390503 41.83893799 -21.82543945 42.69482422 C-22.90011475 43.3085791 -23.97479004 43.92233398 -25.08203125 44.5546875 C-26.76075317 45.50432373 -26.76075317 45.50432373 -28.47338867 46.47314453 C-36.90827483 51.25905522 -45.29315168 56.13006124 -53.65893555 61.03564453 C-61.37255198 65.55640406 -69.12592695 70.00446434 -76.89453125 74.4296875 C-85.58871288 79.38318196 -94.259508 84.3734738 -102.89453125 89.4296875 C-111.48970415 94.4615854 -120.11765347 99.43357874 -128.76953125 104.3671875 C-138.92616447 110.15905715 -149.07004023 115.97197998 -159.19067383 121.82666016 C-164.25341634 124.7551207 -169.31977685 127.67651134 -174.40197754 130.57106018 C-176.83548286 131.95747042 -179.26677876 133.34772989 -181.69793701 134.73825073 C-183.42491165 135.72385645 -185.15505593 136.70390167 -186.88525391 137.68383789 C-187.92085449 138.27672607 -188.95645508 138.86961426 -190.0234375 139.48046875 C-191.4012439 140.26417847 -191.4012439 140.26417847 -192.80688477 141.0637207 C-195.02043222 142.2618305 -195.02043222 142.2618305 -195.89453125 144.4296875 C-194.87359375 144.98914063 -193.85265625 145.54859375 -192.80078125 146.125 C-182.94207544 151.55225567 -173.19130614 157.14503385 -163.48193359 162.8347168 C-155.68958059 167.39581148 -147.86347907 171.89561781 -140.01953125 176.3671875 C-125.54474241 184.6208408 -111.11230937 192.9468632 -96.68554688 201.28417969 C-93.4638485 203.14571422 -90.24182046 205.00667589 -87.01953125 206.8671875 C-85.95347656 207.48271484 -84.88742188 208.09824219 -83.7890625 208.73242188 C-78.15935553 211.97980987 -72.52399795 215.21695138 -66.87890625 218.4375 C-66.29256409 218.77201172 -65.70622192 219.10652344 -65.10211182 219.45117188 C-62.73762164 220.79985209 -60.37300926 222.14831669 -58.00793457 223.49597168 C-48.58858698 228.86449476 -39.21196891 234.30326005 -29.88232422 239.82641602 C-28.089035 240.88124513 -26.28573474 241.91928569 -24.47167969 242.93798828 C-21.89453125 244.4296875 -21.89453125 244.4296875 -19.41894531 246.15185547 C-16.84236487 247.7928491 -14.89630799 248.83720919 -11.89453125 249.4296875 C-7.37335474 248.17625692 -3.78181432 245.7545009 0.10546875 243.1796875 C1.24360564 242.468316 2.38445884 241.76127402 3.52783203 241.05834961 C5.89827395 239.5963357 8.25598865 238.11647375 10.60644531 236.62255859 C15.96287605 233.23874111 21.47738228 230.12940994 26.98046875 226.9921875 C29.14241642 225.74563995 31.30387002 224.49823516 33.46484375 223.25 C40.96713797 218.92826842 48.48905962 214.64114341 56.01019287 210.35232544 C64.06810087 205.75574527 72.09964661 201.1164459 80.10546875 196.4296875 C88.70069722 191.39787957 97.32867 186.42593881 105.98046875 181.4921875 C118.29899276 174.46650826 130.59607139 167.40493166 142.86816406 160.29833984 C145.6822889 158.67395738 148.50100898 157.05793954 151.32250977 155.44641113 C154.12824645 153.84203881 156.92877219 152.2286017 159.73046875 150.6171875 C160.77493164 150.02405762 161.81939453 149.43092773 162.89550781 148.81982422 C163.84393555 148.27213379 164.79236328 147.72444336 165.76953125 147.16015625 C166.6095166 146.67957764 167.44950195 146.19899902 168.31494141 145.70385742 C168.90581543 145.28338135 169.49668945 144.86290527 170.10546875 144.4296875 C170.10546875 143.7696875 170.10546875 143.1096875 170.10546875 142.4296875 C169.15800781 141.9035083 169.15800781 141.9035083 168.19140625 141.36669922 C155.49829783 134.30912975 142.86582813 127.16824514 130.33740234 119.8215332 C122.66449306 115.32647577 114.95585949 110.89621356 107.23046875 106.4921875 C92.7556881 98.23851978 78.32324696 89.91251185 63.89648438 81.57519531 C60.674786 79.71366078 57.45275796 77.85269911 54.23046875 75.9921875 C53.16441406 75.37666016 52.09835937 74.76113281 51 74.12695312 C45.37029279 70.87956499 39.73491452 67.64246056 34.08984375 64.421875 C33.50318436 64.08713669 32.91652496 63.75239838 32.31208801 63.40751648 C29.95049405 62.06034547 27.58875068 60.71344257 25.22592163 59.36843872 C18.82718602 55.72591278 12.44669597 52.05678762 6.109375 48.30859375 C4.44962646 47.32934937 4.44962646 47.32934937 2.75634766 46.33032227 C0.66015666 45.09047673 -1.43278723 43.84511997 -3.52197266 42.59350586 C-4.45058105 42.0444458 -5.37918945 41.49538574 -6.3359375 40.9296875 C-7.14748291 40.445 -7.95902832 39.9603125 -8.79516602 39.4609375 C-12.87296935 37.45783932 -15.13296344 38.91754893 -18.8125 41 Z M649.38012695 164.43334961 C648.39874756 165.01866455 647.41736816 165.60397949 646.40625 166.20703125 C645.2929834 166.85808838 644.1797168 167.50914551 643.03271484 168.17993164 C641.82766741 168.90879863 640.62275562 169.6378899 639.41796875 170.3671875 C638.1620487 171.10916931 636.90503195 171.84929766 635.64697266 172.58764648 C633.05625614 174.11087469 630.47119129 175.64307666 627.89013672 177.18261719 C622.29067163 180.5166444 616.63245567 183.74832182 610.98046875 186.9921875 C608.83160028 188.23232645 606.68316302 189.47321288 604.53515625 190.71484375 C596.97589039 195.08285371 589.41321544 199.44494612 581.85058594 203.80712891 C576.45798561 206.91787089 571.06609053 210.02982077 565.67578125 213.14453125 C555.05143138 219.28177324 544.41690194 225.40007084 533.75860596 231.4781189 C521.51155797 238.46258939 509.31309546 245.52668071 497.14648438 252.65039062 C491.63627048 255.8744143 486.1204564 259.08883911 480.60546875 262.3046875 C478.57419619 263.48954465 476.54294399 264.67443672 474.51171875 265.859375 C473.04296875 266.71614583 471.57421875 267.57291667 470.10546875 268.4296875 C473.03176124 271.60409564 475.94892364 273.6831378 479.70703125 275.79296875 C481.38152344 276.74042969 481.38152344 276.74042969 483.08984375 277.70703125 C484.30337576 278.38543394 485.51691769 279.06381888 486.73046875 279.7421875 C487.99391823 280.45496991 489.25693264 281.16852398 490.51953125 281.8828125 C492.46546704 282.9835765 494.41165147 284.08387025 496.35919189 285.18179321 C502.63388667 288.7196989 508.87181312 292.32001971 515.10546875 295.9296875 C523.53855975 300.80482705 531.98726514 305.65176439 540.44921875 310.4765625 C550.6773221 316.30837581 560.87136891 322.1947098 571.03222656 328.14306641 C578.65452802 332.59885181 586.31084849 336.99354035 593.98046875 341.3671875 C603.26225224 346.66086841 612.53553285 351.96847912 621.79296875 357.3046875 C622.86554932 357.92077881 623.93812988 358.53687012 625.04321289 359.17163086 C629.84167936 361.93460981 634.61660238 364.72221766 639.33203125 367.625 C640.11618408 368.10340332 640.90033691 368.58180664 641.70825195 369.07470703 C643.12874834 369.94574393 644.54208128 370.82863267 645.94604492 371.72607422 C649.44946529 373.90588918 649.44946529 373.90588918 653.45507812 374.21923828 C656.54621627 373.29838891 659.0138754 371.97919616 661.8046875 370.359375 C662.9179541 369.71798584 664.0312207 369.07659668 665.17822266 368.41577148 C666.38320636 367.71219386 667.58811988 367.008496 668.79296875 366.3046875 C670.04958691 365.57754835 671.30659181 364.85107717 672.56396484 364.12524414 C675.15174739 362.630011 677.73722564 361.130909 680.32080078 359.62841797 C684.88700073 356.97358983 689.46480185 354.33901126 694.04223633 351.70361328 C698.32637529 349.23594399 702.60695659 346.76213577 706.88769531 344.28857422 C712.2921752 341.16644145 717.69894287 338.04827546 723.10546875 334.9296875 C725.27214625 333.67970628 727.43881292 332.42970629 729.60546875 331.1796875 C733.93880208 328.6796875 738.27213542 326.1796875 742.60546875 323.6796875 C743.67780762 323.06101807 744.75014648 322.44234863 745.85498047 321.80493164 C748.02323139 320.5540427 750.19152572 319.30322898 752.35986328 318.05249023 C757.7526479 314.94170415 763.14468968 311.82964512 768.53515625 308.71484375 C770.68353902 307.47386359 772.83197661 306.23297831 774.98046875 304.9921875 C776.04346191 304.37819092 777.10645508 303.76419434 778.20166016 303.1315918 C783.8793676 299.85566302 789.56449882 296.5933986 795.26171875 293.3515625 C808.97918404 285.54406412 822.61971372 277.63300392 836.10546875 269.4296875 C832.09894077 265.99107514 827.91258974 263.53964707 823.29296875 261.0546875 C816.03527631 257.08682966 808.86447272 252.99066838 801.73046875 248.8046875 C792.92803705 243.64571432 784.09413636 238.54506499 775.23046875 233.4921875 C760.75567991 225.2385342 746.32324687 216.9125118 731.89648438 208.57519531 C728.674786 206.71366078 725.45275796 204.85269911 722.23046875 202.9921875 C721.16441406 202.37666016 720.09835937 201.76113281 719 201.12695312 C713.370293 197.87956511 707.73493238 194.64242903 702.08984375 191.421875 C701.50327499 191.08722733 700.91670624 190.75257965 700.31236267 190.40779114 C697.94981309 189.06019683 695.58713808 187.71282428 693.22390747 186.36642456 C683.653768 180.91293786 674.13100157 175.38298485 664.65380859 169.76928711 C663.73164551 169.22667236 662.80948242 168.68405762 661.859375 168.125 C661.05830322 167.65078613 660.25723145 167.17657227 659.43188477 166.68798828 C658.66416748 166.27274902 657.8964502 165.85750977 657.10546875 165.4296875 C656.29996582 164.98681396 655.49446289 164.54394043 654.66455078 164.08764648 C652.04992215 163.15696707 652.04992215 163.15696707 649.38012695 164.43334961 Z M-215.89453125 176.4296875 C-215.89453125 412.7096875 -215.89453125 648.9896875 -215.89453125 892.4296875 C-206.65453125 897.7096875 -197.41453125 902.9896875 -187.89453125 908.4296875 C-178.15463217 914.04172459 -168.41820469 919.65961572 -158.68554688 925.28417969 C-155.4638485 927.14571422 -152.24182046 929.00667589 -149.01953125 930.8671875 C-147.95347656 931.48271484 -146.88742188 932.09824219 -145.7890625 932.73242188 C-137.20457528 937.68421792 -128.59872832 942.59793618 -119.98980713 947.50704956 C-110.94981417 952.66385358 -101.94927804 957.88512519 -92.96777344 963.14306641 C-85.34547347 967.59885094 -77.68921814 971.99365896 -70.01953125 976.3671875 C-55.54502756 984.62134386 -41.11231279 992.94686122 -26.68554688 1001.28417969 C-23.4638485 1003.14571422 -20.24182046 1005.00667589 -17.01953125 1006.8671875 C-15.95347656 1007.48271484 -14.88742188 1008.09824219 -13.7890625 1008.73242188 C-5.20457528 1013.68421792 3.40127168 1018.59793618 12.01019287 1023.50704956 C21.05018583 1028.66385358 30.05072196 1033.88512519 39.03222656 1039.14306641 C47.2446205 1043.94380346 55.4980825 1048.67109008 63.76171875 1053.3828125 C73.2960008 1058.81902595 82.80929079 1064.29063856 92.31152344 1069.78271484 C99.67768712 1074.0370593 107.05959064 1078.26317805 114.44921875 1082.4765625 C123.69508778 1087.74832993 132.92018411 1093.05280451 142.10546875 1098.4296875 C150.46440685 1103.32022468 158.84271689 1108.17554658 167.24609375 1112.98925781 C168.4678818 1113.6893475 169.68924928 1114.39017177 170.91015625 1115.09179688 C172.61979051 1116.07388678 174.33135289 1117.05261778 176.04296875 1118.03125 C177.02136719 1118.59150879 177.99976563 1119.15176758 179.0078125 1119.72900391 C181.41994357 1121.05331861 183.83671248 1122.31094004 186.29907227 1123.53598022 C187.01362076 1123.89188421 187.72816925 1124.2477882 188.46437073 1124.61447716 C189.00593307 1124.88349657 189.54749542 1125.15251598 190.10546875 1125.4296875 C190.33897975 1098.02254313 190.51536804 1070.61554763 190.62359047 1043.20760918 C190.6751739 1030.48181804 190.74550988 1017.75664465 190.85986328 1005.03125 C190.95947648 993.94088654 191.02403677 982.85097039 191.0463537 971.76017201 C191.05940129 965.88635399 191.0901014 960.01381571 191.16276932 954.14040756 C191.23060524 948.61280746 191.25159394 943.08701498 191.23654556 937.55903816 C191.23929868 935.52963628 191.25921937 933.50017451 191.2975235 931.47113228 C191.97606659 921.00578063 191.97606659 921.00578063 187.91922474 911.93432236 C185.33486101 910.35422072 182.97926574 909.35538882 180.10546875 908.4296875 C179.01355225 907.79353516 177.92163574 907.15738281 176.79663086 906.50195312 C175.8350708 905.95216797 174.87351074 905.40238281 173.8828125 904.8359375 C172.78026123 904.20534424 171.67770996 903.57475098 170.54174805 902.92504883 C169.37554802 902.25982365 168.20928672 901.59470587 167.04296875 900.9296875 C166.43764313 900.58408783 165.8323175 900.23848816 165.20864868 899.88241577 C154.53984233 893.79210012 143.83005271 887.77670546 133.10546875 881.78515625 C118.16513713 873.4365721 103.29192534 864.97107733 88.43978882 856.46685791 C79.17089317 851.16127411 69.86596503 845.92286296 60.53955078 840.71899414 C52.10450138 836.00568205 43.71322754 831.21806467 35.33074951 826.41220093 C25.97986649 821.05214752 16.58338117 815.77793699 7.16552734 810.53637695 C-1.00075213 805.97271296 -9.06361115 801.24625373 -17.08154297 796.42700195 C-17.93506348 795.91613037 -18.78858398 795.40525879 -19.66796875 794.87890625 C-20.78824463 794.20347778 -20.78824463 794.20347778 -21.93115234 793.5144043 C-24.00119053 792.29303944 -24.00119053 792.29303944 -26.89453125 791.4296875 C-27.95703125 789.3046875 -27.95703125 789.3046875 -28.89453125 786.4296875 C-29.23898786 785.39289779 -29.58344448 784.35610808 -29.93833917 783.28790051 C-31.00316755 778.99134252 -31.16631316 775.22134895 -31.13110447 770.82327938 C-31.13240416 769.97787833 -31.13370386 769.13247728 -31.13504294 768.26145801 C-31.13698946 765.42762775 -31.12465226 762.59404064 -31.11244202 759.76023865 C-31.11100006 757.70844806 -31.11046254 755.65665668 -31.11075205 753.60486561 C-31.10943532 749.14335377 -31.10173554 744.68191323 -31.08919334 740.22041893 C-31.06881387 732.96155194 -31.06215673 725.70270877 -31.05718994 718.44381714 C-31.04931161 708.59034462 -31.03644887 698.73689065 -31.01958713 688.88343031 C-30.99133865 672.25418648 -30.98494252 655.62498633 -30.98606516 638.99572105 C-30.98627564 635.45601665 -30.98628193 631.91631225 -30.98630387 628.37660784 C-30.98631662 626.94972313 -30.9863299 625.52283843 -30.98634369 624.09595372 C-30.98634993 623.38749498 -30.98635616 622.67903624 -30.98636258 621.94910905 C-30.98638825 619.7946327 -30.98643438 617.64015635 -30.98648192 615.48568 C-30.98675389 599.28708335 -30.98387278 583.08848825 -30.97827148 566.88989258 C-30.97802372 566.14972052 -30.97777596 565.40954846 -30.97752069 564.64694694 C-30.96930292 540.63022298 -30.93693713 516.61359386 -30.89420376 492.59690913 C-30.85043639 467.90379987 -30.83654388 443.21083349 -30.85821646 418.51769148 C-30.86124913 415.03207411 -30.86391078 411.54645655 -30.8663311 408.0608387 C-30.86681444 407.37484295 -30.86729779 406.6888472 -30.86779578 405.9820637 C-30.87464169 394.93430486 -30.84943807 383.88683921 -30.8119227 372.83915145 C-30.77483623 361.74192591 -30.77064495 350.64499184 -30.79821504 339.54771715 C-30.81213698 333.5335644 -30.81119046 327.52034881 -30.77122307 321.50629234 C-30.73495799 316.00439043 -30.73984037 310.50414177 -30.77794795 305.00226653 C-30.7843879 303.00842734 -30.77548569 301.01446964 -30.74998534 299.02078312 C-30.19395657 288.90299673 -30.19395657 288.90299673 -33.86882198 279.96142972 C-36.18340218 278.38330386 -38.2675812 277.37282119 -40.89453125 276.4296875 C-41.86334229 275.85412109 -42.83215332 275.27855469 -43.83032227 274.68554688 C-44.67780029 274.21955078 -45.52527832 273.75355469 -46.3984375 273.2734375 C-47.37353271 272.73340088 -48.34862793 272.19336426 -49.35327148 271.63696289 C-50.37751221 271.07356201 -51.40175293 270.51016113 -52.45703125 269.9296875 C-60.96889043 265.20562766 -69.43329237 260.41467111 -77.83203125 255.4921875 C-89.39831089 248.71424696 -101.00449334 242.00767846 -112.62109375 235.31640625 C-115.85928285 233.4500037 -119.09592563 231.58094987 -122.33203125 229.7109375 C-134.08913078 222.91824423 -145.86249591 216.1549769 -157.65542603 209.42474365 C-166.2676871 204.50913302 -174.8682832 199.57381804 -183.45703125 194.6171875 C-184.52171631 194.00286865 -185.58640137 193.3885498 -186.68334961 192.75561523 C-191.6961689 189.86110758 -196.70507643 186.96012023 -201.70703125 184.046875 C-202.5983374 183.52843018 -203.48964355 183.00998535 -204.40795898 182.47583008 C-206.06485293 181.51146416 -207.7206767 180.54525638 -209.37524414 179.5769043 C-212.45649238 177.41838951 -212.45649238 177.41838951 -215.89453125 176.4296875 Z M183.72265625 179.78125 C182.81555908 180.29534424 181.90846191 180.80943848 180.97387695 181.33911133 C179.49213989 182.18832153 179.49213989 182.18832153 177.98046875 183.0546875 C176.95074951 183.64080811 175.92103027 184.22692871 174.86010742 184.83081055 C166.68737383 189.49448085 158.55822295 194.23191245 150.43847656 198.98706055 C142.73052385 203.49657191 134.98821967 207.94409687 127.23046875 212.3671875 C118.13457954 217.55395372 109.04834484 222.7565033 99.98046875 227.9921875 C98.91441406 228.60771484 97.84835937 229.22324219 96.75 229.85742188 C93.53489352 231.71438944 90.32011497 233.57192329 87.10546875 235.4296875 C74.33726104 242.80851478 61.56324183 250.17609069 48.75283813 257.48141479 C38.99203403 263.04794875 29.25042437 268.64556982 19.54296875 274.3046875 C18.53153809 274.89386963 17.52010742 275.48305176 16.47802734 276.09008789 C12.96783328 278.14120337 9.48897181 280.17401879 6.10546875 282.4296875 C5.80765943 284.99598967 5.70881401 287.32193112 5.73632526 289.89100838 C5.73286373 290.67334471 5.7294022 291.45568104 5.72583577 292.26172453 C5.71782784 294.9111716 5.73140889 297.56008332 5.7447052 300.20950317 C5.74339828 302.11688836 5.74077395 304.02427303 5.7369377 305.93165481 C5.73019855 311.19473145 5.74227233 316.45762651 5.75727189 321.72068 C5.77017879 327.38804624 5.76584659 333.05540152 5.76356506 338.72277832 C5.76198893 348.54909839 5.77143357 358.37535889 5.78827858 368.20166397 C5.81261808 382.40899494 5.82046867 396.61629698 5.82424255 410.82364653 C5.83081498 433.87186945 5.85077189 456.92005663 5.87915039 479.96826172 C5.90669227 502.36279129 5.9279487 524.75731236 5.94067383 547.15185547 C5.94106841 547.84184625 5.94146299 548.53183703 5.94186952 549.24273662 C5.94582499 556.17174808 5.94965245 563.10075961 5.9533861 570.02977119 C5.98472283 628.16309797 6.03767399 686.29639217 6.10546875 744.4296875 C9.63611086 743.04541388 12.90902854 741.51988924 16.21875 739.6640625 C17.20673584 739.11113525 18.19472168 738.55820801 19.21264648 737.98852539 C20.27040283 737.39160889 21.32815918 736.79469238 22.41796875 736.1796875 C23.52664307 735.55634521 24.63531738 734.93300293 25.77758789 734.29077148 C35.24740427 728.94952929 44.64337857 723.48533277 54.0234375 717.98828125 C69.94975429 708.65695777 85.9751684 699.49637644 102.00964355 690.3526001 C111.04840118 685.19652267 120.04806317 679.97658438 129.02783203 674.71850586 C137.73602594 669.62708539 146.49087434 664.61916626 155.26171875 659.63671875 C157.44130948 658.39615072 159.59577625 657.11055796 161.72499847 655.7854023 C165.05241195 653.84150694 168.33908759 652.66103399 172.00431061 651.48679924 C179.26646497 648.79971885 185.36113888 645.71453954 190.10546875 639.4296875 C195.10872885 627.2255018 193.18786648 611.61616774 192.89104366 598.74590755 C192.78699389 593.0869543 192.82250024 587.42862318 192.84069824 581.76898193 C192.85325898 571.97403246 192.77823427 562.18293151 192.64299011 552.38895035 C192.44758936 538.2293578 192.38540247 524.07161829 192.35527831 509.91082369 C192.30280334 486.93462896 192.14344287 463.96086063 191.91601562 440.98583984 C191.69540344 418.6734478 191.52549077 396.36160484 191.42382812 374.04833984 C191.4206715 373.35992738 191.41751487 372.67151491 191.41426259 371.96224147 C191.38261668 365.04858942 191.35199735 358.13493314 191.32212996 351.2212732 C191.07176482 293.28935478 190.64846208 235.35957316 190.10546875 177.4296875 C187.41914625 177.4296875 186.05908638 178.45145576 183.72265625 179.78125 Z M450.10546875 302.4296875 C449.59094372 329.45432447 449.20331017 356.47822505 448.96560097 383.50677776 C448.85227854 396.05770015 448.69787822 408.60557525 448.44580078 421.15454102 C448.2261208 432.09593133 448.08450099 443.03511508 448.03552186 453.97864944 C448.00689599 459.77162925 447.93995602 465.55829873 447.7794075 471.34924889 C445.98805374 493.82125283 445.98805374 493.82125283 452.25008774 514.60585594 C457.32220763 519.33608918 462.86555904 521.75107316 469.47714233 523.62230301 C473.2444132 524.77955504 476.20468564 526.61647652 479.53515625 528.70703125 C481.6827829 529.9285101 483.83121284 531.14857772 485.98046875 532.3671875 C488.37458245 533.72891884 490.7676073 535.09255275 493.16015625 536.45703125 C493.74835144 536.79245941 494.33654663 537.12788757 494.94256592 537.47348022 C500.68627852 540.75347658 506.39808551 544.0870099 512.10546875 547.4296875 C520.70058782 552.46167643 529.3285919 557.43357927 537.98046875 562.3671875 C552.45497244 570.62134386 566.88768721 578.94686122 581.31445312 587.28417969 C594.06319443 594.65054966 606.82306783 601.99689637 619.60546875 609.3046875 C620.22290955 609.65788055 620.84035034 610.01107361 621.47650146 610.37496948 C623.21704906 611.37039786 624.95812147 612.3649084 626.69921875 613.359375 C627.69630859 613.92897949 628.69339844 614.49858398 629.72070312 615.08544922 C631.16449192 615.89928021 632.62307961 616.68849293 634.10546875 617.4296875 C634.10546875 548.1296875 634.10546875 478.8296875 634.10546875 407.4296875 C625.85546875 402.8096875 617.60546875 398.1896875 609.10546875 393.4296875 C596.42772193 386.0511047 596.42772193 386.0511047 591.3359375 383.0625 C584.62085818 379.13491328 577.86494246 375.2800805 571.10546875 371.4296875 C562.41128712 366.47619304 553.740492 361.4859012 545.10546875 356.4296875 C536.51029585 351.3977896 527.88234653 346.42579626 519.23046875 341.4921875 C510.13466734 336.30526236 501.04851509 331.10258186 491.98046875 325.8671875 C490.9325415 325.26253662 489.88461426 324.65788574 488.80493164 324.03491211 C483.74972424 321.11666993 478.69714995 318.19398567 473.64959717 315.26252747 C471.23786737 313.86232072 468.8249625 312.46414645 466.41192627 311.06619263 C464.70361941 310.07536508 462.99705387 309.08153721 461.29052734 308.08764648 C460.26137207 307.49153564 459.2322168 306.8954248 458.171875 306.28125 C457.26381104 305.75354004 456.35574707 305.22583008 455.42016602 304.68212891 C453.05805374 303.3175824 453.05805374 303.3175824 450.10546875 302.4296875 Z M849.13671875 305.18359375 C848.10434082 305.78292725 847.07196289 306.38226074 846.00830078 306.99975586 C844.88536621 307.6572583 843.76243164 308.31476074 842.60546875 308.9921875 C841.4284919 309.67697664 840.25124141 310.36129566 839.07373047 311.04516602 C836.62585962 312.46736942 834.17918437 313.89159708 831.73339844 315.31738281 C826.24188627 318.51702658 820.73616378 321.69203056 815.23046875 324.8671875 C814.16650879 325.48142578 813.10254883 326.09566406 812.00634766 326.72851562 C803.41998793 331.68203632 794.81182259 336.59670631 786.20074463 341.50704956 C778.14283663 346.10362973 770.11129089 350.7429291 762.10546875 355.4296875 C753.51024028 360.46149543 744.8822675 365.43343619 736.23046875 370.3671875 C727.09462578 375.57767394 717.96609727 380.80015643 708.85546875 386.0546875 C707.92492676 386.59085693 706.99438477 387.12702637 706.03564453 387.67944336 C704.06915431 388.81454614 702.1298483 389.99775779 700.21707153 391.22120667 C696.99895011 393.12585538 693.82544154 394.16346069 690.24969482 395.23583984 C683.1814052 397.74078165 676.19164943 400.81920313 672.10546875 407.4296875 C667.12390054 420.65587941 669.25333004 437.22646734 669.67201424 451.05238295 C669.82275219 456.87195664 669.83619613 462.6918675 669.86462402 468.51309204 C669.93902456 479.51913374 670.13566443 490.51940758 670.37701178 501.52291644 C670.6459133 514.05664617 670.77738137 526.59066173 670.89770222 539.12656093 C671.1481135 564.89745962 671.56983789 590.66324957 672.10546875 616.4296875 C675.72685076 615.01176589 679.07110863 613.42814588 682.46484375 611.5234375 C683.48892334 610.94988525 684.51300293 610.37633301 685.56811523 609.78540039 C686.65294189 609.17301514 687.73776855 608.56062988 688.85546875 607.9296875 C690.54555054 606.97920532 690.54555054 606.97920532 692.26977539 606.00952148 C699.0620844 602.17887075 705.81769335 598.29394582 712.52514648 594.31689453 C728.57346924 584.80409645 744.80203847 575.59508677 761.00772095 566.35369873 C769.06645616 561.75666525 777.09883257 557.11692246 785.10546875 552.4296875 C793.70069524 547.39788074 802.32857554 542.4257715 810.98046875 537.4921875 C820.51402958 532.05576252 830.03693144 526.60162196 839.54296875 521.1171875 C840.63270996 520.4888501 841.72245117 519.8605127 842.84521484 519.21313477 C846.97879883 516.82736927 846.97879883 516.82736927 851.10546875 514.4296875 C851.96983645 514.07558902 852.83420416 513.72149054 853.72476482 513.3566618 C856.49760934 511.54660515 856.49760934 511.54660515 856.72070789 507.79651356 C856.74178304 506.24263688 856.73487086 504.68824069 856.70674133 503.13447571 C856.71101346 502.27844999 856.71528558 501.42242427 856.71968716 500.54045838 C856.72794842 497.66096788 856.70038089 494.78292159 856.6730957 491.90356445 C856.67168591 489.84403518 856.67247587 487.78450339 856.67530823 485.72497559 C856.67674646 480.12387343 856.64729054 474.52330352 856.61243844 468.92232537 C856.58124282 463.07268975 856.57824957 457.22304276 856.5723114 451.37333679 C856.55675298 440.29166248 856.51569735 429.21023395 856.46556395 418.12866801 C856.40973274 405.51460469 856.38219963 392.9005298 856.35708678 380.28637373 C856.30478335 354.33400857 856.21680214 328.38186179 856.10546875 302.4296875 C853.22887317 302.4296875 851.61788327 303.73573707 849.13671875 305.18359375 Z M425.13671875 547.18359375 C424.10434082 547.78292725 423.07196289 548.38226074 422.00830078 548.99975586 C420.32389893 549.98600952 420.32389893 549.98600952 418.60546875 550.9921875 C417.4284919 551.67697664 416.25124141 552.36129566 415.07373047 553.04516602 C412.62585962 554.46736942 410.17918437 555.89159708 407.73339844 557.31738281 C402.24188627 560.51702658 396.73616378 563.69203056 391.23046875 566.8671875 C390.16650879 567.48142578 389.10254883 568.09566406 388.00634766 568.72851562 C379.41998793 573.68203632 370.81182259 578.59670631 362.20074463 583.50704956 C354.14283663 588.10362973 346.11129089 592.7429291 338.10546875 597.4296875 C329.51024203 602.4614944 320.88234745 607.43357822 312.23046875 612.3671875 C303.13466888 617.55411176 294.04834612 622.75650256 284.98046875 627.9921875 C283.38138672 628.91547852 283.38138672 628.91547852 281.75 629.85742188 C278.53489352 631.71438944 275.32011497 633.57192329 272.10546875 635.4296875 C258.15702507 643.49058054 244.19542987 651.52678176 230.20074463 659.50704956 C222.14283663 664.10362973 214.11129089 668.7429291 206.10546875 673.4296875 C196.3304411 679.15217199 186.50759919 684.7881219 176.66796875 690.3984375 C168.8000947 694.88524487 160.94721473 699.39733508 153.10546875 703.9296875 C144.08016029 709.14611236 135.03619072 714.32883725 125.98046875 719.4921875 C117.32851016 724.42565484 108.7006937 729.39788163 100.10546875 734.4296875 C91.51023867 739.46149637 82.88219683 744.43331031 74.23046875 749.3671875 C64.76274981 754.76763292 55.30103979 760.17807357 45.85546875 765.6171875 C44.79086426 766.22876709 43.72625977 766.84034668 42.62939453 767.47045898 C37.05048312 770.68651097 31.54129741 773.97702599 26.10546875 777.4296875 C29.01560457 779.71051332 31.99349636 781.57270938 35.2265625 783.36328125 C36.73694092 784.20354858 36.73694092 784.20354858 38.27783203 785.06079102 C39.35532715 785.65690186 40.43282227 786.2530127 41.54296875 786.8671875 C43.82072861 788.13466917 46.0980662 789.40290998 48.375 790.671875 C49.51275879 791.30577148 50.65051758 791.93966797 51.82275391 792.59277344 C56.4756717 795.19641418 61.10545064 797.83938729 65.73046875 800.4921875 C75.86299093 806.29929938 86.02756553 812.048603 96.19824219 817.78857422 C101.96402781 821.04332825 107.72732033 824.30249503 113.4909668 827.56103516 C118.21942558 830.23407738 122.94862959 832.9057791 127.6796875 835.57421875 C138.72518588 841.80671884 149.74741268 848.07859348 160.75247192 854.38217163 C170.3864251 859.8986588 180.05602121 865.34755718 189.76123047 870.73803711 C190.71271973 871.26792236 191.66420898 871.79780762 192.64453125 872.34375 C194.01206543 873.10026855 194.01206543 873.10026855 195.40722656 873.87207031 C197.25543216 874.93898596 199.07220693 876.06171959 200.85839844 877.22949219 C202.1679248 878.08269043 202.1679248 878.08269043 203.50390625 878.953125 C204.27138184 879.47567871 205.03885742 879.99823242 205.82958984 880.53662109 C208.10428832 881.68976545 208.10428832 881.68976545 210.54614258 880.77099609 C211.39072021 880.32836426 212.23529785 879.88573242 213.10546875 879.4296875 C213.98501221 878.97368164 214.86455566 878.51767578 215.77075195 878.04785156 C216.72296631 877.51901367 217.67518066 876.99017578 218.65625 876.4453125 C220.27394287 875.54800415 220.27394287 875.54800415 221.92431641 874.63256836 C223.08899735 873.98184098 224.25354471 873.33087447 225.41796875 872.6796875 C226.01438171 872.34744171 226.61079468 872.01519592 227.22528076 871.67288208 C236.61354518 866.44220623 245.91759368 861.07775692 255.18286133 855.63183594 C262.27380373 851.47231519 269.4219314 847.42691556 276.60546875 843.4296875 C284.82749465 838.8540235 292.99128305 834.19398002 301.10546875 829.4296875 C310.25460164 824.05771957 319.47950006 818.83892225 328.75 813.6796875 C335.9190057 809.68004298 343.02639638 805.58620706 350.10546875 801.4296875 C359.25600936 796.05689301 368.4821525 790.8369631 377.75439453 785.67749023 C384.88175142 781.70153115 391.94485967 777.62804752 398.98046875 773.4921875 C408.58112379 767.85069587 418.28499127 762.41756136 428.03417969 757.03759766 C436.49298687 752.35725163 444.85383515 747.52782416 453.1875 742.62890625 C460.27708023 738.47068482 467.4235297 734.4260262 474.60546875 730.4296875 C482.82749465 725.8540235 490.99128305 721.19398002 499.10546875 716.4296875 C508.25460164 711.05771957 517.47950006 705.83892225 526.75 700.6796875 C533.9190057 696.68004298 541.02639638 692.58620706 548.10546875 688.4296875 C556.21965786 683.66539298 564.38350662 679.00547156 572.60546875 674.4296875 C586.56916941 666.6572938 600.41044157 658.66710325 614.10546875 650.4296875 C610.69713229 647.5841671 607.27079891 645.24757148 603.40625 643.06640625 C602.29314453 642.43476562 601.18003906 641.803125 600.03320312 641.15234375 C599.44498779 640.82121582 598.85677246 640.49008789 598.25073242 640.14892578 C595.73690816 638.7337904 593.2285214 637.30913545 590.71969604 635.88516235 C589.42206823 635.14880009 588.12415311 634.4129439 586.82595825 633.67758179 C580.56543593 630.1301064 574.33361728 626.53366203 568.10546875 622.9296875 C559.67221604 618.05482625 551.22367371 613.20761138 542.76171875 608.3828125 C532.5336154 602.55099919 522.33956859 596.6646652 512.17871094 590.71630859 C504.55640948 586.26052319 496.90008901 581.86583465 489.23046875 577.4921875 C479.94869251 572.19851072 470.67459874 566.89228379 461.41796875 561.5546875 C460.34756348 560.93787109 459.2771582 560.32105469 458.17431641 559.68554688 C453.35866788 556.90553291 448.55280264 554.11153532 443.7734375 551.26953125 C442.97574951 550.79563965 442.17806152 550.32174805 441.35620117 549.83349609 C439.90204539 548.9669019 438.45020781 548.09640046 437.0012207 547.22119141 C431.63361203 544.01790762 430.45736384 544.07878894 425.13671875 547.18359375 Z M626.6640625 686.4375 C625.53581055 687.08734863 624.40755859 687.73719727 623.24511719 688.40673828 C622.64244019 688.75641663 622.03976318 689.10609497 621.41882324 689.46636963 C618.22940812 691.31677833 615.03222078 693.15367669 611.8359375 694.9921875 C611.18448761 695.36739532 610.53303772 695.74260315 609.86184692 696.12918091 C603.72397469 699.66006378 597.5435445 703.11264744 591.35546875 706.5546875 C582.2105586 711.65099826 573.15185832 716.87968642 564.12402344 722.18017578 C555.96428379 726.95891837 547.72338768 731.58145436 539.4609375 736.1796875 C532.2919318 740.17933202 525.18454112 744.27316794 518.10546875 748.4296875 C508.95633586 753.80165543 499.73143744 759.02045275 490.4609375 764.1796875 C483.2919318 768.17933202 476.18454112 772.27316794 469.10546875 776.4296875 C459.95633586 781.80165543 450.73143744 787.02045275 441.4609375 792.1796875 C434.2919318 796.17933202 427.18454112 800.27316794 420.10546875 804.4296875 C410.95492814 809.80248199 401.728785 815.0224119 392.45654297 820.18188477 C385.32918608 824.15784385 378.26607783 828.23132748 371.23046875 832.3671875 C361.62981371 838.00867913 351.92594623 843.44181364 342.17675781 848.82177734 C333.71795063 853.50212337 325.35710235 858.33155084 317.0234375 863.23046875 C309.93385727 867.38869018 302.7874078 871.4333488 295.60546875 875.4296875 C286.38932617 880.55859032 277.25795846 885.81460181 268.16455078 891.15771484 C259.61283515 896.16845263 250.97494883 901.01719851 242.30078125 905.8125 C240.82351563 906.63234375 240.82351563 906.63234375 239.31640625 907.46875 C238.45321777 907.94521973 237.5900293 908.42168945 236.70068359 908.91259766 C235.8442627 909.4132373 234.9878418 909.91387695 234.10546875 910.4296875 C232.56250154 911.20391996 232.56250154 911.20391996 230.98836327 911.99379349 C227.73457699 914.22734856 227.73457699 914.22734856 227.36718178 918.21714401 C227.34197286 919.78493048 227.35009002 921.35345787 227.38394165 922.92108154 C227.3788151 923.78612879 227.37368855 924.65117604 227.36840665 925.54243684 C227.35850814 928.44668844 227.39154653 931.34886914 227.42431641 934.25292969 C227.4260085 936.33231049 227.42505955 938.41169489 227.42166138 940.49107361 C227.4199368 946.14179573 227.45526232 951.79175682 227.49710512 957.44230175 C227.53456175 963.34530487 227.53813349 969.2483246 227.54525757 975.15142822 C227.56392126 986.33228453 227.6131792 997.51278968 227.67335451 1008.69349122 C227.74037201 1021.4212245 227.77339672 1034.14897437 227.80352712 1046.87684011 C227.86627667 1073.06131741 227.97184157 1099.2454828 228.10546875 1125.4296875 C230.32239551 1124.33121485 232.53819454 1123.23056041 234.75341797 1122.12866211 C235.68422432 1121.66787388 235.68422432 1121.66787388 236.63383484 1121.19777679 C242.31215775 1118.36956791 247.78023912 1115.23709981 253.23046875 1111.9921875 C255.31571261 1110.7631453 257.40168079 1109.53533138 259.48828125 1108.30859375 C260.56625977 1107.67453613 261.64423828 1107.04047852 262.75488281 1106.38720703 C268.51281499 1103.02323879 274.31007656 1099.72850046 280.10546875 1096.4296875 C288.8000664 1091.47693515 297.47045688 1086.48589453 306.10546875 1081.4296875 C315.88043517 1075.70709953 325.70333935 1070.07125251 335.54296875 1064.4609375 C343.4108428 1059.97413013 351.26372277 1055.46203992 359.10546875 1050.9296875 C368.13077721 1045.71326264 377.17474678 1040.53053775 386.23046875 1035.3671875 C394.88242734 1030.43372016 403.5102438 1025.46149337 412.10546875 1020.4296875 C420.70069547 1015.3978806 429.32859005 1010.42579678 437.98046875 1005.4921875 C447.07626862 1000.30526324 456.16259138 995.10287244 465.23046875 989.8671875 C466.29652344 989.25166016 467.36257813 988.63613281 468.4609375 988.00195312 C471.67604398 986.14498556 474.89082253 984.28745171 478.10546875 982.4296875 C492.05391243 974.36879446 506.01550763 966.33259324 520.01019287 958.35232544 C528.06810087 953.75574527 536.09964661 949.1164459 544.10546875 944.4296875 C552.70069722 939.39787957 561.32867 934.42593881 569.98046875 929.4921875 C579.11631172 924.28170106 588.24484023 919.05921857 597.35546875 913.8046875 C598.28601074 913.26851807 599.21655273 912.73234863 600.17529297 912.17993164 C602.14178319 911.04482886 604.0810892 909.86161721 605.99386597 908.63816833 C609.21198739 906.73351962 612.38549596 905.69591431 615.96124268 904.62353516 C623.0295323 902.11859335 630.01928807 899.04017187 634.10546875 892.4296875 C639.08703696 879.20349559 636.95760746 862.63290766 636.53892326 848.80699205 C636.38818531 842.98741836 636.37474137 837.1675075 636.34631348 831.34628296 C636.27191294 820.34024126 636.07527307 809.33996742 635.83392572 798.33645856 C635.5650242 785.80272883 635.43355613 773.26871327 635.31323528 760.73281407 C635.062824 734.96191538 634.64109961 709.19612543 634.10546875 683.4296875 C631.09605532 683.4296875 629.25748691 684.93537526 626.6640625 686.4375 Z " fill="#FF2C1F" transform="translate(252.89453125,2.5703125)"/>
</svg>
