<?xml version="1.0" encoding="UTF-8"?>
<svg version="1.1" xmlns="http://www.w3.org/2000/svg" width="280" height="280">
<path d="M0 0 C92.4 0 184.8 0 280 0 C280 92.4 280 184.8 280 280 C187.6 280 95.2 280 0 280 C0 187.6 0 95.2 0 0 Z " fill="#F53003" transform="translate(0,0)"/>
<path d="M0 0 C2.55786133 1.13574219 2.55786133 1.13574219 5.08203125 2.546875 C6.01466797 3.0625 6.94730469 3.578125 7.90820312 4.109375 C9.34583008 4.92148438 9.34583008 4.92148438 10.8125 5.75 C12.23272461 6.53890625 12.23272461 6.53890625 13.68164062 7.34375 C15.4746017 8.34079924 17.26563917 9.34132263 19.05395508 10.34667969 C23.02876405 12.57734235 27.01562966 14.78646092 31 17 C31.33 38.78 31.66 60.56 32 83 C38.6 79.37 45.2 75.74 52 72 C53.32 71.34 54.64 70.68 56 70 C56.33 58.12 56.66 46.24 57 34 C70.6875 26.6875 70.6875 26.6875 74.97924805 24.3972168 C76.10371338 23.79562744 77.22817871 23.19403809 78.38671875 22.57421875 C80.10701294 21.65515747 80.10701294 21.65515747 81.86206055 20.7175293 C83.86382293 19.6218786 85.83431636 18.4655438 87.75585938 17.23461914 C90 16 90 16 92.51953125 16.671875 C93.33808594 17.11015625 94.15664062 17.5484375 95 18 C96.15048828 18.53367187 96.15048828 18.53367187 97.32421875 19.078125 C102.54589658 21.66738673 107.56122033 24.46836198 112.53125 27.51171875 C115.73260721 29.44165087 119.00064073 31.23584883 122.28515625 33.01953125 C124 34 124 34 125 35 C125.08865208 37.8843382 125.11521296 40.74462158 125.09765625 43.62890625 C125.09553383 44.92525246 125.09553383 44.92525246 125.09336853 46.24778748 C125.08775239 49.01939292 125.07519719 51.7909188 125.0625 54.5625 C125.05748708 56.4368478 125.05292381 58.31119685 125.04882812 60.18554688 C125.03777772 64.79039544 125.0205023 69.39518421 125 74 C124.3702124 74.34256836 123.7404248 74.68513672 123.09155273 75.03808594 C120.20645659 76.60796833 117.3219743 78.17897536 114.4375 79.75 C113.44685547 80.28882813 112.45621094 80.82765625 111.43554688 81.3828125 C107.23161009 83.67332955 103.03719733 85.96383497 98.91015625 88.390625 C96 90 96 90 94 90 C94.05236816 91.05912598 94.10473633 92.11825195 94.15869141 93.20947266 C94.34030112 97.15587156 94.45468916 101.10190659 94.54931641 105.05126953 C94.59947485 106.7569801 94.66762724 108.46226336 94.75439453 110.16650391 C95.45751184 124.33638568 95.45751184 124.33638568 91.9074707 128.38842773 C89.30750387 129.95448963 86.85573314 130.98955014 84 132 C82.29818716 132.91126042 80.6086119 133.8460904 78.9375 134.8125 C75.64129897 136.5956144 72.33262082 138.35364449 69.015625 140.09765625 C62.18928921 143.68779745 55.38090294 147.2912155 48.6875 151.125 C47.56859375 151.76566406 46.4496875 152.40632812 45.296875 153.06640625 C43.06053183 154.37800562 40.84200836 155.72037852 38.640625 157.08984375 C37.58359375 157.74082031 36.5265625 158.39179688 35.4375 159.0625 C34.50808594 159.65160156 33.57867187 160.24070313 32.62109375 160.84765625 C29.42667452 162.25205815 28.31622413 161.91382847 25 161 C22.5715332 159.88012695 22.5715332 159.88012695 20.05078125 158.48828125 C19.11943359 157.97716797 18.18808594 157.46605469 17.22851562 156.93945312 C15.78508789 156.13411133 15.78508789 156.13411133 14.3125 155.3125 C13.36955078 154.79494141 12.42660156 154.27738281 11.45507812 153.74414062 C6.79368954 151.17156672 2.18698828 148.53155252 -2.3671875 145.7734375 C-5.66064518 143.78029463 -8.94980787 141.95024623 -12.4375 140.3125 C-13.36995041 139.82727371 -14.30240082 139.34204742 -15.2631073 138.84211731 C-18.02922225 137.42356272 -20.83677591 136.27561163 -23.73188782 135.14628601 C-36.3995806 129.70686772 -36.3995806 129.70686772 -39.06393051 123.5357399 C-40.70877829 116.1398978 -40.17852876 108.59734282 -39.85546875 101.08203125 C-39.81999088 98.65405326 -39.79296411 96.22593841 -39.77400208 93.79777527 C-39.70175243 87.43344645 -39.51544841 81.07747559 -39.30462646 74.71643066 C-39.10957229 68.21509912 -39.02334317 61.71240397 -38.92773438 55.20898438 C-38.72450306 42.46910784 -38.40434142 29.73499995 -38 17 C-37.31486328 16.63237549 -36.62972656 16.26475098 -35.92382812 15.88598633 C-32.78104368 14.19761504 -29.6405138 12.50509087 -26.5 10.8125 C-25.42234375 10.23435547 -24.3446875 9.65621094 -23.234375 9.06054688 C-22.17734375 8.49013672 -21.1203125 7.91972656 -20.03125 7.33203125 C-18.99355469 6.77209473 -17.95585938 6.2121582 -16.88671875 5.63525391 C-14.35434804 4.20072929 -11.98860494 2.66017723 -9.59375 1.01171875 C-6.08216687 -1.22715039 -4.0451369 -1.39499566 0 0 Z " fill="#FCF6F3" transform="translate(100,60)"/>
<path d="M0 0 C6.91581567 3.45790783 13.34427511 6.67345057 19.84375 10.703125 C21.83856434 11.90290464 23.91793268 12.95896634 26 14 C26 37.43 26 60.86 26 85 C27.98 85.66 29.96 86.32 32 87 C33.27807813 87.62015006 34.53831514 88.27963699 35.76953125 88.98828125 C36.43146484 89.36533203 37.09339844 89.74238281 37.77539062 90.13085938 C38.44763672 90.52080078 39.11988281 90.91074219 39.8125 91.3125 C41.15218053 92.07971217 42.49202556 92.84663714 43.83203125 93.61328125 C45.20746094 94.40089844 46.58289063 95.18851562 48 96 C50.97 97.65 53.94 99.3 57 101 C57 110.57 57 120.14 57 130 C53.11030767 128.44412307 49.73100744 126.83272507 46.09765625 124.8046875 C44.96650391 124.1748999 43.83535156 123.5451123 42.66992188 122.89624023 C41.46738944 122.22259786 40.26491653 121.54884922 39.0625 120.875 C37.83278715 120.18869555 36.60296913 119.50257951 35.37304688 118.81665039 C28.28509232 114.85954217 21.21222889 110.87708257 14.1875 106.80859375 C9.49247945 104.14462989 4.73900369 101.5849111 0 99 C0 66.33 0 33.66 0 0 Z " fill="#F53104" transform="translate(68,84)"/>
<path d="M0 0 C2.71647211 1.32110761 5.32558569 2.79676514 7.9375 4.3125 C8.62779297 4.70373047 9.31808594 5.09496094 10.02929688 5.49804688 C14.13530096 7.84489092 18.09643424 10.33042529 22 13 C19.0878835 15.29317525 16.11962152 17.11087687 12.8515625 18.85546875 C11.85294189 19.39155762 10.85432129 19.92764648 9.82543945 20.47998047 C8.76929443 21.04346191 7.71314941 21.60694336 6.625 22.1875 C-0.18778631 25.8471481 -6.9872252 29.51266719 -13.6875 33.375 C-14.74453125 33.97957031 -15.8015625 34.58414063 -16.890625 35.20703125 C-18.5053869 36.13815651 -20.11926762 37.07103937 -21.72070312 38.02490234 C-23.45001657 39.05377682 -25.19367394 40.05841916 -26.9375 41.0625 C-27.93652344 41.65160156 -28.93554688 42.24070313 -29.96484375 42.84765625 C-33.8625431 44.32747775 -35.97800803 44.04077862 -40 43 C-42.4781179 41.80338395 -44.73000342 40.61076203 -47.0625 39.1875 C-47.64837891 38.84396484 -48.23425781 38.50042969 -48.83789062 38.14648438 C-52.64795329 35.89258493 -56.33529461 33.48218249 -60 31 C-53.95714225 24.26536729 -44.26072757 20.58445398 -36.265625 16.66015625 C-32.45368612 14.72226866 -28.72459998 12.66217999 -25 10.5625 C-23.98377563 9.99160645 -23.98377563 9.99160645 -22.94702148 9.40917969 C-19.75735226 7.60537204 -16.59866846 5.76969321 -13.48828125 3.83203125 C-12.44027344 3.18621094 -11.39226562 2.54039062 -10.3125 1.875 C-9.40113281 1.29492188 -8.48976562 0.71484375 -7.55078125 0.1171875 C-4.34497852 -1.28688536 -3.28627365 -1.17091568 0 0 Z " fill="#F53206" transform="translate(163,136)"/>
<path d="M0 0 C0 9.57 0 19.14 0 29 C-10.375 34.625 -10.375 34.625 -13.57958984 36.35791016 C-19.08425677 39.35181974 -24.49803675 42.45604719 -29.85595703 45.70507812 C-38.61689238 50.99635586 -47.83548088 55.46310935 -57 60 C-57 50.43 -57 40.86 -57 31 C-53.37 29.040625 -49.74 27.08125 -46 25.0625 C-33.55730359 18.32979657 -21.15407922 11.56170914 -9.05859375 4.21875 C-1.93269231 0 -1.93269231 0 0 0 Z " fill="#F53105" transform="translate(188,154)"/>
<path d="M0 0 C0 21.12 0 42.24 0 64 C-22 76 -22 76 -25 77 C-25 55.88 -25 34.76 -25 13 C-19.39 10.03 -13.78 7.06 -8 4 C-1 0 -1 0 0 0 Z " fill="#F53004" transform="translate(125,84)"/>
<path d="M0 0 C0 9.24 0 18.48 0 28 C-3.09375 29.794375 -3.09375 29.794375 -6.25 31.625 C-7.18247559 32.16954834 -7.18247559 32.16954834 -8.13378906 32.72509766 C-13.98815728 36.09372425 -19.91648804 38.95824402 -26 42 C-26 32.43 -26 22.86 -26 13 C-22.08125 10.855 -18.1625 8.71 -14.125 6.5 C-12.89023926 5.82130859 -11.65547852 5.14261719 -10.38330078 4.44335938 C-9.41376465 3.91548828 -8.44422852 3.38761719 -7.4453125 2.84375 C-6.45031738 2.29912109 -5.45532227 1.75449219 -4.43017578 1.19335938 C-2 0 -2 0 0 0 Z " fill="#F53105" transform="translate(220,102)"/>
<path d="M0 0 C3.77523737 1.80777818 7.34702608 3.91508737 10.9375 6.0625 C11.90751953 6.63033203 12.87753906 7.19816406 13.87695312 7.78320312 C16.25750822 9.17870094 18.63135386 10.58441481 21 12 C17.02753699 16.21447458 12.75600018 18.61318381 7.6875 21.3125 C6.85798828 21.77978516 6.02847656 22.24707031 5.17382812 22.72851562 C1.32464311 24.78526247 -1.24572869 25.99356698 -5.6640625 26.03125 C-9.44702411 24.86180988 -12.70243739 23.23777076 -16.0625 21.1875 C-16.64837891 20.84396484 -17.23425781 20.50042969 -17.83789062 20.14648438 C-21.64795329 17.89258493 -25.33529461 15.48218249 -29 13 C-25.66608954 9.24364198 -21.32458285 7.1715596 -17.00390625 4.72265625 C-15.27750948 3.73261597 -13.56534555 2.71427743 -11.90234375 1.62109375 C-7.68971101 -1.13295089 -4.70265049 -1.44324392 0 0 Z " fill="#F53307" transform="translate(195,84)"/>
<path d="M0 0 C3.88996167 1.23894468 7.22518451 3.16379237 10.74609375 5.20703125 C11.43638672 5.59826172 12.12667969 5.98949219 12.83789062 6.39257812 C16.94389471 8.73942217 20.90502799 11.22495654 24.80859375 13.89453125 C20.42424228 17.2960432 15.70124537 19.93298885 10.87109375 22.64453125 C9.97712891 23.16402344 9.08316406 23.68351562 8.16210938 24.21875 C7.29392578 24.70472656 6.42574219 25.19070312 5.53125 25.69140625 C4.35187866 26.36187988 4.35187866 26.36187988 3.14868164 27.04589844 C0.24276794 28.09972797 -1.26515935 27.79785481 -4.19140625 26.89453125 C-6.54485067 25.67886315 -8.79814411 24.43757619 -11.06640625 23.08203125 C-11.65292969 22.73849609 -12.23945312 22.39496094 -12.84375 22.04101562 C-14.0245992 21.34937538 -15.20397689 20.65521638 -16.38183594 19.95849609 C-19.30193142 18.24158081 -22.24730556 16.56988267 -25.19140625 14.89453125 C-25.19140625 14.23453125 -25.19140625 13.57453125 -25.19140625 12.89453125 C-24.60125732 12.57178223 -24.0111084 12.2490332 -23.40307617 11.91650391 C-20.72757717 10.45225856 -18.05323144 8.98591929 -15.37890625 7.51953125 C-14.45013672 7.01164062 -13.52136719 6.50375 -12.56445312 5.98046875 C-11.67177734 5.490625 -10.77910156 5.00078125 -9.859375 4.49609375 C-9.03719482 4.04572754 -8.21501465 3.59536133 -7.36791992 3.13134766 C-1.71243095 -0.08241646 -1.71243095 -0.08241646 0 0 Z " fill="#F53307" transform="translate(97.19140625,65.10546875)"/>
<path d="M0 0 C3.52612746 1.41045098 6.58110119 2.78048195 9.86328125 4.6015625 C10.66290283 5.04322754 11.46252441 5.48489258 12.28637695 5.93994141 C13.78430786 6.77404541 13.78430786 6.77404541 15.3125 7.625 C18.509375 9.39875 21.70625 11.1725 25 13 C25 22.57 25 32.14 25 42 C21.47387254 40.58954902 18.41889881 39.21951805 15.13671875 37.3984375 C14.33709717 36.95677246 13.53747559 36.51510742 12.71362305 36.06005859 C11.21569214 35.22595459 11.21569214 35.22595459 9.6875 34.375 C6.490625 32.60125 3.29375 30.8275 0 29 C0 19.43 0 9.86 0 0 Z " fill="#F53205" transform="translate(163,102)"/>
</svg>
