<?xml version="1.0" encoding="UTF-8"?>
<svg version="1.1" xmlns="http://www.w3.org/2000/svg" width="300" height="300">
<path d="M0 0 C0.74917694 0.00182281 1.49835388 0.00364563 2.27023315 0.00552368 C13.54006686 0.05166902 24.3436054 0.57304907 35.3125 3.3125 C35.98877441 3.47347168 36.66504883 3.63444336 37.36181641 3.80029297 C61.63881498 9.68991206 82.75934079 21.85731384 101.3125 38.3125 C102.36597174 39.18533952 103.42195115 40.05516164 104.48046875 40.921875 C108.2179886 44.07685727 111.20413373 47.54911402 114.3125 51.3125 C115.15039062 52.3128125 115.98828125 53.313125 116.8515625 54.34375 C139.35281426 81.71491554 150.80369875 114.64065719 150.625 150 C150.62226578 151.12376541 150.62226578 151.12376541 150.61947632 152.27023315 C150.57333098 163.54006686 150.05195093 174.3436054 147.3125 185.3125 C147.15152832 185.98877441 146.99055664 186.66504883 146.82470703 187.36181641 C140.93508794 211.63881498 128.76768616 232.75934079 112.3125 251.3125 C111.43966048 252.36597174 110.56983836 253.42195115 109.703125 254.48046875 C106.54814273 258.2179886 103.07588598 261.20413373 99.3125 264.3125 C97.81203125 265.56933594 97.81203125 265.56933594 96.28125 266.8515625 C68.91008446 289.35281426 35.98434281 300.80369875 0.625 300.625 C-0.49876541 300.62226578 -0.49876541 300.62226578 -1.64523315 300.61947632 C-12.91506686 300.57333098 -23.7186054 300.05195093 -34.6875 297.3125 C-35.36377441 297.15152832 -36.04004883 296.99055664 -36.73681641 296.82470703 C-61.01381498 290.93508794 -82.13434079 278.76768616 -100.6875 262.3125 C-101.74097174 261.43966048 -102.79695115 260.56983836 -103.85546875 259.703125 C-107.5929886 256.54814273 -110.57913373 253.07588598 -113.6875 249.3125 C-114.94433594 247.81203125 -114.94433594 247.81203125 -116.2265625 246.28125 C-138.72781426 218.91008446 -150.17869875 185.98434281 -150 150.625 C-149.99817719 149.87582306 -149.99635437 149.12664612 -149.99447632 148.35476685 C-149.94833098 137.08493314 -149.42695093 126.2813946 -146.6875 115.3125 C-146.52652832 114.63622559 -146.36555664 113.95995117 -146.19970703 113.26318359 C-140.31008794 88.98618502 -128.14268616 67.86565921 -111.6875 49.3125 C-110.81466048 48.25902826 -109.94483836 47.20304885 -109.078125 46.14453125 C-105.92314273 42.4070114 -102.45088598 39.42086627 -98.6875 36.3125 C-97.6871875 35.47460938 -96.686875 34.63671875 -95.65625 33.7734375 C-68.28508446 11.27218574 -35.35934281 -0.17869875 0 0 Z " fill="#4479A1" transform="translate(149.6875,-0.3125)"/>
<path d="M0 0 C1.18464844 -0.00773438 2.36929688 -0.01546875 3.58984375 -0.0234375 C8.92288856 0.58845291 12.08625517 2.37656779 15.8125 6.1875 C19.87916272 11.94860552 20.45113604 17.28042786 20.4375 24.125 C20.43617065 25.3171814 20.43617065 25.3171814 20.43481445 26.53344727 C20.27559661 34.45312066 18.77100377 40.66649623 13.0625 46.375 C15.7025 48.025 18.3425 49.675 21.0625 51.375 C20.4025 53.025 19.7425 54.675 19.0625 56.375 C15.67396103 55.964268 13.92425104 55.27995384 11.0625 53.3125 C7.51326432 51.12536135 4.68144563 51.22856959 0.5625 51.375 C-5.3933998 51.55962606 -8.25250138 51.0631904 -12.9375 47.375 C-19.03202051 41.44977172 -20.13504192 34.13744674 -20.375 25.9375 C-20.1926857 17.28191134 -18.20978068 9.64728068 -11.9375 3.375 C-7.89935786 0.42183911 -4.96719704 -0.03235959 0 0 Z " fill="#DF8832" transform="translate(189.9375,145.625)"/>
<path d="M0 0 C3.63 0 7.26 0 11 0 C14.63 11.22 18.26 22.44 22 34 C25.24799446 25.92918128 25.24799446 25.92918128 28.140625 17.7734375 C28.48867187 16.72285156 28.83671875 15.67226562 29.1953125 14.58984375 C29.71738281 12.99849609 29.71738281 12.99849609 30.25 11.375 C30.61351562 10.27542969 30.97703125 9.17585937 31.3515625 8.04296875 C32.23715202 5.3628952 33.1189717 2.68157644 34 0 C37.63 0 41.26 0 45 0 C46.67650316 16.65109445 48.29056428 33.24412655 48 50 C45.36 50 42.72 50 40 50 C39.94465088 49.09757568 39.88930176 48.19515137 39.83227539 47.26538086 C39.62390689 43.89007138 39.41300811 40.51493915 39.20043945 37.13989258 C39.10926866 35.68422579 39.01908186 34.22849701 38.92993164 32.77270508 C38.80098328 30.66991034 38.6683975 28.56737033 38.53515625 26.46484375 C38.456604 25.202771 38.37805176 23.94069824 38.29711914 22.64038086 C38.00434146 19.05319271 37.54682116 15.55533907 37 12 C36.67128906 13.07701172 36.67128906 13.07701172 36.3359375 14.17578125 C34.21281767 21.1061277 32.05613575 28.02521435 29.875 34.9375 C29.62153809 35.7416333 29.36807617 36.5457666 29.10693359 37.37426758 C27.77293521 41.59507368 26.41400836 45.80510854 25 50 C22.69 50 20.38 50 18 50 C14.04 37.46 10.08 24.92 6 12 C5.34 24.54 4.68 37.08 4 50 C1.69 50 -0.62 50 -3 50 C-3.576715 10.73014499 -3.576715 10.73014499 0 0 Z " fill="#F8FAFB" transform="translate(46,146)"/>
<path d="M0 0 C3.39844667 0.43252958 4.71468998 1.03407817 7.5625 2.75 C11.1357453 4.90234071 14.22999675 5.97167355 18.3125 6.8125 C30.58571266 9.60754461 40.00198209 18.09666957 46.9375 28.3125 C49.07394344 31.72985359 50.74482202 35.10367512 52.16015625 38.86328125 C56.0281465 48.9955748 58.99546386 54.28825207 69.0703125 58.83203125 C74.02659349 61.19517683 78.4467569 64.06249363 80.4375 69.4375 C79.02211283 69.77622513 77.60512037 70.10824624 76.1875 70.4375 C75.39859375 70.623125 74.6096875 70.80875 73.796875 71 C71.4375 71.4375 71.4375 71.4375 67.4375 71.4375 C70.54575973 74.80478138 73.99349161 77.3588522 77.73046875 79.97265625 C79.4375 81.4375 79.4375 81.4375 80.4375 84.4375 C76.85709438 83.09003552 73.6065111 81.50667169 70.3125 79.5625 C69.46429688 79.07007813 68.61609375 78.57765625 67.7421875 78.0703125 C65.35368497 76.37811918 63.88365735 74.98074223 62.4375 72.4375 C62.9325 70.9525 62.9325 70.9525 63.4375 69.4375 C65.94140625 68.48828125 65.94140625 68.48828125 69 67.75 C70.01191406 67.49863281 71.02382812 67.24726563 72.06640625 66.98828125 C72.84886719 66.80652344 73.63132812 66.62476563 74.4375 66.4375 C73.15495222 65.50811755 71.86069906 64.59489173 70.5625 63.6875 C69.48355469 62.92179687 69.48355469 62.92179687 68.3828125 62.140625 C65.63194567 60.39091297 65.63194567 60.39091297 63.10107422 59.76806641 C58.94660877 58.52882376 56.22475314 57.53013651 53.63623047 53.9375 C52.03985073 50.77655523 50.64528472 47.59320085 49.3125 44.3125 C43.15155391 29.71261095 35.08682898 18.0562897 20.38671875 11.125 C17.87189042 10.23800644 15.3795145 10.11370907 12.734375 9.91796875 C7.6125403 8.84656455 2.99864751 5.92332539 -1.5625 3.4375 C-0.35890191 7.40937371 1.04116306 10.65915166 3.3125 14.125 C6.12330663 18.64285748 7.94213579 23.13602455 9.578125 28.1875 C10.32185106 30.59402805 10.32185106 30.59402805 12.4375 32.4375 C12.4140625 34.3984375 12.4140625 34.3984375 12.0625 36.8125 C11.58785608 40.80066656 11.27687416 44.73312788 11.1875 48.75 C11.16171875 49.71550781 11.1359375 50.68101563 11.109375 51.67578125 C11.49316542 54.90601731 12.60218665 56.78595519 14.4375 59.4375 C14.53546875 58.82261719 14.6334375 58.20773438 14.734375 57.57421875 C14.88390625 56.76597656 15.0334375 55.95773438 15.1875 55.125 C15.32671875 54.32449219 15.4659375 53.52398437 15.609375 52.69921875 C16.63452524 49.89939804 17.95201598 48.99850521 20.4375 47.4375 C21.91704075 50.22896856 23.39606866 53.02070852 24.875 55.8125 C25.29587891 56.6065625 25.71675781 57.400625 26.15039062 58.21875 C26.55322266 58.97929688 26.95605469 59.73984375 27.37109375 60.5234375 C27.74290771 61.2251709 28.11472168 61.9269043 28.49780273 62.64990234 C29.15781748 63.90545651 29.80314431 65.16878862 30.4375 66.4375 C25.31979672 64.42697371 22.61382189 60.33422424 20.4375 55.4375 C19.7775 57.7475 19.1175 60.0575 18.4375 62.4375 C15.9625 62.9325 15.9625 62.9325 13.4375 63.4375 C9.03630723 58.3027751 7.15192597 54.42777113 7.25 47.625 C7.26160156 46.57183594 7.27320313 45.51867187 7.28515625 44.43359375 C7.4125587 41.9280123 7.71598235 39.64230837 8.1875 37.1875 C8.47363104 32.89553439 7.68660889 31.19515043 5.609375 27.57421875 C4.32550892 25.23330293 3.42410653 22.87841974 2.5 20.375 C1.23142967 17.07469552 -0.13307155 14.46857348 -2.3125 11.6875 C-4.7558989 8.15814603 -5.24442651 6.62647713 -4.5625 2.4375 C-2.5625 0.4375 -2.5625 0.4375 0 0 Z " fill="#EEF3F6" transform="translate(174.5625,61.5625)"/>
<path d="M0 0 C3.61378294 2.22386643 5.1128373 5.54361307 6.45703125 9.5390625 C8.45270562 18.58420533 7.44835898 27.83227732 3 36 C-1.22555442 38.81703628 -5.04013513 38.91761455 -10 38 C-13.54626679 35.53442399 -15.20294235 32.17660198 -16 28 C-16.23699439 25.06521948 -16.23087109 22.1309613 -16.25 19.1875 C-16.270625 18.40568359 -16.29125 17.62386719 -16.3125 16.81835938 C-16.35372118 10.65063961 -15.30316251 6.19049991 -11.62109375 1.08984375 C-8.20046396 -1.20980857 -3.92147056 -0.56113148 0 0 Z " fill="#46799F" transform="translate(195,152)"/>
<path d="M0 0 C1.6328125 0.8203125 1.6328125 0.8203125 3.8203125 2.3203125 C3.1603125 3.6403125 2.5003125 4.9603125 1.8203125 6.3203125 C0.35658203 6.26810547 0.35658203 6.26810547 -1.13671875 6.21484375 C-2.40902344 6.18777344 -3.68132812 6.16070312 -4.9921875 6.1328125 C-6.25675781 6.09800781 -7.52132812 6.06320313 -8.82421875 6.02734375 C-12.07459242 6.07764452 -12.07459242 6.07764452 -14.19140625 7.45703125 C-15.3999684 9.40097415 -15.3999684 9.40097415 -15.25390625 12.25390625 C-13.78724347 16.44056183 -11.83409401 17.26867863 -7.9921875 19.3828125 C5.24178347 26.95331378 5.24178347 26.95331378 6.8203125 32.3203125 C7.28310403 36.48543627 7.11009937 38.7518844 5.1953125 42.5078125 C1.67985506 46.6708542 -1.36125433 49.05609571 -6.8359375 49.8515625 C-8.104375 49.84125 -9.3728125 49.8309375 -10.6796875 49.8203125 C-12.58234375 49.83578125 -12.58234375 49.83578125 -14.5234375 49.8515625 C-18.89806576 49.21593275 -20.74306078 47.99324439 -24.1796875 45.3203125 C-23.8496875 44.0003125 -23.5196875 42.6803125 -23.1796875 41.3203125 C-22.5403125 41.4646875 -21.9009375 41.6090625 -21.2421875 41.7578125 C-13.58514425 43.49018489 -13.58514425 43.49018489 -6.1796875 41.9453125 C-4.30045109 40.4753758 -4.30045109 40.4753758 -3.1796875 39.3203125 C-2.87825834 35.98073942 -2.87825834 35.98073942 -4.1796875 32.3203125 C-6.90596894 29.85537395 -9.98707915 28.11960041 -13.1796875 26.3203125 C-22.44702685 20.97683801 -22.44702685 20.97683801 -24.1796875 16.3203125 C-24.71604649 11.49308158 -24.69986651 9.34140464 -22.4921875 5.0078125 C-16.71079847 -1.71109908 -8.33783693 -2.59997066 0 0 Z " fill="#DF8832" transform="translate(160.1796875,146.6796875)"/>
<path d="M0 0 C2.64 0 5.28 0 8 0 C8.95996344 3.02031772 9.91767058 6.04134646 10.875 9.0625 C11.14441406 9.91005859 11.41382812 10.75761719 11.69140625 11.63085938 C13.20195954 16.40199721 14.65279167 21.18013332 16 26 C20.93757775 18.59363338 21.71712931 8.64805774 23 0 C25.64 0 28.28 0 31 0 C29.44023183 16.22158892 24.47890201 34.90181233 13 47 C8.37260341 50.32822215 5.52674015 50.28102069 0 50 C-0.33 48.35 -0.66 46.7 -1 45 C-0.36191406 44.79503906 0.27617188 44.59007812 0.93359375 44.37890625 C1.75988281 44.10949219 2.58617188 43.84007812 3.4375 43.5625 C4.26121094 43.29566406 5.08492188 43.02882812 5.93359375 42.75390625 C7.96219588 42.17844506 7.96219588 42.17844506 9 41 C9.33725876 35.10445739 8.54676791 30.40114403 6.75 24.8125 C6.52546143 24.08144043 6.30092285 23.35038086 6.06958008 22.59716797 C5.39090949 20.3944273 4.6975556 18.19682443 4 16 C3.22575218 13.5427092 2.45581551 11.08416038 1.6875 8.625 C1.36136719 7.60664063 1.03523438 6.58828125 0.69921875 5.5390625 C0 3 0 3 0 0 Z " fill="#F6F8FA" transform="translate(99,159)"/>
<path d="M0 0 C2.64 0 5.28 0 8 0 C8 14.52 8 29.04 8 44 C13.28 44 18.56 44 24 44 C24 45.98 24 47.96 24 50 C16.08 50 8.16 50 0 50 C0 33.5 0 17 0 0 Z " fill="#DF8832" transform="translate(217,146)"/>
<path d="M0 0 C0.598125 0.185625 1.19625 0.37125 1.8125 0.5625 C4.16408762 1.22093687 4.16408762 1.22093687 7 0 C7 1.98 7 3.96 7 6 C6.34 5.34 5.68 4.68 5 4 C4.34 4.66 3.68 5.32 3 6 C2.01 6 1.02 6 0 6 C0 4.02 0 2.04 0 0 Z " fill="#CC8640" transform="translate(251,190)"/>
<path d="M0 0 C2.76544722 3.45680903 4.84921278 7.14341602 7 11 C3.20764006 9.51014431 1.19434113 7.41341953 -1 4 C-0.75 1.6875 -0.75 1.6875 0 0 Z " fill="#E5ECF2" transform="translate(198,117)"/>
</svg>
