<svg width="150" height="154" viewBox="0 0 150 154" fill="none" xmlns="http://www.w3.org/2000/svg">
<path d="M0 12C0 5.37259 5.37258 0 12 0H138C144.627 0 150 5.37258 150 12V142C150 148.627 144.627 154 138 154H12C5.37258 154 0 148.627 0 142V12Z" fill="#22314A" fill-opacity="0.7"/>
<g clip-path="url(#clip0_0_129)">
<path d="M75 33.8049C51.007 33.8049 31.5 53.3437 31.5 77.3757C31.5 101.408 51.007 120.946 75 120.946C82.6125 120.946 89.7492 118.972 95.9344 115.568L64.3969 71.4528V96.3698H59.775V62.2621H64.3969L98.7211 113.866C110.616 106.105 118.5 92.6935 118.5 77.3757C118.5 53.3437 98.993 33.8049 75 33.8049ZM90.0211 91.4L84.9234 83.707V62.2621H90.0211V91.4Z" fill="black"/>
</g>
<defs>
<clipPath id="clip0_0_129">
<rect width="87" height="87.1415" fill="white" transform="translate(31.5 33.8049)"/>
</clipPath>
</defs>
</svg>
