<?xml version="1.0" encoding="UTF-8"?>
<svg version="1.1" xmlns="http://www.w3.org/2000/svg" width="225" height="225">
<path d="M0 0 C74.25 0 148.5 0 225 0 C225 74.25 225 148.5 225 225 C150.75 225 76.5 225 0 225 C0 150.75 0 76.5 0 0 Z " fill="#0F9748" transform="translate(0,0)"/>
<path d="M0 0 C74.25 0 148.5 0 225 0 C225 74.25 225 148.5 225 225 C150.75 225 76.5 225 0 225 C0 150.75 0 76.5 0 0 Z M97.5625 17.125 C96.46284912 17.75736572 95.36319824 18.38973145 94.23022461 19.04125977 C90.81117562 21.01248231 87.40488193 23.00442678 84 25 C81.97962916 26.17397338 79.95881395 27.34718244 77.9375 28.51953125 C74.00486749 30.80444547 70.07872857 33.1000474 66.15625 35.40234375 C61.79415161 37.95892379 57.41797912 40.48988606 53.03125 43.00390625 C52.44798447 43.33857407 51.86471893 43.67324188 51.26377869 44.01805115 C48.4494364 45.63271264 45.63353705 47.24451823 42.81469727 48.85131836 C38.1149827 51.54720674 33.44232152 54.27795682 28.87109375 57.1875 C28.16782959 57.63480469 27.46456543 58.08210938 26.73999023 58.54296875 C24.26733774 60.61351598 23.16051845 62.76792099 22.74273109 65.97469902 C22.73937941 66.67115595 22.73602772 67.36761288 22.73257446 68.08517456 C22.72404449 68.88976105 22.71551453 69.69434753 22.70672607 70.52331543 C22.70763245 71.39717896 22.70853882 72.27104248 22.70947266 73.17138672 C22.70275543 74.09867584 22.69603821 75.02596497 22.68911743 75.98135376 C22.67011581 79.04751948 22.66621215 82.11346656 22.6640625 85.1796875 C22.65763614 87.31194143 22.6509079 89.44419447 22.64389038 91.57644653 C22.63191224 96.04691614 22.62821012 100.51730844 22.62939453 104.98779297 C22.62959776 110.71337431 22.60229357 116.43845951 22.56785011 122.16392326 C22.54560185 126.56831128 22.54155636 130.97257951 22.54261398 135.37701797 C22.54025498 137.48772008 22.53141468 139.59842535 22.51594925 141.70907211 C22.49633141 144.66300859 22.50211103 147.61587006 22.51416016 150.56982422 C22.49730164 151.87454681 22.49730164 151.87454681 22.48010254 153.20562744 C22.53614684 158.61851083 23.40071143 161.7035048 27 166 C29.20872542 167.78658899 29.20872542 167.78658899 31.7265625 169.12109375 C32.66226074 169.65597412 33.59795898 170.19085449 34.56201172 170.74194336 C35.57279785 171.30147705 36.58358398 171.86101074 37.625 172.4375 C38.68605957 173.04021729 39.74711914 173.64293457 40.84033203 174.26391602 C43.08786904 175.5405289 45.3384378 176.81181699 47.59179688 178.078125 C53.04530476 181.15334091 58.45712139 184.30009656 63.875 187.4375 C66.0321981 188.68160357 68.18975338 189.92508801 70.34765625 191.16796875 C71.97018311 192.10261963 71.97018311 192.10261963 73.62548828 193.05615234 C74.73907715 193.69762207 75.85266602 194.3390918 77 195 C81.1963131 197.41783662 85.39220284 199.83640662 89.58770752 202.25564575 C91.27098222 203.22606473 92.95457887 204.19592519 94.63818359 205.16577148 C95.66121582 205.75559814 96.68424805 206.3454248 97.73828125 206.953125 C98.63587158 207.47036133 99.53346191 207.98759766 100.45825195 208.52050781 C102.18654065 209.52650431 103.89193627 210.57266267 105.57470703 211.65307617 C109.49214468 213.82868554 112.63994095 213.86371484 117 213 C121.21589602 211.19125672 125.0397624 208.84555109 128.9375 206.4375 C130.66690424 205.40399149 132.39632693 204.37051232 134.12686157 203.33889771 C135.913512 202.27066629 137.6950572 201.19429165 139.47607422 200.11669922 C144.93394115 196.8248875 150.47114633 193.67052699 156 190.5 C158.1396093 189.26481886 160.2789306 188.02913872 162.41796875 186.79296875 C166.41144041 184.48837146 170.40940136 182.191973 174.4133606 179.90567017 C176.80537117 178.53936128 179.19559708 177.16994714 181.58569336 175.80029297 C183.26828963 174.83778986 184.95344836 173.87977069 186.63867188 172.921875 C187.66154297 172.33535156 188.68441406 171.74882812 189.73828125 171.14453125 C190.63587158 170.63253174 191.53346191 170.12053223 192.45825195 169.59301758 C196.70955863 166.92854961 200.06112046 164.72278618 202 160 C202.30111453 158.00839278 202.30111453 158.00839278 202.26742554 155.91482544 C202.27595551 155.11023895 202.28448547 154.30565247 202.29327393 153.47668457 C202.29236755 152.60282104 202.29146118 151.72895752 202.29052734 150.82861328 C202.29724457 149.90132416 202.30396179 148.97403503 202.31088257 148.01864624 C202.32988419 144.95248052 202.33378785 141.88653344 202.3359375 138.8203125 C202.34236386 136.68805857 202.3490921 134.55580553 202.35610962 132.42355347 C202.36808776 127.95308386 202.37178988 123.48269156 202.37060547 119.01220703 C202.37040224 113.28662569 202.39770643 107.56154049 202.43214989 101.83607674 C202.45439815 97.43168872 202.45844364 93.02742049 202.45738602 88.62298203 C202.45974502 86.51227992 202.46858532 84.40157465 202.48405075 82.29092789 C202.50366859 79.33699141 202.49788897 76.38412994 202.48583984 73.43017578 C202.49707886 72.56036072 202.50831787 71.69054565 202.51989746 70.79437256 C202.46388409 65.38447655 201.6116495 62.28429274 198 58 C195.40167892 56.01238447 195.40167892 56.01238447 192.3984375 54.44140625 C191.28194824 53.81613037 190.16545898 53.19085449 189.01513672 52.54663086 C187.80180157 51.88517363 186.58842148 51.22379885 185.375 50.5625 C184.11256691 49.86038007 182.85102351 49.15665831 181.59033203 48.45141602 C178.99675826 47.00162392 176.39994137 45.55791461 173.80078125 44.11816406 C168.11833972 40.9617712 162.49812734 37.69801595 156.875 34.4375 C154.75797675 33.21455938 152.64078848 31.99190437 150.5234375 30.76953125 C148.34893079 29.51306849 146.17445265 28.25655631 144 27 C139.75090732 24.5448109 135.50147847 22.09020543 131.25152588 19.63650513 C129.53313114 18.64413321 127.81514548 17.65105303 126.09716797 16.65795898 C125.06479004 16.06184814 124.03241211 15.4657373 122.96875 14.8515625 C122.05544922 14.32385254 121.14214844 13.79614258 120.20117188 13.25244141 C111.40639782 8.24831642 105.58284137 12.396965 97.5625 17.125 Z " fill="#FEFEFE" transform="translate(0,0)"/>
<path d="M0 0 C6.05175175 3.25001483 10.19219551 8.78934527 14.625 13.9375 C15.19782715 14.60056152 15.7706543 15.26362305 16.36083984 15.94677734 C20.3626339 20.59514458 24.27491876 25.30874344 28.13671875 30.07421875 C31.47362888 34.15654685 34.89186532 38.16800212 38.30859375 42.18359375 C42.70150869 47.36169276 47.03213497 52.59243904 51.375 57.8125 C51.37642502 57.15961502 51.37785004 56.50673004 51.37931824 55.83406067 C51.39900973 49.03665188 51.45327221 42.24014175 51.52758789 35.44311523 C51.55078018 32.90672249 51.56516645 30.37023328 51.57055664 27.83374023 C51.57983658 24.18672476 51.62081053 20.54122936 51.66796875 16.89453125 C51.6640361 15.76102737 51.66010345 14.6275235 51.65605164 13.45967102 C51.81854409 4.68512037 51.81854409 4.68512037 54.79418945 1.61987305 C58.61087748 -1.05300005 60.67573047 -1.72972341 65.375 -1.1875 C68.30437654 0.62560142 70.81147949 2.68545899 72.375 5.8125 C72.49364115 8.1910163 72.55326487 10.54122323 72.56787109 12.92089844 C72.58013733 14.01878693 72.58013733 14.01878693 72.59265137 15.13885498 C72.61750833 17.56651999 72.63402343 19.99412644 72.6484375 22.421875 C72.65376118 23.25102669 72.65908485 24.08017838 72.66456985 24.93445587 C72.69130473 29.32445858 72.71067717 33.71443283 72.72509766 38.10449219 C72.74173256 42.63527217 72.78649899 47.16532292 72.8374691 51.69582748 C72.87115751 55.18232032 72.88267686 58.66864056 72.88832474 62.15528107 C72.89503451 63.82503065 72.91024962 65.49476898 72.93421555 67.16436005 C72.96590187 69.50568147 72.96589958 71.84504313 72.95849609 74.18652344 C72.97490143 74.87246582 72.99130676 75.5584082 73.00820923 76.26513672 C72.93682095 81.79902434 71.18922125 84.09202177 67.375 87.8125 C62.1186242 89.56462527 57.45208494 89.60492826 52.4765625 87.203125 C48.16132339 84.93545607 45.4417638 82.02796462 42.4375 78.25 C41.92445312 77.62867188 41.41140625 77.00734375 40.8828125 76.3671875 C39.36681728 74.52606613 37.86941286 72.67115355 36.375 70.8125 C34.87554352 68.97872211 33.37559314 67.14534788 31.875 65.3125 C31.1634375 64.4359375 30.451875 63.559375 29.71875 62.65625 C26.98197795 59.33563325 24.1839099 56.07208663 21.375 52.8125 C14.88036535 45.27349681 8.58934265 37.5844657 2.375 29.8125 C2.37357498 30.46538498 2.37214996 31.11826996 2.37068176 31.79093933 C2.35099027 38.58834812 2.29672779 45.38485825 2.22241211 52.18188477 C2.19921982 54.71827751 2.18483355 57.25476672 2.17944336 59.79125977 C2.17016342 63.43827524 2.12918947 67.08377064 2.08203125 70.73046875 C2.0859639 71.86397263 2.08989655 72.9974765 2.09394836 74.16532898 C1.93145591 82.93987963 1.93145591 82.93987963 -1.04418945 86.00512695 C-4.86087748 88.67800005 -6.92573047 89.35472341 -11.625 88.8125 C-14.55437654 86.99939858 -17.06147949 84.93954101 -18.625 81.8125 C-18.73846536 79.42855111 -18.79278315 77.07310538 -18.80200195 74.68823242 C-18.80857315 73.95470047 -18.81514435 73.22116852 -18.82191467 72.46540833 C-18.84165817 70.03292747 -18.85331267 67.60050838 -18.86328125 65.16796875 C-18.86735678 64.33756891 -18.8714323 63.50716908 -18.87563133 62.65160561 C-18.89649675 58.25626498 -18.9107963 53.86095562 -18.92016602 49.46557617 C-18.93123036 44.92584334 -18.96562887 40.38660068 -19.00533772 35.84704113 C-19.03148505 32.35629872 -19.03985617 28.86567342 -19.04344749 25.37484169 C-19.04831851 23.70149742 -19.0599472 22.02815856 -19.07848549 20.3549099 C-19.10283744 18.01119552 -19.10191973 15.66875337 -19.0949707 13.32495117 C-19.10778076 12.63541351 -19.12059082 11.94587585 -19.13378906 11.23544312 C-19.08265304 6.4968507 -17.93049414 4.16335147 -14.625 0.8125 C-10.09236449 -2.4697533 -5.06679075 -1.65981076 0 0 Z " fill="#FDFEFD" transform="translate(85.625,68.1875)"/>
<path d="M0 0 C0.33 0 0.66 0 1 0 C1 17.82 1 35.64 1 54 C0.01 53.34 -0.98 52.68 -2 52 C-2.32952881 49.87475586 -2.32952881 49.87475586 -2.26464844 47.21484375 C-2.24762878 46.2204126 -2.23060913 45.22598145 -2.21307373 44.20141602 C-2.17885315 43.12432373 -2.14463257 42.04723145 -2.109375 40.9375 C-2.08530579 39.835271 -2.06123657 38.73304199 -2.03643799 37.59741211 C-1.98270736 35.26366087 -1.92168949 32.93006789 -1.85400391 30.59667969 C-1.75043898 27.01518093 -1.6681444 23.43369404 -1.58984375 19.8515625 C-1.53509768 17.58851124 -1.47914858 15.3254887 -1.421875 13.0625 C-1.39575134 11.98540771 -1.36962769 10.90831543 -1.3427124 9.79858398 C-1.31308411 8.80415283 -1.28345581 7.80972168 -1.25292969 6.78515625 C-1.22833679 5.90738525 -1.2037439 5.02961426 -1.17840576 4.12524414 C-1 2 -1 2 0 0 Z " fill="#36A463" transform="translate(137,73)"/>
</svg>
