<?xml version="1.0" encoding="UTF-8"?>
<svg version="1.1" xmlns="http://www.w3.org/2000/svg" width="225" height="225">
<path d="M0 0 C74.25 0 148.5 0 225 0 C225 74.25 225 148.5 225 225 C150.75 225 76.5 225 0 225 C0 150.75 0 76.5 0 0 Z " fill="#FEFDFE" transform="translate(0,0)"/>
<path d="M0 0 C4.29 0 8.58 0 13 0 C9.21750568 9.4562358 4.11824596 18.2149192 -1 27 C-1.34756348 27.598125 -1.69512695 28.19625 -2.05322266 28.8125 C-6.14347002 35.73168497 -10.21926243 42.10000639 -18 45 C-21.5052095 45.68933125 -25.02876544 46.09266905 -28.59179688 46.33251953 C-30.40340113 46.46459751 -32.20468525 46.72395739 -34 47 C-36.33391203 49.78114056 -36.33391203 49.78114056 -35.625 52.6875 C-35.41875 53.450625 -35.2125 54.21375 -35 55 C-23.4872119 55.55932574 -13.96848721 55.16046666 -4.4375 47.875 C1.57831724 42.12774603 4.9913835 34.4803296 8.81103516 27.20068359 C10.4946129 24.08450909 12.35483894 21.11754956 14.25 18.125 C17.92452179 12.26219592 20.99672455 6.23179656 24 0 C28.62 0 33.24 0 38 0 C36 6 36 6 34 9 C33.74969023 11.58380177 33.74969023 11.58380177 34 14 C34.33 14.33 34.66 14.66 35 15 C36.98 15 38.96 15 41 15 C43.64 10.38 46.28 5.76 49 1 C61.1875 0.59821429 61.1875 0.59821429 66 4 C63.13165363 9.16302347 60.03722781 14.14660252 56.84765625 19.1171875 C55.65943201 20.97111877 54.47906735 22.83012362 53.30859375 24.6953125 C50.24145085 29.57712232 47.07268387 34.35043764 43.75 39.0625 C39.54799642 45.07150853 35.73777499 51.27154672 31.95068359 57.5480957 C29.05471514 62.32904116 26.02603856 66.94976666 22.765625 71.4921875 C20.47888524 74.74016742 18.29236352 78.04651832 16.125 81.375 C15.53404541 82.26880371 15.53404541 82.26880371 14.93115234 83.18066406 C12.12206076 87.29062237 12.12206076 87.29062237 11 92 C12.00029432 94.25014005 12.00029432 94.25014005 13.6875 96.5625 C14.65042969 98.00109375 14.65042969 98.00109375 15.6328125 99.46875 C16.1882373 100.29052734 16.1882373 100.29052734 16.75488281 101.12890625 C19.26092505 104.89484894 21.65201338 108.73500038 24.0625 112.5625 C24.58835693 113.39483154 25.11421387 114.22716309 25.65600586 115.0847168 C28.69801943 119.90606649 31.69193185 124.7497002 34.6015625 129.65234375 C39.61231984 138.06425761 44.83472294 146.34701047 50.0625 154.625 C50.5766748 155.44025146 51.09084961 156.25550293 51.62060547 157.09545898 C53.83261249 160.59703562 56.05025485 164.0929521 58.32421875 167.5546875 C58.95972656 168.52664062 59.59523437 169.49859375 60.25 170.5 C60.79140625 171.3146875 61.3328125 172.129375 61.890625 172.96875 C63 175 63 175 63 178 C58.58899923 181.96990069 53.56703067 181.29186374 48 181 C46.66141476 178.71125827 45.32898986 176.41930344 44 174.125 C43.42765625 173.14853516 43.42765625 173.14853516 42.84375 172.15234375 C40 167.2265625 40 167.2265625 40 165 C37.66705225 164.95758277 35.33297433 164.95907063 33 165 C32.67 165.33 32.34 165.66 32 166 C32.3229054 171.48939185 33.81614436 174.58368411 37 179 C37 179.66 37 180.32 37 181 C31.00068887 181.99988519 24.90094261 182.90702807 19 181 C14.61901196 177.46488579 12.61666476 171.72274237 10.328125 166.72705078 C7.81920999 161.57547346 4.7482872 156.75210437 1.75 151.875 C1.17088867 150.90425537 0.59177734 149.93351074 -0.00488281 148.93334961 C-6.03656766 138.93112351 -11.52279639 131.73009117 -23 128 C-32.15718262 126.04741686 -32.15718262 126.04741686 -40.828125 128.203125 C-42.2876272 130.02256063 -42.2876272 130.02256063 -41.6875 132.6875 C-41.3471875 133.8321875 -41.3471875 133.8321875 -41 135 C-40.10539062 135.01417969 -39.21078125 135.02835938 -38.2890625 135.04296875 C-28.15555428 135.44269136 -20.39415001 136.99499214 -13.3125 144.625 C-4.51448467 155.63284547 1.80081326 168.41929751 8 181 C3.38 181 -1.24 181 -6 181 C-6.61875 179.65808594 -6.61875 179.65808594 -7.25 178.2890625 C-12.81041763 166.51828708 -18.71073248 156.60523767 -31 151 C-40.88529974 147.68656342 -50.76455343 147.39210224 -61.10546875 147.26757812 C-69.91647038 146.89050926 -69.91647038 146.89050926 -73.18457031 144.20458984 C-77 139.25704818 -77 139.25704818 -77 136 C-76.01604248 135.96241577 -76.01604248 135.96241577 -75.01220703 135.92407227 C-72.04959817 135.8082674 -69.08731969 135.68547114 -66.125 135.5625 C-65.09246094 135.52318359 -64.05992188 135.48386719 -62.99609375 135.44335938 C-62.00996094 135.40146484 -61.02382813 135.35957031 -60.0078125 135.31640625 C-59.09660645 135.27974854 -58.18540039 135.24309082 -57.24658203 135.20532227 C-54.96516519 135.13422935 -54.96516519 135.13422935 -53 134 C-53.27540704 130.18186553 -53.27540704 130.18186553 -55 127 C-57.07654177 126.96387472 -59.15416371 126.9873217 -61.23046875 127.03515625 C-63.19897207 127.0401197 -65.16747745 127.04497566 -67.13598633 127.04663086 C-68.4949318 127.05714275 -69.85385496 127.08363244 -71.2121582 127.12670898 C-73.17577776 127.18445545 -75.14104205 127.17296987 -77.10546875 127.16015625 C-78.28262451 127.17699463 -79.45978027 127.19383301 -80.67260742 127.21118164 C-85.93826018 125.29446704 -87.58689617 120.84083128 -90 116 C-80.78511137 115.9302262 -71.57031488 115.87705056 -62.35521889 115.84456348 C-58.07542151 115.82896458 -53.79580602 115.80783303 -49.51611328 115.77368164 C-45.37934986 115.74088061 -41.24276045 115.72310365 -37.10587692 115.71536827 C-35.53435913 115.70986174 -33.96284992 115.69910963 -32.39140701 115.68280983 C-10.70606935 115.46699915 -10.70606935 115.46699915 -2.63671875 123.16015625 C0.639557 126.84303424 3.32121006 130.87112129 6 135 C6.36416016 135.55848633 6.72832031 136.11697266 7.10351562 136.69238281 C8.28134518 138.5006976 9.45426832 140.31208258 10.625 142.125 C11.01123535 142.7226416 11.3974707 143.3202832 11.79541016 143.93603516 C13.88818007 147.19635988 15.84789971 150.50146363 17.75 153.875 C19.64359691 157.22782623 19.64359691 157.22782623 22.6875 157.625 C25.1727677 157.15931527 25.1727677 157.15931527 27 155 C26.72677842 150.46773618 24.46718511 147.00977094 22.125 143.25 C21.73006348 142.60748291 21.33512695 141.96496582 20.92822266 141.30297852 C20.07551394 139.92283648 19.21842523 138.54539286 18.35742188 137.17041016 C17.43607379 135.69724748 16.52090431 134.22020606 15.61132812 132.73974609 C14.21219251 130.4639676 12.79611658 128.19960476 11.375 125.9375 C10.72942139 124.8851416 10.72942139 124.8851416 10.07080078 123.81152344 C4.36990546 114.8728972 -2.7433679 109.90787361 -13 107 C-19.46629018 106.0986271 -26.03292633 106.27665799 -32.546875 106.29296875 C-34.41304116 106.27983 -36.27919316 106.26451917 -38.14532471 106.24714661 C-43.01802171 106.20753818 -47.89034465 106.19712184 -52.76318359 106.19311523 C-57.75109023 106.18373794 -62.73878124 106.14629596 -67.7265625 106.11132812 C-77.48436513 106.04699868 -87.24200382 106.01355676 -97 106 C-97.6623477 104.42051196 -98.31713484 102.83785215 -98.96875 101.25390625 C-99.33419922 100.3729126 -99.69964844 99.49191895 -100.07617188 98.58422852 C-102.08032868 92.97799179 -101.430291 88.56311338 -99.0625 83.125 C-98.3904592 81.74237843 -97.70557547 80.36581276 -97 79 C-96.505 78.01 -96.505 78.01 -96 77 C-94.94035034 76.99191315 -93.88070068 76.98382629 -92.78894043 76.97549438 C-82.78434905 76.89788292 -72.77989115 76.81010605 -62.77547455 76.71247292 C-57.63257017 76.66260741 -52.48968536 76.61627665 -47.34667969 76.578125 C-42.37990602 76.54114893 -37.41330009 76.49475586 -32.44667053 76.44193649 C-30.55537367 76.42345789 -28.66404095 76.40832602 -26.77268982 76.39665604 C-24.11586469 76.37968134 -21.45941825 76.35062008 -18.80273438 76.31884766 C-17.63963242 76.31560738 -17.63963242 76.31560738 -16.45303345 76.31230164 C-7.63616795 76.17831719 1.07583741 74.23376454 7.89453125 68.37109375 C13.87741273 62.14451037 18.06083895 54.64974681 22.4375 47.265625 C24.37759867 43.99704234 26.42869677 40.85439015 28.625 37.75 C30.81396708 34.56090141 31.797852 31.94188597 32 28 C29.32304156 25.77902274 29.32304156 25.77902274 27.0078125 26.12109375 C24.3411374 27.28841262 23.48408703 28.64078359 21.875 31.0625 C20.97587891 32.40634766 20.97587891 32.40634766 20.05859375 33.77734375 C17.65425377 37.54125358 15.29295742 41.33038978 12.9375 45.125 C6.94601783 54.74842758 2.36861561 61.81569219 -8 67 C-10.56333475 67.09297087 -13.09924241 67.12580976 -15.66259766 67.11352539 C-16.84809456 67.11374443 -16.84809456 67.11374443 -18.05754089 67.1139679 C-20.67640911 67.11326983 -23.29520667 67.10548239 -25.9140625 67.09765625 C-27.72724366 67.09579169 -29.54042533 67.09436797 -31.35360718 67.09336853 C-36.13103623 67.08954632 -40.90843499 67.07971855 -45.68585205 67.06866455 C-50.55879303 67.05844407 -55.4317389 67.05386954 -60.3046875 67.04882812 C-69.86980499 67.03809603 -79.43489998 67.02102314 -89 67 C-88.53905693 65.84814461 -88.53905693 65.84814461 -88.06880188 64.67301941 C-87.34384537 62.85993986 -86.6206929 61.04613812 -85.89916992 59.23168945 C-84 57 -84 57 -80.26293945 56.34057617 C-78.71351713 56.29947724 -77.16322954 56.28529043 -75.61328125 56.29296875 C-74.79627243 56.27784744 -73.97926361 56.26272614 -73.13749695 56.24714661 C-70.52888608 56.20417039 -67.92143003 56.19542258 -65.3125 56.1875 C-63.54358888 56.16436323 -61.77470537 56.1389996 -60.00585938 56.11132812 C-55.6704704 56.04837837 -51.33580582 56.01612059 -47 56 C-46.7497843 53.08365871 -46.7497843 53.08365871 -47 50 C-50.43761116 47.70825923 -51.92071615 47.70475953 -55.98046875 47.5859375 C-57.14384766 47.54726562 -58.30722656 47.50859375 -59.50585938 47.46875 C-60.72080078 47.4378125 -61.93574219 47.406875 -63.1875 47.375 C-64.41404297 47.33632812 -65.64058594 47.29765625 -66.90429688 47.2578125 C-69.93604656 47.16343897 -72.96778841 47.07785451 -76 47 C-75.37498605 45.31727014 -74.69822617 43.65369357 -74 42 C-73.45098022 40.62533569 -73.45098022 40.62533569 -72.89086914 39.22290039 C-71 37 -71 37 -67.32983398 36.40405273 C-65.80195412 36.38992888 -64.2737017 36.40149542 -62.74609375 36.43359375 C-61.93060562 36.42795914 -61.11511749 36.42232452 -60.2749176 36.41651917 C-57.66186483 36.40004429 -55.05049403 36.41559466 -52.4375 36.4375 C-32.52622705 36.5935452 -32.52622705 36.5935452 -16.01953125 26.1796875 C-9.03249472 18.63855329 -4.70028246 9.05460505 0 0 Z " fill="#D83CAE" transform="translate(103,22)"/>
<path d="M0 0 C5.76026119 0.85384403 8.58770219 5.66613271 12 10 C14.78337515 13.92693238 17.39129117 17.95572951 20 22 C21.22748987 23.813636 22.45668827 25.62611671 23.6875 27.4375 C28.56068593 34.74249188 33.1346346 42.23191912 37.734375 49.7109375 C39.78516492 53.04316918 41.85422582 56.36192736 43.953125 59.6640625 C44.4063916 60.37916992 44.8596582 61.09427734 45.32666016 61.83105469 C46.16079039 63.14420593 46.99869572 64.45497096 47.84130859 65.76269531 C53.60265132 74.85694384 55.66120344 83.3500194 54 94 C52.55237858 98.11699425 50.51235815 101.44861408 48 105 C47.40058594 105.87398438 46.80117187 106.74796875 46.18359375 107.6484375 C45.04595962 109.28486154 43.89073243 110.90933144 42.7109375 112.515625 C41.00260789 114.9962132 39.52435039 117.55943 38.04931641 120.18359375 C36.3275146 123.16409757 34.4188785 126.01945652 32.5 128.875 C32.07130615 129.51429443 31.6426123 130.15358887 31.20092773 130.81225586 C24.09383043 141.35880581 16.84235388 151.79637067 9 161.8125 C8.555354 162.38105713 8.11070801 162.94961426 7.65258789 163.53540039 C5.26644234 166.54076735 2.87030876 169.44517776 0 172 C-0.66 172 -1.32 172 -2 172 C-3.29345703 170.27856445 -3.29345703 170.27856445 -4.7578125 167.86328125 C-5.29712402 166.9820459 -5.83643555 166.10081055 -6.39208984 165.19287109 C-6.9639502 164.24234863 -7.53581055 163.29182617 -8.125 162.3125 C-8.71104004 161.35166504 -9.29708008 160.39083008 -9.90087891 159.40087891 C-11.07291486 157.47850728 -12.24206912 155.5543755 -13.40820312 153.62841797 C-15.38262953 150.36819179 -17.37653355 147.12054098 -19.375 143.875 C-20.30119141 142.36679687 -20.30119141 142.36679687 -21.24609375 140.828125 C-22.95206228 138.07729824 -24.68916789 135.34905276 -26.4375 132.625 C-29.20732059 128.29676099 -31.86859143 123.91295898 -34.5 119.5 C-38.97558085 111.99938841 -43.56580039 104.58228864 -48.46875 97.3515625 C-48.88833984 96.7232251 -49.30792969 96.0948877 -49.74023438 95.44750977 C-50.56436426 94.21434952 -51.39865663 92.98790562 -52.24414062 91.76928711 C-55.0691187 87.51535315 -55.0691187 87.51535315 -54.73608398 85.03222656 C-53.9757128 82.93294639 -53.07368839 81.28158801 -51.84765625 79.41796875 C-51.40591064 78.74088867 -50.96416504 78.06380859 -50.5090332 77.36621094 C-50.03167725 76.64723633 -49.55432129 75.92826172 -49.0625 75.1875 C-48.57031982 74.43629883 -48.07813965 73.68509766 -47.57104492 72.91113281 C-43.94029579 67.38155365 -40.25604932 61.8875346 -36.56738281 56.39648438 C-33.88327278 52.38210114 -31.32188994 48.31351615 -28.8125 44.1875 C-25.98701143 39.5423968 -23.00187375 35.08221351 -19.84765625 30.65625 C-16.06387075 25.21655837 -12.55298975 19.5921107 -9 14 C-7.98099609 12.39898437 -7.98099609 12.39898437 -6.94140625 10.765625 C-5.76304879 8.91357045 -4.58579343 7.06081375 -3.41015625 5.20703125 C-2.29305689 3.45866245 -1.15087986 1.72631979 0 0 Z " fill="#4EA7EB" transform="translate(168,27)"/>
<path d="M0 0 C4.29 0 8.58 0 13 0 C9.21750568 9.4562358 4.11824596 18.2149192 -1 27 C-1.34756348 27.598125 -1.69512695 28.19625 -2.05322266 28.8125 C-6.14347002 35.73168497 -10.21926243 42.10000639 -18 45 C-21.5052095 45.68933125 -25.02876544 46.09266905 -28.59179688 46.33251953 C-30.40340113 46.46459751 -32.20468525 46.72395739 -34 47 C-36.33391203 49.78114056 -36.33391203 49.78114056 -35.625 52.6875 C-35.41875 53.450625 -35.2125 54.21375 -35 55 C-23.4872119 55.55932574 -13.96848721 55.16046666 -4.4375 47.875 C1.57831724 42.12774603 4.9913835 34.4803296 8.81103516 27.20068359 C10.4946129 24.08450909 12.35483894 21.11754956 14.25 18.125 C17.92452179 12.26219592 20.99672455 6.23179656 24 0 C28.62 0 33.24 0 38 0 C36 6 36 6 34 9 C33.74969023 11.58380177 33.74969023 11.58380177 34 14 C34.33 14.33 34.66 14.66 35 15 C36.98 15 38.96 15 41 15 C43.64 10.38 46.28 5.76 49 1 C61.1875 0.59821429 61.1875 0.59821429 66 4 C63.13165363 9.16302347 60.03722781 14.14660252 56.84765625 19.1171875 C55.65943201 20.97111877 54.47906735 22.83012362 53.30859375 24.6953125 C50.24145085 29.57712232 47.07268387 34.35043764 43.75 39.0625 C39.54799642 45.07150853 35.73777499 51.27154672 31.95068359 57.5480957 C29.05535506 62.32798472 26.03438722 66.9517688 22.76171875 71.484375 C20.04975249 75.35689445 17.53705992 79.35581829 15.01904297 83.35644531 C13.47709027 85.78938 12.04402146 87.95597854 10 90 C8.03599358 90.24609566 8.03599358 90.24609566 5.58346558 90.24050903 C4.6551593 90.24325836 3.72685303 90.24600769 2.77041626 90.24884033 C1.23833023 90.2380545 1.23833023 90.2380545 -0.32470703 90.22705078 C-1.93448425 90.22748886 -1.93448425 90.22748886 -3.57678223 90.22793579 C-7.13720685 90.22653831 -10.69742427 90.21095737 -14.2578125 90.1953125 C-16.72118007 90.19158386 -19.18454912 90.18873619 -21.6479187 90.18673706 C-28.14170401 90.17908889 -34.63540032 90.15943023 -41.12915039 90.1373291 C-47.75145259 90.11689614 -54.37376913 90.10774081 -60.99609375 90.09765625 C-73.99743388 90.07618547 -86.99871221 90.04241797 -100 90 C-99.50269348 85.02693484 -98.44697666 81.36200187 -96 77 C-94.94035034 76.99191315 -93.88070068 76.98382629 -92.78894043 76.97549438 C-82.78434905 76.89788292 -72.77989115 76.81010605 -62.77547455 76.71247292 C-57.63257017 76.66260741 -52.48968536 76.61627665 -47.34667969 76.578125 C-42.37990602 76.54114893 -37.41330009 76.49475586 -32.44667053 76.44193649 C-30.55537367 76.42345789 -28.66404095 76.40832602 -26.77268982 76.39665604 C-24.11586469 76.37968134 -21.45941825 76.35062008 -18.80273438 76.31884766 C-17.63963242 76.31560738 -17.63963242 76.31560738 -16.45303345 76.31230164 C-7.63616795 76.17831719 1.07583741 74.23376454 7.89453125 68.37109375 C13.87741273 62.14451037 18.06083895 54.64974681 22.4375 47.265625 C24.37759867 43.99704234 26.42869677 40.85439015 28.625 37.75 C30.81396708 34.56090141 31.797852 31.94188597 32 28 C29.32304156 25.77902274 29.32304156 25.77902274 27.0078125 26.12109375 C24.3411374 27.28841262 23.48408703 28.64078359 21.875 31.0625 C20.97587891 32.40634766 20.97587891 32.40634766 20.05859375 33.77734375 C17.65425377 37.54125358 15.29295742 41.33038978 12.9375 45.125 C6.94601783 54.74842758 2.36861561 61.81569219 -8 67 C-10.56333475 67.09297087 -13.09924241 67.12580976 -15.66259766 67.11352539 C-16.84809456 67.11374443 -16.84809456 67.11374443 -18.05754089 67.1139679 C-20.67640911 67.11326983 -23.29520667 67.10548239 -25.9140625 67.09765625 C-27.72724366 67.09579169 -29.54042533 67.09436797 -31.35360718 67.09336853 C-36.13103623 67.08954632 -40.90843499 67.07971855 -45.68585205 67.06866455 C-50.55879303 67.05844407 -55.4317389 67.05386954 -60.3046875 67.04882812 C-69.86980499 67.03809603 -79.43489998 67.02102314 -89 67 C-88.53905693 65.84814461 -88.53905693 65.84814461 -88.06880188 64.67301941 C-87.34384537 62.85993986 -86.6206929 61.04613812 -85.89916992 59.23168945 C-84 57 -84 57 -80.26293945 56.34057617 C-78.71351713 56.29947724 -77.16322954 56.28529043 -75.61328125 56.29296875 C-74.79627243 56.27784744 -73.97926361 56.26272614 -73.13749695 56.24714661 C-70.52888608 56.20417039 -67.92143003 56.19542258 -65.3125 56.1875 C-63.54358888 56.16436323 -61.77470537 56.1389996 -60.00585938 56.11132812 C-55.6704704 56.04837837 -51.33580582 56.01612059 -47 56 C-46.7497843 53.08365871 -46.7497843 53.08365871 -47 50 C-50.43761116 47.70825923 -51.92071615 47.70475953 -55.98046875 47.5859375 C-57.14384766 47.54726562 -58.30722656 47.50859375 -59.50585938 47.46875 C-60.72080078 47.4378125 -61.93574219 47.406875 -63.1875 47.375 C-64.41404297 47.33632812 -65.64058594 47.29765625 -66.90429688 47.2578125 C-69.93604656 47.16343897 -72.96778841 47.07785451 -76 47 C-75.37498605 45.31727014 -74.69822617 43.65369357 -74 42 C-73.45098022 40.62533569 -73.45098022 40.62533569 -72.89086914 39.22290039 C-71 37 -71 37 -67.32983398 36.40405273 C-65.80195412 36.38992888 -64.2737017 36.40149542 -62.74609375 36.43359375 C-61.93060562 36.42795914 -61.11511749 36.42232452 -60.2749176 36.41651917 C-57.66186483 36.40004429 -55.05049403 36.41559466 -52.4375 36.4375 C-32.52622705 36.5935452 -32.52622705 36.5935452 -16.01953125 26.1796875 C-9.03249472 18.63855329 -4.70028246 9.05460505 0 0 Z " fill="#9E21E0" transform="translate(103,22)"/>
<path d="M0 0 C0.66 0 1.32 0 2 0 C3.515625 2.0546875 3.515625 2.0546875 5.25 4.875 C5.86875 5.87917969 6.4875 6.88335937 7.125 7.91796875 C7.74375 8.93503906 8.3625 9.95210937 9 11 C9.556875 11.88300781 10.11375 12.76601562 10.6875 13.67578125 C16.0782039 22.34133776 19.6576335 29.78650065 17.56640625 40.1484375 C14.68780625 50.05368222 8.35222984 58.76753802 2.3828125 67.0390625 C0.96407158 68.94687524 0.96407158 68.94687524 0 71 C-0.66 71 -1.32 71 -2 71 C-3.57015575 68.7169751 -5.01656282 66.43686322 -6.4375 64.0625 C-9.2597231 59.41586797 -12.10239012 54.80243788 -15.140625 50.29296875 C-15.64924072 49.53298584 -16.15785645 48.77300293 -16.68188477 47.98999023 C-17.67288047 46.51562902 -18.67316507 45.04746213 -19.68334961 43.58618164 C-20.13202393 42.91321045 -20.58069824 42.24023926 -21.04296875 41.546875 C-21.44539795 40.95745117 -21.84782715 40.36802734 -22.26245117 39.76074219 C-23.24509806 37.41488011 -22.88973007 36.35376655 -22 34 C-21.03540039 32.22338867 -21.03540039 32.22338867 -19.84765625 30.41796875 C-19.18419189 29.40101929 -19.18419189 29.40101929 -18.50732422 28.36352539 C-17.79213623 27.28639282 -17.79213623 27.28639282 -17.0625 26.1875 C-16.57539551 25.4442749 -16.08829102 24.7010498 -15.58642578 23.93530273 C-11.78704644 18.15035818 -7.95008374 12.38927248 -4.08618164 6.6472168 C-1.8990442 3.40947502 -1.8990442 3.40947502 0 0 Z " fill="#FDFCFE" transform="translate(136,76)"/>
<path d="M0 0 C2.77734375 -0.2578125 2.77734375 -0.2578125 6 0 C9.42455781 2.97601906 11.62273242 7.15806946 14 11 C14.52142578 11.84191895 15.04285156 12.68383789 15.58007812 13.55126953 C17.3413177 16.42004629 19.08173045 19.30024316 20.8125 22.1875 C21.37590088 23.1254541 21.93930176 24.0634082 22.51977539 25.02978516 C28.02554247 34.39331209 32.2265281 43.19991275 29.42578125 54.26953125 C28.71250482 56.24330676 27.91351038 58.11125557 27 60 C26.443125 61.155 25.88625 62.31 25.3125 63.5 C24.879375 64.325 24.44625 65.15 24 66 C23.34 66 22.68 66 22 66 C21.690625 66.94875 21.38125 67.8975 21.0625 68.875 C20 72 20 72 19 74 C18.34 74 17.68 74 17 74 C16.7215625 75.175625 16.7215625 75.175625 16.4375 76.375 C14.77384378 80.57030699 12.47905591 83.74099859 9.84765625 87.3828125 C7.6287496 90.52587266 5.68483717 93.78006159 3.734375 97.09375 C1.52038668 100.80367637 -0.76831207 104.46428693 -3.0625 108.125 C-3.47411377 108.78193848 -3.88572754 109.43887695 -4.30981445 110.11572266 C-5.12254693 111.4121435 -5.93738729 112.70724543 -6.75439453 114.00097656 C-7.63559387 115.41517888 -8.49953613 116.84020281 -9.35107422 118.27246094 C-10.01067139 119.37122559 -10.01067139 119.37122559 -10.68359375 120.4921875 C-11.0798999 121.16362793 -11.47620605 121.83506836 -11.88452148 122.52685547 C-12.25262939 123.01299316 -12.6207373 123.49913086 -13 124 C-13.66 124 -14.32 124 -15 124 C-16.359375 122.390625 -16.359375 122.390625 -17.75 120.25 C-18.45382813 119.20585937 -18.45382813 119.20585937 -19.171875 118.140625 C-20 116 -20 116 -19.2734375 114 C-18.64308594 113.01 -18.64308594 113.01 -18 112 C-17.64679688 111.29359375 -17.29359375 110.5871875 -16.9296875 109.859375 C-15.953125 107.90625 -14.9765625 105.953125 -14 104 C-13.34 104 -12.68 104 -12 104 C-11.72454346 103.26426758 -11.44908691 102.52853516 -11.1652832 101.77050781 C-10.08047891 99.19134185 -8.8705382 97.01645491 -7.35546875 94.671875 C-6.58686523 93.47111328 -6.58686523 93.47111328 -5.80273438 92.24609375 C-5.26970703 91.42238281 -4.73667969 90.59867187 -4.1875 89.75 C-0.2276814 83.61203644 3.53396904 77.43181003 7 71 C7.66 71 8.32 71 9 71 C9.25523437 70.113125 9.51046875 69.22625 9.7734375 68.3125 C11.01025225 64.97231239 12.48464968 62.81856832 14.625 60 C18.89076407 53.44071842 19.25441061 47.63322199 18 40 C16.79222947 36.31867324 15.08512935 33.25406551 13 30 C12.46890625 29.14148438 11.9378125 28.28296875 11.390625 27.3984375 C9.26224745 24.01060718 7.08813164 20.65396009 4.88916016 17.31152344 C3.74774103 15.56912802 2.62308715 13.81675175 1.5 12.0625 C0.8090625 11.00160156 0.118125 9.94070312 -0.59375 8.84765625 C-2 6 -2 6 -1.78125 3.74609375 C-1.21655123 2.48399199 -0.61835031 1.23670063 0 0 Z " fill="#F8FBFE" transform="translate(174,64)"/>
<path d="M0 0 C0.66 0 1.32 0 2 0 C3.28993751 1.83629299 4.48262032 3.74106225 5.6328125 5.66796875 C6.16610672 6.553955 6.16610672 6.553955 6.71017456 7.45783997 C7.85535911 9.36368303 8.9903779 11.27535355 10.125 13.1875 C11.23582661 15.04413269 12.3487016 16.89952731 13.46160889 18.75491333 C14.20202964 19.99076178 14.94099861 21.22748115 15.67852783 22.46505737 C17.51532489 25.5441495 19.37009693 28.60935082 21.26855469 31.65087891 C21.63197968 32.23404373 21.99540466 32.81720856 22.36984253 33.41804504 C23.36537537 35.01041314 24.36586807 36.59967734 25.36669922 38.1887207 C28.42501887 43.45277911 29.38915955 47.75433701 29.375 53.8125 C29.37258301 54.880448 29.37258301 54.880448 29.37011719 55.9699707 C29.23875343 61.59221091 28.2947323 65.4896251 25 70 C24.38125 70.99 23.7625 71.98 23.125 73 C21 75 21 75 17.875 75.4375 C15 75 15 75 13 73 C12.5625 70.875 12.5625 70.875 13 68 C13.80407035 66.79249366 14.64167283 65.60706195 15.5 64.4375 C18.96402189 59.15709987 19.08328539 54.12562818 18 48 C16.44952579 44.01950983 14.31527459 40.57904921 12 37 C10.72802022 34.91736643 9.457239 32.83400048 8.1875 30.75 C5.96733525 27.14600441 3.72169412 23.56666656 1.41796875 20.015625 C0.56998203 18.67729266 -0.27768054 17.33875489 -1.125 16 C-1.53983643 15.37706055 -1.95467285 14.75412109 -2.38208008 14.11230469 C-3.5078125 12.3125 -3.5078125 12.3125 -5 9 C-4.14715037 5.4130148 -2.44719324 2.7530924 0 0 Z " fill="#F9FBFE" transform="translate(149,57)"/>
<path d="M0 0 C2.75 0.625 2.75 0.625 4.75 2.625 C5.0601795 10.06930796 0.36514795 14.24337872 -4.25 19.625 C-5.59330017 21.32550734 -6.92741172 23.0333344 -8.25 24.75 C-9.11625 25.86761719 -9.11625 25.86761719 -10 27.0078125 C-10.4125 27.54148438 -10.825 28.07515625 -11.25 28.625 C-13.66396234 25.72824519 -15.63617243 23.02712299 -17.25 19.625 C-15.30972829 16.94604616 -13.36490645 14.27103466 -11.40625 11.60546875 C-10.09996672 9.79986341 -8.82058213 7.97378375 -7.59375 6.11328125 C-3.98422869 0.76619783 -3.98422869 0.76619783 0 0 Z " fill="#F8FAFD" transform="translate(158.25,138.375)"/>
<path d="M0 0 C4.14893485 3.79331186 7.64921449 7.83871982 10 13 C9.92262663 16.55917516 9.5131135 17.4868865 7 20 C4.6171875 20.41796875 4.6171875 20.41796875 2 20 C-0.0546875 17.98828125 -0.0546875 17.98828125 -1.875 15.3125 C-2.79925781 14.00732422 -2.79925781 14.00732422 -3.7421875 12.67578125 C-5.23002355 9.51066419 -5.14557012 8.25754536 -4 5 C-1.9375 2.1875 -1.9375 2.1875 0 0 Z " fill="#F6F8FD" transform="translate(162,37)"/>
</svg>
