<svg width="150" height="154" viewBox="0 0 150 154" fill="none" xmlns="http://www.w3.org/2000/svg">
<path d="M0 12C0 5.37259 5.37258 0 12 0H138C144.627 0 150 5.37258 150 12V142C150 148.627 144.627 154 138 154H12C5.37258 154 0 148.627 0 142V12Z" fill="#22314A" fill-opacity="0.7"/>
<g clip-path="url(#clip0_0_160)">
<path d="M98.2852 33.8049H52.4648C41.3005 33.8049 32.25 42.8701 32.25 54.0526V99.9475C32.25 111.13 41.3005 120.195 52.4648 120.195H98.2852C109.45 120.195 118.5 111.13 118.5 99.9475V54.0526C118.5 42.8701 109.45 33.8049 98.2852 33.8049Z" fill="#677EEB"/>
<path fill-rule="evenodd" clip-rule="evenodd" d="M49.9912 89.5478C49.6746 89.0476 49.5044 88.4684 49.5 87.8761C49.4955 87.2839 49.6569 86.7022 49.9659 86.1972L73.7052 47.4113C75.0256 45.254 78.2138 45.4426 79.2714 47.7404L100.958 94.8605C101.763 96.6089 100.837 98.6661 98.9954 99.2195L65.2602 109.357C64.5996 109.555 63.8924 109.532 63.2463 109.29C62.6002 109.049 62.0507 108.602 61.6815 108.019L49.9912 89.5478ZM76.444 58.7521C76.6728 57.6108 78.2337 57.4461 78.6946 58.5149L93.6539 93.1857C93.7204 93.3397 93.7536 93.506 93.7512 93.6737C93.7488 93.8415 93.711 94.0068 93.6402 94.1588C93.5694 94.3109 93.4673 94.4461 93.3405 94.5557C93.2137 94.6653 93.0651 94.7468 92.9046 94.7947L69.5962 101.764C68.7395 102.02 67.9187 101.27 68.095 100.392L76.444 58.7521Z" fill="#F7FAFC"/>
</g>
<defs>
<clipPath id="clip0_0_160">
<rect width="86.25" height="86.3902" fill="white" transform="translate(32.25 33.8049)"/>
</clipPath>
</defs>
</svg>
