<?xml version="1.0" encoding="UTF-8"?>
<svg version="1.1" xmlns="http://www.w3.org/2000/svg" width="400" height="400">
<path d="M0 0 C132 0 264 0 400 0 C400 132 400 264 400 400 C268 400 136 400 0 400 C0 268 0 136 0 0 Z " fill="#5A67D8" transform="translate(0,0)"/>
<path d="M0 0 C5.76690951 2.60974934 8.29964185 5.16917657 10.875 11 C11.20902832 11.71019287 11.54305664 12.42038574 11.88720703 13.15209961 C12.94801618 15.42487458 13.97681002 17.71007339 15 20 C15.62458733 21.37648941 16.24958338 22.75279343 16.875 24.12890625 C17.90687886 26.41029567 18.93345211 28.69378202 19.9519043 30.98120117 C24.10413348 40.30125732 28.40162518 49.5534151 32.6875 58.8125 C38.96996473 72.39000634 45.19549584 85.99083994 51.32104492 99.63989258 C56.60451485 111.40061817 62.08105517 123.06661288 67.59233093 134.72180176 C74.76403559 149.89054046 81.8505956 165.09386797 88.74243164 180.39208984 C89.34775172 181.73538189 89.95313801 183.0786441 90.55859375 184.421875 C90.8505513 185.06980011 91.14250885 185.71772522 91.4433136 186.38528442 C93.30101285 190.49407884 95.21248312 194.5734434 97.16015625 198.640625 C97.63404785 199.6419043 98.10793945 200.64318359 98.59619141 201.67480469 C99.45281703 203.47911334 100.32234985 205.27738783 101.20849609 207.06738281 C103.73403405 212.4280197 104.85869456 217.06242324 104 223 C101.78786955 228.09751799 99.02457447 229.73413845 94.02319336 231.86401367 C87.13988176 234.45046678 80.05066291 236.42629531 73 238.5 C71.22862023 239.02597886 69.45738261 239.55243668 67.6862793 240.0793457 C54.20541449 244.0828254 40.70348783 248.01511547 27.20187378 251.94793701 C16.45748093 255.07880866 5.74190535 258.27802463 -4.9375 261.625 C-14.9719364 264.76251785 -25.01572717 267.86594689 -35.08889771 270.87689209 C-36.5950355 271.32858666 -38.10017502 271.78362542 -39.60421753 272.24224854 C-41.69963194 272.88042816 -43.79840817 273.50610714 -45.8984375 274.12890625 C-47.10161621 274.49056885 -48.30479492 274.85223145 -49.54443359 275.22485352 C-54.1499648 276.25795805 -58.22445466 276.760948 -62.625 274.875 C-68.70285801 270.07669104 -72.50678776 263.29047553 -76.5625 256.8125 C-77.17746338 255.83853271 -77.79242676 254.86456543 -78.42602539 253.86108398 C-80.28831925 250.91007187 -82.14495087 247.9555704 -84 245 C-85.97751234 241.85312277 -87.95662682 238.70726273 -89.9375 235.5625 C-90.41429199 234.80461182 -90.89108398 234.04672363 -91.38232422 233.26586914 C-95.41291039 226.88022146 -99.54594519 220.56405552 -103.6875 214.25 C-108.01611673 207.64212432 -112.30311858 201.01985141 -116.375 194.25 C-116.73811279 193.64833008 -117.10122559 193.04666016 -117.4753418 192.42675781 C-120.4432533 187.42461021 -121.4142548 183.84903045 -121 178 C-119.70703125 174.9921875 -119.70703125 174.9921875 -117.8125 171.875 C-117.45865234 171.28428711 -117.10480469 170.69357422 -116.74023438 170.08496094 C-115.5106427 168.04566345 -114.25669303 166.02269932 -113 164 C-112.04522379 162.44552688 -111.09081341 160.89082903 -110.13671875 159.3359375 C-107.9748472 155.82444239 -105.80137677 152.32040341 -103.62109375 148.8203125 C-99.74768725 142.60115996 -95.90216289 136.36502976 -92.0625 130.125 C-91.38783691 129.02857178 -90.71317383 127.93214355 -90.01806641 126.80249023 C-83.89558823 116.84411002 -77.81378947 106.86124746 -71.74414062 96.87060547 C-66.50230293 88.24329198 -61.25456197 79.61956954 -56 71 C-55.60619141 70.35385742 -55.21238281 69.70771484 -54.80664062 69.04199219 C-51.6834834 63.92364727 -48.53131175 58.82580677 -45.30859375 53.76953125 C-39.78486396 45.09631443 -34.39536225 36.36727853 -29.1875 27.5 C-27.58662801 24.78224057 -25.98520942 22.06480477 -24.38330078 19.34765625 C-23.54146808 17.91894759 -22.70094616 16.48946411 -21.86279297 15.05859375 C-11.32500948 -2.83125237 -11.32500948 -2.83125237 0 0 Z " fill="#FCFDFD" transform="translate(208,63)"/>
<path d="M0 0 C2.6875 -0.5 2.6875 -0.5 6 0 C10.85199465 6.61561749 13.81974287 14.10597035 17 21.625 C17.5660379 22.94943413 18.13278374 24.2735659 18.70019531 25.59741211 C19.87899456 28.34911975 21.05474766 31.10209976 22.22851562 33.85595703 C24.76627584 39.80219894 27.34622823 45.73009182 29.92324829 51.65939331 C34.09014679 61.2512119 38.23212846 70.85352419 42.34130859 80.47021484 C45.12201187 86.97012429 47.92761133 93.45907649 50.73854065 99.94595337 C53.51360283 106.3504346 56.28121947 112.75810748 59.04588318 119.16708374 C60.90381785 123.47142517 62.77157583 127.77122941 64.65188599 132.06584167 C65.94257509 135.0196011 67.22008462 137.97905968 68.5 140.9375 C68.9626123 141.98381592 69.42522461 143.03013184 69.90185547 144.1081543 C74.02309236 153.69897358 74.02309236 153.69897358 73 158 C69.45837497 160.52392132 65.90917875 161.80272768 61.7578125 163.015625 C60.54013184 163.3755957 59.32245117 163.73556641 58.06787109 164.10644531 C56.75359534 164.48768057 55.43930458 164.86886412 54.125 165.25 C52.75188954 165.65385361 51.37900786 166.05848584 50.00634766 166.46386719 C47.25818424 167.27518237 44.50924442 168.08377983 41.75976562 168.890625 C37.800321 170.05891827 33.85130577 171.25721838 29.90576172 172.47143555 C26.21632969 173.60645375 22.52194419 174.72486563 18.82714844 175.84228516 C15.82983647 176.74897394 12.8332487 177.65796282 9.83691406 178.56787109 C4.90147047 180.06505492 -0.03747602 181.55028325 -4.97821045 183.02990723 C-6.98090072 183.63141411 -8.98258702 184.23627464 -10.98321533 184.84460449 C-13.81949501 185.70629952 -16.65922391 186.55560832 -19.5 187.40234375 C-20.35330902 187.66448166 -21.20661804 187.92661957 -22.08578491 188.19670105 C-26.8306027 189.59566824 -30.9970068 190.47426893 -36 190 C-38 188 -38 188 -38.25 184.99609375 C-38.10347429 180.23767121 -37.03175703 175.6944135 -36 171.0625 C-35.53342935 168.89359993 -35.06872146 166.72429866 -34.60546875 164.5546875 C-34.34813965 163.35295898 -34.09081055 162.15123047 -33.82568359 160.91308594 C-32.26485238 153.51598283 -30.79166453 146.10128674 -29.3125 138.6875 C-29.14712738 137.86050598 -28.98175476 137.03351196 -28.81137085 136.18145752 C-26.66036836 125.42296884 -24.538259 114.65903564 -22.4375 103.890625 C-22.21942184 102.77383865 -22.00134369 101.65705231 -21.7766571 100.50642395 C-20.71076576 95.04684181 -19.647468 89.58678022 -18.58911133 84.12573242 C-16.64327846 74.12304907 -14.62274207 64.14609005 -12.42578125 54.1953125 C-10.86075805 47.10635252 -9.39075689 40.01271777 -8.0859375 32.87109375 C-7.94143661 32.08139694 -7.79693573 31.29170013 -7.64805603 30.47807312 C-7.07311951 27.3189364 -6.50292079 24.15903967 -5.94238281 20.99731445 C-5.51915833 18.62036214 -5.08460543 16.24569997 -4.6484375 13.87109375 C-4.52649017 13.16488388 -4.40454285 12.45867401 -4.27890015 11.73106384 C-3.47262078 7.39236771 -2.14518666 3.85136361 0 0 Z " fill="#5A67D8" transform="translate(206,115)"/>
<path d="M0 0 C3.125 -0.1875 3.125 -0.1875 6 0 C6.33 0.66 6.66 1.32 7 2 C4.69 2 2.38 2 0 2 C0.04125 3.010625 0.0825 4.02125 0.125 5.0625 C-0.00275352 9.08673585 -0.85422163 12.15827252 -2 16 C-2.2134008 17.45476887 -2.40098618 18.91356042 -2.5625 20.375 C-3 24 -3 24 -4 25 C-4.28243247 26.32491881 -4.51302207 27.66102503 -4.71875 29 C-4.91017578 30.2065625 -4.91017578 30.2065625 -5.10546875 31.4375 C-5.23566406 32.283125 -5.36585938 33.12875 -5.5 34 C-5.75669458 35.66724399 -6.01692457 37.33394878 -6.28125 39 C-6.39533203 39.7425 -6.50941406 40.485 -6.62695312 41.25 C-7 43 -7 43 -8 44 C-8.3320135 45.55442682 -8.61406078 47.11957576 -8.875 48.6875 C-10.05834532 55.50070033 -11.52097206 62.24577239 -13 69 C-13.33 69 -13.66 69 -14 69 C-13.47168045 59.89282756 -12.042771 51.12449702 -10.25 42.1875 C-9.98121316 40.82914748 -9.71266152 39.4707484 -9.44433594 38.11230469 C-8.64253303 34.07220275 -7.82395749 30.03563482 -7 26 C-6.75636719 24.80391113 -6.51273438 23.60782227 -6.26171875 22.37548828 C-5.60194158 19.16460344 -4.92989783 15.95667844 -4.25 12.75 C-4.05180664 11.79891357 -3.85361328 10.84782715 -3.64941406 9.86791992 C-3.46088867 8.9988501 -3.27236328 8.12978027 -3.078125 7.234375 C-2.91731445 6.48381836 -2.75650391 5.73326172 -2.59082031 4.95996094 C-2 3 -2 3 0 0 Z " fill="#6A73C0" transform="translate(206,115)"/>
<path d="M0 0 C0.33 0 0.66 0 1 0 C2.0006709 5.96345767 2.0662997 10.28728907 0 16 C0.66 16 1.32 16 2 16 C1.67 19.63 1.34 23.26 1 27 C0.34 27 -0.32 27 -1 27 C-4.44935617 31.27720165 -4.6663273 35.71876659 -5 41 C-8.58740766 35.61888851 -5.77248671 28.71967799 -4.58984375 22.65625 C-4.04480225 19.93632368 -3.4912816 17.21815797 -2.9375 14.5 C-2.65272536 13.09120027 -2.36821787 11.68234651 -2.08398438 10.2734375 C-1.39240374 6.84832956 -0.69720395 3.42396827 0 0 Z " fill="#656FC9" transform="translate(189,192)"/>
<path d="M0 0 C1.09570312 0.00902344 2.19140625 0.01804688 3.3203125 0.02734375 C4.16335937 0.03894531 5.00640625 0.05054688 5.875 0.0625 C5.545 0.7225 5.215 1.3825 4.875 2.0625 C3.0546875 2.265625 3.0546875 2.265625 0.75 2.3125 C-3.67104559 2.76647783 -6.15414041 3.78795946 -9.3671875 6.8515625 C-12.52152279 10.81901533 -14.85603841 15.26392875 -17.23046875 19.72265625 C-18.97038595 22.78993296 -20.84223558 25.38493376 -23.125 28.0625 C-23.125 26.4125 -23.125 24.7625 -23.125 23.0625 C-23.785 23.0625 -24.445 23.0625 -25.125 23.0625 C-24.795 21.7425 -24.465 20.4225 -24.125 19.0625 C-22.805 19.0625 -21.485 19.0625 -20.125 19.0625 C-19.795 17.4125 -19.465 15.7625 -19.125 14.0625 C-18.135 13.7325 -17.145 13.4025 -16.125 13.0625 C-15.795 11.4125 -15.465 9.7625 -15.125 8.0625 C-14.135 7.7325 -13.145 7.4025 -12.125 7.0625 C-11.795 6.4025 -11.465 5.7425 -11.125 5.0625 C-10.465 5.0625 -9.805 5.0625 -9.125 5.0625 C-9.00125 4.423125 -8.8775 3.78375 -8.75 3.125 C-8.440625 2.1040625 -8.440625 2.1040625 -8.125 1.0625 C-5.36047967 -0.31976016 -3.0788637 -0.03275387 0 0 Z " fill="#636EC8" transform="translate(203.125,60.9375)"/>
<path d="M0 0 C-2.70207927 1.80138618 -4.48169861 2.57796836 -7.52807617 3.48046875 C-8.44300339 3.75415283 -9.3579306 4.02783691 -10.30058289 4.30981445 C-11.28807022 4.59945068 -12.27555756 4.88908691 -13.29296875 5.1875 C-14.31296463 5.49067139 -15.33296051 5.79384277 -16.38386536 6.10620117 C-18.54435002 6.74733188 -20.70556038 7.38602145 -22.86743164 8.02246094 C-26.15864039 8.99150277 -29.44765279 9.96771152 -32.73632812 10.9453125 C-34.83841602 11.56813258 -36.94062575 12.19054158 -39.04296875 12.8125 C-40.02033493 13.10213623 -40.99770111 13.39177246 -42.00468445 13.69018555 C-47.31152117 15.25074796 -52.62295611 16.701178 -58 18 C-58 17.34 -58 16.68 -58 16 C-39.43003064 9.68743616 -39.43003064 9.68743616 -31.1640625 7.640625 C-28.99233311 7.07107788 -28.99233311 7.07107788 -27.09765625 6.01953125 C-24.40604502 4.71131797 -21.72437021 4.11492657 -18.8125 3.4375 C-15.09972503 2.82785116 -15.09972503 2.82785116 -12 1 C-7.96497918 0.30163101 -4.09439083 -0.12407245 0 0 Z " fill="#6770C0" transform="translate(261,279)"/>
<path d="M0 0 C0.66 0.33 1.32 0.66 2 1 C-2.60146649 9.22608534 -7.37515449 17.31078152 -12.4074707 25.28125 C-15.34132356 29.92875654 -18.18153492 34.62145391 -20.94140625 39.375 C-21.29074219 39.91125 -21.64007813 40.4475 -22 41 C-22.33 41 -22.66 41 -23 41 C-23.125 38.125 -23.125 38.125 -23 35 C-22.34 34.34 -21.68 33.68 -21 33 C-20.29289322 31.35008418 -19.62056011 29.68437744 -19 28 C-18.01 28 -17.02 28 -16 28 C-15.01 24.535 -15.01 24.535 -14 21 C-13.34 21 -12.68 21 -12 21 C-11.9175 20.21625 -11.835 19.4325 -11.75 18.625 C-11.37875 17.325625 -11.37875 17.325625 -11 16 C-10.360625 15.7215625 -9.72125 15.443125 -9.0625 15.15625 C-6.78014151 14.14867849 -6.78014151 14.14867849 -5.953125 11.6171875 C-5.72109375 10.71226562 -5.4890625 9.80734375 -5.25 8.875 C-5.00765625 7.96492188 -4.7653125 7.05484375 -4.515625 6.1171875 C-4.34546875 5.41851562 -4.1753125 4.71984375 -4 4 C-3.01 4 -2.02 4 -1 4 C-0.67 2.68 -0.34 1.36 0 0 Z " fill="#656EC0" transform="translate(160,118)"/>
<path d="M0 0 C2.17641551 3.26462327 3.71679698 6.64809113 5.29296875 10.22265625 C5.60325516 10.9239415 5.91354156 11.62522675 6.23323059 12.34776306 C6.88616753 13.8272491 7.5374731 15.30745603 8.18725586 16.78833008 C9.1868138 19.06093983 10.19772113 21.32828242 11.20898438 23.59570312 C11.84185195 25.03354358 12.47403719 26.47168459 13.10546875 27.91015625 C13.41058884 28.59038345 13.71570892 29.27061066 14.03007507 29.97145081 C14.74706745 31.62271997 15.38169646 33.30929936 16 35 C15.67 35.66 15.34 36.32 15 37 C13.68 36.34 12.36 35.68 11 35 C11 34.34 11 33.68 11 33 C10.34 32.67 9.68 32.34 9 32 C9.66 32 10.32 32 11 32 C10.43547197 30.03616311 9.84769361 28.07899835 9.25 26.125 C8.92515625 25.03445312 8.6003125 23.94390625 8.265625 22.8203125 C7.31331158 19.87767738 7.31331158 19.87767738 4.96875 19.046875 C3 18 3 18 1.953125 14.8828125 C1.72109375 13.64273438 1.4890625 12.40265625 1.25 11.125 C1.00765625 9.89007813 0.7653125 8.65515625 0.515625 7.3828125 C0 4 0 4 0 0 Z " fill="#6771C7" transform="translate(255,213)"/>
<path d="M0 0 C0.33 0 0.66 0 1 0 C0.85978195 2.64624284 0.71310224 5.29184578 0.5625 7.9375 C0.50352539 9.06961914 0.50352539 9.06961914 0.44335938 10.22460938 C0.11328125 15.88671875 0.11328125 15.88671875 -1 17 C-1.1546875 18.7634375 -1.1546875 18.7634375 -1.3125 20.5625 C-1.75524371 25.06134733 -2.78563063 29.32770834 -3.9375 33.6875 C-5.88109094 41.08050965 -7.09766567 48.40139513 -8 56 C-8.66 56 -9.32 56 -10 56 C-9.62247029 44.19074428 -6.86457376 32.76775286 -4.4375 21.25 C-4.00781148 19.18503141 -3.57876953 17.11992817 -3.15039062 15.0546875 C-2.1077123 10.03487404 -1.05628726 5.01696668 0 0 Z " fill="#6B74C1" transform="translate(181,232)"/>
<path d="M0 0 C1.98 0 3.96 0 6 0 C6.33 1.32 6.66 2.64 7 4 C7.99 4 8.98 4 10 4 C10.268125 5.155 10.53625 6.31 10.8125 7.5 C11.90010253 11.82726964 13.26746543 15.88523039 15 20 C15.66 20.33 16.32 20.66 17 21 C18.62734766 24.34510352 19 26.18835834 19 30 C18.34 30 17.68 30 17 30 C16.68772461 29.29391602 16.37544922 28.58783203 16.05371094 27.86035156 C14.62862498 24.65258961 13.18949517 21.45132005 11.75 18.25 C11.25886719 17.13882813 10.76773438 16.02765625 10.26171875 14.8828125 C9.77832031 13.81289062 9.29492188 12.74296875 8.796875 11.640625 C8.35698242 10.65610352 7.91708984 9.67158203 7.46386719 8.65722656 C5.94233947 5.89533401 4.3225383 4.11086982 2 2 C1.34 1.34 0.68 0.68 0 0 Z " fill="#646EC0" transform="translate(210,64)"/>
<path d="M0 0 C0.66 0.33 1.32 0.66 2 1 C1.67 1.515625 1.34 2.03125 1 2.5625 C-0.42428538 6.03419562 -0.42414925 8.24324953 0 12 C1.09962946 14.6162188 2.35062532 17.08038436 3.7109375 19.5703125 C4.99756184 21.99540444 6.02379829 24.43633008 7 27 C6.01 27 5.02 27 4 27 C3.71125 26.030625 3.4225 25.06125 3.125 24.0625 C2.35785318 20.89335797 2.35785318 20.89335797 0 20 C-1.04808041 18.02477154 -2.0520411 16.02518491 -3 14 C-2.67 14.99 -2.34 15.98 -2 17 C-2.66 17 -3.32 17 -4 17 C-4.33 17.99 -4.66 18.98 -5 20 C-6.89885096 18.10114904 -6.12367506 15.42752097 -6.1328125 12.91015625 C-6 11 -6 11 -5 9 C-4.34 9 -3.68 9 -3 9 C-2.01 6.03 -1.02 3.06 0 0 Z " fill="#5F6BC8" transform="translate(88,236)"/>
<path d="M0 0 C-2.51572736 2.51572736 -4.88407161 3.06457962 -8.22265625 4.12109375 C-8.80917969 4.41113281 -9.39570313 4.70117188 -10 5 C-10.33 5.99 -10.66 6.98 -11 8 C-13.475 7.505 -13.475 7.505 -16 7 C-16 6.34 -16 5.68 -16 5 C-16.763125 5.474375 -17.52625 5.94875 -18.3125 6.4375 C-22.89111612 8.7764557 -27.9528922 8.73956205 -33 9 C-27.63457502 6.10993392 -21.73534248 4.60729403 -15.9375 2.8125 C-14.74060547 2.43158203 -13.54371094 2.05066406 -12.31054688 1.65820312 C-10.59254883 1.12549805 -10.59254883 1.12549805 -8.83984375 0.58203125 C-7.79175537 0.25436768 -6.74366699 -0.0732959 -5.66381836 -0.41088867 C-3 -1 -3 -1 0 0 Z " fill="#626DC6" transform="translate(205,325)"/>
<path d="M0 0 C3.9913131 3.5436892 6.50654225 7.73605498 9.25 12.25 C9.70890625 12.99507813 10.1678125 13.74015625 10.640625 14.5078125 C11.76536087 16.33550829 12.8833601 18.16734673 14 20 C13.34 20.33 12.68 20.66 12 21 C11.34 20.67 10.68 20.34 10 20 C9.375 17.9375 9.375 17.9375 9 16 C8.01 16 7.02 16 6 16 C3.31943052 13.71363192 2.12589193 12.3776758 1 9 C1.4375 6.8125 1.4375 6.8125 2 5 C1.34 4.67 0.68 4.34 0 4 C0 2.68 0 1.36 0 0 Z " fill="#606DCE" transform="translate(95,263)"/>
<path d="M0 0 C0 0.99 0 1.98 0 3 C-4.29 3.66 -8.58 4.32 -13 5 C-13 5.66 -13 6.32 -13 7 C-14.093125 7.309375 -15.18625 7.61875 -16.3125 7.9375 C-18.55407994 8.58337897 -20.7869351 9.2623117 -23 10 C-25.33299825 10.03954234 -27.66708189 10.04401732 -30 10 C-29 8 -29 8 -26.43969727 7.03857422 C-25.32651123 6.7138916 -24.2133252 6.38920898 -23.06640625 6.0546875 C-21.86048828 5.70019531 -20.65457031 5.34570312 -19.41210938 4.98046875 C-18.46501099 4.70855713 -18.46501099 4.70855713 -17.4987793 4.43115234 C-15.57158218 3.87760865 -13.64793616 3.31292236 -11.72460938 2.74609375 C-2.30440133 0 -2.30440133 0 0 0 Z " fill="#6870C0" transform="translate(237,314)"/>
<path d="M0 0 C1.98 0.66 3.96 1.32 6 2 C2.11133043 4.19571316 -2.05660259 5.35963379 -6.3125 6.625 C-7.04662109 6.85445313 -7.78074219 7.08390625 -8.53710938 7.3203125 C-13.19562823 8.70918769 -17.14096425 9.24391461 -22 9 C-21.67 8.01 -21.34 7.02 -21 6 C-20.67 6.66 -20.34 7.32 -20 8 C-15.70111387 6.48134786 -15.70111387 6.48134786 -12 4 C-9.45130108 3.75726677 -6.90395468 3.61633133 -4.34765625 3.4765625 C-1.63255354 3.21265473 -1.63255354 3.21265473 0 0 Z " fill="#646FC2" transform="translate(192,296)"/>
<path d="M0 0 C1.9375 0.5625 1.9375 0.5625 4 2 C4.75 5.625 4.75 5.625 5 9 C5.66 9 6.32 9 7 9 C7.32613281 9.90363281 7.65226562 10.80726563 7.98828125 11.73828125 C8.64376953 13.50751953 8.64376953 13.50751953 9.3125 15.3125 C9.74175781 16.48425781 10.17101562 17.65601563 10.61328125 18.86328125 C11.87867617 21.72556892 12.8176821 22.91918526 15 25 C15.1875 28.1875 15.1875 28.1875 15 31 C12.44442588 27.853476 10.76938318 24.63626794 9.08203125 20.95703125 C8.55029297 19.80138672 8.01855469 18.64574219 7.47070312 17.45507812 C7.1987915 16.85767822 6.92687988 16.26027832 6.64672852 15.64477539 C5.80939389 13.80567783 4.96487753 11.97001226 4.11914062 10.13476562 C0 1.14709249 0 1.14709249 0 0 Z " fill="#6971BE" transform="translate(295,241)"/>
<path d="M0 0 C3.26564448 2.6527376 4.26470079 5.80364271 5.6875 9.6875 C6.34298828 11.45673828 6.34298828 11.45673828 7.01171875 13.26171875 C7.33785156 14.16535156 7.66398438 15.06898438 8 16 C7.01 16.33 6.02 16.66 5 17 C5 16.34 5 15.68 5 15 C4.34 15 3.68 15 3 15 C2.34 12.69 1.68 10.38 1 8 C0.34 8 -0.32 8 -1 8 C-0.67 5.36 -0.34 2.72 0 0 Z " fill="#606BCC" transform="translate(217,127)"/>
<path d="M0 0 C2.78576391 2.53642084 4.71423062 5.40369256 6.75 8.5625 C7.38421875 9.53316406 8.0184375 10.50382812 8.671875 11.50390625 C9.11015625 12.32761719 9.5484375 13.15132813 10 14 C9.67 14.66 9.34 15.32 9 16 C7.35 16 5.7 16 4 16 C4 15.34 4 14.68 4 14 C3.34 14 2.68 14 2 14 C2.04125 12.80375 2.0825 11.6075 2.125 10.375 C2.13851708 6.57670047 1.42009753 3.55024382 0 0 Z " fill="#6270CD" transform="translate(110,286)"/>
<path d="M0 0 C2 2 2 2 2.23046875 5.5546875 C2.22647567 6.99485736 2.21171192 8.43502815 2.1875 9.875 C2.18685547 10.59558594 2.18621094 11.31617188 2.18554688 12.05859375 C2.15701391 15.50157166 2.07655309 18.71005376 1 22 C-1.875 22.625 -1.875 22.625 -5 23 C-5.66 22.34 -6.32 21.68 -7 21 C-6.1028125 20.6596875 -6.1028125 20.6596875 -5.1875 20.3125 C-2.23261503 18.53956902 -1.35500137 17.18425322 0 14 C0.38156184 10.18438162 0.39343942 6.50729833 -0.578125 2.78515625 C-0.71734375 2.19605469 -0.8565625 1.60695313 -1 1 C-0.67 0.67 -0.34 0.34 0 0 Z " fill="#666DC8" transform="translate(311,272)"/>
<path d="M0 0 C0.99 0.66 1.98 1.32 3 2 C-0.63 7.94 -4.26 13.88 -8 20 C-8.33 19.01 -8.66 18.02 -9 17 C-8.05301505 15.23664871 -7.09637645 13.47625881 -6.05078125 11.76953125 C-4.76296805 9.60083466 -3.89130023 7.35557917 -3 5 C-1.21052632 1.21052632 -1.21052632 1.21052632 0 0 Z " fill="#6571BA" transform="translate(120,181)"/>
<path d="M0 0 C2.64 0 5.28 0 8 0 C11 5.75 11 5.75 11 8 C9.02 8 7.04 8 5 8 C4.67 8.66 4.34 9.32 4 10 C3.79859524 6.37471432 4.14223235 4.13498292 6 1 C3.13275314 1.57344937 2.1385485 1.8614515 0 4 C0 2.68 0 1.36 0 0 Z " fill="#5F6CCC" transform="translate(206,117)"/>
<path d="M0 0 C-1.18359375 1.95703125 -1.18359375 1.95703125 -3 4 C-5.41015625 4.57421875 -5.41015625 4.57421875 -8.0625 4.6875 C-11.66965162 4.80704459 -11.66965162 4.80704459 -15 6 C-16.67654729 5.72057545 -18.34608154 5.39171753 -20 5 C-16.60116186 3.15443924 -13.12196294 1.97358787 -9.4375 0.8125 C-8.30183594 0.44769531 -7.16617187 0.08289063 -5.99609375 -0.29296875 C-3 -1 -3 -1 0 0 Z " fill="#6871CA" transform="translate(298,297)"/>
<path d="M0 0 C1.66171502 2.49257253 2.9387679 4.79516513 4.1875 7.5 C4.55230469 8.2734375 4.91710937 9.046875 5.29296875 9.84375 C6 12 6 12 5 15 C5 14.34 5 13.68 5 13 C2.60931266 11.89363605 2.60931266 11.89363605 0 11 C-0.99 11.495 -0.99 11.495 -2 12 C-2.33 9.36 -2.66 6.72 -3 4 C-2.01 4.495 -2.01 4.495 -1 5 C-1 5.66 -1 6.32 -1 7 C-0.34 7 0.32 7 1 7 C0.67 4.69 0.34 2.38 0 0 Z " fill="#626EC8" transform="translate(243,185)"/>
<path d="M0 0 C2.6766203 2.6766203 3.73988555 5.79715489 5.125 9.25 C5.40214844 9.90613281 5.67929687 10.56226563 5.96484375 11.23828125 C7.61030387 15.31545583 8.31341235 18.61222716 8 23 C6.11608215 19.73454239 5.50712033 16.71888239 5 13 C4.01 13 3.02 13 2 13 C2 10.69 2 8.38 2 6 C1.01 5.67 0.02 5.34 -1 5 C-0.67 3.35 -0.34 1.7 0 0 Z " fill="#6B75C1" transform="translate(271,250)"/>
<path d="M0 0 C0.639375 0.165 1.27875 0.33 1.9375 0.5 C4.04582216 1.24598544 4.04582216 1.24598544 6 0 C5.67 4.29 5.34 8.58 5 13 C1.89083741 8.85444988 0.68437364 5.81249612 -1 1 C-0.67 0.67 -0.34 0.34 0 0 Z " fill="#616FC6" transform="translate(256,153)"/>
<path d="M0 0 C-0.639375 0.103125 -1.27875 0.20625 -1.9375 0.3125 C-2.618125 0.539375 -3.29875 0.76625 -4 1 C-4.33 1.99 -4.66 2.98 -5 4 C-6.77734375 4.80078125 -6.77734375 4.80078125 -8.9375 5.3125 C-9.64777344 5.49425781 -10.35804688 5.67601562 -11.08984375 5.86328125 C-12.03537109 5.93095703 -12.03537109 5.93095703 -13 6 C-13.66 5.34 -14.32 4.68 -15 4 C-14.34 3.67 -13.68 3.34 -13 3 C-13 2.34 -13 1.68 -13 1 C-11.20994059 0.63779734 -9.41787943 0.28547531 -7.625 -0.0625 C-6.12839844 -0.35833984 -6.12839844 -0.35833984 -4.6015625 -0.66015625 C-2 -1 -2 -1 0 0 Z " fill="#626BC7" transform="translate(161,338)"/>
<path d="M0 0 C1.8671875 0.1015625 1.8671875 0.1015625 4 1 C5.1953125 3.8359375 5.1953125 3.8359375 6.125 7.375 C7.13030855 11.12205916 7.83882985 13.75824477 10 17 C9.625 19.1875 9.625 19.1875 9 21 C7.49699373 17.68885587 5.99810044 14.37586628 4.5 11.0625 C4.07074219 10.11697266 3.64148438 9.17144531 3.19921875 8.19726562 C2.79316406 7.29814453 2.38710938 6.39902344 1.96875 5.47265625 C1.59169922 4.64000244 1.21464844 3.80734863 0.82617188 2.94946289 C0 1 0 1 0 0 Z " fill="#6E73C6" transform="translate(268,182)"/>
<path d="M0 0 C1.32 0 2.64 0 4 0 C4.103125 1.2375 4.20625 2.475 4.3125 3.75 C4.747948 7.39367519 5.71476237 9.11861342 8 12 C8.1875 14.75 8.1875 14.75 8 17 C5.55185821 13.9703348 3.90547147 10.92450401 2.3125 7.375 C1.87550781 6.41335937 1.43851563 5.45171875 0.98828125 4.4609375 C0 2 0 2 0 0 Z " fill="#6B73C6" transform="translate(247,136)"/>
<path d="M0 0 C0.33 0 0.66 0 1 0 C1.12356792 4.5720129 0.90453639 7.02212282 -2.3125 10.5 C-4.47129673 12.508183 -6.59366734 14.3066548 -9 16 C-7.56786488 12.06342758 -5.69667846 8.71068644 -3.4375 5.1875 C-2.50744141 3.72376953 -2.50744141 3.72376953 -1.55859375 2.23046875 C-1.04425781 1.49441406 -0.52992187 0.75835937 0 0 Z " fill="#E7EFFB" transform="translate(107,208)"/>
<path d="M0 0 C1.79068573 2.6860286 2.66055791 4.6626589 3.625 7.6875 C3.88539063 8.49574219 4.14578125 9.30398437 4.4140625 10.13671875 C4.60742188 10.75160156 4.80078125 11.36648437 5 12 C4.01 12 3.02 12 2 12 C1.67 13.65 1.34 15.3 1 17 C0.67 17 0.34 17 0 17 C-0.125 11.25 -0.125 11.25 1 9 C0.91348369 7.45386986 0.75997364 5.91090613 0.5625 4.375 C0.46066406 3.55773437 0.35882813 2.74046875 0.25390625 1.8984375 C0.17011719 1.27195313 0.08632812 0.64546875 0 0 Z " fill="#5D6ACB" transform="translate(230,155)"/>
<path d="M0 0 C-0.33 0.99 -0.66 1.98 -1 3 C-2.890625 3.6953125 -2.890625 3.6953125 -5.25 4.125 C-6.05824219 4.2796875 -6.86648437 4.434375 -7.69921875 4.59375 C-8.45847656 4.7278125 -9.21773437 4.861875 -10 5 C-11.5159375 5.309375 -11.5159375 5.309375 -13.0625 5.625 C-13.701875 5.74875 -14.34125 5.8725 -15 6 C-15.33 5.34 -15.66 4.68 -16 4 C-13.89748139 3.32815382 -11.79292237 2.66269032 -9.6875 2 C-8.51574219 1.62875 -7.34398437 1.2575 -6.13671875 0.875 C-3 0 -3 0 0 0 Z " fill="#E6EBFB" transform="translate(230,289)"/>
<path d="M0 0 C0.99 0 1.98 0 3 0 C1.62859834 3.67694648 -0.03695801 6.95318589 -2.0625 10.3125 C-2.58972656 11.19550781 -3.11695312 12.07851562 -3.66015625 12.98828125 C-4.10230469 13.65214844 -4.54445313 14.31601563 -5 15 C-5.33 15 -5.66 15 -6 15 C-6 13.02 -6 11.04 -6 9 C-5.01 9 -4.02 9 -3 9 C-2.87625 8.443125 -2.7525 7.88625 -2.625 7.3125 C-1.94023145 4.77885636 -1.00866237 2.42078968 0 0 Z " fill="#666EC2" transform="translate(103,209)"/>
<path d="M0 0 C-2.34488245 2.94851556 -3.42333987 3.93035506 -7.234375 4.390625 C-8.39453125 4.34421875 -9.5546875 4.2978125 -10.75 4.25 C-11.92046875 4.21390625 -13.0909375 4.1778125 -14.296875 4.140625 C-15.18890625 4.09421875 -16.0809375 4.0478125 -17 4 C-14.23719462 2.15812975 -12.19292174 1.27751723 -9.0625 0.3125 C-7.78052734 -0.09548828 -7.78052734 -0.09548828 -6.47265625 -0.51171875 C-3.89489426 -1.02075548 -2.45550663 -0.84888744 0 0 Z " fill="#6770C5" transform="translate(276,304)"/>
<path d="M0 0 C0.33 0.66 0.66 1.32 1 2 C1.66 2 2.32 2 3 2 C3 3.65 3 5.3 3 7 C3.66 7 4.32 7 5 7 C6.17076699 10.98060777 7.25749403 14.91621717 8 19 C5.13301241 15.59060935 3.4916571 11.82972984 1.8125 7.75 C1.53986328 7.1003125 1.26722656 6.450625 0.98632812 5.78125 C0.31923158 4.18958104 -0.34107445 2.59506897 -1 1 C-0.67 0.67 -0.34 0.34 0 0 Z " fill="#6970C1" transform="translate(230,97)"/>
<path d="M0 0 C2.74792483 3.40219265 6 7.48464588 6 12 C5.01 12.33 4.02 12.66 3 13 C2.34 12.67 1.68 12.34 1 12 C1.020625 10.948125 1.04125 9.89625 1.0625 8.8125 C1.01103198 5.67295096 0.73482813 3.03116604 0 0 Z " fill="#ECEFFB" transform="translate(299,251)"/>
<path d="M0 0 C2.31 0.66 4.62 1.32 7 2 C6.67 4.64 6.34 7.28 6 10 C5.34 10 4.68 10 4 10 C2.68 6.7 1.36 3.4 0 0 Z " fill="#EEF4FB" transform="translate(256,215)"/>
<path d="M0 0 C2.96052484 3.36423277 3.92289822 6.69159287 5 11 C4.01 11.495 4.01 11.495 3 12 C3 11.01 3 10.02 3 9 C2.34 9 1.68 9 1 9 C0.63877119 7.68942607 0.28619689 6.37646376 -0.0625 5.0625 C-0.35833984 3.96615234 -0.35833984 3.96615234 -0.66015625 2.84765625 C-0.77230469 2.23792969 -0.88445312 1.62820312 -1 1 C-0.67 0.67 -0.34 0.34 0 0 Z " fill="#EBF1FA" transform="translate(289,229)"/>
<path d="M0 0 C2.09797355 2.09797355 2.96787972 3.75609656 4.1875 6.4375 C4.55230469 7.21996094 4.91710937 8.00242187 5.29296875 8.80859375 C6 11 6 11 5 14 C4.34 13.34 3.68 12.68 3 12 C3 11.01 3 10.02 3 9 C2.34 9 1.68 9 1 9 C0.66666667 7.66666667 0.33333333 6.33333333 0 5 C-0.20625 4.278125 -0.4125 3.55625 -0.625 2.8125 C-0.74875 2.214375 -0.8725 1.61625 -1 1 C-0.67 0.67 -0.34 0.34 0 0 Z " fill="#EAF1FA" transform="translate(225,90)"/>
<path d="M0 0 C1.09570312 0.00902344 2.19140625 0.01804688 3.3203125 0.02734375 C4.16335937 0.03894531 5.00640625 0.05054688 5.875 0.0625 C5.545 0.7225 5.215 1.3825 4.875 2.0625 C2.9140625 2.44140625 2.9140625 2.44140625 0.5 2.625 C-2.31977465 2.85003088 -4.41163703 3.15804568 -7.125 4.0625 C-7.455 3.0725 -7.785 2.0825 -8.125 1.0625 C-5.36047967 -0.31976016 -3.0788637 -0.03275387 0 0 Z " fill="#5F6CBB" transform="translate(203.125,60.9375)"/>
<path d="M0 0 C0.639375 0.804375 1.27875 1.60875 1.9375 2.4375 C3.40603502 4.2750504 3.40603502 4.2750504 5 6 C5.04092937 8.33297433 5.04241723 10.66705225 5 13 C1.82781157 9.37464179 0.57097403 5.48849722 -1 1 C-0.67 0.67 -0.34 0.34 0 0 Z " fill="#6570BD" transform="translate(239,116)"/>
<path d="M0 0 C3.78699616 3.36621881 6.8272631 7.41641804 9 12 C8.67 12.66 8.34 13.32 8 14 C4.2317127 11.48780847 3.71587935 9.10318974 2 5 C1.34 4.67 0.68 4.34 0 4 C0 2.68 0 1.36 0 0 Z " fill="#6872BE" transform="translate(95,263)"/>
<path d="M0 0 C2.95749791 3.46741134 5.07848152 6.86873527 7 11 C6.34 11 5.68 11 5 11 C5 10.34 5 9.68 5 9 C3.68 9 2.36 9 1 9 C0.67 6.03 0.34 3.06 0 0 Z " fill="#6974C2" transform="translate(123,306)"/>
<path d="M0 0 C0.66 0 1.32 0 2 0 C3.5078125 2.1171875 3.5078125 2.1171875 5.125 4.875 C5.66382812 5.77992188 6.20265625 6.68484375 6.7578125 7.6171875 C8 10 8 10 8 12 C7.01 12 6.02 12 5 12 C4.71125 11.030625 4.4225 10.06125 4.125 9.0625 C3.35785318 5.89335797 3.35785318 5.89335797 1 5 C0.375 2.4375 0.375 2.4375 0 0 Z " fill="#676FBA" transform="translate(87,251)"/>
<path d="M0 0 C3.42931954 3.7559214 4.56429083 8.23466745 6 13 C5.34 13 4.68 13 4 13 C3.67 13.66 3.34 14.32 3 15 C2 10 1 5 0 0 Z " fill="#6B75C2" transform="translate(249,200)"/>
<path d="M0 0 C-3.79541663 2.21399303 -7.75629421 3.00980198 -12 4 C-12 3.34 -12 2.68 -12 2 C-7.86180432 -1.38579646 -5.08886459 -1.09759825 0 0 Z " fill="#EDF3FD" transform="translate(172,333)"/>
<path d="M0 0 C2.22825644 2.22825644 2.69239369 3.65761628 3.625 6.625 C3.88539063 7.44226563 4.14578125 8.25953125 4.4140625 9.1015625 C4.60742188 9.72804687 4.80078125 10.35453125 5 11 C4.01 11.495 4.01 11.495 3 12 C3 11.34 3 10.68 3 10 C2.34 10 1.68 10 1 10 C0.855625 9.05125 0.71125 8.1025 0.5625 7.125 C0.17064601 4.1065506 0.17064601 4.1065506 -1 2 C-0.67 1.34 -0.34 0.68 0 0 Z " fill="#6972C5" transform="translate(238,174)"/>
<path d="M0 0 C3.71134205 3.1994328 5.42930118 6.3705719 7 11 C6.57421875 13.21875 6.57421875 13.21875 6 15 C4.99539469 12.87717331 3.99644398 10.75166979 3 8.625 C2.443125 7.44164062 1.88625 6.25828125 1.3125 5.0390625 C0 2 0 2 0 0 Z " fill="#676FBE" transform="translate(261,166)"/>
<path d="M0 0 C0.66 1.32 1.32 2.64 2 4 C0.625 6 0.625 6 -1 8 C-1.66 8 -2.32 8 -3 8 C-3 8.66 -3 9.32 -3 10 C-3.66 10 -4.32 10 -5 10 C-3.66511872 6.40608886 -2.03977277 3.24509304 0 0 Z " fill="#ECF1FB" transform="translate(184,82)"/>
<path d="M0 0 C3.08089673 2.77280706 4.68775452 5.06326356 6 9 C4.68 9 3.36 9 2 9 C0.50178941 5.62902617 0 3.79557881 0 0 Z " fill="#6971C5" transform="translate(130,318)"/>
<path d="M0 0 C1.125 1.75 1.125 1.75 2 4 C1.125 6.25 1.125 6.25 0 8 C-0.66 8 -1.32 8 -2 8 C-3.62514468 9.45833358 -3.62514468 9.45833358 -5 11 C-3.77472971 6.94718288 -2.30119506 3.55639236 0 0 Z " fill="#E9EFF9" transform="translate(93,230)"/>
<path d="M0 0 C-4.455 1.485 -4.455 1.485 -9 3 C-9.33 2.01 -9.66 1.02 -10 0 C-4.5 -2.25 -4.5 -2.25 0 0 Z " fill="#6975C6" transform="translate(172,336)"/>
<path d="M0 0 C0.66 0.33 1.32 0.66 2 1 C1.67 2.98 1.34 4.96 1 7 C-0.65 7.33 -2.3 7.66 -4 8 C-2.87548273 5.0280615 -1.77706209 2.66559313 0 0 Z " fill="#EBF2F9" transform="translate(139,156)"/>
<path d="M0 0 C-4.48074195 3.36055646 -7.60550707 3.27429625 -13 3 C-8.8341563 0.22277086 -4.9360889 -1.89849573 0 0 Z " fill="#E3EDFC" transform="translate(204,298)"/>
<path d="M0 0 C1.98 0.495 1.98 0.495 4 1 C3.34 3.64 2.68 6.28 2 9 C0.25165733 6.377486 -0.51529754 5.00515522 -1 2 C-0.67 1.34 -0.34 0.68 0 0 Z " fill="#F1F6FB" transform="translate(274,251)"/>
<path d="M0 0 C0.99 0.66 1.98 1.32 3 2 C1.68 4.31 0.36 6.62 -1 9 C-1.66 8.67 -2.32 8.34 -3 8 C-2.09456151 5.28368454 -1.07525194 2.65228812 0 0 Z " fill="#6970C9" transform="translate(120,181)"/>
<path d="M0 0 C4.5 2.25 4.5 2.25 6 6 C5.34 6 4.68 6 4 6 C3.67 6.99 3.34 7.98 3 9 C2.01 6.03 1.02 3.06 0 0 Z " fill="#ECF1FA" transform="translate(234,163)"/>
<path d="M0 0 C5 7.5 5 7.5 5 11 C4.34 11 3.68 11 3 11 C3 10.34 3 9.68 3 9 C2.34 9 1.68 9 1 9 C-1.125 2.25 -1.125 2.25 0 0 Z " fill="#EEF4FB" transform="translate(249,142)"/>
<path d="M0 0 C3.125 6.625 3.125 6.625 2 10 C1.13375 8.329375 1.13375 8.329375 0.25 6.625 C-1.42260202 3.66807857 -2.64982242 2.07684279 -6 1 C-3.92446352 0.4465236 -2.15634036 0 0 0 Z " fill="#DAE3F5" transform="translate(214,113)"/>
<path d="M0 0 C0.66 0 1.32 0 2 0 C1.32902328 4.19360449 -0.8558394 7.40334352 -3 11 C-3.33 9.68 -3.66 8.36 -4 7 C-3.34 7 -2.68 7 -2 7 C-1.855625 6.21625 -1.71125 5.4325 -1.5625 4.625 C-1 2 -1 2 0 0 Z " fill="#6671C0" transform="translate(177,89)"/>
<path d="M0 0 C-0.33 0.99 -0.66 1.98 -1 3 C-4.63 3.33 -8.26 3.66 -12 4 C-4 0 -4 0 0 0 Z " fill="#6F74C8" transform="translate(184,330)"/>
<path d="M0 0 C3.0916909 2.52956528 3.90931332 5.22454612 5 9 C4.01 8.67 3.02 8.34 2 8 C2 7.34 2 6.68 2 6 C1.34 6 0.68 6 0 6 C0 4.02 0 2.04 0 0 Z " fill="#6D77C3" transform="translate(217,127)"/>
<path d="M0 0 C0.99 0.33 1.98 0.66 3 1 C0.525 5.455 0.525 5.455 -2 10 C-2.33 10 -2.66 10 -3 10 C-3 8.35 -3 6.7 -3 5 C-2.34 5 -1.68 5 -1 5 C-0.67 3.35 -0.34 1.7 0 0 Z " fill="#6E78C9" transform="translate(170,100)"/>
<path d="M0 0 C0 3 0 3 -2 5.1875 C-2.66 5.785625 -3.32 6.38375 -4 7 C-4.66 6.67 -5.32 6.34 -6 6 C-2.25 1.125 -2.25 1.125 0 0 Z " fill="#EAEFFD" transform="translate(310,286)"/>
<path d="M0 0 C2.13586678 3.20380017 2.23132175 4.01939967 2.125 7.6875 C2.10695313 8.49574219 2.08890625 9.30398438 2.0703125 10.13671875 C2.03550781 11.05904297 2.03550781 11.05904297 2 12 C1.67 12 1.34 12 1 12 C0.67 9.69 0.34 7.38 0 5 C-0.66 5 -1.32 5 -2 5 C-1.34 3.35 -0.68 1.7 0 0 Z " fill="#E5ECFB" transform="translate(310,274)"/>
<path d="M0 0 C0.66 0.33 1.32 0.66 2 1 C0.79618552 3.49361571 -0.45428722 5.68143083 -2 8 C-2.66 8 -3.32 8 -4 8 C-2.87548273 5.0280615 -1.77706209 2.66559313 0 0 Z " fill="#E9F0FA" transform="translate(158,125)"/>
<path d="M0 0 C0.33 0.66 0.66 1.32 1 2 C0.34 2 -0.32 2 -1 2 C-1 2.66 -1 3.32 -1 4 C-2.98 4 -4.96 4 -7 4 C-7 3.34 -7 2.68 -7 2 C-4.69 1.34 -2.38 0.68 0 0 Z " fill="#727AC5" transform="translate(225,317)"/>
<path d="M0 0 C0.99 0.33 1.98 0.66 3 1 C1.92598892 3.91517292 1.22189824 5.77810176 -1 8 C-1.125 2.25 -1.125 2.25 0 0 Z " fill="#6570BE" transform="translate(108,200)"/>
<path d="M0 0 C1.99097846 2.98646769 2.94124926 5.59687262 4 9 C3.34 9.66 2.68 10.32 2 11 C0.80712589 7.12315913 0 4.08378077 0 0 Z " fill="#6F79C6" transform="translate(230,155)"/>
<path d="M0 0 C0.99 0.33 1.98 0.66 3 1 C0.525 5.455 0.525 5.455 -2 10 C-3.39195915 5.82412255 -1.82323219 3.86525224 0 0 Z " fill="#6870C4" transform="translate(133,160)"/>
<path d="M0 0 C0.66 0.33 1.32 0.66 2 1 C2 2.65 2 4.3 2 6 C1.01 5.67 0.02 5.34 -1 5 C-1.6875 2.9375 -1.6875 2.9375 -2 1 C-1.34 0.67 -0.68 0.34 0 0 Z " fill="#ECF3FC" transform="translate(131,313)"/>
<path d="M0 0 C-0.99 1.32 -1.98 2.64 -3 4 C-4.32 3.34 -5.64 2.68 -7 2 C-7 1.34 -7 0.68 -7 0 C-2.25 -1.125 -2.25 -1.125 0 0 Z " fill="#F4F5F8" transform="translate(120,289)"/>
<path d="M0 0 C0.66 0.99 1.32 1.98 2 3 C0.68 4.65 -0.64 6.3 -2 8 C-2.125 5.125 -2.125 5.125 -2 2 C-1.34 1.34 -0.68 0.68 0 0 Z " fill="#6C73C6" transform="translate(139,151)"/>
<path d="M0 0 C0.99 0.33 1.98 0.66 3 1 C3.33 1.99 3.66 2.98 4 4 C3.01 5.485 3.01 5.485 2 7 C1.34 6.01 0.68 5.02 0 4 C-0.99 4.495 -0.99 4.495 -2 5 C-1.34 3.35 -0.68 1.7 0 0 Z " fill="#EAEEF2" transform="translate(163,116)"/>
</svg>
