<?xml version="1.0" encoding="UTF-8"?>
<svg version="1.1" xmlns="http://www.w3.org/2000/svg" width="225" height="225">
<path d="M0 0 C74.25 0 148.5 0 225 0 C225 74.25 225 148.5 225 225 C150.75 225 76.5 225 0 225 C0 150.75 0 76.5 0 0 Z " fill="#31135C" transform="translate(0,0)"/>
<path d="M0 0 C2.86157227 1.25 2.86157227 1.25 5.81640625 3 C7.44823853 3.95434937 7.44823853 3.95434937 9.11303711 4.92797852 C10.26305794 5.6183195 11.41287542 6.30899935 12.5625 7 C13.74230212 7.696279 14.92272444 8.39150819 16.10375977 9.08569336 C22.89286115 13.08856209 29.62786705 17.17823992 36.30859375 21.359375 C39.98788663 23.60219504 43.75908059 25.65231574 47.5625 27.67578125 C48.366875 28.11277344 49.17125 28.54976562 50 29 C50.91007812 29.40992187 51.82015625 29.81984375 52.7578125 30.2421875 C55 32 55 32 55.8046875 35.14453125 C55.82789063 36.35496094 55.85109375 37.56539062 55.875 38.8125 C55.93429688 40.01519531 55.99359375 41.21789062 56.0546875 42.45703125 C54.43145846 47.90987842 50.80393458 49.32533853 46 52 C44.48623779 52.88594849 44.48623779 52.88594849 42.94189453 53.78979492 C40.11804814 55.43476011 37.28151981 57.05431253 34.43591309 58.66125488 C32.58975615 59.7074727 30.74986294 60.76403258 28.91113281 61.82324219 C23.3155172 65.0387192 17.72239464 68.18369473 11.9453125 71.06640625 C11.05763184 71.52635986 10.16995117 71.98631348 9.25537109 72.46020508 C7.63456336 73.29461623 5.99444967 74.09295296 4.33447266 74.84643555 C2.01880209 76.06492059 0.57998316 76.90495625 -1 79 C-1.64029118 83.07820317 -1.45674771 86.90891563 -1 91 C13.40403715 82.78351437 27.80460742 74.56245234 42.14453125 66.234375 C42.78986816 65.86119141 43.43520508 65.48800781 44.10009766 65.10351562 C45.40041872 64.34825333 46.69680712 63.58619062 47.98974609 62.81835938 C52.78367174 60 52.78367174 60 55 60 C55.8123659 64.5548037 56.09560665 68.4773773 55 73 C51.16711951 76.66802542 46.72683174 78.71536466 42 81 C40.2796807 82.02175033 38.56988706 83.06159505 36.875 84.125 C32.68911485 86.62713968 28.43122616 88.97213787 24.140625 91.2890625 C20.28395492 93.39008426 16.45297672 95.53475325 12.625 97.6875 C11.60768799 98.2585144 11.60768799 98.2585144 10.56982422 98.84106445 C7.72940128 100.44025569 4.91894099 102.050301 2.1484375 103.76953125 C0 105 0 105 -2 105 C-2 109.29 -2 113.58 -2 118 C6.83218759 113.14487933 15.64085808 108.26266873 24.3125 103.125 C31.01229517 99.15653044 37.7440409 95.2471575 44.5 91.375 C45.42723877 90.84148926 46.35447754 90.30797852 47.30981445 89.75830078 C48.16663818 89.2682959 49.02346191 88.77829102 49.90625 88.2734375 C50.67259766 87.83435059 51.43894531 87.39526367 52.22851562 86.94287109 C54 86 54 86 55 86 C55 90.62 55 95.24 55 100 C53.21078125 101.01578125 51.4215625 102.0315625 49.578125 103.078125 C36.65537303 110.42574787 23.78596545 117.83756469 11.07421875 125.546875 C0.38340785 132 0.38340785 132 -2 132 C-2 147.18 -2 162.36 -2 178 C-7 176 -7 176 -14 172 C-14 134.71 -14 97.42 -14 59 C-15.65 58.34 -17.3 57.68 -19 57 C-20.98 56.01 -22.96 55.02 -25 54 C-25 90.63 -25 127.26 -25 165 C-29 163 -33 161 -37 159 C-37.495 103.065 -37.495 103.065 -38 46 C-41.63 44.02 -45.26 42.04 -49 40 C-49 76.63 -49 113.26 -49 151 C-59 146 -59 146 -60 145 C-60.11726457 143.54678371 -60.16621363 142.08798701 -60.18754578 140.63020325 C-60.20337204 139.68670013 -60.2191983 138.74319702 -60.23550415 137.77110291 C-60.24761932 136.727491 -60.2597345 135.68387909 -60.2722168 134.60864258 C-60.28842575 133.51598083 -60.3046347 132.42331909 -60.32133484 131.29754639 C-60.46160867 121.20847502 -60.5411149 111.11847977 -60.60025311 101.02863026 C-60.64481278 93.56977646 -60.72190813 86.11276326 -60.84183758 78.65473253 C-60.93313897 72.77880669 -60.9696927 66.90345305 -60.98771095 61.02689171 C-61.00367724 58.52807391 -61.03697959 56.029305 -61.08786583 53.53095436 C-61.15572341 50.03187753 -61.16086656 46.53793212 -61.15112305 43.03833008 C-61.18550476 42.00483932 -61.21988647 40.97134857 -61.25531006 39.90653992 C-61.20842349 36.95108516 -61.06425285 34.76086713 -60 32 C-57.01071211 29.16882874 -53.91702451 27.27618077 -50 26 C-46.63724938 26.43762975 -44.29200717 27.89579122 -41.4375 29.6875 C-37.04624656 32.43481033 -32.53267518 34.90609341 -27.98120117 37.37426758 C-23.10530159 40.03323206 -18.27178128 42.76630971 -13.4375 45.5 C-12.47392578 46.04269531 -11.51035156 46.58539063 -10.51757812 47.14453125 C-9.08381836 47.95470703 -9.08381836 47.95470703 -7.62109375 48.78125 C-6.68507324 49.3071875 -5.74905273 49.833125 -4.78466797 50.375 C-2.9052213 51.47175583 -1.05478532 52.61957212 0.76513672 53.8125 C1.63541504 54.3796875 2.50569336 54.946875 3.40234375 55.53125 C4.16925537 56.05267578 4.93616699 56.57410156 5.72631836 57.11132812 C8.02593835 58.27567515 8.02593835 58.27567515 10.58032227 57.25585938 C11.37881592 56.84142578 12.17730957 56.42699219 13 56 C14.093125 55.46375 15.18625 54.9275 16.3125 54.375 C17.6428125 53.694375 17.6428125 53.694375 19 53 C12.2338736 48.29702957 5.21437687 44.22211585 -2 40.25 C-13.79386928 33.7039333 -25.43979541 26.94935963 -37 20 C-34.00931675 16.66423791 -31.19168411 14.6253469 -27 13 C-23.28276718 13.42252458 -20.54869484 14.59876215 -17.32421875 16.44921875 C-16.42493652 16.9611377 -15.5256543 17.47305664 -14.59912109 18.00048828 C-13.63828613 18.55720215 -12.67745117 19.11391602 -11.6875 19.6875 C-10.68799316 20.25968262 -9.68848633 20.83186523 -8.65869141 21.42138672 C-5.4337978 23.27185064 -2.21600514 25.13413498 1 27 C2.1029541 27.63921387 3.2059082 28.27842773 4.34228516 28.93701172 C23.74763629 40.19592425 23.74763629 40.19592425 27.62451172 42.68505859 C29.97601287 44.24678422 29.97601287 44.24678422 32.9375 43.9375 C36.47606712 42.85426517 38.97005768 41.09441075 42 39 C41.45287354 38.68885254 40.90574707 38.37770508 40.34204102 38.05712891 C28.89058234 31.54042746 17.47562046 24.96987527 6.13525391 18.26171875 C2.23971115 15.95984761 -1.66185062 13.66820304 -5.5625 11.375 C-7.00132607 10.52868661 -8.4401305 9.68233643 -9.87890625 8.8359375 C-10.90886719 8.23007812 -11.93882813 7.62421875 -13 7 C-10.97856766 0.93570299 -5.93161708 -0.56522177 0 0 Z " fill="#06D773" transform="translate(115,24)"/>
<path d="M0 0 C-0.33 1.98 -0.66 3.96 -1 6 C-3.475 5.01 -3.475 5.01 -6 4 C-2.25 0 -2.25 0 0 0 Z " fill="#1BB67A" transform="translate(84,40)"/>
</svg>
