<svg width="150" height="154" viewBox="0 0 150 154" fill="none" xmlns="http://www.w3.org/2000/svg">
<path d="M0 12C0 5.37259 5.37258 0 12 0H138C144.627 0 150 5.37258 150 12V142C150 148.627 144.627 154 138 154H12C5.37258 154 0 148.627 0 142V12Z" fill="#22314A" fill-opacity="0.7"/>
<g clip-path="url(#clip0_0_120)">
<path d="M97.7109 34.5562H52.2891C41.2218 34.5562 32.25 43.5425 32.25 54.6278V100.124C32.25 111.209 41.2218 120.195 52.2891 120.195H97.7109C108.778 120.195 117.75 111.209 117.75 100.124V54.6278C117.75 43.5425 108.778 34.5562 97.7109 34.5562Z" fill="#242938"/>
<path d="M75.0003 83.7153C78.4417 83.7153 81.2312 80.921 81.2312 77.4743C81.2312 74.0277 78.4417 71.2334 75.0003 71.2334C71.5593 71.2334 68.7695 74.0277 68.7695 77.4743C68.7695 80.921 71.5593 83.7153 75.0003 83.7153Z" fill="#00D8FF"/>
<path d="M75.0007 64.785C83.3663 64.785 91.1378 65.9873 96.9976 68.0082C104.058 70.4426 108.398 74.1327 108.398 77.4743C108.398 80.9564 103.798 84.8768 96.2164 87.3927C90.4845 89.2949 82.9418 90.2877 75.0007 90.2877C66.8588 90.2877 59.1488 89.3557 53.3521 87.3717C46.0185 84.861 41.6016 80.8902 41.6016 77.4743C41.6016 74.1598 45.7463 70.4981 52.7072 68.0674C58.5887 66.0134 66.5519 64.785 74.9993 64.785H75.0007Z" stroke="#00D8FF" stroke-width="8.911"/>
<path d="M63.9722 71.1662C68.1516 63.9076 73.0736 57.765 77.7487 53.6905C83.381 48.7806 88.7414 46.8577 91.6311 48.5267C94.6426 50.2662 95.7351 56.2168 94.1236 64.0521C92.9062 69.9756 89.9959 77.016 86.0285 83.9066C81.9609 90.9712 77.3035 97.1954 72.6922 101.232C66.8571 106.341 61.2158 108.19 58.2617 106.484C55.3951 104.829 54.299 99.403 55.6743 92.1487C56.8363 86.0192 59.7523 78.496 63.9708 71.1662H63.9722Z" stroke="#00D8FF" stroke-width="8.911"/>
<path d="M63.9825 83.925C59.7914 76.6745 56.9378 69.3343 55.7468 63.2425C54.313 55.9027 55.3267 50.291 58.2139 48.617C61.2228 46.8721 66.9149 48.896 72.8872 54.2076C77.4027 58.2233 82.0394 64.2639 86.0181 71.1478C90.0974 78.2056 93.1547 85.3561 94.344 91.3736C95.849 98.9888 94.6309 104.807 91.6795 106.518C88.8159 108.179 83.5754 106.421 77.9875 101.604C73.2663 97.5353 68.2151 91.2478 63.9825 83.925Z" stroke="#00D8FF" stroke-width="8.911"/>
</g>
<defs>
<clipPath id="clip0_0_120">
<rect width="85.5" height="85.639" fill="white" transform="translate(32.25 34.5562)"/>
</clipPath>
</defs>
</svg>
