<?xml version="1.0" encoding="UTF-8"?>
<svg version="1.1" xmlns="http://www.w3.org/2000/svg" width="600" height="600">
<path d="M0 0 C198 0 396 0 600 0 C600 198 600 396 600 600 C402 600 204 600 0 600 C0 402 0 204 0 0 Z " fill="#912626" transform="translate(0,0)"/>
<path d="M0 0 C198 0 396 0 600 0 C600 198 600 396 600 600 C402 600 204 600 0 600 C0 402 0 204 0 0 Z M269.14501953 78.20336914 C266.87336377 79.04703096 264.59323504 79.86480492 262.3125 80.68359375 C253.1219835 84.02345046 244.00486018 87.56117559 234.875 91.0625 C233.85500916 91.45338806 232.83501831 91.84427612 231.78411865 92.24700928 C200.16698288 104.36539273 168.60758481 116.63296565 137.0625 128.9375 C136.20714661 129.27106506 135.35179321 129.60463013 134.47052002 129.94830322 C132.05435622 130.8907818 129.63845306 131.83392492 127.22265625 132.77734375 C126.53316391 133.04629959 125.84367157 133.31525543 125.13328552 133.59236145 C121.47355329 135.02264215 117.82159717 136.4706172 114.17529297 137.93481445 C108.79215722 140.09161023 103.38442564 142.18192542 97.97265625 144.265625 C95.85867065 145.08189321 93.74474016 145.89830413 91.63085938 146.71484375 C88.36079756 147.97745163 85.09043361 149.23924708 81.8190918 150.49853516 C74.53463183 153.3036074 67.26039242 156.13317866 60 159 C59.07016296 159.36617432 58.14032593 159.73234863 57.18231201 160.10961914 C54.59326187 161.13670162 52.01234724 162.18174657 49.43359375 163.234375 C48.3196096 163.67490204 48.3196096 163.67490204 47.18312073 164.12432861 C40.56947627 166.86873221 33.76886169 170.70471181 30 177 C29.52102291 179.72426664 29.52102291 179.72426664 29.54833984 182.74316406 C29.51478897 184.47581512 29.51478897 184.47581512 29.4805603 186.24346924 C29.47408478 187.48828064 29.46760925 188.73309204 29.4609375 190.015625 C29.44858063 191.30055847 29.43622375 192.58549194 29.42349243 193.90936279 C29.40103661 196.62958066 29.39146495 199.3495189 29.38916016 202.06982422 C29.38388968 205.5383019 29.33263774 209.00441945 29.26964378 212.47226334 C29.21867749 215.79921598 29.21813974 219.12579312 29.2109375 222.453125 C29.18421967 223.68983948 29.15750183 224.92655396 29.12997437 226.20074463 C29.18587138 233.33084208 29.9811204 237.4002576 35.14096069 242.48249817 C38.01624174 244.82954067 40.96269418 246.72625097 44.25 248.4375 C44.86101563 248.77458984 45.47203125 249.11167969 46.1015625 249.45898438 C48.70279023 250.87602874 51.18488345 252.06162782 54 253 C53.16597656 253.36351562 52.33195312 253.72703125 51.47265625 254.1015625 C39.30666307 259.15332487 39.30666307 259.15332487 30 268 C29.68207439 270.64530884 29.68207439 270.64530884 29.70947266 273.66137695 C29.69671295 274.82300858 29.68395325 275.9846402 29.67080688 277.18147278 C29.66858124 278.43771957 29.66635559 279.69396637 29.6640625 280.98828125 C29.6574057 282.27937302 29.6507489 283.57046478 29.64389038 284.90068054 C29.63191589 287.63523703 29.62820957 290.36966719 29.62939453 293.10424805 C29.62959741 296.59807315 29.60232966 300.09108198 29.56785011 303.58471394 C29.54017538 306.92758132 29.54143015 310.27030086 29.5390625 313.61328125 C29.52469147 314.86345535 29.51032043 316.11362946 29.49551392 317.40168762 C29.52221341 326.00766627 29.52221341 326.00766627 34 333 C38.72409146 337.08485796 43.86237505 340.54635199 50 342 C50 342.66 50 343.32 50 344 C49.278125 344.10828125 48.55625 344.2165625 47.8125 344.328125 C44.77779848 345.05308147 42.66193245 346.13620345 40 347.75 C39.175 348.23984375 38.35 348.7296875 37.5 349.234375 C36.675 349.81703125 35.85 350.3996875 35 351 C34.13858398 351.58644287 33.27716797 352.17288574 32.38964844 352.77709961 C28.18037623 357.09895628 29.24850185 363.71700551 29.265625 369.33203125 C29.25609802 370.63774582 29.24657104 371.94346039 29.23675537 373.28874207 C29.22038673 376.05026541 29.22304907 378.81098687 29.23828125 381.57250977 C29.25553 385.09379083 29.21849285 388.61207915 29.16601944 392.13292408 C29.12476493 395.51193144 29.13557972 398.89027622 29.140625 402.26953125 C29.12018127 403.52498245 29.09973755 404.78043365 29.07867432 406.07392883 C29.15590264 411.9341882 29.35516627 416.03703643 33.21069336 420.63500977 C41.79891947 428.86955811 53.40715864 433.20385264 64.1875 437.875 C65.67436852 438.5250273 67.16118338 439.17517733 68.64794922 439.82543945 C84.24824717 446.62347094 99.98085897 453.10478295 115.71607971 459.58251953 C126.49153285 464.02103493 137.24490987 468.51242838 148 473 C159.57792507 477.8295049 171.15668689 482.65674703 182.75 487.44921875 C200.00885829 494.58442554 217.24729312 501.76316428 234.4375 509.0625 C235.65481812 509.578694 235.65481812 509.578694 236.89672852 510.10531616 C243.91837927 513.08466902 250.93738258 516.06614797 257.89746094 519.18725586 C258.70216324 519.54802719 259.50686554 519.90879852 260.33595276 520.28050232 C261.85785771 520.96521657 263.37827881 521.6532435 264.89683533 522.34535217 C271.11284862 525.14714002 277.4046371 527.24717833 284 529 C284.63292969 529.19207031 285.26585937 529.38414062 285.91796875 529.58203125 C306.1362097 533.6408526 325.37994763 523.82742795 342.97998047 515.27294922 C369.51985664 502.43674417 396.61989661 490.76748433 423.74609375 479.23535156 C434.67083053 474.58943572 445.58603875 469.92116153 456.5 465.25 C457.69975464 464.73652008 458.89950928 464.22304016 460.13562012 463.69400024 C476.37937544 456.73771817 492.59120282 449.71402272 508.75 442.5625 C510.02049194 442.00024719 510.02049194 442.00024719 511.31665039 441.42663574 C516.07419067 439.31927048 520.82768355 437.20302165 525.57827759 435.08004761 C528.17747115 433.92085084 530.77951866 432.76819555 533.3815918 431.61547852 C535.16984888 430.81937479 536.9580185 430.02307455 538.74609375 429.2265625 C539.56458801 428.86538834 540.38308228 428.50421417 541.22637939 428.13209534 C558.44448868 420.67270769 558.44448868 420.67270769 570 407 C570.32178401 404.28899111 570.32178401 404.28899111 570.30639648 401.30102539 C570.32238388 400.15626236 570.33837128 399.01149933 570.35484314 397.83204651 C570.36020584 396.59969772 570.36556854 395.36734894 570.37109375 394.09765625 C570.38012222 392.8278038 570.3891507 391.55795135 570.39845276 390.24961853 C570.41296172 387.56381035 570.42263872 384.87842775 570.42553711 382.19262695 C570.43092423 378.75797964 570.46862455 375.32450664 570.51428127 371.89019108 C570.55124236 368.60524938 570.55256696 365.32027796 570.55859375 362.03515625 C570.58789223 360.18966942 570.58789223 360.18966942 570.61778259 358.30690002 C570.83360929 351.45962447 570.83360929 351.45962447 567.59399414 345.77978516 C566.73797607 345.19245605 565.88195801 344.60512695 565 344 C564.319375 343.50113281 563.63875 343.00226563 562.9375 342.48828125 C556.4225921 338.3766437 556.4225921 338.3766437 549 337 C549 336.34 549 335.68 549 335 C549.7115625 334.73574219 550.423125 334.47148437 551.15625 334.19921875 C554.12265398 332.94827641 556.75674825 331.49620929 559.5 329.8125 C560.4178125 329.26207031 561.335625 328.71164062 562.28125 328.14453125 C566.60813122 324.73151718 569.56268003 321.67276832 570.46377563 316.1655426 C570.64458026 312.70230803 570.66668913 309.27247589 570.62890625 305.8046875 C570.63252419 303.90627609 570.63252419 303.90627609 570.63621521 301.96951294 C570.6352378 299.30090228 570.62448817 296.63455297 570.59692383 293.96630859 C570.56277106 290.5553141 570.56889195 287.14582195 570.5875864 283.73475456 C570.60072017 280.46631189 570.58243821 277.19809774 570.56640625 273.9296875 C570.57136612 272.70877411 570.57632599 271.48786072 570.58143616 270.22994995 C570.56559982 269.09171783 570.54976349 267.95348572 570.53344727 266.78076172 C570.52724869 265.78261444 570.52105011 264.78446716 570.5146637 263.756073 C569.86130989 260.25730127 568.41153115 258.56809173 566 256 C564.19163245 254.69394639 564.19163245 254.69394639 562.25 253.83203125 C561.5590625 253.49623047 560.868125 253.16042969 560.15625 252.81445312 C559.4446875 252.48380859 558.733125 252.15316406 558 251.8125 C557.2884375 251.47025391 556.576875 251.12800781 555.84375 250.77539062 C554.48674124 250.12346944 553.12748592 249.476196 551.765625 248.83447266 C549.8286004 247.91899283 547.91025619 246.97005197 546 246 C546.9178125 245.50371094 547.835625 245.00742188 548.78125 244.49609375 C560.80343573 237.94264025 560.80343573 237.94264025 570 228 C570.3450989 225.36276298 570.3450989 225.36276298 570.35400391 222.35449219 C570.37967438 221.19608826 570.40534485 220.03768433 570.43179321 218.84417725 C570.44656708 217.5910675 570.46134094 216.33795776 570.4765625 215.046875 C570.49270599 213.75815491 570.50884949 212.46943481 570.52548218 211.1416626 C570.55551117 208.41134166 570.57519731 205.68112424 570.59033203 202.95068359 C570.61242923 199.46510455 570.68118557 195.98209131 570.76067543 192.49741745 C570.82578021 189.15984288 570.83457858 185.82253523 570.8515625 182.484375 C570.90408676 180.61685577 570.90408676 180.61685577 570.95767212 178.71160889 C571.01813894 172.2782631 571.01813894 172.2782631 568.26252747 166.67349243 C566.25523203 164.88547896 564.28476265 163.40993954 562 162 C561.04996094 161.39929688 560.09992187 160.79859375 559.12109375 160.1796875 C554.02056447 157.6999542 548.9655548 155.59203575 543.5546875 153.88671875 C532.75494948 150.38291238 522.2438629 146.10459557 511.6875 141.9375 C509.62448506 141.12660677 507.56133478 140.3160578 505.49804688 139.50585938 C497.41073017 136.32753625 489.32797624 133.13888495 481.26350403 129.90296936 C477.51912517 128.40924134 473.75953257 126.95506386 470 125.5 C464.45816724 123.35069604 458.92581665 121.18256772 453.4140625 118.95703125 C450.47586812 117.79221309 447.51876754 116.68061993 444.5625 115.5625 C440.54698443 114.02921815 436.63424007 112.40147254 432.75 110.5625 C428.43615585 108.56250093 424.05653591 106.91511825 419.5625 105.375 C411.47403075 102.6002201 403.51508534 99.51399656 395.5625 96.375 C393.78564819 95.67383057 393.78564819 95.67383057 391.97290039 94.95849609 C386.96510846 92.9770895 381.96155887 90.98572765 376.96484375 88.9765625 C372.12014822 87.0361259 367.25158713 85.16030051 362.37792969 83.29394531 C360.1427398 82.43773641 357.90898703 81.57776548 355.67675781 80.71386719 C323.66165049 68.34973616 301.18372897 66.23558734 269.14501953 78.20336914 Z " fill="#FEFEFE" transform="translate(0,0)"/>
<path d="M0 0 C2.17431151 0.83637348 4.34878963 1.67231397 6.5234375 2.5078125 C8.13859253 3.12970459 8.13859253 3.12970459 9.78637695 3.76416016 C11.87002758 4.56545465 13.95445492 5.36473348 16.03979492 6.16162109 C22.40637931 8.59796043 28.75320812 11.08080578 35.08984375 13.59375 C35.88959625 13.91077881 36.68934875 14.22780762 37.51333618 14.55444336 C40.81698697 15.86447989 44.12047016 17.17492182 47.42260742 18.48876953 C56.58211823 22.13160271 65.73893895 25.70245571 75.05834961 28.91967773 C77.99305894 29.99745089 80.79794638 31.22999322 83.625 32.5625 C88.3262158 34.77524233 93.08717628 36.3886852 98.03125 37.96875 C101.89558242 39.31109705 105.5218873 41.03905034 109.21875 42.78125 C112.95689442 44.41931328 116.78380471 45.63231305 120.6875 46.8125 C123.56030971 47.84237518 126.23142223 49.0060551 128.99414062 50.29272461 C134.7218191 52.91141006 140.52971202 55.24298667 146.40625 57.50390625 C147.45220337 57.90906967 148.49815674 58.31423309 149.57580566 58.73167419 C151.7701695 59.58100467 153.96512374 60.42881124 156.16064453 61.27514648 C159.49252425 62.55961803 162.82258015 63.84872587 166.15234375 65.13867188 C168.29937433 65.96902111 170.44650639 66.79910803 172.59375 67.62890625 C173.57428345 68.00817764 174.55481689 68.38744904 175.56506348 68.7782135 C181.2432989 70.96584504 186.94121285 73.08332661 192.67202759 75.1295166 C195.53049916 76.19836606 198.20022309 77.47003121 200.875 78.9375 C202.17050781 79.63166016 202.17050781 79.63166016 203.4921875 80.33984375 C209.48402072 84.30640001 209.48402072 84.30640001 211 87 C211.71456815 91.46383099 211.58031011 95.88429106 211.48828125 100.39453125 C211.48120651 101.69702316 211.47413177 102.99951508 211.46684265 104.34147644 C211.44781513 107.79263884 211.39875439 111.24273739 211.34332275 114.69348145 C211.29203649 118.21933604 211.26930883 121.74536373 211.24414062 125.27148438 C211.19062898 132.18142469 211.10536972 139.09066117 211 146 C210.67 146 210.34 146 210 146 C209.67 129.17 209.34 112.34 209 95 C206.36 97.31 203.72 99.62 201 102 C198.44067383 103.68994141 198.44067383 103.68994141 196.20703125 104.8515625 C195.34674316 105.30265381 194.48645508 105.75374512 193.60009766 106.21850586 C192.68019043 106.68264893 191.7602832 107.14679199 190.8125 107.625 C189.30502197 108.39565796 189.30502197 108.39565796 187.76708984 109.18188477 C165.58617157 120.37410679 142.53552582 129.8107809 119.70019531 139.56713867 C98.53337446 148.61168832 77.41657379 157.76989013 56.30961609 166.95314026 C50.43185568 169.50999577 44.55161326 172.0609586 38.66778564 174.6038208 C19.43884352 182.91467645 0.33857322 191.42718335 -18.59570312 200.39111328 C-22.41427504 202.19578833 -26.23689993 203.99153135 -30.0625 205.78125 C-31.00095764 206.22158066 -31.00095764 206.22158066 -31.95837402 206.67080688 C-38.64956688 209.79725299 -44.60680986 212.09471141 -52 213 C-52.33 213.33 -52.66 213.66 -53 214 C-55.69956731 214.12826673 -58.36230563 214.18522902 -61.0625 214.1875 C-61.80177734 214.19974609 -62.54105469 214.21199219 -63.30273438 214.22460938 C-68.44810059 214.23811427 -73.0741996 213.51537913 -78 212 C-78.86931152 211.74009277 -79.73862305 211.48018555 -80.63427734 211.21240234 C-88.36990684 208.77372993 -95.71131206 205.59920871 -103.08743286 202.2612915 C-116.64428794 196.13642593 -130.31107198 190.29789445 -144.0625 184.625 C-144.90826599 184.2759964 -145.75403198 183.9269928 -146.62542725 183.56741333 C-150.9609365 181.77931526 -155.29761093 179.99406353 -159.63476562 178.20996094 C-167.97273894 174.77823149 -176.29966968 171.3198306 -184.62765503 167.86395264 C-187.23536513 166.78200356 -189.84333636 165.7006868 -192.45141602 164.61962891 C-199.8117338 161.56864372 -207.17097531 158.51519309 -214.5246582 155.44824219 C-218.32856077 153.86308237 -222.13362211 152.28072342 -225.93876648 150.69854736 C-230.04599224 148.99052538 -234.15277223 147.28143295 -238.25952148 145.57226562 C-240.36189843 144.69752693 -242.46443504 143.82317186 -244.56713867 142.94921875 C-256.49131418 137.99274489 -268.39994155 133.00558518 -280.25572205 127.88726807 C-284.47995823 126.06589488 -288.71285897 124.29498863 -293 122.625 C-298.78113649 120.22876082 -304.31935554 117.3717445 -309.875 114.5 C-310.77992188 114.03674316 -311.68484375 113.57348633 -312.6171875 113.09619141 C-324.5943499 106.8113002 -324.5943499 106.8113002 -327 102 C-327.33 119.16 -327.66 136.32 -328 154 C-328.33 154 -328.66 154 -329 154 C-329.13941124 146.42853682 -329.2458279 138.85720775 -329.31087303 131.28475094 C-329.34210265 127.76790262 -329.38441594 124.2519364 -329.45263672 120.7355957 C-329.53068789 116.68692879 -329.55948633 112.63917903 -329.5859375 108.58984375 C-329.61690521 107.33541977 -329.64787292 106.08099579 -329.67977905 104.78855896 C-329.68352927 95.01802828 -329.68352927 95.01802828 -326.33544922 90.86157227 C-323.51922758 88.19062182 -320.56033688 86.29607718 -317.046875 84.625 C-316.16379669 84.20420166 -316.16379669 84.20420166 -315.26287842 83.77490234 C-305.79893453 79.37742389 -295.98340805 75.7465149 -286.25 72 C-284.24975827 71.22458161 -282.24975687 70.44854297 -280.25 69.671875 C-276.34190768 68.15517253 -272.43241397 66.64218352 -268.52148438 65.1328125 C-263.46401997 63.18063915 -258.41092083 61.21742921 -253.359375 59.25 C-248.46784353 57.34537012 -243.57341724 55.44908053 -238.671875 53.5703125 C-230.48601298 50.42720703 -222.32625708 47.21746715 -214.16281128 44.01672363 C-182.39620925 31.56528865 -150.62002278 19.13177256 -118.72317505 7.01696777 C-117.19440602 6.43625608 -115.66596634 5.85467638 -114.13790894 5.27209473 C-105.54722076 1.99975248 -96.92761559 -1.08650335 -88.18164062 -3.92016602 C-85.42671559 -4.85517472 -82.78602417 -5.8919139 -80.125 -7.0625 C-51.73004153 -18.58032256 -27.34988169 -10.5899129 0 0 Z " fill="#C6312C" transform="translate(359,82)"/>
<path d="M0 0 C0.33 0 0.66 0 1 0 C1.15243235 7.56199242 1.25733476 15.12358709 1.32958984 22.68676758 C1.35971821 25.25820725 1.40062942 27.82954454 1.45263672 30.40063477 C1.52561903 34.10198253 1.55949789 37.80196896 1.5859375 41.50390625 C1.61690521 42.64896133 1.64787292 43.79401642 1.67977905 44.97377014 C1.68199436 50.25602061 1.63503689 53.97134522 -1.83666992 58.13500977 C-4.7811894 61.05295764 -8.08978695 63.33495874 -11.6875 65.375 C-12.65743896 65.93888428 -12.65743896 65.93888428 -13.64697266 66.51416016 C-29.72076943 75.66925228 -47.06034829 82.64280796 -64 90 C-65.27653519 90.55500097 -66.55306501 91.11001428 -67.82958984 91.66503906 C-83.41027612 98.4361806 -99.01335481 105.15473653 -114.6328125 111.8359375 C-177.03153735 138.36599516 -177.03153735 138.36599516 -238.51098633 166.94458008 C-257.39047538 176.09550794 -274.99469786 177.10645805 -295 171 C-299.60522482 169.35725334 -304.03522164 167.32907652 -308.46270752 165.26211548 C-312.12308164 163.55595499 -315.8093467 161.90695622 -319.4921875 160.25 C-320.26597748 159.90048782 -321.03976746 159.55097565 -321.83700562 159.19087219 C-330.68772478 155.20879535 -339.65063073 151.50525459 -348.625 147.8125 C-350.34053081 147.10531198 -352.05602522 146.39803565 -353.77148438 145.69067383 C-356.41945115 144.59909195 -359.06753858 143.50780765 -361.71600342 142.41743469 C-372.49158071 137.9791746 -383.24486697 133.48751285 -394 129 C-407.4191507 123.40281838 -420.8433503 117.81828145 -434.27856445 112.25976562 C-490.85726372 88.85092052 -490.85726372 88.85092052 -512 79 C-512.73508789 78.66307129 -513.47017578 78.32614258 -514.22753906 77.97900391 C-516.38962107 76.98269443 -518.53969546 75.96417134 -520.6875 74.9375 C-521.29924072 74.65729004 -521.91098145 74.37708008 -522.54125977 74.08837891 C-528.08936321 71.37016528 -533.19426432 67.90874304 -537 63 C-538.19654659 58.69692906 -538.05638886 54.62639308 -537.87890625 50.1875 C-537.86617172 48.97803711 -537.85343719 47.76857422 -537.84031677 46.52246094 C-537.79014695 42.67955529 -537.67726756 38.84146501 -537.5625 35 C-537.51733296 32.38678721 -537.47627231 29.77349999 -537.43945312 27.16015625 C-537.34050825 20.77180933 -537.19013308 14.38624866 -537 8 C-536.53203003 8.40887955 -536.06406006 8.81775909 -535.58190918 9.23902893 C-534.65094421 10.04605507 -534.65094421 10.04605507 -533.70117188 10.86938477 C-532.78265442 11.66832909 -532.78265442 11.66832909 -531.84558105 12.4834137 C-518.67114879 23.30936116 -500.5436781 29.27513163 -485 35.7734375 C-484.13874008 36.13381104 -483.27748016 36.49418457 -482.39012146 36.86547852 C-479.59353064 38.03559731 -476.79677128 39.20531261 -474 40.375 C-470.11581229 41.99982526 -466.23170983 43.62485416 -462.34765625 45.25 C-461.38150894 45.65423187 -460.41536163 46.05846375 -459.41993713 46.47494507 C-453.48530417 48.95846046 -447.55230394 51.44582194 -441.62109375 53.9375 C-440.91232086 54.23516266 -440.20354797 54.53282532 -439.47329712 54.83950806 C-436.2220128 56.20499883 -432.97105977 57.57126737 -429.72070312 58.93896484 C-428.57408203 59.42059082 -427.42746094 59.9022168 -426.24609375 60.3984375 C-425.27341553 60.80755371 -424.3007373 61.21666992 -423.29858398 61.63818359 C-420.59890422 62.75274312 -417.89263848 63.84410432 -415.17944336 64.92504883 C-410.39287609 66.8348944 -405.63395718 68.80469948 -400.8828125 70.80078125 C-400.04046555 71.15381821 -399.19811859 71.50685516 -398.33024597 71.87059021 C-395.59484878 73.01714338 -392.85990708 74.16477829 -390.125 75.3125 C-386.24631369 76.939327 -382.36738369 78.56557174 -378.48828125 80.19140625 C-377.02931679 80.80295059 -377.02931679 80.80295059 -375.5408783 81.42684937 C-369.46333858 83.97273362 -363.38077498 86.50611529 -357.29296875 89.02734375 C-354.29933161 90.26787347 -351.30583052 91.50873059 -348.3125 92.75 C-347.58562988 93.05134857 -346.85875977 93.35269714 -346.10986328 93.66317749 C-338.089197 96.99242849 -330.09421106 100.37145028 -322.14453125 103.8671875 C-321.42282242 104.18449829 -320.70111359 104.50180908 -319.95753479 104.82873535 C-316.55907686 106.3255317 -313.16431714 107.83006501 -309.7746582 109.34667969 C-292.8886109 117.19009953 -292.8886109 117.19009953 -274.73046875 120.1328125 C-273.61575195 120.13474609 -273.61575195 120.13474609 -272.47851562 120.13671875 C-271.72248047 120.13285156 -270.96644531 120.12898438 -270.1875 120.125 C-269.41212891 120.12886719 -268.63675781 120.13273437 -267.83789062 120.13671875 C-264.11634948 120.48600448 -264.11634948 120.48600448 -261 119 C-259.80375 118.773125 -258.6075 118.54625 -257.375 118.3125 C-245.0075872 115.59629252 -233.59933317 109.42905655 -222.28662109 103.94116211 C-199.27536754 92.80717502 -175.80812921 82.70319092 -152.29449463 72.68719482 C-145.51747002 69.79866146 -138.75685006 66.87290357 -132 63.9375 C-122.69223958 59.89427511 -113.37713942 55.86862834 -104.0546875 51.859375 C-59.90305066 33.38752521 -59.90305066 33.38752521 -16.6875 12.875 C-15.88135254 12.46161377 -15.07520508 12.04822754 -14.24462891 11.62231445 C-9.04749834 8.84645803 -2.72259969 5.44519938 0 0 Z " fill="#912626" transform="translate(568,175)"/>
<path d="M0 0 C0.33 0 0.66 0 1 0 C1.12690954 7.58038432 1.21439808 15.16049408 1.2746582 22.74169922 C1.2997824 25.31992837 1.33388759 27.89808643 1.37719727 30.47607422 C1.43793664 34.18474886 1.46623197 37.89248075 1.48828125 41.6015625 C1.51408768 42.75177887 1.5398941 43.90199524 1.56648254 45.08706665 C1.56960657 54.02652189 1.56960657 54.02652189 -1.38476562 57.66015625 C-7.61681043 63.23595138 -14.87236852 67.03584849 -22.328125 70.74609375 C-23.02333755 71.09243362 -23.71855011 71.4387735 -24.43482971 71.79560852 C-32.18059246 75.62439323 -40.04356317 79.17699515 -47.9375 82.6875 C-48.73058563 83.04149872 -49.52367126 83.39549744 -50.34078979 83.76022339 C-69.85306127 92.46506431 -89.50869252 100.83655214 -109.15979004 109.2217865 C-122.38393041 114.86706538 -135.5774273 120.58297675 -148.76954651 126.30258179 C-153.43789547 128.32584881 -158.11042335 130.33919012 -162.78515625 132.34765625 C-187.02322213 142.77075233 -211.16648127 153.45241278 -234.82348633 165.14477539 C-253.12035356 174.09733675 -272.05278409 178.72164029 -292 172 C-297.55243612 169.9568958 -302.91638451 167.4958525 -308.30004883 165.04931641 C-320.17811459 159.65472277 -332.14242411 154.50905102 -344.1875 149.5 C-346.05615213 148.72049076 -347.92472121 147.94078242 -349.79321289 147.16088867 C-365.06134254 140.79191417 -380.34384094 134.45738856 -395.62797546 128.12693787 C-409.40040601 122.42248642 -423.16383635 116.69663425 -436.92022705 110.95361328 C-441.04909762 109.23015905 -445.17892806 107.50904637 -449.31005859 105.79101562 C-486.39000699 90.36988008 -486.39000699 90.36988008 -502.4375 83.25 C-503.4591626 82.79729736 -504.4808252 82.34459473 -505.53344727 81.87817383 C-531.90365263 70.05720038 -531.90365263 70.05720038 -537 62 C-537.36076355 59.46893311 -537.36076355 59.46893311 -537.34057617 56.58886719 C-537.34034958 55.50804871 -537.34012299 54.42723022 -537.33988953 53.31365967 C-537.32440567 52.15312073 -537.30892181 50.99258179 -537.29296875 49.796875 C-537.28872391 48.60394836 -537.28447906 47.41102173 -537.28010559 46.1819458 C-537.26331023 42.37106781 -537.22565518 38.56071822 -537.1875 34.75 C-537.17245433 32.1666743 -537.15876572 29.58334032 -537.14648438 27 C-537.11340381 20.66648632 -537.06319524 14.33328091 -537 8 C-536.56987106 8.38739853 -536.13974213 8.77479706 -535.69657898 9.17393494 C-525.49080435 18.17303759 -513.06543934 23.58440058 -500.6875 28.9375 C-499.20971987 29.58290992 -497.73202046 30.22850471 -496.25439453 30.87426758 C-480.68552942 37.65294748 -464.98539877 44.11868678 -449.28395081 50.58250427 C-439.52761463 54.60124501 -429.78956577 58.66365405 -420.05163574 62.72674561 C-404.61977151 69.16548555 -389.18105003 75.58726669 -373.73141479 81.98324585 C-350.11746887 91.76121718 -350.11746887 91.76121718 -338.4375 96.6875 C-336.94718262 97.31519287 -336.94718262 97.31519287 -335.42675781 97.95556641 C-330.25674642 100.14725625 -325.11163318 102.38732783 -319.98970032 104.68876648 C-317.1502321 105.96449745 -314.30701181 107.23178002 -311.46414185 108.49990845 C-309.45765639 109.40040442 -307.45822073 110.31528444 -305.45874023 111.23120117 C-284.02683551 120.895642 -265.76644087 122.05695117 -243.58178711 113.73339844 C-237.96499873 111.52211534 -232.61952504 108.87490233 -227.25 106.125 C-192.90790219 88.55858511 -156.71080319 74.27619844 -121.26171875 59.125 C-99.24046811 49.711594 -77.22524094 40.28895092 -55.3125 30.625 C-54.46895966 30.25407227 -53.62541931 29.88314453 -52.75631714 29.50097656 C-43.34544774 25.35884029 -33.99553478 21.10120365 -24.703125 16.69921875 C-23.83097855 16.28753448 -22.95883209 15.87585022 -22.06025696 15.45169067 C-13.55684375 11.39417714 -5.86889392 7.56406678 0 0 Z " fill="#912626" transform="translate(568,355)"/>
<path d="M0 0 C1.0415625 0.68449219 2.083125 1.36898437 3.15625 2.07421875 C4.0946875 2.62464844 5.033125 3.17507812 6 3.7421875 C9.57264381 5.94117238 11.80746544 7.55104192 14.15625 11.07421875 C14.39675903 13.6368866 14.39675903 13.6368866 14.38330078 16.73901367 C14.38314972 17.89999069 14.38299866 19.06096771 14.38284302 20.25712585 C14.37252045 21.5103212 14.36219788 22.76351654 14.3515625 24.0546875 C14.34731766 25.97937614 14.34731766 25.97937614 14.34298706 27.94294739 C14.33535797 31.35098077 14.31571587 34.75884316 14.2935791 38.16680908 C14.27310497 41.64568773 14.263982 45.12459407 14.25390625 48.60351562 C14.23246918 55.42715349 14.19834205 62.25067791 14.15625 69.07421875 C13.82625 69.07421875 13.49625 69.07421875 13.15625 69.07421875 C12.82625 52.24421875 12.49625 35.41421875 12.15625 18.07421875 C9.68125 20.54921875 9.68125 20.54921875 7.15625 23.07421875 C0.46571689 28.32651592 -7.21221097 31.97349072 -14.84375 35.63671875 C-15.48924805 35.94869202 -16.13474609 36.26066528 -16.79980469 36.58209229 C-35.15892614 45.42649998 -53.98027122 53.24504945 -72.73651123 61.19869995 C-82.55038847 65.36409004 -92.32662028 69.61309272 -102.09375 73.88671875 C-105.24591787 75.26472555 -108.39830481 76.64223054 -111.55078125 78.01953125 C-112.31793961 78.3547731 -113.08509796 78.69001495 -113.87550354 79.03541565 C-121.7220704 82.46206229 -129.58173673 85.85822279 -137.44259644 89.25192261 C-181.11995601 107.79560722 -181.11995601 107.79560722 -223.96875 128.13671875 C-228.5437513 130.45794177 -232.97651683 132.45180769 -237.84375 134.07421875 C-238.51535156 134.35136719 -239.18695313 134.62851562 -239.87890625 134.9140625 C-261.41120294 142.92865664 -283.13795518 133.3958375 -302.56445312 124.55175781 C-307.62446856 122.27188785 -312.72922752 120.10345334 -317.84375 117.94921875 C-318.89643066 117.50505615 -319.94911133 117.06089355 -321.03369141 116.60327148 C-332.73998604 111.67765818 -344.47645247 106.82427027 -356.2109375 101.96630859 C-370.78281704 95.9333225 -385.34272604 89.87191349 -399.89840698 83.79995728 C-410.49219726 79.38080307 -421.08804956 74.96713215 -431.69921875 70.58984375 C-447.67978723 63.99590227 -463.64417117 57.36871808 -479.52456665 50.53625488 C-481.07372808 49.86984729 -482.62348203 49.20481483 -484.17391968 48.54138184 C-489.08728329 46.43638617 -493.97806332 44.28728554 -498.84375 42.07421875 C-499.54973328 41.75382629 -500.25571655 41.43343384 -500.98309326 41.10333252 C-503.11188084 40.12496041 -505.22705459 39.12177427 -507.33984375 38.109375 C-508.27365623 37.68065346 -508.27365623 37.68065346 -509.22633362 37.24327087 C-515.28502196 34.27242616 -518.37379735 30.93639888 -523.84375 26.07421875 C-524.17375 42.90421875 -524.50375 59.73421875 -524.84375 77.07421875 C-525.17375 77.07421875 -525.50375 77.07421875 -525.84375 77.07421875 C-525.93654724 69.46805386 -526.0075641 61.86194788 -526.05099869 54.25534534 C-526.07184843 50.72300493 -526.10011679 47.19105262 -526.14550781 43.65893555 C-526.19739825 39.59550308 -526.21671666 35.53247647 -526.234375 31.46875 C-526.26534271 29.57163017 -526.26534271 29.57163017 -526.29693604 27.63618469 C-526.29723816 26.45533798 -526.29754028 25.27449127 -526.29785156 24.05786133 C-526.30673401 23.02083572 -526.31561646 21.98381012 -526.32476807 20.9153595 C-525.71698137 17.32545786 -524.32893301 15.68531908 -521.84375 13.07421875 C-519.43359375 11.4140625 -519.43359375 11.4140625 -516.78125 10.01171875 C-515.92402344 9.54636719 -515.06679688 9.08101563 -514.18359375 8.6015625 C-513.08144531 8.09753906 -511.97929687 7.59351563 -510.84375 7.07421875 C-510.02938477 6.67130615 -509.21501953 6.26839355 -508.37597656 5.85327148 C-501.44495586 2.79025872 -501.44495586 2.79025872 -497.36987305 3.51293945 C-494.70290178 4.59708071 -492.24084848 5.87306604 -489.71875 7.26171875 C-487.61116891 8.32129375 -485.49879219 9.37136063 -483.3828125 10.4140625 C-482.20235352 11.0004248 -481.02189453 11.58678711 -479.80566406 12.19091797 C-472.06812256 15.93580153 -464.04576037 19.06958723 -456.09375 22.32421875 C-454.30822196 23.05898119 -452.5229041 23.79425457 -450.73779297 24.5300293 C-447.16112902 26.00402071 -443.58372413 27.47619166 -440.00585938 28.94726562 C-433.00505096 31.82857068 -426.01827951 34.74335646 -419.03231812 37.66043091 C-407.3354352 42.54420369 -395.63070435 47.40879306 -383.91967773 52.25854492 C-368.78061168 58.52792434 -353.64494022 64.80565212 -338.52340698 71.11721802 C-336.70162842 71.87757817 -334.87962867 72.63740861 -333.05740356 73.396698 C-323.86790002 77.22834802 -314.70345097 81.09965592 -305.62109375 85.1796875 C-304.89858932 85.50271347 -304.1760849 85.82573944 -303.4316864 86.15855408 C-300.12076232 87.6399679 -296.81741155 89.13423935 -293.52709961 90.66088867 C-287.10988923 93.55282166 -280.8012119 95.79839926 -273.96875 97.4296875 C-273.28364349 97.59342865 -272.59853699 97.7571698 -271.89266968 97.9258728 C-260.77751628 100.38258817 -249.54733183 100.05024645 -238.84375 96.07421875 C-237.71066406 95.6565625 -236.57757813 95.23890625 -235.41015625 94.80859375 C-226.1690922 91.2438793 -217.30004073 86.91842164 -208.40625 82.57421875 C-180.2025244 68.80645779 -151.20455442 56.76592565 -122.35546875 44.4296875 C-98.35888392 34.16776367 -74.39453517 23.82872628 -50.47631836 13.38534546 C-48.50791355 12.52876142 -46.53654939 11.67934382 -44.56445312 10.83129883 C-38.77712294 8.33021833 -33.09235885 5.735722 -27.51953125 2.78125 C-10.48972966 -6.11204368 -10.48972966 -6.11204368 0 0 Z " fill="#C5302B" transform="translate(555.84375,249.92578125)"/>
<path d="M0 0 C0.33 0.66 0.66 1.32 1 2 C2.66219749 2.35494842 4.32986979 2.68447824 6 3 C19.29376855 8.58753709 19.29376855 8.58753709 22 14 C22.09101612 15.8485708 22.11753146 17.70046379 22.11352539 19.55126953 C22.11344986 20.71232208 22.11337433 21.87337463 22.11329651 23.0696106 C22.10813522 24.32796722 22.10297394 25.58632385 22.09765625 26.8828125 C22.0962413 28.16735321 22.09482635 29.45189392 22.09336853 30.77536011 C22.08954911 34.19156842 22.07972373 37.60773426 22.06866455 41.02392578 C22.05843807 44.50943426 22.05386826 47.9949496 22.04882812 51.48046875 C22.03810096 58.32032995 22.02103142 65.16016294 22 72 C21.67 72 21.34 72 21 72 C20.67 55.5 20.34 39 20 22 C16.04 25.465 16.04 25.465 12 29 C9.09128655 30.78891407 6.28105008 32.39870629 3.25 33.9375 C2.35700195 34.39656738 1.46400391 34.85563477 0.54394531 35.32861328 C-23.91569462 47.66368824 -49.45825914 57.9556537 -74.63500977 68.71044922 C-95.86735454 77.7816576 -117.04423076 86.97916874 -138.21762085 96.18696594 C-144.1476392 98.76458047 -150.08198184 101.33167701 -156.0234375 103.8828125 C-174.38997369 111.77405443 -192.56507704 120.02329516 -210.5859375 128.67578125 C-232.19661121 139.05179431 -250.26183018 144.69477056 -274 137 C-279.6653225 134.88143516 -285.1651711 132.37368684 -290.66610718 129.86502075 C-295.17230724 127.81147424 -299.69916196 125.80414896 -304.22265625 123.7890625 C-305.59421623 123.17596977 -305.59421623 123.17596977 -306.9934845 122.55049133 C-315.50335052 118.7536082 -324.07732693 115.12503592 -332.6875 111.5625 C-333.40719971 111.26422302 -334.12689941 110.96594604 -334.8684082 110.65863037 C-339.42280448 108.77181266 -343.98003294 106.89192363 -348.53826904 105.0144043 C-352.95494355 103.19442735 -357.36993872 101.37038299 -361.78515625 99.546875 C-363.67585933 98.76610529 -365.56656575 97.98534367 -367.45727539 97.20458984 C-368.88573288 96.61469269 -368.88573288 96.61469269 -370.3430481 96.01287842 C-372.28318031 95.21173244 -374.22334558 94.41066653 -376.1635437 93.60968018 C-406.8111737 80.95709146 -437.44768904 68.27935304 -467.9375 55.25 C-468.78856323 54.88736053 -469.63962646 54.52472107 -470.51647949 54.15109253 C-479.1576911 50.46585751 -487.76322505 46.71217032 -496.28515625 42.7578125 C-496.96827377 42.44467102 -497.6513913 42.13152954 -498.35520935 41.80889893 C-513.04755815 34.9048837 -513.04755815 34.9048837 -516 29 C-516.33 46.16 -516.66 63.32 -517 81 C-517.33 81 -517.66 81 -518 81 C-518.20925061 73.3157735 -518.36880294 65.63184492 -518.46630955 57.94541168 C-518.51313042 54.37533908 -518.57653707 50.80722597 -518.67895508 47.23828125 C-518.77732092 43.78864057 -518.83067107 40.34087394 -518.85389519 36.88993835 C-518.87842899 34.94410262 -518.94860303 32.99901363 -519.01966858 31.05432129 C-519.02458593 22.36919273 -519.02458593 22.36919273 -516.09030151 18.44799805 C-511.21165063 14.00317101 -504.82412749 9 -498 9 C-497.67 8.34 -497.34 7.68 -497 7 C-496.23083252 7.40234863 -495.46166504 7.80469727 -494.66918945 8.21923828 C-484.06556425 13.65285647 -473.17670951 18.28296519 -462.1875 22.875 C-460.19290734 23.71242659 -458.19844351 24.55016009 -456.20410156 25.38818359 C-437.34376171 33.30525418 -418.44724355 41.13547142 -399.54364014 48.94854736 C-373.01152886 59.91600222 -346.5108532 70.9535063 -320.06506348 82.12762451 C-318.09922554 82.95808268 -316.13316358 83.78800745 -314.16699219 84.61767578 C-311.83865663 85.6002499 -309.51052056 86.58329691 -307.18261719 87.56689453 C-305.05888806 88.46387131 -302.93456163 89.35943551 -300.80957031 90.25341797 C-295.94004596 92.30718277 -291.09198933 94.39549223 -286.2734375 96.56640625 C-265.33497861 105.94580229 -247.22998861 108.8607484 -225.3671875 100.6328125 C-215.59820274 96.56612145 -206.15263661 91.7006145 -196.63354492 87.09179688 C-161.68177927 70.22787296 -125.63665311 55.54061092 -89.96728516 40.2734375 C-44.46162066 21.25793733 -44.46162066 21.25793733 0 0 Z " fill="#C5302B" transform="translate(548,335)"/>
<path d="M0 0 C0.75846222 -0.0061734 1.51692444 -0.0123468 2.29837036 -0.01870728 C13.13499225 -0.07537452 23.16118941 1.09623567 33.75 3.4375 C34.50982178 3.59017334 35.26964355 3.74284668 36.05249023 3.90014648 C45.93130586 6.06117739 55.11622467 9.77904732 62.75 16.4375 C63.575 17.015 64.4 17.5925 65.25 18.1875 C67.38743405 21.39365107 67.49335723 24.03650248 67.30859375 27.84375 C66.26673723 32.68146141 63.56899775 35.43916674 59.75 38.4375 C34.45634828 54.15959718 -3.34342391 55.79716065 -31.97949219 49.20825195 C-44.15752493 46.07266301 -58.26459012 41.70429012 -65.25 30.4375 C-66.19077476 26.25441225 -65.62010124 23.26181639 -63.875 19.375 C-56.90481127 11.5750269 -48.13244708 7.43845252 -38.25 4.4375 C-37.60498535 4.23995117 -36.9599707 4.04240234 -36.29541016 3.83886719 C-24.34321896 0.37207924 -12.34987428 0.04264755 0 0 Z " fill="#FEFCFC" transform="translate(185.25,150.5625)"/>
<path d="M0 0 C0.60746567 0.24077271 1.21493134 0.48154541 1.84080505 0.72961426 C3.82702897 1.51894594 5.80871805 2.31904135 7.79052734 3.11938477 C9.18075207 3.67434237 10.5712496 4.22861701 11.96200562 4.78224182 C15.60911156 6.2361754 19.25245949 7.69930178 22.89508057 9.16442871 C26.59758004 10.65174804 30.30357104 12.1303123 34.00927734 13.60961914 C40.52747234 16.2130244 47.04259637 18.82398211 53.55557251 21.44041443 C56.20332677 22.50357838 58.85203183 23.56431868 61.50146484 24.62329102 C60.12816163 27.36989743 58.73977936 27.50661868 55.89672852 28.60693359 C54.42335274 29.18312187 54.42335274 29.18312187 52.92021179 29.77095032 C51.84745499 30.18241806 50.77469818 30.5938858 49.66943359 31.01782227 C48.0162487 31.66167122 48.0162487 31.66167122 46.32966614 32.31852722 C42.78527199 33.69750642 39.23728545 35.06695062 35.68896484 36.43579102 C32.18067477 37.79579363 28.67315858 39.15776563 25.16609192 40.5209198 C22.98197898 41.36913234 20.79704155 42.21522616 18.61112976 43.05879211 C12.39152928 45.46597506 6.21730904 47.96229926 0.0692749 50.54698181 C-3.08307154 51.86830209 -6.24985185 53.13578224 -9.43603516 54.37329102 C-10.47630859 54.78063477 -11.51658203 55.18797852 -12.58837891 55.60766602 C-17.9486333 57.47835882 -20.77419169 57.89235178 -26.10791016 55.65844727 C-27.23632324 55.19535156 -28.36473633 54.73225586 -29.52734375 54.25512695 C-30.43404816 53.87269836 -30.43404816 53.87269836 -31.35906982 53.48254395 C-33.95427956 52.38819152 -36.56080562 51.32215858 -39.16720581 50.25479126 C-40.59233798 49.67115429 -42.01690336 49.08613172 -43.44094849 48.49984741 C-53.19939274 44.49191731 -63.0410534 40.69490265 -72.87353516 36.87329102 C-74.72874212 36.15087979 -76.58388671 35.42830837 -78.43896484 34.70556641 C-82.79158772 33.01001367 -87.1448585 31.31613603 -91.49853516 29.62329102 C-91.49853516 28.96329102 -91.49853516 28.30329102 -91.49853516 27.62329102 C-90.37922607 27.18162598 -89.25991699 26.73996094 -88.10668945 26.28491211 C-84.73148516 24.95295224 -81.35664435 23.620075 -77.98193359 22.28686523 C-74.096844 20.75214478 -70.21063182 19.22031114 -66.32373047 17.69018555 C-56.88751259 13.97096405 -47.46841614 10.21998483 -38.09619141 6.34204102 C-35.73000472 5.36973324 -33.36340944 4.39842604 -30.99673462 3.42730713 C-29.50644529 2.81147974 -28.01857935 2.18975248 -26.53329468 1.56195068 C-24.47014602 0.69013842 -22.3996599 -0.16145791 -20.32666016 -1.00952148 C-19.17069336 -1.49308105 -18.01472656 -1.97664062 -16.82373047 -2.47485352 C-10.81593762 -4.10427986 -5.6323294 -2.25522969 0 0 Z " fill="#9A2827" transform="translate(431.49853515625,147.376708984375)"/>
<path d="M0 0 C-2.70973939 4.8775309 -5.61657042 9.49204104 -8.8125 14.0625 C-9.78173563 15.46060096 -10.7504554 16.85905963 -11.71875 18.2578125 C-12.24082031 19.01094727 -12.76289063 19.76408203 -13.30078125 20.54003906 C-16.49126532 25.15890652 -19.65072574 29.79895487 -22.8125 34.4375 C-23.43423096 35.34830322 -24.05596191 36.25910645 -24.6965332 37.19750977 C-28.49966986 42.77513793 -32.26781723 48.37464366 -36 54 C-40.6535339 53.30795059 -44.7832985 51.56508288 -49.0859375 49.74609375 C-50.28314926 49.2468187 -50.28314926 49.2468187 -51.50454712 48.73745728 C-54.12983187 47.64172385 -56.75243274 46.53971992 -59.375 45.4375 C-63.06949604 43.89127299 -66.76517035 42.34787344 -70.4609375 40.8046875 C-71.8796817 40.21153496 -71.8796817 40.21153496 -73.3270874 39.60639954 C-79.98647419 36.8265628 -86.66330223 34.09236868 -93.3515625 31.3828125 C-95.15836978 30.64917951 -96.96517323 29.9155371 -98.77197266 29.18188477 C-101.37812738 28.12405772 -103.98508707 27.06849271 -106.59490967 26.01974487 C-109.00321961 25.05163487 -111.40812064 24.07547853 -113.8125 23.09765625 C-114.53031647 22.81193756 -115.24813293 22.52621887 -115.98770142 22.23184204 C-120.88628876 20.22742248 -120.88628876 20.22742248 -122 18 C-119.69458266 16.84729133 -117.89603345 16.65637044 -115.3359375 16.3515625 C-113.9128125 16.17657227 -113.9128125 16.17657227 -112.4609375 15.99804688 C-111.44257813 15.87494141 -110.42421875 15.75183594 -109.375 15.625 C-102.53548318 14.7700604 -95.76065348 13.84646139 -89 12.5 C-82.52507367 11.21571709 -76.04976951 10.31566576 -69.5 9.5 C-61.44242261 8.49527024 -53.50498523 7.24919771 -45.5390625 5.68359375 C-41.24837196 4.85481798 -36.94771041 4.17666229 -32.625 3.5390625 C-29.76722143 3.11409112 -26.91508031 2.66869223 -24.0625 2.2109375 C-22.29168241 1.93219166 -20.52084906 1.6535459 -18.75 1.375 C-17.92209961 1.23964844 -17.09419922 1.10429687 -16.24121094 0.96484375 C-10.76257718 0.11557891 -5.5445645 -0.1224703 0 0 Z " fill="#FDFAFA" transform="translate(343,204)"/>
<path d="M0 0 C4.21799681 0.65884576 7.76340789 2.07820784 11.6640625 3.79296875 C12.96423409 4.34713567 14.26503709 4.89982311 15.56640625 5.45117188 C17.59327801 6.31350923 19.61509764 7.18309211 21.62744141 8.07885742 C30.2145472 11.88467453 36.7278741 14.16354121 46 11 C46.97533691 10.69054443 47.95067383 10.38108887 48.95556641 10.06225586 C51.9939716 9.05668263 54.99655535 7.98029888 58 6.875 C60.01932577 6.13907926 62.04009831 5.40711262 64.0625 4.6796875 C64.94035156 4.35726074 65.81820312 4.03483398 66.72265625 3.70263672 C69 3 69 3 72 3 C69.54234965 10.91909556 66.33181427 18.41985296 63 26 C64.85625 26.3403125 64.85625 26.3403125 66.75 26.6875 C71.69467286 27.78459929 76.1436364 29.61696112 80.78125 31.625 C86.12552441 33.90799101 91.5665133 35.94053327 97 38 C97 38.33 97 38.66 97 39 C75.22 41.475 75.22 41.475 53 44 C49.7 51.92 46.4 59.84 43 68 C42.34 68 41.68 68 41 68 C40.25556641 66.67548828 40.25556641 66.67548828 39.49609375 65.32421875 C35.60818889 58.44532174 31.61799682 51.7003702 27.25 45.109375 C26 43 26 43 26 41 C25.14849365 40.94593994 24.2969873 40.89187988 23.41967773 40.83618164 C12.62574399 40.13533275 1.84468086 39.29872273 -8.9375 38.4375 C-10.6998629 38.2974393 -12.46223266 38.15746484 -14.22460938 38.01757812 C-18.48315234 37.67937618 -22.74160177 37.34001933 -27 37 C-27 36.34 -27 35.68 -27 35 C-26.05640625 34.69707031 -25.1128125 34.39414063 -24.140625 34.08203125 C-17.90654813 32.05571135 -11.77184419 29.98182466 -5.75 27.375 C-0.2878201 25.0224035 5.22609806 23.39801169 11 22 C10.45730469 20.91460937 9.91460937 19.82921875 9.35546875 18.7109375 C4.67773438 9.35546875 4.67773438 9.35546875 0 0 Z " fill="#FDFAFA" transform="translate(267,98)"/>
<path d="M0 0 C5.18824272 1.72941424 10.21197832 3.40959411 15.26660156 5.42016602 C16.98317963 6.10085899 16.98317963 6.10085899 18.73443604 6.79530334 C20.54424957 7.51731178 20.54424957 7.51731178 22.390625 8.25390625 C23.6660728 8.76070753 24.94160747 9.26729024 26.21722412 9.77366638 C29.55006822 11.09736932 32.88172628 12.42403169 36.21313477 13.75134277 C39.60229835 15.10103665 42.99260997 16.44784032 46.3828125 17.79492188 C63.51858761 24.60524656 63.51858761 24.60524656 72 28 C70.62669679 30.74660642 69.23831452 30.88332766 66.39526367 31.98364258 C65.41301315 32.3677681 64.43076263 32.75189362 63.41874695 33.1476593 C62.34599014 33.55912704 61.27323334 33.97059479 60.16796875 34.39453125 C58.51478386 35.0383802 58.51478386 35.0383802 56.82820129 35.69523621 C53.28380715 37.0742154 49.73582061 38.44365961 46.1875 39.8125 C42.67920993 41.17250261 39.17169373 42.53447462 35.66462708 43.89762878 C33.48051413 44.74584132 31.29557671 45.59193515 29.10966492 46.4355011 C22.92781165 48.82807468 16.79090561 51.30823524 10.68110657 53.87944031 C9.35395882 54.43411736 9.35395882 54.43411736 8 55 C6.68378914 55.56694328 6.68378914 55.56694328 5.34098816 56.14533997 C3 57 3 57 0 57 C0 38.19 0 19.38 0 0 Z " fill="#621B1B" transform="translate(421,144)"/>
</svg>
