<?xml version="1.0" encoding="UTF-8"?>
<svg version="1.1" xmlns="http://www.w3.org/2000/svg" width="300" height="300">
<path d="M0 0 C99 0 198 0 300 0 C300 99 300 198 300 300 C201 300 102 300 0 300 C0 201 0 102 0 0 Z " fill="#5D4475" transform="translate(0,0)"/>
<path d="M0 0 C9.31835613 4.09935434 13.82663981 14.86843706 18.578125 23.26171875 C19.57047401 24.99832952 20.56283132 26.73493562 21.55569458 28.47125244 C22.5789312 30.26215414 23.59992116 32.05432235 24.62060547 33.84667969 C27.77067814 39.37342111 30.9577698 44.87881694 34.140625 50.38671875 C35.3907943 52.55328773 36.64079387 54.71995467 37.890625 56.88671875 C38.509375 57.95921875 39.128125 59.03171875 39.765625 60.13671875 C60.390625 95.88671875 60.390625 95.88671875 62.2668457 99.13891602 C63.5126827 101.2983127 64.75861318 103.45765544 66.00463867 105.61694336 C69.19411453 111.14439472 72.38179385 116.67286996 75.56640625 122.203125 C76.86189013 124.45187421 78.15746182 126.70057284 79.453125 128.94921875 C80.07461426 130.02824463 80.69610352 131.10727051 81.33642578 132.21899414 C85.42669137 139.31071429 89.55301377 146.37995108 93.76098633 153.40258789 C97.57266149 159.81234065 98.5406411 164.98433911 97.640625 172.38671875 C95.27132443 178.32471686 91.26264379 182.16062401 85.86816406 185.47607422 C82.98770992 186.65363822 80.67059633 186.61250278 77.5625 186.58203125 C75.82226562 186.57236328 75.82226562 186.57236328 74.046875 186.5625 C72.23703125 186.53736328 72.23703125 186.53736328 70.390625 186.51171875 C68.55757813 186.49818359 68.55757813 186.49818359 66.6875 186.484375 C63.67179134 186.46081478 60.65618342 186.42494414 57.640625 186.38671875 C57.640625 180.77671875 57.640625 175.16671875 57.640625 169.38671875 C64.900625 169.05671875 72.160625 168.72671875 79.640625 168.38671875 C78.76851636 163.15406692 78.11075706 160.94345425 75.5703125 156.58984375 C74.92892334 155.4797998 74.28753418 154.36975586 73.62670898 153.22607422 C72.92315151 152.02954172 72.21945311 150.83309208 71.515625 149.63671875 C70.78825721 148.38479208 70.06178993 147.13234182 69.33618164 145.87939453 C67.84187046 143.30195888 66.34269669 140.72745225 64.83935547 138.15527344 C62.17787066 133.59900224 59.54628889 129.02565067 56.91455078 124.45214844 C55.06469779 121.23839161 53.21074667 118.02703399 51.35546875 114.81640625 C47.61410841 108.34161849 43.87710622 101.86432302 40.140625 95.38671875 C39.52251953 94.31550781 38.90441406 93.24429688 38.26757812 92.140625 C35.12840126 86.700258 31.99062871 81.2590892 28.85546875 75.81640625 C22.68007666 65.09831606 16.49255286 54.38746882 10.265625 43.69921875 C9.68917236 42.70954102 9.11271973 41.71986328 8.51879883 40.70019531 C5.96342858 36.32377782 3.39370729 31.95820711 0.765625 27.625 C0.33813965 26.92012451 -0.0893457 26.21524902 -0.52978516 25.48901367 C-1.30632029 24.21435659 -2.08694465 22.94217734 -2.87255859 21.6730957 C-5.359375 17.60272173 -5.359375 17.60272173 -5.359375 15.38671875 C-6.679375 15.38671875 -7.999375 15.38671875 -9.359375 15.38671875 C-9.61388428 16.07749512 -9.86839355 16.76827148 -10.13061523 17.47998047 C-11.52832551 20.78638591 -13.21966681 23.78831717 -15.01953125 26.89453125 C-15.3694664 27.50183075 -15.71940155 28.10913025 -16.0799408 28.73483276 C-17.1908098 30.66227703 -18.30588639 32.58723483 -19.421875 34.51171875 C-20.54122604 36.44345932 -21.65955725 38.37575151 -22.77452087 40.31002808 C-23.78327896 42.05995881 -24.79595983 43.8076265 -25.80883789 45.55517578 C-27.4423689 48.33855776 -27.4423689 48.33855776 -28.359375 51.38671875 C-27.68132812 51.85980469 -27.00328125 52.33289063 -26.3046875 52.8203125 C-19.56225653 57.61098713 -13.36128969 62.70020606 -7.359375 68.38671875 C-6.47378906 69.20785156 -5.58820313 70.02898437 -4.67578125 70.875 C21.06851023 95.52378972 36.21029333 130.14785707 39.640625 165.38671875 C39.640625 172.31671875 39.640625 179.24671875 39.640625 186.38671875 C22.150625 186.38671875 4.660625 186.38671875 -13.359375 186.38671875 C-13.689375 178.46671875 -14.019375 170.54671875 -14.359375 162.38671875 C-19.2882636 137.74227573 -31.11856117 114.89194595 -51.359375 99.38671875 C-53.01099548 98.36205902 -54.67434859 97.35546215 -56.359375 96.38671875 C-56.58625 97.02609375 -56.813125 97.66546875 -57.046875 98.32421875 C-58.54717121 101.82490992 -60.44003041 104.96288261 -62.43359375 108.203125 C-63.50581645 110.30298795 -63.50581645 110.30298795 -63.28515625 112.4140625 C-62.00037165 115.15168369 -60.19894522 116.48040228 -57.859375 118.38671875 C-43.07353079 131.31642275 -33.66749064 149.91030315 -31.359375 169.38671875 C-31.24938322 172.36772359 -31.26365118 175.34174184 -31.296875 178.32421875 C-31.30138672 179.10345703 -31.30589844 179.88269531 -31.31054688 180.68554688 C-31.32220592 182.58597143 -31.34013623 184.48635581 -31.359375 186.38671875 C-39.7133953 186.45639132 -48.06729312 186.50961718 -56.42153263 186.54215527 C-60.30122746 186.5577761 -64.18072273 186.57894824 -68.06030273 186.61303711 C-71.80802292 186.64575931 -75.55555178 186.66359869 -79.30340385 186.67135048 C-80.72947639 186.67687102 -82.15553907 186.68765119 -83.58152962 186.70390892 C-94.4558206 186.82289683 -101.29192863 186.27081406 -109.359375 178.38671875 C-113.10417296 173.14400161 -113.23947598 167.5986936 -112.359375 161.38671875 C-111.12968653 157.78082069 -109.28994344 154.66163279 -107.359375 151.38671875 C-106.57761458 149.99393112 -105.79923241 148.59924427 -105.0234375 147.203125 C-102.82393159 143.25166936 -100.59731628 139.31652413 -98.359375 135.38671875 C-95.46292516 136.07618784 -92.96799122 136.93388063 -90.296875 138.26171875 C-89.62527344 138.58914062 -88.95367187 138.9165625 -88.26171875 139.25390625 C-86.29708771 140.42380974 -84.89951357 141.70743993 -83.359375 143.38671875 C-85.29222614 148.79447713 -88.26551256 153.57686446 -91.16992188 158.50390625 C-91.56373047 159.18710938 -91.95753906 159.8703125 -92.36328125 160.57421875 C-92.72236572 161.18652344 -93.0814502 161.79882812 -93.45141602 162.4296875 C-94.64651932 164.80504423 -94.64651932 164.80504423 -95.359375 169.38671875 C-80.179375 169.38671875 -64.999375 169.38671875 -49.359375 169.38671875 C-54.70812613 146.20879718 -64.18085087 132.90321625 -84.109375 120.32421875 C-85.181875 119.68484375 -86.254375 119.04546875 -87.359375 118.38671875 C-81.62962626 106.15176656 -74.75499254 94.6117143 -67.88916016 82.98876953 C-66.01683436 79.80408259 -64.18103029 76.60060686 -62.359375 73.38671875 C-50.72343611 77.79235503 -41.45017527 85.1231813 -32.359375 93.38671875 C-31.5446875 94.11761719 -30.73 94.84851563 -29.890625 95.6015625 C-10.86123552 113.59237615 0.08483635 138.77347694 3.640625 164.38671875 C3.640625 166.03671875 3.640625 167.68671875 3.640625 169.38671875 C9.910625 169.38671875 16.180625 169.38671875 22.640625 169.38671875 C15.56282017 128.0869746 0.75165141 92.87624149 -34.53417969 67.63330078 C-39.95965396 63.92778023 -45.66087903 60.64975793 -51.359375 57.38671875 C-50.68694005 53.96999545 -49.35886297 51.32795448 -47.65625 48.30078125 C-47.09429932 47.29764893 -46.53234863 46.2945166 -45.95336914 45.26098633 C-45.34485107 44.18872803 -44.73633301 43.11646973 -44.109375 42.01171875 C-43.17242798 40.35595825 -43.17242798 40.35595825 -42.21655273 38.66674805 C-40.91485707 36.37325304 -39.6100442 34.08152466 -38.30224609 31.79150391 C-37.04213256 29.58321749 -35.78694209 27.37211172 -34.53759766 25.15771484 C-32.84645762 22.16323312 -31.13718207 19.17990795 -29.421875 16.19921875 C-28.9155957 15.2983252 -28.40931641 14.39743164 -27.88769531 13.46923828 C-21.30621465 2.1722494 -13.48443455 -3.50505997 0 0 Z " fill="#FAFAFB" transform="translate(157.359375,55.61328125)"/>
</svg>
