<svg width="150" height="154" viewBox="0 0 150 154" fill="none" xmlns="http://www.w3.org/2000/svg">
<path d="M0 12C0 5.37259 5.37258 0 12 0H138C144.627 0 150 5.37258 150 12V142C150 148.627 144.627 154 138 154H12C5.37258 154 0 148.627 0 142V12Z" fill="#22314A" fill-opacity="0.7"/>
<g clip-path="url(#clip0_0_151)">
<path d="M97.1367 34.5562H52.1133C41.1431 34.5562 32.25 43.4637 32.25 54.4517V99.5484C32.25 110.536 41.1431 119.444 52.1133 119.444H97.1367C108.107 119.444 117 110.536 117 99.5484V54.4517C117 43.4637 108.107 34.5562 97.1367 34.5562Z" fill="#242938"/>
<path fill-rule="evenodd" clip-rule="evenodd" d="M59.7275 71.0313C61.7139 63.0731 66.68 59.094 74.625 59.094C86.543 59.094 88.0327 68.047 93.9917 69.5392C97.9647 70.5343 101.44 69.0421 104.42 65.0627C102.434 73.0206 97.4674 77 89.5225 77C77.6045 77 76.1147 68.047 70.1558 66.5548C66.1828 65.5601 62.707 67.0522 59.7275 71.0313ZM44.8301 88.9374C46.8164 80.9795 51.7822 77 59.7275 77C71.6455 77 73.1353 85.953 79.0942 87.4452C83.0672 88.4403 86.543 86.9481 89.5225 82.9687C87.5365 90.9266 82.57 94.906 74.625 94.906C62.707 94.906 61.2173 85.953 55.2583 84.4609C51.2856 83.4657 47.8096 84.9579 44.8301 88.9374Z" fill="url(#paint0_linear_0_151)"/>
</g>
<defs>
<linearGradient id="paint0_linear_0_151" x1="60.8862" y1="59.094" x2="86.4336" y2="96.0278" gradientUnits="userSpaceOnUse">
<stop stop-color="#32B1C1"/>
<stop offset="1" stop-color="#14C6B7"/>
</linearGradient>
<clipPath id="clip0_0_151">
<rect width="84.75" height="84.8878" fill="white" transform="translate(32.25 34.5562)"/>
</clipPath>
</defs>
</svg>
