<?xml version="1.0" encoding="UTF-8"?>
<svg version="1.1" xmlns="http://www.w3.org/2000/svg" width="226" height="223">
<path d="M0 0 C74.58 0 149.16 0 226 0 C226 73.59 226 147.18 226 223 C151.42 223 76.84 223 0 223 C0 149.41 0 75.82 0 0 Z " fill="#151D2D" transform="translate(0,0)"/>
<path d="M0 0 C4.58822893 3.41364232 8.45275605 7.40373149 12.421875 11.50390625 C18.08093329 16.97372852 24.64261896 21.52230158 32.625 22.1875 C41.54007555 21.88586211 47.81164264 18.29411558 53.875 11.875 C54.205 11.215 54.535 10.555 54.875 9.875 C55.535 10.205 56.195 10.535 56.875 10.875 C51.61757665 25.18343844 45.13113125 33.95596994 31.20703125 40.59765625 C19.25693218 45.17876105 5.46394647 43.81506029 -6.125 38.875 C-13.45731255 35.1966638 -19.21938389 29.27988815 -25.109375 23.6796875 C-32.53340264 16.69015689 -38.91379854 13.11230857 -49.3125 13.38671875 C-56.17342808 14.5778521 -61.97131455 19.40847261 -67.125 23.875 C-65.62539267 13.54437175 -60.3197307 5.95538097 -52.3046875 -0.65625 C-37.16028506 -10.86108032 -14.88761941 -9.74839475 0 0 Z " fill="#17BBC8" transform="translate(143.125,64.125)"/>
<path d="M0 0 C4.08131644 3.02659421 7.53886254 6.48934259 11.0625 10.125 C18.02409871 17.2377949 22.86730218 21.18329498 33.0625 21.5625 C42.4881683 21.17736517 47.39274555 18.14520785 53.75 11.390625 C54.1625 10.93171875 54.575 10.4728125 55 10 C55.495 10.99 55.495 10.99 56 12 C51.47503831 24.64509842 44.52061639 34.25791157 32.33203125 40.0546875 C22.42598098 44.07020537 6.87090582 43.8262895 -3.1875 40.5625 C-11.94248676 36.51738495 -19.08967336 30.08638577 -25.6875 23.1875 C-32.19448705 16.55984129 -37.13135095 13.90833486 -46.4375 13.375 C-54.6360208 13.63390066 -60.36112003 17.25602204 -66.125 22.875 C-66.74375 23.57625 -67.3625 24.2775 -68 25 C-67.2295994 15.24159244 -61.29245078 6.25408217 -54 0 C-37.61911329 -10.00937365 -16.3481153 -10.52973096 0 0 Z " fill="#17BBC8" transform="translate(102,114)"/>
</svg>
