<?xml version="1.0" encoding="UTF-8"?>
<svg version="1.1" xmlns="http://www.w3.org/2000/svg" width="207" height="244">
<path d="M0 0 C68.31 0 136.62 0 207 0 C207 80.52 207 161.04 207 244 C138.69 244 70.38 244 0 244 C0 163.48 0 82.96 0 0 Z " fill="#FEFEFE" transform="translate(0,0)"/>
<path d="M0 0 C2.5821212 -0.00217289 5.16380427 -0.0203554 7.74584961 -0.03930664 C48.91417038 -0.18027641 48.91417038 -0.18027641 60.54858398 8.24780273 C65.28325349 13.81103941 69.06542031 19.95545493 72.17358398 26.56030273 C73.86475871 30.13300085 76.12897095 32.50241508 79.04858398 35.18530273 C80.77688499 38.64190474 80.31792604 42.50089509 80.36108398 46.31030273 C80.39008789 47.14045898 80.4190918 47.97061523 80.44897461 48.82592773 C80.50918254 54.7355677 79.68620227 59.40301025 76.04858398 64.18530273 C74.66484977 65.29851999 73.25703243 66.38229004 71.82983398 67.43920898 C69.2361716 69.5570859 68.1884974 70.59862036 67.40405273 73.88793945 C67.26269316 77.00239374 67.3477634 80.01201466 67.54858398 83.12280273 C67.58467773 84.18821289 67.62077148 85.25362305 67.65795898 86.35131836 C67.75177414 88.9664159 67.88284405 91.57394254 68.04858398 94.18530273 C66.79424561 94.49757813 65.53990723 94.80985352 64.24755859 95.1315918 C59.52263797 96.30824218 54.79812802 97.48653454 50.07373047 98.6652832 C48.04226385 99.17190499 46.01069116 99.67810166 43.97900391 100.18383789 C32.30892626 103.08913205 20.6539377 106.03009362 9.04858398 109.18530273 C6.81835393 119.11984783 6.70868886 128.92164002 6.73291016 139.04614258 C6.73605418 141.78434716 6.7125947 144.52145088 6.68725586 147.25952148 C6.65434638 155.98122198 6.9675682 164.5191501 8.31811523 173.14624023 C8.42621017 173.87203278 8.53430511 174.59782532 8.64567566 175.34561157 C9.49083806 180.10709485 11.05191381 183.40577579 14.04858398 187.18530273 C23.03208475 193.17430324 39.06250861 193.3977621 49.35717773 191.61108398 C55.73730252 190.21704516 61.89943736 188.37398204 68.04858398 186.18530273 C64.84465317 201.34536563 58.99788144 213.05936323 45.86108398 221.99780273 C24.80769688 234.43044359 -2.61747485 235.15592762 -25.95141602 229.18530273 C-39.01763669 225.04056232 -50.71710141 217.76665287 -57.20141602 205.43530273 C-64.12479591 190.66047594 -64.12479591 190.66047594 -61.95141602 184.18530273 C-61.31075195 184.52303711 -60.67008789 184.86077148 -60.01000977 185.20874023 C-58.71256836 185.87776367 -58.71256836 185.87776367 -57.38891602 186.56030273 C-56.11854492 187.2215918 -56.11854492 187.2215918 -54.82250977 187.89624023 C-47.37039788 191.24208639 -40.86579739 191.52198745 -32.76391602 191.49780273 C-31.70366211 191.51391602 -30.6434082 191.5300293 -29.55102539 191.54663086 C-16.35747437 191.60162402 -16.35747437 191.60162402 -5.21923828 185.56298828 C-2.59679282 182.11525306 -1.74430984 178.51845358 -1.15454102 174.28686523 C-0.97825165 173.12630112 -0.97825165 173.12630112 -0.79840088 171.94229126 C0.48140635 162.53530275 0.42759978 153.0891697 0.32983398 143.61352539 C0.29826622 140.52925623 0.28880345 137.44549995 0.28295898 134.36108398 C0.27380088 132.37279654 0.26342895 130.38451423 0.25170898 128.39624023 C0.24745911 127.48780365 0.24320923 126.57936707 0.23883057 125.6434021 C0.18051135 120.40940482 -0.20038552 115.3665101 -0.95141602 110.18530273 C-11.74799761 106.98132164 -22.52231566 103.93392868 -33.54052734 101.58911133 C-39.63775555 100.28514695 -45.63293574 98.71059197 -51.64672852 97.06811523 C-55.72640698 95.97827205 -59.81986496 95.05510296 -63.95141602 94.18530273 C-64.85893426 91.20225664 -64.95739972 88.99531932 -64.51391602 85.91967773 C-63.05011631 76.79993982 -63.05011631 76.79993982 -65.77954102 68.43920898 C-68.17265143 66.47356584 -68.17265143 66.47356584 -70.71313477 64.76342773 C-73.59441577 62.73194863 -74.61545125 61.13006326 -75.58032227 57.78295898 C-76.70603485 49.90297092 -77.97522624 40.35844442 -73.63891602 33.31030273 C-72.35632653 31.65410611 -71.02270204 30.25200199 -69.49438477 28.82202148 C-67.48971491 26.6955489 -66.09991822 24.36486629 -64.57641602 21.87280273 C-59.14531766 13.2669496 -53.75027333 6.42446554 -43.43579102 3.85717773 C-41.86097894 3.53333578 -40.28266229 3.22610665 -38.70141602 2.93530273 C-37.9318457 2.77545898 -37.16227539 2.61561523 -36.36938477 2.45092773 C-24.33777411 0.07235561 -12.21566879 -0.00114454 0 0 Z " fill="#595858" transform="translate(100.951416015625,5.814697265625)"/>
<path d="M0 0 C3.7974826 1.03567707 4.92985056 2.28157488 7.20703125 5.40625 C10.12139894 9.03301868 14.282146 10.07568903 18.6875 10.8125 C24.45249175 11.27993176 30.44445488 10.18399611 35.14453125 6.65625 C36.66169924 5.19934355 36.66169924 5.19934355 38.4375 2.9375 C39.4375 1.9375 39.4375 1.9375 42.52734375 1.8046875 C43.79707031 1.80726562 45.06679687 1.80984375 46.375 1.8125 C47.64214844 1.80992188 48.90929687 1.80734375 50.21484375 1.8046875 C53.4375 1.9375 53.4375 1.9375 55.4375 2.9375 C55.4375 3.5975 55.4375 4.2575 55.4375 4.9375 C56.7575 5.5975 58.0775 6.2575 59.4375 6.9375 C59.4375 8.5875 59.4375 10.2375 59.4375 11.9375 C54.8400546 14.88458039 51.8016511 15.14330936 46.5859375 14.45703125 C44.4375 13.9375 44.4375 13.9375 42.3515625 12.82421875 C40.29281614 11.60477703 40.29281614 11.60477703 37.4375 12.9375 C37.23125 14.195625 37.025 15.45375 36.8125 16.75 C36.69648437 17.45769531 36.58046875 18.16539063 36.4609375 18.89453125 C36.24172152 21.25505824 36.24172152 21.25505824 38.4375 23.9375 C39.7575 24.2675 41.0775 24.5975 42.4375 24.9375 C43.0975 28.2375 43.7575 31.5375 44.4375 34.9375 C49.34504997 35.39975016 49.34504997 35.39975016 52.4375 32.9375 C53.0975 33.5975 53.7575 34.2575 54.4375 34.9375 C57.04030568 34.61708603 57.04030568 34.61708603 59.4375 33.9375 C59.7675 30.9675 60.0975 27.9975 60.4375 24.9375 C61.22125 24.73125 62.005 24.525 62.8125 24.3125 C65.74666286 23.13073388 65.74666286 23.13073388 66.75 19.8125 C66.976875 18.86375 67.20375 17.915 67.4375 16.9375 C71.99777393 16.8651147 76.41010393 16.87057739 80.9375 17.4375 C82.4370462 17.60820141 83.93706433 17.77480216 85.4375 17.9375 C86.23800781 18.02902344 87.03851563 18.12054688 87.86328125 18.21484375 C90.18510398 18.37064528 92.15660706 18.4010215 94.4375 17.9375 C98.73314199 13.64185801 99.93716772 7.68877373 101.4375 1.9375 C104.0374298 4.44777705 106.42841227 6.9238684 108.4375 9.9375 C108.4375 10.5975 108.4375 11.2575 108.4375 11.9375 C110.4175 11.6075 112.3975 11.2775 114.4375 10.9375 C114.61194825 12.51999487 114.77642422 14.10358813 114.9375 15.6875 C115.0303125 16.56921875 115.123125 17.4509375 115.21875 18.359375 C115.53619713 23.55190308 115.47550624 28.73697959 115.4375 33.9375 C114.18316162 34.24977539 112.92882324 34.56205078 111.63647461 34.88378906 C106.91155399 36.06043945 102.18704404 37.23873181 97.46264648 38.41748047 C95.43117987 38.92410225 93.39960718 39.43029893 91.36791992 39.93603516 C79.69784228 42.84132932 68.04285371 45.78229088 56.4375 48.9375 C54.20726995 58.8720451 54.09760487 68.67383728 54.12182617 78.79833984 C54.1249702 81.53654442 54.10151071 84.27364814 54.07617188 87.01171875 C54.04326239 95.73341925 54.35648422 104.27134737 55.70703125 112.8984375 C55.81512619 113.62423004 55.92322113 114.35002258 56.03459167 115.09780884 C56.87975408 119.85929212 58.44082983 123.15797305 61.4375 126.9375 C70.42100076 132.92650051 86.45142462 133.14995936 96.74609375 131.36328125 C103.12621854 129.96924242 109.28835337 128.12617931 115.4375 125.9375 C112.23356918 141.0975629 106.38679745 152.8115605 93.25 161.75 C72.19661289 174.18264085 44.77144117 174.90812489 21.4375 168.9375 C8.37127932 164.79275958 -3.32818539 157.51885014 -9.8125 145.1875 C-16.73587989 130.4126732 -16.73587989 130.4126732 -14.5625 123.9375 C-13.92183594 124.27523437 -13.28117187 124.61296875 -12.62109375 124.9609375 C-11.32365234 125.62996094 -11.32365234 125.62996094 -10 126.3125 C-8.72962891 126.97378906 -8.72962891 126.97378906 -7.43359375 127.6484375 C0.01851814 130.99428365 6.52311862 131.27418472 14.625 131.25 C15.68525391 131.26611328 16.74550781 131.28222656 17.83789062 131.29882812 C31.03144164 131.35382128 31.03144164 131.35382128 42.16967773 125.31518555 C44.7921232 121.86745032 45.64460618 118.27065084 46.234375 114.0390625 C46.41066437 112.87849838 46.41066437 112.87849838 46.59051514 111.69448853 C47.87032237 102.28750001 47.8165158 92.84136696 47.71875 83.36572266 C47.68718224 80.2814535 47.67771946 77.19769721 47.671875 74.11328125 C47.6627169 72.1249938 47.65234497 70.13671149 47.640625 68.1484375 C47.63637512 67.24000092 47.63212524 66.33156433 47.62774658 65.39559937 C47.56942736 60.16160208 47.18853049 55.11870737 46.4375 49.9375 C35.64091841 46.7335189 24.86660035 43.68612594 13.84838867 41.34130859 C7.75116047 40.03734421 1.75598027 38.46278924 -4.2578125 36.8203125 C-8.33749097 35.73046932 -12.43094895 34.80730022 -16.5625 33.9375 C-17.9441716 29.95870133 -17.521139 26.00151279 -17.25 21.875 C-17.21455078 21.15505859 -17.17910156 20.43511719 -17.14257812 19.69335938 C-16.91241748 15.99361294 -16.6592929 14.08268935 -14.5625 10.9375 C-13.75554688 10.80472656 -12.94859375 10.67195313 -12.1171875 10.53515625 C-9.40573567 10.18874825 -9.40573567 10.18874825 -8.0078125 7.87109375 C-7.57210937 7.04738281 -7.13640625 6.22367187 -6.6875 5.375 C-4.00185948 1.05312092 -4.00185948 1.05312092 0 0 Z " fill="#37ABC7" transform="translate(53.5625,66.0625)"/>
<path d="M0 0 C2.375 1.625 2.375 1.625 4.375 3.625 C5.48875 3.893125 6.6025 4.16125 7.75 4.4375 C11.92655589 5.8056821 13.07210406 6.95742498 15.375 10.625 C18.96823337 18.18409834 19.41003389 28.21747261 17.1875 36.25 C15.78335285 39.9943924 14.57901688 43.09551299 11.375 45.625 C5.2528817 46.34166541 -1.10342831 45.36610503 -7.1875 44.625 C-8.00541016 44.52960938 -8.82332031 44.43421875 -9.66601562 44.3359375 C-11.65288675 44.10355491 -13.63902794 43.86494484 -15.625 43.625 C-15.59921875 44.41261719 -15.5734375 45.20023438 -15.546875 46.01171875 C-15.625 48.625 -15.625 48.625 -16.875 50.4375 C-18.625 51.625 -18.625 51.625 -22.625 51.625 C-22.57279297 52.56472656 -22.57279297 52.56472656 -22.51953125 53.5234375 C-22.49246094 54.34070313 -22.46539062 55.15796875 -22.4375 56 C-22.38529297 57.21816406 -22.38529297 57.21816406 -22.33203125 58.4609375 C-22.42871094 59.17507812 -22.52539062 59.88921875 -22.625 60.625 C-25.625 62.625 -25.625 62.625 -27.625 62.25 C-28.285 62.04375 -28.945 61.8375 -29.625 61.625 C-30.615 61.625 -31.605 61.625 -32.625 61.625 C-32.955 61.955 -33.285 62.285 -33.625 62.625 C-35.29117115 62.66563832 -36.95888095 62.667721 -38.625 62.625 C-40.95090854 58.99076791 -40.78765833 55.85411669 -40.625 51.625 C-41.800625 51.4703125 -41.800625 51.4703125 -43 51.3125 C-45.625 50.625 -45.625 50.625 -47.625 47.625 C-48.0625 45.25 -48.0625 45.25 -47.625 42.625 C-45.125 39.8125 -45.125 39.8125 -42.625 37.625 C-41.1709375 38.3984375 -41.1709375 38.3984375 -39.6875 39.1875 C-35.23597079 41.12255249 -31.28325145 40.64962557 -26.625 39.625 C-25.965 39.295 -25.305 38.965 -24.625 38.625 C-24.37469023 36.20880177 -24.37469023 36.20880177 -24.625 33.625 C-25.615 32.965 -26.605 32.305 -27.625 31.625 C-27.625 30.965 -27.625 30.305 -27.625 29.625 C-30.18928515 29.48940325 -32.74635216 29.39066812 -35.3125 29.3125 C-36.03373047 29.27060547 -36.75496094 29.22871094 -37.49804688 29.18554688 C-41.70329202 29.08953671 -43.12972657 29.20581796 -46.47265625 32.03515625 C-47.18292969 32.88980469 -47.89320312 33.74445313 -48.625 34.625 C-53.99876511 38.04466871 -59.70645908 39.34921878 -65.9921875 38.1875 C-71.20398925 36.64326244 -74.74453005 34.4084582 -78.625 30.625 C-78.955 29.965 -79.285 29.305 -79.625 28.625 C-81.94656597 28.21770772 -84.2818787 27.88061323 -86.625 27.625 C-87.07344779 19.51972134 -86.47804378 13.40108736 -81.5 6.8125 C-77.77691615 3.97971881 -74.0865391 2.86153144 -69.625 1.625 C-68.635 1.295 -67.645 0.965 -66.625 0.625 C-64.69114527 0.47989113 -62.7515704 0.40426899 -60.8125 0.375 C-59.79542969 0.34921875 -58.77835938 0.3234375 -57.73046875 0.296875 C-54.625 0.625 -54.625 0.625 -51.98828125 2.11328125 C-46.93433577 4.38491528 -42.10121904 4.09887585 -36.625 4.0625 C-35.02398437 4.0924707 -35.02398437 4.0924707 -33.390625 4.12304688 C-27.06828969 4.11911507 -23.50130438 3.69640158 -18.625 -0.375 C-12.6381604 -2.3706132 -5.87201333 -2.2273154 0 0 Z " fill="#FDFEFE" transform="translate(136.625,39.375)"/>
<path d="M0 0 C3.7974826 1.03567707 4.92985056 2.28157488 7.20703125 5.40625 C10.12139894 9.03301868 14.282146 10.07568903 18.6875 10.8125 C24.45249175 11.27993176 30.44445488 10.18399611 35.14453125 6.65625 C36.66169924 5.19934355 36.66169924 5.19934355 38.4375 2.9375 C39.4375 1.9375 39.4375 1.9375 42.52734375 1.8046875 C43.79707031 1.80726562 45.06679687 1.80984375 46.375 1.8125 C47.64214844 1.80992188 48.90929687 1.80734375 50.21484375 1.8046875 C53.4375 1.9375 53.4375 1.9375 55.4375 2.9375 C55.4375 3.5975 55.4375 4.2575 55.4375 4.9375 C56.7575 5.5975 58.0775 6.2575 59.4375 6.9375 C59.4375 8.5875 59.4375 10.2375 59.4375 11.9375 C54.8400546 14.88458039 51.8016511 15.14330936 46.5859375 14.45703125 C44.4375 13.9375 44.4375 13.9375 42.3515625 12.82421875 C40.29281614 11.60477703 40.29281614 11.60477703 37.4375 12.9375 C37.23125 14.195625 37.025 15.45375 36.8125 16.75 C36.69648437 17.45769531 36.58046875 18.16539063 36.4609375 18.89453125 C36.24172152 21.25505824 36.24172152 21.25505824 38.4375 23.9375 C39.7575 24.2675 41.0775 24.5975 42.4375 24.9375 C43.0975 28.2375 43.7575 31.5375 44.4375 34.9375 C49.34504997 35.39975016 49.34504997 35.39975016 52.4375 32.9375 C53.0975 33.5975 53.7575 34.2575 54.4375 34.9375 C57.04030568 34.61708603 57.04030568 34.61708603 59.4375 33.9375 C59.7675 30.9675 60.0975 27.9975 60.4375 24.9375 C61.22125 24.73125 62.005 24.525 62.8125 24.3125 C65.74666286 23.13073388 65.74666286 23.13073388 66.75 19.8125 C66.976875 18.86375 67.20375 17.915 67.4375 16.9375 C71.99777393 16.8651147 76.41010393 16.87057739 80.9375 17.4375 C82.4370462 17.60820141 83.93706433 17.77480216 85.4375 17.9375 C86.23800781 18.02902344 87.03851563 18.12054688 87.86328125 18.21484375 C90.18510398 18.37064528 92.15660706 18.4010215 94.4375 17.9375 C98.73314199 13.64185801 99.93716772 7.68877373 101.4375 1.9375 C104.0374298 4.44777705 106.42841227 6.9238684 108.4375 9.9375 C108.4375 10.5975 108.4375 11.2575 108.4375 11.9375 C110.4175 11.6075 112.3975 11.2775 114.4375 10.9375 C114.61194825 12.51999487 114.77642422 14.10358813 114.9375 15.6875 C115.0303125 16.56921875 115.123125 17.4509375 115.21875 18.359375 C115.53619713 23.55190308 115.47550624 28.73697959 115.4375 33.9375 C114.18316162 34.24977539 112.92882324 34.56205078 111.63647461 34.88378906 C106.91155399 36.06043945 102.18704404 37.23873181 97.46264648 38.41748047 C95.43117987 38.92410225 93.39960718 39.43029893 91.36791992 39.93603516 C79.69784228 42.84132932 68.04285371 45.78229088 56.4375 48.9375 C54.81372959 57.37500032 54.05568226 65.60519259 53.8125 74.1875 C53.77382812 75.32574219 53.73515625 76.46398437 53.6953125 77.63671875 C53.60231152 80.40349779 53.51647139 83.17029117 53.4375 85.9375 C53.1075 85.9375 52.7775 85.9375 52.4375 85.9375 C52.4375 82.9675 52.4375 79.9975 52.4375 76.9375 C51.7775 76.9375 51.1175 76.9375 50.4375 76.9375 C50.1075 81.5575 49.7775 86.1775 49.4375 90.9375 C49.1075 90.9375 48.7775 90.9375 48.4375 90.9375 C48.41244385 89.97972656 48.3873877 89.02195312 48.36157227 88.03515625 C48.26672028 84.44926755 48.16669627 80.86353789 48.06518555 77.27783203 C48.02212851 75.73197169 47.98043574 74.18607269 47.94018555 72.64013672 C47.88176697 70.40580639 47.81828733 68.17166556 47.75390625 65.9375 C47.73719376 65.25695557 47.72048126 64.57641113 47.70326233 63.87524414 C47.56101806 59.16771652 47.07683744 54.59715509 46.4375 49.9375 C35.64091841 46.7335189 24.86660035 43.68612594 13.84838867 41.34130859 C7.75116047 40.03734421 1.75598027 38.46278924 -4.2578125 36.8203125 C-8.33749097 35.73046932 -12.43094895 34.80730022 -16.5625 33.9375 C-17.9441716 29.95870133 -17.521139 26.00151279 -17.25 21.875 C-17.21455078 21.15505859 -17.17910156 20.43511719 -17.14257812 19.69335938 C-16.91241748 15.99361294 -16.6592929 14.08268935 -14.5625 10.9375 C-13.75554688 10.80472656 -12.94859375 10.67195313 -12.1171875 10.53515625 C-9.40573567 10.18874825 -9.40573567 10.18874825 -8.0078125 7.87109375 C-7.57210937 7.04738281 -7.13640625 6.22367187 -6.6875 5.375 C-4.00185948 1.05312092 -4.00185948 1.05312092 0 0 Z " fill="#3AABC6" transform="translate(53.5625,66.0625)"/>
<path d="M0 0 C1.32 0 2.64 0 4 0 C4.40812069 5.70634444 3.20115039 9.51696896 0.52734375 14.4453125 C-0.01375282 15.48291214 -0.01375282 15.48291214 -0.56578064 16.54147339 C-1.7180898 18.74326366 -2.88984936 20.93398849 -4.0625 23.125 C-4.82356288 24.57223522 -5.58333972 26.02014749 -6.34179688 27.46875 C-12.20120616 38.62216617 -12.20120616 38.62216617 -15.12060547 43.74121094 C-15.7601416 44.8759082 -16.39967773 46.01060547 -17.05859375 47.1796875 C-17.62763428 48.16437012 -18.1966748 49.14905273 -18.78295898 50.16357422 C-20.1496052 53.34866866 -20.12871391 55.57139429 -20 59 C-21.25 61.875 -21.25 61.875 -23 64 C-24.32 64 -25.64 64 -27 64 C-27.11009399 64.94008911 -27.11009399 64.94008911 -27.22241211 65.89916992 C-28 68 -28 68 -29.93579102 68.9699707 C-31.17607056 69.28840942 -31.17607056 69.28840942 -32.44140625 69.61328125 C-33.35164551 69.85127441 -34.26188477 70.08926758 -35.19970703 70.33447266 C-36.12380371 70.55409668 -37.04790039 70.7737207 -38 71 C-38.79647949 71.20028809 -39.59295898 71.40057617 -40.41357422 71.60693359 C-58.77680554 75.96540349 -77.27127349 75.41744268 -96 75 C-96.05017623 70.94730482 -96.08607843 66.89473481 -96.10986328 62.84179688 C-96.11979919 61.46871788 -96.13335261 60.09565933 -96.15087891 58.72265625 C-96.2602326 49.92290033 -95.80339521 41.62458003 -94 33 C-87.39706094 30.74072443 -80.67909822 28.97787908 -73.9375 27.1875 C-73.27503265 27.01114014 -72.61256531 26.83478027 -71.93002319 26.65307617 C-63.24644357 24.3444761 -54.55063652 22.09436758 -45.8125 20 C-44.95325928 19.79270264 -44.09401855 19.58540527 -43.20874023 19.37182617 C-40.07708177 18.6348329 -37.2289007 18 -34 18 C-34 17.34 -34 16.68 -34 16 C-32.68 16 -31.36 16 -30 16 C-29.88296553 20.16642697 -29.81246899 24.3324259 -29.75 28.5 C-29.71648437 29.67304687 -29.68296875 30.84609375 -29.6484375 32.0546875 C-29.56785073 39.22690989 -30.15966141 43.89174492 -34 50 C-32.02 50 -30.04 50 -28 50 C-21.86761199 39.13264869 -15.93804605 28.18560072 -10.28808594 17.05834961 C-3.33040543 3.515127 -3.33040543 3.515127 0 0 Z " fill="#EE9325" transform="translate(203,82)"/>
<path d="M0 0 C3.07608596 2.19104292 4.26841526 5.17610968 5.81787109 8.51245117 C6.1586972 9.22076584 6.49952332 9.92908051 6.85067749 10.65885925 C7.5754036 12.16693221 8.29509182 13.67743493 9.01013184 15.19012451 C10.0842577 17.45296162 11.17966506 19.70401214 12.28369141 21.95239258 C14.09667515 25.64765286 15.88320805 29.35476001 17.65625 33.06933594 C18.38579524 34.59118122 19.12101396 36.11031729 19.86132812 37.62695312 C20.94864672 39.8561215 22.01789366 42.0931498 23.08349609 44.33276367 C23.586306 45.34981133 23.586306 45.34981133 24.09927368 46.3874054 C24.9921875 48.29296875 24.9921875 48.29296875 26.10693359 51.50073242 C25.44693359 52.49073242 24.78693359 53.48073242 24.10693359 54.50073242 C24.10693359 55.82073242 24.10693359 57.14073242 24.10693359 58.50073242 C25.05568359 58.74823242 26.00443359 58.99573242 26.98193359 59.25073242 C30.10693359 60.50073242 30.10693359 60.50073242 31.48193359 62.62573242 C31.68818359 63.24448242 31.89443359 63.86323242 32.10693359 64.50073242 C34.71034291 59.97351864 34.95061374 55.61244154 34.10693359 50.50073242 C31.85635792 47.41274568 31.85635792 47.41274568 29.10693359 45.50073242 C25.70344311 42.09724194 27.04954647 32.08265206 27.03881836 27.36181641 C27.04699609 23.74121612 27.07143907 20.12117337 27.10693359 16.50073242 C28.09693359 16.17073242 29.08693359 15.84073242 30.10693359 15.50073242 C30.10693359 16.49073242 30.10693359 17.48073242 30.10693359 18.50073242 C31.32251953 18.59999023 32.53810547 18.69924805 33.79052734 18.80151367 C40.06214405 19.50243748 46.07087089 21.10824802 52.16943359 22.68823242 C54.64851933 23.32136189 57.12768764 23.95416811 59.60693359 24.58666992 C60.85216797 24.90603516 62.09740234 25.22540039 63.38037109 25.55444336 C66.97191745 26.46644766 70.56867455 27.35244834 74.16943359 28.22729492 C75.26634521 28.49517822 76.36325684 28.76306152 77.4934082 29.0390625 C79.57135957 29.54557213 81.65026865 30.04817281 83.73022461 30.54638672 C84.66020264 30.77495361 85.59018066 31.00352051 86.54833984 31.23901367 C87.35988525 31.435354 88.17143066 31.63169434 89.00756836 31.83398438 C91.10693359 32.50073242 91.10693359 32.50073242 94.10693359 34.50073242 C95.10896625 39.83150305 95.24568349 45.08230482 95.20458984 50.50073242 C95.2031749 51.22188232 95.20175995 51.94303223 95.20030212 52.68603516 C95.1947674 54.95764566 95.18222783 57.22915242 95.16943359 59.50073242 C95.16441013 61.0541164 95.15984872 62.60750195 95.15576172 64.16088867 C95.14481949 67.94087571 95.1276012 71.72078656 95.10693359 75.50073242 C35.39898316 77.71655702 35.39898316 77.71655702 23.74609375 67.41333008 C20.10864919 62.44772319 18.39032917 57.0033683 16.84619141 51.09985352 C15.80081659 47.42447033 14.12092949 44.27455901 12.29443359 40.93823242 C8.7236008 33.9116333 5.32340158 26.79814471 1.95571899 19.6723938 C1.35108729 18.39738445 0.74237603 17.12430125 0.12948608 15.85324097 C-0.73444863 14.05887423 -1.58166003 12.2564852 -2.42822266 10.45385742 C-2.92717041 9.40359375 -3.42611816 8.35333008 -3.94018555 7.27124023 C-4.92503832 4.40777386 -5.14963325 3.22729739 -3.89306641 0.50073242 C-1.89306641 -0.49926758 -1.89306641 -0.49926758 0 0 Z " fill="#EE9224" transform="translate(6.89306640625,81.499267578125)"/>
<path d="M0 0 C2 1 2 1 2.81640625 3.23828125 C8.93680281 28.45687859 8.93680281 28.45687859 4.47265625 36.8828125 C2.10646906 39.13347157 -0.08313442 40.53544791 -3 42 C-3.95261719 42.49371094 -4.90523437 42.98742187 -5.88671875 43.49609375 C-19.20517614 49.64173487 -32.65769371 50.02949111 -46.9375 47.8125 C-47.65953613 47.71171143 -48.38157227 47.61092285 -49.12548828 47.50708008 C-54.24847088 46.61813065 -56.71395153 44.96794761 -60 41 C-60.56332031 40.4121875 -61.12664062 39.824375 -61.70703125 39.21875 C-63.67992862 35.83323427 -64.10002174 32.33947542 -64.6875 28.5 C-64.81705078 27.76007813 -64.94660156 27.02015625 -65.08007812 26.2578125 C-66.11660693 19.83023707 -66.13088705 13.49864595 -66 7 C-65.08637695 6.99589111 -64.17275391 6.99178223 -63.23144531 6.98754883 C-31.19188553 6.78693988 -31.19188553 6.78693988 0 0 Z " fill="#E5E3E1" transform="translate(173,150)"/>
<path d="M0 0 C6.24743084 0.45181848 12.29057554 1.18452025 18.42163086 2.45996094 C34.81209227 5.81169438 51.33493587 5.82875831 68 6 C68.42924739 33.2863554 68.42924739 33.2863554 62.5625 41.4375 C55.20859251 47.68278414 43.64526807 47.52641233 34.5 47.4375 C32.85644531 47.42614014 32.85644531 47.42614014 31.1796875 47.41455078 C19.33114964 47.17241926 10.40701768 44.48966376 1 37 C0.43023437 36.60167969 -0.13953125 36.20335937 -0.7265625 35.79296875 C-2.77754292 32.90523865 -2.39499362 29.78129914 -2.3125 26.375 C-2.30412109 25.63386963 -2.29574219 24.89273926 -2.28710938 24.12915039 C-2.1165279 16.02226566 -1.12446555 8.02185692 0 0 Z " fill="#E5E2E0" transform="translate(34,151)"/>
<path d="M0 0 C0.80504974 0.00310181 1.61009949 0.00620361 2.43954468 0.00939941 C49.13303897 0.21977994 49.13303897 0.21977994 61.75 10.25 C63.8671875 13.046875 63.8671875 13.046875 65.625 16 C66.51832031 17.47726563 66.51832031 17.47726563 67.4296875 18.984375 C67.86539063 19.73203125 68.30109375 20.4796875 68.75 21.25 C68.09 21.58 67.43 21.91 66.75 22.25 C65.945625 21.775625 65.14125 21.30125 64.3125 20.8125 C58.67767259 18.34108447 52.98313156 18.18823194 47.109375 20.1171875 C44.93148051 21.07967635 42.83797218 22.10735149 40.75 23.25 C38.75 24.25 38.75 24.25 35.95703125 23.5078125 C34.83683594 23.13398438 33.71664062 22.76015625 32.5625 22.375 C14.1810593 16.25498598 -10.22986312 17.10273119 -28.43359375 23.70703125 C-33.33775835 25.17300734 -37.83800103 22.21088843 -42.25 20.25 C-49.40983887 17.86338704 -55.5070992 19.30764329 -62.25 22.25 C-60.84873407 19.15755105 -59.17890916 16.79457093 -56.9375 14.25 C-56.36386719 13.59 -55.79023437 12.93 -55.19921875 12.25 C-47.535771 4.38690331 -38.03956118 2.37350452 -27.4375 1.1484375 C-26.70517151 1.06378235 -25.97284302 0.9791272 -25.21832275 0.89190674 C-16.81623166 -0.00310007 -8.44115955 -0.05823377 0 0 Z " fill="#FAFBFB" transform="translate(100.25,8.75)"/>
<path d="M0 0 C2.5821212 -0.00217289 5.16380427 -0.0203554 7.74584961 -0.03930664 C48.91417038 -0.18027641 48.91417038 -0.18027641 60.54858398 8.24780273 C65.28325349 13.81103941 69.06542031 19.95545493 72.17358398 26.56030273 C73.86475871 30.13300085 76.12897095 32.50241508 79.04858398 35.18530273 C80.77688499 38.64190474 80.31792604 42.50089509 80.36108398 46.31030273 C80.39008789 47.14045898 80.4190918 47.97061523 80.44897461 48.82592773 C80.52169962 55.96416742 78.72297574 60.97051842 74.15405273 66.46264648 C69.77062014 70.25686003 66.90488627 72.06329644 61.04858398 72.18530273 C55.448712 65.80298289 53.12342306 60.17140064 52.11181641 51.89624023 C51.47136373 47.07288687 50.11130629 43.96764964 47.04858398 40.18530273 C46.20295898 39.91717773 45.35733398 39.64905273 44.48608398 39.37280273 C41.43486485 37.88631136 41.28738297 36.9380944 40.17358398 33.81030273 C39.15152485 30.5935061 38.66428225 28.33991343 40.04858398 25.18530273 C45.86376427 20.803632 53.04635262 20.26922134 60.04858398 21.18530273 C62.61651399 21.96413766 64.66663289 22.91492882 67.04858398 24.18530273 C63.10770066 17.04245172 60.08782837 11.59843174 52.04858398 9.18530273 C51.17073242 8.91459961 50.29288086 8.64389648 49.38842773 8.36499023 C22.92875531 1.3318386 -26.29089604 -3.05527923 -50.95141602 11.18530273 C-59.46292926 17.77872849 -64.80849686 26.51366953 -67.89672852 36.70483398 C-69.11066022 39.55982151 -70.65111453 41.13793896 -72.95141602 43.18530273 C-73.94141602 42.85530273 -74.93141602 42.52530273 -75.95141602 42.18530273 C-75.42779843 36.68731809 -73.58969076 32.67861733 -69.52954102 28.84155273 C-67.50044017 26.71200135 -66.10988466 24.38116886 -64.57641602 21.87280273 C-59.14531766 13.2669496 -53.75027333 6.42446554 -43.43579102 3.85717773 C-41.86097894 3.53333578 -40.28266229 3.22610665 -38.70141602 2.93530273 C-37.9318457 2.77545898 -37.16227539 2.61561523 -36.36938477 2.45092773 C-24.33777411 0.07235561 -12.21566879 -0.00114454 0 0 Z " fill="#595858" transform="translate(100.951416015625,5.814697265625)"/>
<path d="M0 0 C1.01707031 -0.02578125 2.03414062 -0.0515625 3.08203125 -0.078125 C6.1875 0.25 6.1875 0.25 8.83203125 1.72265625 C13.80946827 3.98828823 18.65275662 3.8209107 24.0625 3.9375 C25.13242188 3.97166016 26.20234375 4.00582031 27.3046875 4.04101562 C29.93218689 4.12312498 32.55936816 4.19239624 35.1875 4.25 C34.90455078 4.76876709 34.62160156 5.28753418 34.33007812 5.82202148 C31.34003569 11.50323348 30.09712833 15.80212906 31.1875 22.25 C32.29270896 24.83676063 33.61555555 26.89208332 35.1875 29.25 C35.1875 29.91 35.1875 30.57 35.1875 31.25 C34.5275 31.25 33.8675 31.25 33.1875 31.25 C33.1875 30.59 33.1875 29.93 33.1875 29.25 C30.62321485 29.11440325 28.06614784 29.01566812 25.5 28.9375 C24.77876953 28.89560547 24.05753906 28.85371094 23.31445312 28.81054688 C19.10920798 28.71453671 17.68277343 28.83081796 14.33984375 31.66015625 C13.62957031 32.51480469 12.91929688 33.36945313 12.1875 34.25 C6.81373489 37.66966871 1.10604092 38.97421878 -5.1796875 37.8125 C-10.39148925 36.26826244 -13.93203005 34.0334582 -17.8125 30.25 C-18.1425 29.59 -18.4725 28.93 -18.8125 28.25 C-21.13406597 27.84270772 -23.4693787 27.50561323 -25.8125 27.25 C-26.26094779 19.14472134 -25.66554378 13.02608736 -20.6875 6.4375 C-16.96441615 3.60471881 -13.2740391 2.48653144 -8.8125 1.25 C-5.66880257 0.20210086 -3.30175899 0.04983787 0 0 Z " fill="#FDFDFE" transform="translate(75.8125,39.75)"/>
<path d="M0 0 C3.04261908 0.3259949 3.9801219 0.97895261 6.125 3.25 C11.18977535 10.67833718 11.88709862 20.27082142 10.53125 29.02734375 C9.2602212 33.62100762 7.81949108 37.98461231 4 41 C-2.1221183 41.71666541 -8.47842831 40.74110503 -14.5625 40 C-15.38041016 39.90460938 -16.19832031 39.80921875 -17.04101562 39.7109375 C-19.02788675 39.47855491 -21.01402794 39.23994484 -23 39 C-22.97421875 39.78761719 -22.9484375 40.57523438 -22.921875 41.38671875 C-23 44 -23 44 -24.25 45.8125 C-26 47 -26 47 -30 47 C-29.94779297 47.93972656 -29.94779297 47.93972656 -29.89453125 48.8984375 C-29.86746094 49.71570313 -29.84039062 50.53296875 -29.8125 51.375 C-29.76029297 52.59316406 -29.76029297 52.59316406 -29.70703125 53.8359375 C-29.80371094 54.55007812 -29.90039062 55.26421875 -30 56 C-33 58 -33 58 -35 57.625 C-35.66 57.41875 -36.32 57.2125 -37 57 C-37.99 57 -38.98 57 -40 57 C-40.495 57.495 -40.495 57.495 -41 58 C-42.66617115 58.04063832 -44.33388095 58.042721 -46 58 C-48.32590854 54.36576791 -48.16265833 51.22911669 -48 47 C-48.78375 46.896875 -49.5675 46.79375 -50.375 46.6875 C-53 46 -53 46 -55 43 C-55.4375 40.625 -55.4375 40.625 -55 38 C-52.5 35.1875 -52.5 35.1875 -50 33 C-49.030625 33.515625 -48.06125 34.03125 -47.0625 34.5625 C-42.61097079 36.49755249 -38.65825145 36.02462557 -34 35 C-33.01 34.505 -33.01 34.505 -32 34 C-31.84850702 30.37114676 -31.84850702 30.37114676 -33 27 C-31.8553125 27.4640625 -31.8553125 27.4640625 -30.6875 27.9375 C-23.95187388 30.60042195 -16.5689223 31.31768292 -9.5078125 29.28125 C-4.60436181 26.98680515 -1.44464906 23.88929813 1 19 C1.09778166 16.73089029 1.12975646 14.45871058 1.125 12.1875 C1.12757813 10.96417969 1.13015625 9.74085937 1.1328125 8.48046875 C1.01945473 5.50982844 0.69145246 2.8810519 0 0 Z " fill="#ADDBE7" transform="translate(144,44)"/>
<path d="M0 0 C1.2421875 1.9375 1.2421875 1.9375 1.875 4 C2.09929687 4.680625 2.32359375 5.36125 2.5546875 6.0625 C3 8 3 8 3 11 C0.74191481 9.8709574 -1.37734305 8.75472702 -3.5 7.375 C-9.27507559 5.10622031 -15.60094822 4.83009381 -21.51953125 6.8671875 C-24.99637193 8.58009173 -24.99637193 8.58009173 -28 11 C-31.88835778 11.28204376 -35.79014146 11.23188328 -39.6875 11.25 C-40.77740234 11.270625 -41.86730469 11.29125 -42.99023438 11.3125 C-48.91890759 11.34136755 -52.77121282 11.01811554 -58 8 C-64.14944169 7.25534105 -70.27958839 7.45759484 -76 10 C-75.34 6.7 -74.68 3.4 -74 0 C-71.18986495 -0.82151737 -68.37731814 -1.63231562 -65.5625 -2.4375 C-64.77939453 -2.66759766 -63.99628906 -2.89769531 -63.18945312 -3.13476562 C-44.87362828 -8.33555539 -16.78467983 -10.1237109 0 0 Z " fill="#37AAC7" transform="translate(140,33)"/>
<path d="M0 0 C2.5821212 -0.00217289 5.16380427 -0.0203554 7.74584961 -0.03930664 C48.91417038 -0.18027641 48.91417038 -0.18027641 60.54858398 8.24780273 C65.28325349 13.81103941 69.06542031 19.95545493 72.17358398 26.56030273 C73.86475871 30.13300085 76.12897095 32.50241508 79.04858398 35.18530273 C80.40298066 37.89409609 80.11359849 40.19463541 80.04858398 43.18530273 C77.04858398 43.18530273 77.04858398 43.18530273 75.11108398 41.37280273 C73.25050554 38.49736332 72.30942342 36.26656028 71.23608398 33.06030273 C68.46285817 24.98082595 63.87628409 16.5142394 57.04858398 11.18530273 C51.52076183 8.85717029 46.27302167 7.47543117 40.36108398 6.56030273 C39.64758789 6.43913086 38.9340918 6.31795898 38.19897461 6.19311523 C25.55755892 4.15095502 12.82240082 3.94633058 0.04858398 3.93530273 C-1.17148346 3.93379211 -1.17148346 3.93379211 -2.41619873 3.93225098 C-30.69636967 3.27465118 -30.69636967 3.27465118 -55.26391602 14.87280273 C-61.28790786 21.54970167 -65.28215782 28.07675068 -67.89672852 36.70483398 C-69.11066022 39.55982151 -70.65111453 41.13793896 -72.95141602 43.18530273 C-73.94141602 42.85530273 -74.93141602 42.52530273 -75.95141602 42.18530273 C-75.42779843 36.68731809 -73.58969076 32.67861733 -69.52954102 28.84155273 C-67.50044017 26.71200135 -66.10988466 24.38116886 -64.57641602 21.87280273 C-59.14531766 13.2669496 -53.75027333 6.42446554 -43.43579102 3.85717773 C-41.86097894 3.53333578 -40.28266229 3.22610665 -38.70141602 2.93530273 C-37.9318457 2.77545898 -37.16227539 2.61561523 -36.36938477 2.45092773 C-24.33777411 0.07235561 -12.21566879 -0.00114454 0 0 Z " fill="#393939" transform="translate(100.951416015625,5.814697265625)"/>
<path d="M0 0 C2.6875 -0.375 2.6875 -0.375 6 0 C7.28968146 1.45089164 8.57434261 2.91225084 9.734375 4.46875 C12.70794484 8.06640239 16.81971805 9.13401974 21.25 9.875 C27.01499175 10.34243176 33.00695488 9.24649611 37.70703125 5.71875 C39.22419924 4.26184355 39.22419924 4.26184355 41 2 C42 1 42 1 45.08984375 0.8671875 C46.35957031 0.86976562 47.62929687 0.87234375 48.9375 0.875 C50.20464844 0.87242188 51.47179687 0.86984375 52.77734375 0.8671875 C56 1 56 1 58 2 C58 2.66 58 3.32 58 4 C59.32 4.66 60.64 5.32 62 6 C62 7.65 62 9.3 62 11 C57.4025546 13.94708039 54.3641511 14.20580936 49.1484375 13.51953125 C47 13 47 13 44.9140625 11.88671875 C42.85531614 10.66727703 42.85531614 10.66727703 40 12 C38.78130071 14.50447516 38.78130071 14.50447516 38 17 C33.10479279 17.33187845 28.20962983 17.62916343 23.30957031 17.87988281 C21.83983126 17.95632167 20.3703658 18.03838161 18.90136719 18.12792969 C8.14865516 18.75104376 8.14865516 18.75104376 3.75 15.875 C0.47335851 10.49194613 -0.25142995 6.28574882 0 0 Z " fill="#AADAE6" transform="translate(51,67)"/>
<path d="M0 0 C1.32 0 2.64 0 4 0 C4.40812069 5.70634444 3.20115039 9.51696896 0.52734375 14.4453125 C-0.01375282 15.48291214 -0.01375282 15.48291214 -0.56578064 16.54147339 C-1.7180898 18.74326366 -2.88984936 20.93398849 -4.0625 23.125 C-4.82356288 24.57223522 -5.58333972 26.02014749 -6.34179688 27.46875 C-12.20120616 38.62216617 -12.20120616 38.62216617 -15.12060547 43.74121094 C-15.7601416 44.8759082 -16.39967773 46.01060547 -17.05859375 47.1796875 C-17.62763428 48.16437012 -18.1966748 49.14905273 -18.78295898 50.16357422 C-20.14940411 53.34819999 -20.12393217 55.57210144 -20 59 C-21.3125 61.875 -21.3125 61.875 -23 64 C-23.99 64 -24.98 64 -26 64 C-25.67 62.35 -25.34 60.7 -25 59 C-29.25731568 58.59250325 -29.25731568 58.59250325 -32.875 60.5 C-33.24625 60.995 -33.6175 61.49 -34 62 C-35.32229189 59.35541621 -35.09677194 57.32238699 -35.0625 54.375 C-35.05347656 53.37210938 -35.04445312 52.36921875 -35.03515625 51.3359375 C-35.02355469 50.56507813 -35.01195312 49.79421875 -35 49 C-32.69 49.33 -30.38 49.66 -28 50 C-21.86761199 39.13264869 -15.93804605 28.18560072 -10.28808594 17.05834961 C-3.33040543 3.515127 -3.33040543 3.515127 0 0 Z " fill="#CFDF62" transform="translate(203,82)"/>
<path d="M0 0 C0.969375 0.515625 1.93875 1.03125 2.9375 1.5625 C8.41823383 3.91932672 13.5766664 2.84074839 19.0625 0.9375 C19.701875 0.628125 20.34125 0.31875 21 0 C24.55508549 2.27890095 25.83825168 3.42377161 27 7.5625 C27 11 27 11 25.8125 12.9375 C24 14 24 14 20 14 C20.05220703 14.93972656 20.05220703 14.93972656 20.10546875 15.8984375 C20.13253906 16.71570313 20.15960938 17.53296875 20.1875 18.375 C20.23970703 19.59316406 20.23970703 19.59316406 20.29296875 20.8359375 C20.19628906 21.55007812 20.09960938 22.26421875 20 23 C17 25 17 25 15 24.625 C14.01 24.315625 14.01 24.315625 13 24 C12.01 24 11.02 24 10 24 C9.67 24.33 9.34 24.66 9 25 C7.33382885 25.04063832 5.66611905 25.042721 4 25 C1.67409146 21.36576791 1.83734167 18.22911669 2 14 C0.824375 13.8453125 0.824375 13.8453125 -0.375 13.6875 C-3 13 -3 13 -5 10 C-5.4375 7.625 -5.4375 7.625 -5 5 C-2.5 2.1875 -2.5 2.1875 0 0 Z " fill="#F3D3A7" transform="translate(94,77)"/>
<path d="M0 0 C-2.74100509 6.3591318 -8.63642611 9.61014704 -14.8125 12.25 C-27.06440676 16.73924828 -39.18470865 16.79241657 -51.9375 14.8125 C-52.65953613 14.71171143 -53.38157227 14.61092285 -54.12548828 14.50708008 C-59.19682868 13.62709171 -61.76551692 11.96872973 -65 8 C-65 7.67 -65 7.34 -65 7 C-64.22624023 6.98541748 -63.45248047 6.97083496 -62.65527344 6.95581055 C-42.84434403 6.54051477 -23.91153339 4.99146943 -4.5546875 0.55078125 C-2 0 -2 0 0 0 Z " fill="#EC9324" transform="translate(178,183)"/>
<path d="M0 0 C0.76554199 0.14622803 1.53108398 0.29245605 2.31982422 0.44311523 C5.83738231 1.11238044 9.35616535 1.77498082 12.875 2.4375 C14.07898438 2.66759766 15.28296875 2.89769531 16.5234375 3.13476562 C28.10851748 5.30696812 39.3511483 6.17802197 51.125 6.5625 C52.36765625 6.60568359 53.6103125 6.64886719 54.890625 6.69335938 C57.92699671 6.79846455 60.96343665 6.90061343 64 7 C62.59101091 10.34980249 62.17118394 10.91111603 58.75 12.6875 C46.00524135 17.14816553 26.95667707 17.54463675 14.37890625 12.27734375 C9.16791685 9.47932481 3.92472903 6.5116044 0 2 C0 1.34 0 0.68 0 0 Z " fill="#ED9323" transform="translate(32,183)"/>
<path d="M0 0 C0 1.65 0 3.3 0 5 C-6.41774757 7.67406149 -12.64606564 9.03533047 -19.5 10.125 C-21.09775269 10.38265137 -21.09775269 10.38265137 -22.7277832 10.64550781 C-38.15303953 13.04786874 -53.42213632 13.14768978 -69 13 C-69 10.69 -69 8.38 -69 6 C-68.01418945 5.98541748 -67.02837891 5.97083496 -66.01269531 5.95581055 C-45.68698276 5.63203014 -25.92417654 5.15354608 -6.06713867 0.38256836 C-4 0 -4 0 0 0 Z " fill="#ED9529" transform="translate(177,164)"/>
<path d="M0 0 C6.95783427 0.95082944 13.89253762 1.96430296 20.81152344 3.16357422 C36.61176708 5.88809914 51.98598816 6.12626283 68 6 C68 8.31 68 10.62 68 13 C17.92127327 13.96063663 17.92127327 13.96063663 0 5 C0 3.35 0 1.7 0 0 Z " fill="#EE9325" transform="translate(33,164)"/>
<path d="M0 0 C2.95712094 2.07439827 4.10544144 4.78179377 5.59375 7.96875 C5.92052734 8.64421875 6.24730469 9.3196875 6.58398438 10.015625 C7.77224853 12.49171643 8.93481347 14.97879242 10.09375 17.46875 C10.60164063 18.55800781 11.10953125 19.64726563 11.6328125 20.76953125 C15.14737508 28.32334229 18.6310421 35.89104053 22.09375 43.46875 C17.34375 47.46875 17.34375 47.46875 15.09375 47.46875 C14.73659912 46.69909912 14.37944824 45.92944824 14.01147461 45.13647461 C12.94946526 42.84803011 11.88718648 40.55971065 10.82470703 38.27148438 C9.62711688 35.6916547 8.43169375 33.11083586 7.23779297 30.52929688 C3.49578669 22.44206052 3.49578669 22.44206052 -0.36328125 14.41015625 C-0.69642334 13.72381104 -1.02956543 13.03746582 -1.37280273 12.33032227 C-2.21650987 10.6014142 -3.072594 8.87856111 -3.9296875 7.15625 C-4.90625 4.46875 -4.90625 4.46875 -4.6953125 2.15625 C-3.54779973 -0.29783673 -2.60418266 -0.72575582 0 0 Z " fill="#D0E063" transform="translate(6.90625,81.53125)"/>
<path d="M0 0 C6.93 0 13.86 0 21 0 C19.68 2.64 18.36 5.28 17 8 C15.67385953 14.79646993 17.25208626 19.37812938 21 25 C21 25.66 21 26.32 21 27 C20.34 27 19.68 27 19 27 C19 26.34 19 25.68 19 25 C18.26394531 25.01160156 17.52789062 25.02320312 16.76953125 25.03515625 C15.79371094 25.04417969 14.81789063 25.05320312 13.8125 25.0625 C12.36810547 25.07990234 12.36810547 25.07990234 10.89453125 25.09765625 C8.14423487 25.00486622 5.67520409 24.62111685 3 24 C3.495 22.7315625 3.495 22.7315625 4 21.4375 C5.9872336 14.6063845 4.97455011 9.27657362 2 3 C1.34 2.01 0.68 1.02 0 0 Z " fill="#D7EDF3" transform="translate(90,44)"/>
<path d="M0 0 C0.16943115 0.61601074 0.3388623 1.23202148 0.51342773 1.86669922 C2.23463184 7.88775911 4.35271996 13.48396464 7.0625 19.125 C7.44591553 19.93324219 7.82933105 20.74148437 8.22436523 21.57421875 C11.35087141 28.00718296 14.94153353 34.05874738 18.90063477 40.01220703 C22 44.71269535 22 44.71269535 22 48 C18.535 48.495 18.535 48.495 15 49 C9.40012802 42.61768015 7.07483908 36.98609791 6.06323242 28.7109375 C5.42277975 23.88758413 4.0627223 20.7823469 1 17 C0.154375 16.731875 -0.69125 16.46375 -1.5625 16.1875 C-4.61371913 14.70100863 -4.76120102 13.75279166 -5.875 10.625 C-6.90226632 7.39181443 -7.3164778 5.18940498 -6 2 C-3 0 -3 0 0 0 Z " fill="#950506" transform="translate(147,29)"/>
<path d="M0 0 C4.875 0.875 4.875 0.875 6 2 C6.44809177 6.81698654 5.80255909 10.02217419 3 14 C1.2984375 14.4640625 1.2984375 14.4640625 -0.4375 14.9375 C-4.2436576 15.67324979 -4.2436576 15.67324979 -6.171875 19.07421875 C-8.19966161 22.90263688 -8.59095476 26.60072253 -8.8125 30.875 C-9.42583401 38.26234339 -11.65305462 42.85320766 -17 48 C-18.98 47.67 -20.96 47.34 -23 47 C-23 42.15290186 -21.20483963 40.01212823 -18.5 36.25 C-10.68849404 24.96578682 -5.02058887 12.74457174 0 0 Z " fill="#940405" transform="translate(60,30)"/>
<path d="M0 0 C3.04261908 0.3259949 3.9801219 0.97895261 6.125 3.25 C9.56595966 8.29674083 10.3216601 12.54366135 10.6875 18.625 C10.77386719 19.93726562 10.86023438 21.24953125 10.94921875 22.6015625 C11 26 11 26 10 29 C4.39 29 -1.22 29 -7 29 C-5.35 27.35 -3.7 25.7 -2 24 C1.06402078 19.95016384 1.35850766 17.0347556 1.25 12 C1.23453125 10.80375 1.2190625 9.6075 1.203125 8.375 C1.02845158 5.47273401 0.66325888 2.82419909 0 0 Z " fill="#D4EBF2" transform="translate(144,44)"/>
<path d="M0 0 C0.66 0.66 1.32 1.32 2 2 C1.42145264 2.06993164 0.84290527 2.13986328 0.24682617 2.21191406 C-22.57481019 4.84617845 -22.57481019 4.84617845 -39.68359375 19.1328125 C-43.16533695 23.97773196 -45.21814906 28.81989188 -46.9453125 34.51953125 C-48.15924421 37.37451878 -49.69969851 38.95263623 -52 41 C-52.99 40.67 -53.98 40.34 -55 40 C-54.47638241 34.50201535 -52.63827474 30.49331459 -48.578125 26.65625 C-46.54902415 24.52669862 -45.15846864 22.19586613 -43.625 19.6875 C-38.13052513 10.98122354 -32.72696228 4.2703313 -22.34375 1.6015625 C-20.73259314 1.25948544 -19.11782213 0.9340222 -17.5 0.625 C-16.69691406 0.44839844 -15.89382812 0.27179687 -15.06640625 0.08984375 C-9.72622035 -0.99204156 -5.35261051 -1.10131145 0 0 Z " fill="#2F2F2F" transform="translate(80,8)"/>
<path d="M0 0 C1.98283479 1.11852219 3.96117623 2.24501325 5.9375 3.375 C7.03964844 4.00148437 8.14179687 4.62796875 9.27734375 5.2734375 C12 7 12 7 13 9 C11.4840625 9.8353125 11.4840625 9.8353125 9.9375 10.6875 C7.24599683 12.20452906 4.81978064 13.86402636 2.375 15.75 C0.16496153 17.34696292 -0.96247456 17.99214584 -3.6875 18.5625 C-6.94393748 17.77039359 -8.13896469 16.79155296 -10 14 C-10.3125 10.6875 -10.3125 10.6875 -9 7 C-6.22051816 4.3246186 -3.20879614 2.13271501 0 0 Z " fill="#F5D2A2" transform="translate(53,223)"/>
<path d="M0 0 C0.99 0.66 1.98 1.32 3 2 C3.3984375 4.09375 3.3984375 4.09375 3.375 6.5 C3.38273437 7.2940625 3.39046875 8.088125 3.3984375 8.90625 C3.26695313 9.5971875 3.13546875 10.288125 3 11 C0 13 0 13 -2 12.625 C-2.66 12.41875 -3.32 12.2125 -4 12 C-4.99 12 -5.98 12 -7 12 C-7.33 12.33 -7.66 12.66 -8 13 C-9.66617115 13.04063832 -11.33388095 13.042721 -13 13 C-15.60018816 9.09971775 -15.15085514 5.52565431 -15 1 C-9.82965043 -1.25374212 -5.41320135 -1.27854661 0 0 Z " fill="#FAFCFC" transform="translate(111,89)"/>
<path d="M0 0 C3.58217292 1.71768128 5.80025895 4.6094849 7.90625 7.9140625 C8.59375 11.1015625 8.59375 11.1015625 7.90625 13.9140625 C5.65625 16.3515625 5.65625 16.3515625 2.90625 17.9140625 C-0.89992008 17.60335474 -2.66171538 15.66485175 -5.21875 12.9765625 C-5.90195313 12.26628906 -6.58515625 11.55601562 -7.2890625 10.82421875 C-7.88460937 10.19386719 -8.48015625 9.56351563 -9.09375 8.9140625 C-9.75375 8.2540625 -10.41375 7.5940625 -11.09375 6.9140625 C-9.69002198 5.71129555 -8.27022903 4.52725731 -6.84375 3.3515625 C-6.05484375 2.69027344 -5.2659375 2.02898437 -4.453125 1.34765625 C-2.09375 -0.0859375 -2.09375 -0.0859375 0 0 Z " fill="#F5D2A2" transform="translate(155.09375,222.0859375)"/>
<path d="M0 0 C6.93 0 13.86 0 21 0 C19.68 2.64 18.36 5.28 17 8 C16.67 9.32 16.34 10.64 16 12 C8.375 11.125 8.375 11.125 5 10 C3.8671875 8.22265625 3.8671875 8.22265625 2.875 6.0625 C2.54242188 5.35222656 2.20984375 4.64195313 1.8671875 3.91015625 C1.58101563 3.27980469 1.29484375 2.64945313 1 2 C0.67 1.34 0.34 0.68 0 0 Z " fill="#AFDDE8" transform="translate(90,44)"/>
<path d="M0 0 C1.5625 1.8125 1.5625 1.8125 1.8125 4.5 C1.73 5.263125 1.6475 6.02625 1.5625 6.8125 C-3.68279342 10.17486758 -7.56064703 10.08190024 -13.4375 8.8125 C-14.0975 8.4825 -14.7575 8.1525 -15.4375 7.8125 C-15.80335366 3.30030488 -15.80335366 3.30030488 -14.125 1.0625 C-9.9642304 -2.01955155 -4.58478931 -2.2336153 0 0 Z " fill="#040404" transform="translate(111.4375,71.1875)"/>
<path d="M0 0 C0.99 0.33 1.98 0.66 3 1 C4.6875 4.5625 4.6875 4.5625 6 8 C5.34 8.66 4.68 9.32 4 10 C4 11.32 4 12.64 4 14 C4.94875 14.2475 5.8975 14.495 6.875 14.75 C10 16 10 16 11.375 17.875 C12 20 12 20 12 24 C10.02 24.33 8.04 24.66 6 25 C2.7 18.07 -0.6 11.14 -4 4 C-2.68 2.68 -1.36 1.36 0 0 Z " fill="#0D0C0B" transform="translate(27,126)"/>
<path d="M0 0 C1.29200317 -0.00143509 1.29200317 -0.00143509 2.61010742 -0.00289917 C4.42203851 -0.00357637 6.23397208 -0.00175436 8.04589844 0.00244141 C10.8040924 0.00779618 13.56212354 0.00248072 16.3203125 -0.00390625 C18.08854202 -0.00324539 19.85677144 -0.00196406 21.625 0 C22.85029419 -0.00303635 22.85029419 -0.00303635 24.1003418 -0.00613403 C28.77417362 0.01280968 33.20181298 0.35795238 37.8125 1.1328125 C37.8125 1.4628125 37.8125 1.7928125 37.8125 2.1328125 C31.74843146 3.01366865 25.85395202 3.29312356 19.73046875 3.30078125 C18.79447342 3.30410965 17.85847809 3.30743805 16.89411926 3.31086731 C14.93015023 3.31590053 12.96617274 3.31827676 11.00219727 3.31811523 C7.99155893 3.32031868 4.98127761 3.33855832 1.97070312 3.35742188 C0.05729292 3.36035313 -1.85611903 3.36233972 -3.76953125 3.36328125 C-4.66952347 3.37046677 -5.56951569 3.37765228 -6.4967804 3.38505554 C-7.74904671 3.3804406 -7.74904671 3.3804406 -9.02661133 3.37573242 C-10.12625969 3.37786995 -10.12625969 3.37786995 -11.24812317 3.38005066 C-13.1875 3.1328125 -13.1875 3.1328125 -16.1875 1.1328125 C-10.74801354 0.21866649 -5.51011561 -0.01365437 0 0 Z " fill="#313131" transform="translate(93.1875,5.8671875)"/>
<path d="M0 0 C6.9966713 0.4743506 9.99564839 1.99564839 15 7 C14.60495559 9.9628331 13.40182371 12.38326241 12 15 C11.01 15 10.02 15 9 15 C9.33 13.35 9.66 11.7 10 10 C5.74268432 9.59250325 5.74268432 9.59250325 2.125 11.5 C1.75375 11.995 1.3825 12.49 1 13 C-0.32229189 10.35541621 -0.09677194 8.32238699 -0.0625 5.375 C-0.05347656 4.37210938 -0.04445312 3.36921875 -0.03515625 2.3359375 C-0.02355469 1.56507813 -0.01195312 0.79421875 0 0 Z " fill="#CCC4A4" transform="translate(168,131)"/>
<path d="M0 0 C-3.12675931 8.25637368 -6.76517588 15.85136922 -12 23 C-12.33 23 -12.66 23 -13 23 C-13.45671326 14.74533075 -12.85136623 8.60172576 -7.625 2 C-4.6374061 -0.27626202 -3.61276586 -0.19332526 0 0 Z " fill="#E5C6C5" transform="translate(63,44)"/>
<path d="M0 0 C1.875 1.6875 1.875 1.6875 3 4 C2.875 7.125 2.875 7.125 2 10 C-1.23253796 12.15502531 -2.25150923 12.46856135 -6 12 C-7.8125 10.9375 -7.8125 10.9375 -9 9 C-9.4375 5.5 -9.4375 5.5 -9 2 C-6.20195492 -1.31620157 -3.97608516 -1.52926352 0 0 Z " fill="#D0D0D0" transform="translate(69,54)"/>
<path d="M0 0 C3.0625 0.3125 3.0625 0.3125 4.9375 1.4375 C6.61718045 4.23696741 6.51992277 6.11054064 6.0625 9.3125 C4.375 11.75 4.375 11.75 2.0625 13.3125 C-0.78253183 13.24310898 -2.38844174 12.64193496 -4.8125 11.1875 C-6.64752135 8.12913109 -5.72788061 5.65641796 -4.9375 2.3125 C-2.9375 0.3125 -2.9375 0.3125 0 0 Z " fill="#D3D3D3" transform="translate(115.9375,51.6875)"/>
<path d="M0 0 C2 2 2 2 2.265625 4.20703125 C2.21379833 12.84912813 2.21379833 12.84912813 0 17 C-1.70840281 15.36587557 -2.93453047 14.13093906 -4 12 C-5.97888961 11.27306096 -7.97954558 10.60183749 -10 10 C-9.25 5.25 -9.25 5.25 -7 3 C-3.375 2.875 -3.375 2.875 0 3 C0 2.01 0 1.02 0 0 Z " fill="#C7C9AF" transform="translate(40,130)"/>
<path d="M0 0 C0.66 0.66 1.32 1.32 2 2 C1.87358041 7.56246192 -0.37757375 10.09892558 -4 14 C-4.99 13.67 -5.98 13.34 -7 13 C-6.52431912 8.00535076 -5.04839109 4.97214597 -2 1 C-1.34 0.67 -0.68 0.34 0 0 Z " fill="#940808" transform="translate(32,35)"/>
<path d="M0 0 C3.04261908 0.3259949 3.9801219 0.97895261 6.125 3.25 C8.59344415 6.87038475 10 9.59080211 10 14 C6.89790267 13.69239707 5.43953812 13.5350427 3.41796875 11.07421875 C3.01191406 10.28660156 2.60585937 9.49898437 2.1875 8.6875 C1.55908203 7.51767578 1.55908203 7.51767578 0.91796875 6.32421875 C0 4 0 4 0 0 Z " fill="#D29999" transform="translate(144,44)"/>
<path d="M0 0 C3.3125 -0.3125 3.3125 -0.3125 7 0 C9.77189158 3.21897087 10 4.6935573 10 9 C8.02 9.33 6.04 9.66 4 10 C3.32845067 8.71086513 2.66291141 7.41859796 2 6.125 C1.62875 5.40570313 1.2575 4.68640625 0.875 3.9453125 C0 2 0 2 0 0 Z " fill="#040403" transform="translate(29,141)"/>
<path d="M0 0 C3.14158949 0.93398606 4.7325148 1.66794941 6.8125 4.25 C8.16280181 7.37701471 8.23523553 9.6282908 8 13 C7.01 13 6.02 13 5 13 C0.92830782 8.44928521 -0.1316899 6.0577354 0 0 Z " fill="#950707" transform="translate(173,36)"/>
<path d="M0 0 C2.00720923 0.28674418 4.0085944 0.61866701 6 1 C5.54663921 5.87362847 4.2910841 8.39042389 1 12 C-1.125 9.875 -1.125 9.875 -3 7 C-1.92682927 1.92682927 -1.92682927 1.92682927 0 0 Z " fill="#090909" transform="translate(179,126)"/>
<path d="M0 0 C1.093125 0.0825 2.18625 0.165 3.3125 0.25 C2.2030928 3.73670834 1.04912334 7.02484237 -0.6875 10.25 C-3.6575 9.755 -3.6575 9.755 -6.6875 9.25 C-6.9264871 6.38215478 -6.83570847 4.57257137 -5.625 1.9375 C-3.6875 0.25 -3.6875 0.25 0 0 Z " fill="#050505" transform="translate(175.6875,139.75)"/>
<path d="M0 0 C-0.99 0.495 -0.99 0.495 -2 1 C-2.33 1.99 -2.66 2.98 -3 4 C-9.93 3.34 -16.86 2.68 -24 2 C-16.09898744 -1.95050628 -8.5504559 -0.92629939 0 0 Z " fill="#3D3D3D" transform="translate(143,8)"/>
<path d="M0 0 C3.0625 0.3125 3.0625 0.3125 4.9375 1.625 C6.0625 3.3125 6.0625 3.3125 6.0625 6.3125 C2.7625 6.3125 -0.5375 6.3125 -3.9375 6.3125 C-4.2675 4.9925 -4.5975 3.6725 -4.9375 2.3125 C-2.9375 0.3125 -2.9375 0.3125 0 0 Z " fill="#9B9B9B" transform="translate(115.9375,51.6875)"/>
<path d="M0 0 C-0.587515 3.85445446 -2.39754729 5.992689 -4.875 8.9375 C-7.5791592 12.16552768 -9.9161106 15.33681076 -12 19 C-12.69921875 17.34375 -12.69921875 17.34375 -13 15 C-11.70703125 12.34375 -11.70703125 12.34375 -9.8125 9.5 C-9.20019531 8.5615625 -8.58789062 7.623125 -7.95703125 6.65625 C-3.05294118 0 -3.05294118 0 0 0 Z " fill="#2D2D2D" transform="translate(46,18)"/>
<path d="M0 0 C-0.99 2.64 -1.98 5.28 -3 8 C-5.64 8 -8.28 8 -11 8 C-6.54245283 -0.17216981 -6.54245283 -0.17216981 0 0 Z " fill="#D39898" transform="translate(63,44)"/>
<path d="M0 0 C0.99 0 1.98 0 3 0 C4.03023161 3.27800968 4.17153978 4.61403548 2.75 7.8125 C2.1725 8.534375 1.595 9.25625 1 10 C0.01 10 -0.98 10 -2 10 C-1.34 6.7 -0.68 3.4 0 0 Z " fill="#D8B990" transform="translate(179,136)"/>
<path d="M0 0 C2.97526665 2.55022856 4.50122302 5.40293526 6 9 C5.67 9.99 5.34 10.98 5 12 C2.75892504 9.11861791 0.66831106 6.25320657 -1 3 C-0.67 2.01 -0.34 1.02 0 0 Z " fill="#313131" transform="translate(168,25)"/>
<path d="M0 0 C2.64465038 3.1254959 3.84414715 6.08788267 5 10 C3.125 9.75 3.125 9.75 1 9 C-0.87380446 6.50159405 -1.05001932 5.36680834 -0.625 2.25 C-0.41875 1.5075 -0.2125 0.765 0 0 Z " fill="#EFCEA1" transform="translate(26,137)"/>
<path d="M0 0 C7.75 0.75 7.75 0.75 10 3 C6.37 3.33 2.74 3.66 -1 4 C-0.67 2.68 -0.34 1.36 0 0 Z " fill="#4C4C4C" transform="translate(72,7)"/>
<path d="M0 0 C0.33 0 0.66 0 1 0 C1.33 2.64 1.66 5.28 2 8 C0.02 8 -1.96 8 -4 8 C-2.68 5.36 -1.36 2.72 0 0 Z " fill="#DAEEF4" transform="translate(55,59)"/>
<path d="M0 0 C3.3 0.33 6.6 0.66 10 1 C10 1.33 10 1.66 10 2 C6.7 2.33 3.4 2.66 0 3 C0 2.01 0 1.02 0 0 Z " fill="#272727" transform="translate(141,9)"/>
<path d="M0 0 C1.32 0 2.64 0 4 0 C4.33 2.64 4.66 5.28 5 8 C2.74754119 5.31158141 1.11786042 3.35358125 0 0 Z " fill="#E4C6C6" transform="translate(150,58)"/>
<path d="M0 0 C0.6875 1.6875 0.6875 1.6875 1 4 C-0.4375 6.75 -0.4375 6.75 -2 9 C-2.6875 7.3125 -2.6875 7.3125 -3 5 C-1.5625 2.25 -1.5625 2.25 0 0 Z " fill="#363131" transform="translate(36,28)"/>
</svg>
