<svg width="150" height="154" viewBox="0 0 150 154" fill="none" xmlns="http://www.w3.org/2000/svg">
<path d="M0 12C0 5.37259 5.37258 0 12 0H138C144.627 0 150 5.37258 150 12V142C150 148.627 144.627 154 138 154H12C5.37258 154 0 148.627 0 142V12Z" fill="#22314A" fill-opacity="0.7"/>
<g clip-path="url(#clip0_0_167)">
<path d="M98.1094 33.8049H51.8906C40.6292 33.8049 31.5 42.949 31.5 54.2287V100.523C31.5 111.802 40.6292 120.946 51.8906 120.946H98.1094C109.371 120.946 118.5 111.802 118.5 100.523V54.2287C118.5 42.949 109.371 33.8049 98.1094 33.8049Z" fill="#242938"/>
<path d="M75 45.3784L107.285 101.494H42.7148L75 45.3784Z" fill="white"/>
</g>
<defs>
<clipPath id="clip0_0_167">
<rect width="87" height="87.1415" fill="white" transform="translate(31.5 33.8049)"/>
</clipPath>
</defs>
</svg>
