<?xml version="1.0" encoding="UTF-8"?>
<svg version="1.1" xmlns="http://www.w3.org/2000/svg" width="1200" height="1040">
<path d="M0 0 C58.753849 -0.20587547 117.50768127 -0.36454192 176.2618169 -0.45958797 C183.19391372 -0.47081415 190.12600977 -0.48248311 197.05810547 -0.49438477 C197.74793824 -0.4955616 198.43777101 -0.49673843 199.1485078 -0.49795092 C221.51451452 -0.53631416 243.88031681 -0.60392399 266.24619964 -0.68667499 C289.87821892 -0.77395188 313.51005642 -0.82795759 337.14224374 -0.84679645 C351.30261658 -0.85916266 365.46240262 -0.89825789 379.62259488 -0.9712482 C389.32494061 -1.01872083 399.02698176 -1.03322392 408.72943528 -1.0215124 C414.33246868 -1.01573184 419.93447481 -1.02476263 425.53732681 -1.07284927 C430.66386006 -1.11652787 435.78867184 -1.11894021 440.91528301 -1.08809005 C442.77274715 -1.08427538 444.63031707 -1.09579795 446.48757179 -1.12394864 C460.3959067 -1.32255341 460.3959067 -1.32255341 464.38802791 1.96889699 C465.95961193 4.27632614 467.01106758 6.39849495 468 9 C468.59651367 10.00546875 469.19302734 11.0109375 469.80761719 12.046875 C470.5447998 13.38492187 470.5447998 13.38492187 471.296875 14.75 C472.13786743 16.26678345 472.13786743 16.26678345 472.99584961 17.81420898 C473.57471924 18.86552002 474.15358887 19.91683105 474.75 21 C478.74175824 28.18892621 482.73998644 35.36636563 486.9375 42.4375 C491.07317969 49.40769835 495.14121067 56.41501012 499.1875 63.4375 C499.82550537 64.54472412 500.46351074 65.65194824 501.12084961 66.79272461 C502.42889477 69.06337068 503.73675448 71.33412358 505.04443359 73.60498047 C508.19332054 79.0716998 511.34683264 84.53574887 514.5 90 C515.7500235 92.16665311 517.00002347 94.33331979 518.25 96.5 C518.86875 97.5725 519.4875 98.645 520.125 99.75 C525.75 109.5 525.75 109.5 527.62524414 112.75048828 C528.87435518 114.91557071 530.12354129 117.08060982 531.37280273 119.24560547 C534.51202309 124.68615706 537.64990563 130.12747216 540.78515625 135.5703125 C546.80747329 146.02206199 552.84669337 156.46299548 558.9375 166.875 C564.35511137 176.13798694 569.69411421 185.44415029 575.00714111 194.76730347 C586.07240054 214.38031612 586.07240054 214.38031612 597.67456055 233.67211914 C599 236 599 236 599 238 C599.66 238 600.32 238 601 238 C601.24234375 237.33613281 601.4846875 236.67226562 601.734375 235.98828125 C603.32481947 232.23306515 605.25608946 228.74136394 607.25 225.1875 C607.68546143 224.40761719 608.12092285 223.62773437 608.56958008 222.82421875 C613.37245415 214.26646158 618.33793988 205.80382282 623.296875 197.3359375 C627.03634589 190.94718008 630.74125034 184.53883924 634.4375 178.125 C635.05971436 177.04541016 635.68192871 175.96582031 636.32299805 174.85351562 C637.58511517 172.6631748 638.84707785 170.47274498 640.10888672 168.28222656 C643.23680148 162.85340058 646.36858448 157.42680719 649.5 152 C650.75001879 149.83334417 652.00001878 147.6666775 653.25 145.5 C705.75 54.5 705.75 54.5 707.62744141 51.24584961 C708.86939744 49.09307184 710.1112604 46.94024037 711.35302734 44.78735352 C714.25646913 39.75383085 717.160785 34.72081952 720.06854248 29.68978882 C721.09345403 27.91637392 722.11806123 26.14278354 723.14257812 24.36914062 C724.42452738 22.15004227 725.70704107 19.93126984 726.99023438 17.71289062 C727.57353516 16.70291016 728.15683594 15.69292969 728.7578125 14.65234375 C729.2645752 13.77570068 729.77133789 12.89905762 730.29345703 11.99584961 C732.56093616 8.01527215 734.77522216 4.00460011 737 0 C889.79 0 1042.58 0 1200 0 C1198.34683252 4.95950244 1196.48543293 8.86322334 1193.8125 13.25 C1192.90501595 14.76618915 1191.99885194 16.28316888 1191.09375 17.80078125 C1190.59875 18.62916504 1190.10375 19.45754883 1189.59375 20.31103516 C1186.6209771 25.32667865 1183.72060528 30.38418227 1180.8125 35.4375 C1180.17546143 36.54319336 1179.53842285 37.64888672 1178.88208008 38.78808594 C1177.57299343 41.06024082 1176.26415738 43.33254009 1174.95556641 45.60498047 C1171.80667946 51.0716998 1168.65316736 56.53574887 1165.5 62 C1164.2499765 64.16665311 1162.99997653 66.33331979 1161.75 68.5 C1154.25 81.5 1146.75 94.5 1139.25 107.5 C1138.63116943 108.57266113 1138.01233887 109.64532227 1137.37475586 110.75048828 C1136.12564482 112.91557071 1134.87645871 115.08060982 1133.62719727 117.24560547 C1130.48797691 122.68615706 1127.35009437 128.12747216 1124.21484375 133.5703125 C1118.19252671 144.02206199 1112.15330663 154.46299548 1106.0625 164.875 C1100.98724877 173.55262241 1095.97741233 182.26605568 1091 191 C1085.4599827 200.72115617 1079.86625191 210.40894658 1074.21655273 220.06689453 C1068.06233258 230.59084625 1061.97630004 241.15380137 1055.89111328 251.71777344 C1052.76319852 257.14659942 1049.63141552 262.57319281 1046.5 268 C1045.24998121 270.16665583 1043.99998122 272.3333225 1042.75 274.5 C1000.25 348.16666667 957.75 421.83333333 915.25 495.5 C914.63116943 496.57266113 914.01233887 497.64532227 913.37475586 498.75048828 C912.12564482 500.91557071 910.87645871 503.08060982 909.62719727 505.24560547 C906.48797691 510.68615706 903.35009437 516.12747216 900.21484375 521.5703125 C894.19252671 532.02206199 888.15330663 542.46299548 882.0625 552.875 C876.98724877 561.55262241 871.97741233 570.26605568 867 579 C861.4599827 588.72115617 855.86625191 598.40894658 850.21655273 608.06689453 C844.06233258 618.59084625 837.97630004 629.15380137 831.89111328 639.71777344 C828.76319852 645.14659942 825.63141552 650.57319281 822.5 656 C821.24998121 658.16665583 819.99998122 660.3333225 818.75 662.5 C781.25 727.5 743.75 792.5 706.25 857.5 C705.63116943 858.57266113 705.01233887 859.64532227 704.37475586 860.75048828 C703.12564482 862.91557071 701.87645871 865.08060982 700.62719727 867.24560547 C697.48797691 872.68615706 694.35009437 878.12747216 691.21484375 883.5703125 C685.19252671 894.02206199 679.15330663 904.46299548 673.0625 914.875 C667.98724877 923.55262241 662.97741233 932.26605568 658 941 C652.4599827 950.72115617 646.86625191 960.40894658 641.21655273 970.06689453 C635.07691198 980.56591492 629.00558415 991.10398132 622.93505859 1001.64306641 C620.92395246 1005.13192703 618.90969005 1008.61894828 616.89453125 1012.10546875 C616.21474214 1013.28205212 615.53497305 1014.45864705 614.85522461 1015.63525391 C613.57401834 1017.85268378 612.29231333 1020.06982559 611.01000977 1022.28662109 C607.61742993 1028.16097076 604.26936584 1034.05612428 601 1040 C600.34 1040 599.68 1040 599 1040 C598.6282666 1039.33170166 598.2565332 1038.66340332 597.87353516 1037.97485352 C588.5341651 1021.19311466 588.5341651 1021.19311466 578.88989258 1004.5859375 C575.14775591 998.27328523 571.47618322 991.92096234 567.8125 985.5625 C567.17449463 984.45527588 566.53648926 983.34805176 565.87915039 982.20727539 C564.57110523 979.93662932 563.26324552 977.66587642 561.95556641 975.39501953 C558.80667946 969.9283002 555.65316736 964.46425113 552.5 959 C551.2499765 956.83334689 549.99997653 954.66668021 548.75 952.5 C547.821875 950.89125 547.821875 950.89125 546.875 949.25 C496.25 861.5 496.25 861.5 494.37475586 858.24951172 C493.12564482 856.08442929 491.87645871 853.91939018 490.62719727 851.75439453 C487.48797691 846.31384294 484.35009437 840.87252784 481.21484375 835.4296875 C475.19252671 824.97793801 469.15330663 814.53700452 463.0625 804.125 C457.64078822 794.85500223 452.29795085 785.54168248 446.98077393 776.21154785 C441.77954871 767.0871716 436.51972122 757.99867226 431.21655273 748.93310547 C425.06233258 738.40915375 418.97630004 727.84619863 412.89111328 717.28222656 C409.76319852 711.85340058 406.63141552 706.42680719 403.5 701 C402.24998121 698.83334417 400.99998122 696.6666775 399.75 694.5 C399.13125 693.4275 398.5125 692.355 397.875 691.25 C287.25 499.49999999 287.25 499.49999999 285.37475586 496.24951172 C284.12564482 494.08442929 282.87645871 491.91939018 281.62719727 489.75439453 C278.48797691 484.31384294 275.35009437 478.87252784 272.21484375 473.4296875 C266.19252671 462.97793801 260.15330663 452.53700452 254.0625 442.125 C248.64078822 432.85500223 243.29795085 423.54168248 237.98077393 414.21154785 C232.77954871 405.0871716 227.51972122 395.99867226 222.21655273 386.93310547 C216.06233258 376.40915375 209.97630004 365.84619863 203.89111328 355.28222656 C200.76319852 349.85340058 197.63141552 344.42680719 194.5 339 C193.24998121 336.83334417 191.99998122 334.6666775 190.75 332.5 C190.13125 331.4275 189.5125 330.355 188.875 329.25 C78.25 137.5 78.25 137.5 76.37475586 134.24951172 C75.12564482 132.08442929 73.87645871 129.91939018 72.62719727 127.75439453 C69.48797691 122.31384294 66.35009437 116.87252784 63.21484375 111.4296875 C57.19252671 100.97793801 51.15330663 90.53700452 45.0625 80.125 C39.64314666 70.85903466 34.30204611 61.55007991 28.98782349 52.22363281 C24.20432457 43.83048378 19.37636099 35.464648 14.5 27.125 C13.92491699 26.14063965 13.34983398 25.1562793 12.75732422 24.14208984 C9.69069123 18.8927295 9.69069123 18.8927295 6.62207031 13.64453125 C5.45189888 11.64057895 4.2873397 9.63350167 3.125 7.625 C2.50882812 6.56539063 1.89265625 5.50578125 1.2578125 4.4140625 C0 2 0 2 0 0 Z " fill="#40B783" transform="translate(0,0)"/>
<path d="M0 0 C28.84141583 -0.21014649 57.6827171 -0.3689031 86.52474403 -0.46630955 C89.18951085 -0.47554811 91.85427718 -0.48486017 94.51904297 -0.49438477 C95.18138559 -0.49674556 95.8437282 -0.49910635 96.52614181 -0.50153869 C106.58387824 -0.53826555 116.64123192 -0.6014593 126.69873047 -0.67895508 C138.36920782 -0.76859795 150.03934093 -0.82670929 161.71015298 -0.84679645 C167.89124366 -0.85854052 174.07134947 -0.88618105 180.25212479 -0.95157051 C186.06852824 -1.01260724 191.88354017 -1.031515 197.70023346 -1.01796913 C199.83604111 -1.02044754 201.97189471 -1.03838345 204.10742569 -1.07284927 C220.27830024 -1.32105838 220.27830024 -1.32105838 224.56118774 1.96519661 C226.14946133 4.29450329 227.10674774 6.3387626 228 9 C228.59651367 10.00546875 229.19302734 11.0109375 229.80761719 12.046875 C230.5447998 13.38492187 230.5447998 13.38492187 231.296875 14.75 C232.13786743 16.26678345 232.13786743 16.26678345 232.99584961 17.81420898 C233.57471924 18.86552002 234.15358887 19.91683105 234.75 21 C238.74175824 28.18892621 242.73998644 35.36636563 246.9375 42.4375 C251.07317969 49.40769835 255.14121067 56.41501012 259.1875 63.4375 C259.82550537 64.54472412 260.46351074 65.65194824 261.12084961 66.79272461 C262.42889477 69.06337068 263.73675448 71.33412358 265.04443359 73.60498047 C268.19332054 79.0716998 271.34683264 84.53574887 274.5 90 C275.7500235 92.16665311 277.00002347 94.33331979 278.25 96.5 C278.86875 97.5725 279.4875 98.645 280.125 99.75 C285.75 109.50000001 285.75 109.50000001 287.62524414 112.75048828 C288.87435518 114.91557071 290.12354129 117.08060982 291.37280273 119.24560547 C294.51202309 124.68615706 297.64990563 130.12747216 300.78515625 135.5703125 C306.80747329 146.02206199 312.84669337 156.46299548 318.9375 166.875 C324.35511137 176.13798694 329.69411421 185.44415029 335.00714111 194.76730347 C346.07240054 214.38031612 346.07240054 214.38031612 357.67456055 233.67211914 C359 236 359 236 359 238 C359.66 238 360.32 238 361 238 C361.24234375 237.33613281 361.4846875 236.67226562 361.734375 235.98828125 C363.32481947 232.23306515 365.25608946 228.74136394 367.25 225.1875 C367.68546143 224.40761719 368.12092285 223.62773437 368.56958008 222.82421875 C373.37245415 214.26646158 378.33793988 205.80382282 383.296875 197.3359375 C387.03634589 190.94718008 390.74125034 184.53883924 394.4375 178.125 C395.05971436 177.04541016 395.68192871 175.96582031 396.32299805 174.85351562 C397.58511517 172.6631748 398.84707785 170.47274498 400.10888672 168.28222656 C403.23680148 162.85340058 406.36858448 157.42680719 409.5 152 C410.75001879 149.83334417 412.00001878 147.6666775 413.25 145.5 C465.75 54.5 465.75 54.5 467.62744141 51.24584961 C468.86939744 49.09307184 470.1112604 46.94024037 471.35302734 44.78735352 C474.25646913 39.75383085 477.160785 34.72081952 480.06854248 29.68978882 C481.09345403 27.91637392 482.11806123 26.14278354 483.14257812 24.36914062 C484.42452738 22.15004227 485.70704107 19.93126984 486.99023438 17.71289062 C487.57353516 16.70291016 488.15683594 15.69292969 488.7578125 14.65234375 C489.2645752 13.77570068 489.77133789 12.89905762 490.29345703 11.99584961 C492.56093616 8.01527215 494.77522216 4.00460011 497 0 C570.59 0 644.18 0 720 0 C715.26186765 8.88399816 710.54997919 17.65991164 705.4375 26.3125 C704.21557657 28.39419721 702.99424294 30.47624071 701.7734375 32.55859375 C701.15178711 33.61804199 700.53013672 34.67749023 699.88964844 35.76904297 C696.75753357 41.12439285 693.65949655 46.49928772 690.5625 51.875 C689.94044678 52.95434814 689.31839355 54.03369629 688.67749023 55.14575195 C687.41519376 57.33632735 686.1530683 59.52700131 684.89111328 61.71777344 C681.76319852 67.14659942 678.63141552 72.57319281 675.5 78 C674.24998121 80.16665583 672.99998122 82.3333225 671.75 84.5 C669.25 88.83333333 666.75 93.16666667 664.25 97.5 C663.63116943 98.57266113 663.01233887 99.64532227 662.37475586 100.75048828 C661.12564482 102.91557071 659.87645871 105.08060982 658.62719727 107.24560547 C655.48797691 112.68615706 652.35009437 118.12747216 649.21484375 123.5703125 C643.19252671 134.02206199 637.15330663 144.46299548 631.0625 154.875 C625.98724877 163.55262241 620.97741233 172.26605568 616 181 C610.4599827 190.72115617 604.86625191 200.40894658 599.21655273 210.06689453 C593.06233258 220.59084625 586.97630004 231.15380137 580.89111328 241.71777344 C577.76319852 247.14659942 574.63141552 252.57319281 571.5 258 C570.24998121 260.16665583 568.99998122 262.3333225 567.75 264.5 C535.25 320.83333333 502.75 377.16666667 470.25 433.5 C469.63116943 434.57266113 469.01233887 435.64532227 468.37475586 436.75048828 C467.12564482 438.91557071 465.87645871 441.08060982 464.62719727 443.24560547 C461.48797691 448.68615706 458.35009437 454.12747216 455.21484375 459.5703125 C449.19252671 470.02206199 443.15330663 480.46299548 437.0625 490.875 C431.64041301 500.14563931 426.29675988 509.45936699 420.97976685 518.79046631 C415.80621213 527.86778636 410.56857846 536.90571533 405.2890625 545.921875 C400.46386778 554.17492298 395.71876574 562.47242336 390.98654175 570.77893066 C385.66037812 580.12574205 380.26343044 589.42935662 374.82763672 598.71289062 C370.12443023 606.7567308 365.52713822 614.85594183 361 623 C360.34 623 359.68 623 359 623 C358.6282666 622.33170166 358.2565332 621.66340332 357.87353516 620.97485352 C348.5341651 604.19311466 348.5341651 604.19311466 338.88989258 587.5859375 C335.14775591 581.27328523 331.47618322 574.92096234 327.8125 568.5625 C327.17449463 567.45527588 326.53648926 566.34805176 325.87915039 565.20727539 C324.57110523 562.93662932 323.26324552 560.66587642 321.95556641 558.39501953 C318.80667946 552.9283002 315.65316736 547.46425113 312.5 542 C311.2499765 539.83334689 309.99997653 537.66668021 308.75 535.5 C308.13125 534.4275 307.5125 533.355 306.875 532.25 C256.25 444.5 256.25 444.5 254.37475586 441.24951172 C253.12564482 439.08442929 251.87645871 436.91939018 250.62719727 434.75439453 C247.48797691 429.31384294 244.35009437 423.87252784 241.21484375 418.4296875 C235.16944841 407.93767906 229.10889781 397.45518324 223 387 C216.25298806 375.45270484 209.56660682 363.87097973 202.89111328 352.28222656 C199.76319852 346.85340058 196.63141552 341.42680719 193.5 336 C192.24998121 333.83334417 190.99998122 331.6666775 189.75 329.5 C189.13125 328.4275 188.5125 327.355 187.875 326.25 C47.25 82.5 47.25 82.5 45.37475586 79.24951172 C44.12564482 77.08442929 42.87645871 74.91939018 41.62719727 72.75439453 C38.48797691 67.31384294 35.35009437 61.87252784 32.21484375 56.4296875 C24.91917926 43.76768156 17.59108043 31.12534544 10.21875 18.5078125 C9.70054687 17.6199707 9.18234375 16.73212891 8.6484375 15.81738281 C7.44912995 13.76761842 6.24541217 11.72043249 5.0390625 9.67480469 C4.39710938 8.58329102 3.75515625 7.49177734 3.09375 6.3671875 C2.50271484 5.3654248 1.91167969 4.36366211 1.30273438 3.33154297 C0 1 0 1 0 0 Z " fill="#34495E" transform="translate(240,0)"/>
</svg>
