<svg width="150" height="154" viewBox="0 0 150 154" fill="none" xmlns="http://www.w3.org/2000/svg">
<path d="M0 12C0 5.37259 5.37258 0 12 0H138C144.627 0 150 5.37258 150 12V142C150 148.627 144.627 154 138 154H12C5.37258 154 0 148.627 0 142V12Z" fill="#22314A" fill-opacity="0.7"/>
<g clip-path="url(#clip0_0_137)">
<path d="M99.9 42.0682H116.25L75.375 112.619L34.5 42.0682H65.7694L75.375 58.4278L84.7762 42.0682H99.9Z" fill="#41B883"/>
<path d="M34.5 42.0682L75.375 112.619L116.25 42.0682H99.9L75.375 84.3987L50.6456 42.0682H34.5Z" fill="#41B883"/>
<path d="M50.6456 42.0682L75.375 84.6032L99.9 42.0682H84.7763L75.375 58.4278L65.7694 42.0682H50.6456Z" fill="#35495E"/>
</g>
<defs>
<clipPath id="clip0_0_137">
<rect width="81.75" height="70.6146" fill="white" transform="translate(34.5 42.0682)"/>
</clipPath>
</defs>
</svg>
