<?xml version="1.0" encoding="UTF-8"?>
<svg version="1.1" xmlns="http://www.w3.org/2000/svg" width="400" height="400">
<path d="M0 0 C132 0 264 0 400 0 C400 132 400 264 400 400 C268 400 136 400 0 400 C0 268 0 136 0 0 Z " fill="#FEFEFE" transform="translate(0,0)"/>
<path d="M0 0 C0 3.5584649 -0.64309825 4.17317494 -2.81640625 6.87890625 C-3.41308105 7.63123535 -4.00975586 8.38356445 -4.62451172 9.15869141 C-5.26404785 9.95194824 -5.90358398 10.74520508 -6.5625 11.5625 C-7.84947512 13.18475662 -9.13464724 14.80844532 -10.41796875 16.43359375 C-11.34681885 17.60897705 -11.34681885 17.60897705 -12.29443359 18.80810547 C-15.36604804 22.75556531 -18.22081044 26.84166374 -21 31 C-20.175 30.86722656 -19.35 30.73445313 -18.5 30.59765625 C-4.66134382 28.48170101 9.00697314 27.80322306 23 28 C20.47543335 30.52456665 18.74156673 30.69871219 15.26953125 31.48046875 C13.49267944 31.88906128 13.49267944 31.88906128 11.67993164 32.3059082 C9.76555298 32.74229614 9.76555298 32.74229614 7.8125 33.1875 C5.1595024 33.82271319 2.50958689 34.4704623 -0.140625 35.1171875 C-4.92787625 36.28408519 -9.72497912 37.36791253 -14.546875 38.3828125 C-28.10385953 41.51820209 -34.94677498 46.4467204 -42.6484375 58.11328125 C-43.85513376 60.05298178 -44.97854489 61.95708978 -46 64 C-45.15679199 64.26393555 -44.31358398 64.52787109 -43.44482422 64.79980469 C-39.81563713 66.06423302 -36.36084304 67.58113397 -32.8828125 69.203125 C-31.47112425 69.8541975 -30.05942112 70.50523776 -28.64770508 71.15625 C-27.54116074 71.66865234 -27.54116074 71.66865234 -26.41226196 72.19140625 C-13.27468854 78.27175618 -0.08426313 84.21842998 13.1875 90 C13.89138855 90.30667603 14.5952771 90.61335205 15.32049561 90.92932129 C19.21188652 92.62365841 23.10507144 94.3138077 27 96 C27 96.33 27 96.66 27 97 C-0.225 97.495 -0.225 97.495 -28 98 C0.87556411 111.09947877 0.87556411 111.09947877 29.8125 124.0625 C30.89378174 124.54364258 31.97506348 125.02478516 33.08911133 125.52050781 C37.36856015 127.41814088 41.64507382 129.28101399 46 131 C46 131.33 46 131.66 46 132 C27.85 132.33 9.7 132.66 -9 133 C24.29385373 148.72334081 24.29385373 148.72334081 58.24291992 162.94677734 C62.89458851 164.78917702 62.89458851 164.78917702 64 167 C54.28172013 167.34893328 44.5656216 167.6147311 34.84242535 167.77718258 C30.32619901 167.85519392 25.81428212 167.9607837 21.30053711 168.1315918 C16.93642959 168.29568658 12.57643805 168.38446945 8.20948219 168.42315865 C6.55163542 168.45068863 4.89399256 168.50446456 3.23792076 168.58595085 C-9.35734278 169.18053037 -9.35734278 169.18053037 -13.76182556 165.54626846 C-17.03238732 161.98222807 -19.54827783 158.0271989 -21.93387794 153.83450508 C-23.443358 151.2371019 -25.19252002 148.83202123 -26.9609375 146.40625 C-28.10075484 144.77208492 -29.23883814 143.13670869 -30.375 141.5 C-31.52833441 139.84353313 -32.68197444 138.18727899 -33.8359375 136.53125 C-34.36928711 135.76554688 -34.90263672 134.99984375 -35.45214844 134.2109375 C-37.61280733 131.12467143 -39.80324048 128.06065372 -42 125 C-41.80889648 125.5983667 -41.61779297 126.1967334 -41.42089844 126.81323242 C-34.96167185 147.04786733 -34.96167185 147.04786733 -32.03125 156.66015625 C-30.95399873 160.1489814 -29.8478416 163.62780591 -28.73901367 167.10668945 C-22 188.28028861 -22 188.28028861 -22 193 C-56.65 193 -91.3 193 -127 193 C-120.25725905 185.13346889 -120.25725905 185.13346889 -116.99829102 181.96411133 C-116.27476944 181.25680374 -115.55124786 180.54949615 -114.80580139 179.820755 C-114.04617599 179.08197617 -113.2865506 178.34319733 -112.50390625 177.58203125 C-110.87766982 175.98301701 -109.25203584 174.38338988 -107.62695312 172.78320312 C-105.08237105 170.28208863 -102.53425996 167.78504892 -99.97583008 165.2980957 C-97.49465818 162.88318304 -95.02941474 160.45294761 -92.56640625 158.01953125 C-91.79261124 157.27467972 -91.01881622 156.52982819 -90.22157288 155.7624054 C-89.52011642 155.06455429 -88.81865997 154.36670319 -88.09594727 153.64770508 C-87.16045799 152.7333947 -87.16045799 152.7333947 -86.20606995 151.8006134 C-84.77540823 150.07160445 -84.77540823 150.07160445 -85.18174744 147.92655945 C-86.39469345 145.07070209 -88.31799096 143.18587519 -90.4375 140.9375 C-92.87211376 138.33875498 -95.02195026 135.96707461 -97 133 C-102.94848716 133.57492905 -108.6201027 134.45876319 -114.42578125 135.85546875 C-115.2037204 136.03791138 -115.98165955 136.220354 -116.78317261 136.4083252 C-118.43979288 136.79709214 -120.09591273 137.18799691 -121.7515564 137.5809021 C-126.09414813 138.60951008 -130.44200878 139.61544944 -134.7890625 140.625 C-136.52897995 141.02991099 -138.26888891 141.43485843 -140.00878906 141.83984375 C-141.67250313 142.22666107 -143.33623926 142.61338348 -145 143 C-145.75825073 143.1762793 -146.51650146 143.35255859 -147.29772949 143.53417969 C-151.92292422 144.60701689 -156.5533656 145.65379601 -161.1875 146.6875 C-162.33710205 146.95522217 -163.4867041 147.22294434 -164.67114258 147.4987793 C-165.72197021 147.72992432 -166.77279785 147.96106934 -167.85546875 148.19921875 C-168.75934326 148.40377686 -169.66321777 148.60833496 -170.59448242 148.8190918 C-173.54608218 149.04106839 -174.55949314 148.66284081 -177 147 C-178.87148169 145.30572846 -180.65324021 143.60357015 -182.421875 141.80859375 C-182.92672424 141.30328629 -183.43157349 140.79797882 -183.95172119 140.27735901 C-185.01299872 139.21307011 -186.07185455 138.14636151 -187.12841797 137.07739258 C-188.75303325 135.4344325 -190.38559778 133.79970383 -192.01953125 132.16601562 C-193.04995399 131.13068068 -194.07991835 130.0948893 -195.109375 129.05859375 C-195.59992371 128.56693222 -196.09047241 128.07527069 -196.59588623 127.56871033 C-200 124.1160725 -200 124.1160725 -200 123 C-181.52813577 120.48692269 -163.03087285 118.28026764 -144.5 116.25 C-143.48460144 116.13749908 -142.46920288 116.02499817 -141.42303467 115.90908813 C-138.5012161 115.58620376 -135.57885931 115.26876275 -132.65625 114.953125 C-131.78445099 114.85644028 -130.91265198 114.75975555 -130.01443481 114.66014099 C-125.31065643 114.16003905 -120.73026416 113.9027154 -116 114 C-116 113.34 -116 112.68 -116 112 C-116.58136719 111.74476563 -117.16273438 111.48953125 -117.76171875 111.2265625 C-124.05017307 107.78053343 -128.85248084 101.15374572 -133.45703125 95.76171875 C-133.96621094 95.18035156 -134.47539062 94.59898437 -135 94 C-135.424021 93.47849365 -135.84804199 92.9569873 -136.28491211 92.41967773 C-138.58533184 90.51548688 -140.01595775 90.58880007 -142.984375 90.5234375 C-144.04092285 90.49523926 -145.0974707 90.46704102 -146.18603516 90.43798828 C-147.36214355 90.41720215 -148.53825195 90.39641602 -149.75 90.375 C-150.99700684 90.32456543 -152.24401367 90.27413086 -153.52880859 90.22216797 C-160.87607169 89.94664979 -168.11211812 90.01999351 -175.45167542 90.48886108 C-211.38266832 92.69700247 -211.38266832 92.69700247 -223.01953125 82.9609375 C-229.86733356 76.78641854 -235.8581195 69.64507862 -241 62 C-241 61.67 -241 61.34 -241 61 C-215.38466806 61.47500163 -189.77628194 62.11523696 -164.16977692 62.93482208 C-162.14166889 62.99946867 -160.11353325 63.06317488 -158.08538818 63.12664795 C-130.57231379 63.99365214 -130.57231379 63.99365214 -117 65 C-122.6299642 57.62250458 -128.29773575 50.33449228 -134.28515625 43.2421875 C-136 41 -136 41 -137 38 C-128.38030021 37.11020191 -119.74938709 36.62923385 -111.09832764 36.18405151 C-98.92672068 35.55403838 -86.77682811 34.86229754 -74.64477539 33.66894531 C-70.40551206 33.25857991 -66.21717729 32.94989455 -61.95703125 32.8984375 C-61.15023926 32.88176025 -60.34344727 32.86508301 -59.51220703 32.84790039 C-58.04328514 32.8255318 -56.57353426 32.82912674 -55.10498047 32.86889648 C-49.40491263 32.76380366 -46.07220361 30.31874753 -41.59545898 26.94995117 C-39.06451319 25.04846833 -36.48370041 23.33168083 -33.80859375 21.640625 C-32.93412598 21.08713379 -32.0596582 20.53364258 -31.15869141 19.96337891 C-30.26069824 19.39796387 -29.36270508 18.83254883 -28.4375 18.25 C-26.51658579 17.03439331 -24.59601733 15.81824012 -22.67578125 14.6015625 C-21.25386475 13.70099121 -21.25386475 13.70099121 -19.80322266 12.78222656 C-15.56234194 10.08596901 -11.34162885 7.35898287 -7.125 4.625 C-6.39982178 4.15481445 -5.67464355 3.68462891 -4.92749023 3.20019531 C-3.28453654 2.13416747 -1.64218919 1.06720518 0 0 Z " fill="#C8282B" transform="translate(308,71)"/>
<path d="M0 0 C2.48203685 0.96459207 4.82215069 1.9607911 7.21484375 3.10546875 C7.89589172 3.42163651 8.5769397 3.73780426 9.27862549 4.06355286 C10.74196298 4.7437889 12.20343561 5.42804868 13.66317749 6.1159668 C17.54274531 7.94380156 21.43612793 9.74179154 25.328125 11.54296875 C26.12401535 11.91219452 26.9199057 12.28142029 27.73991394 12.66183472 C36.16945009 16.56263455 44.67028699 20.29542745 53.1875 24 C53.89147919 24.30658539 54.59545837 24.61317078 55.32077026 24.92904663 C59.21208833 26.62343417 63.10511403 28.31382614 67 30 C67 30.33 67 30.66 67 31 C39.775 31.495 39.775 31.495 12 32 C40.87556411 45.09947877 40.87556411 45.09947877 69.8125 58.0625 C70.89378174 58.54364258 71.97506348 59.02478516 73.08911133 59.52050781 C77.36856015 61.41814088 81.64507382 63.28101399 86 65 C86 65.33 86 65.66 86 66 C58.775 66.495 58.775 66.495 31 67 C64.29385373 82.72334081 64.29385373 82.72334081 98.24291992 96.94677734 C102.89458851 98.78917702 102.89458851 98.78917702 104 101 C94.28172013 101.34893328 84.5656216 101.6147311 74.84242535 101.77718258 C70.32619901 101.85519392 65.81428212 101.9607837 61.30053711 102.1315918 C56.93642959 102.29568658 52.57643805 102.38446945 48.20948219 102.42315865 C46.55163542 102.45068863 44.89399256 102.50446456 43.23792076 102.58595085 C30.64265722 103.18053037 30.64265722 103.18053037 26.23817444 99.54626846 C22.96761268 95.98222807 20.45172217 92.0271989 18.06612206 87.83450508 C16.556642 85.2371019 14.80747998 82.83202123 13.0390625 80.40625 C11.89924516 78.77208492 10.76116186 77.13670869 9.625 75.5 C8.47166559 73.84353313 7.31802556 72.18727899 6.1640625 70.53125 C5.63071289 69.76554687 5.09736328 68.99984375 4.54785156 68.2109375 C2.38719267 65.12467143 0.19675952 62.06065372 -2 59 C-1.80889648 59.5983667 -1.61779297 60.1967334 -1.42089844 60.81323242 C5.03832815 81.04786733 5.03832815 81.04786733 7.96875 90.66015625 C9.04600127 94.1489814 10.1521584 97.62780591 11.26098633 101.10668945 C18 122.28028861 18 122.28028861 18 127 C-16.65 127 -51.3 127 -87 127 C-80.25725905 119.13346889 -80.25725905 119.13346889 -76.99829102 115.96411133 C-76.27476944 115.25680374 -75.55124786 114.54949615 -74.80580139 113.820755 C-74.04617599 113.08197617 -73.2865506 112.34319733 -72.50390625 111.58203125 C-70.87766982 109.98301701 -69.25203584 108.38338988 -67.62695312 106.78320312 C-65.08237105 104.28208863 -62.53425996 101.78504892 -59.97583008 99.2980957 C-57.49465818 96.88318304 -55.02941474 94.45294761 -52.56640625 92.01953125 C-51.79261124 91.27467972 -51.01881622 90.52982819 -50.22157288 89.7624054 C-49.52011642 89.06455429 -48.81865997 88.36670319 -48.09594727 87.64770508 C-47.47228775 87.03816483 -46.84862823 86.42862457 -46.20606995 85.8006134 C-44.77427741 84.07088353 -44.77427741 84.07088353 -45.18614197 81.92216492 C-46.37491049 79.11453871 -48.22973075 77.27480318 -50.3125 75.0625 C-53.35849717 71.80504518 -56.25251876 68.51451262 -59 65 C-58.38125 64.5875 -57.7625 64.175 -57.125 63.75 C-54.81942579 61.85129183 -54.25770138 60.66336763 -53 58 C-52.21377709 56.73330754 -51.39864469 55.48430883 -50.5625 54.25 C-49.94568359 53.32960938 -49.94568359 53.32960938 -49.31640625 52.390625 C-48.88199219 51.93171875 -48.44757813 51.4728125 -48 51 C-47.01 51 -46.02 51 -45 51 C-45 49.68 -45 48.36 -45 47 C-43.0625 44.8125 -43.0625 44.8125 -41 43 C-39.84355101 41.96976196 -39.84355101 41.96976196 -39.1875 40.0625 C-38 38 -38 38 -36.15234375 37.19140625 C-33.280057 35.60148346 -32.14737885 33.61555056 -30.375 30.875 C-29.29935854 29.21691513 -28.18491999 27.581839 -27 26 C-26.34 26 -25.68 26 -25 26 C-23.7109375 27.42578125 -23.7109375 27.42578125 -22.375 29.3125 C-21.92898437 29.92738281 -21.48296875 30.54226562 -21.0234375 31.17578125 C-20 33 -20 33 -20 36 C-19.01 36 -18.02 36 -17 36 C-17.42152344 35.48050781 -17.84304687 34.96101563 -18.27734375 34.42578125 C-18.82519531 33.72839844 -19.37304688 33.03101563 -19.9375 32.3125 C-20.48277344 31.62800781 -21.02804688 30.94351563 -21.58984375 30.23828125 C-23.19805764 27.68563151 -23.8502923 26.01754583 -24 23 C-22.78515625 20.6484375 -22.78515625 20.6484375 -21.0625 18.375 C-18.458745 15.07767745 -18.458745 15.07767745 -18 11 C-16 8.8125 -16 8.8125 -14 7 C-14 7.99 -14 8.98 -14 10 C-12.5393715 7.35261084 -12 6.10551666 -12 3 C-7.96968611 -1.39670606 -5.63171734 -1.20108754 0 0 Z " fill="#CD2A2C" transform="translate(268,137)"/>
<path d="M0 0 C0.79083984 0.00451172 1.58167969 0.00902344 2.39648438 0.01367188 C4.28519169 0.02511859 6.17385836 0.04302947 8.0625 0.0625 C7.4025 0.3925 6.7425 0.7225 6.0625 1.0625 C5.95172119 1.67552979 5.84094238 2.28855957 5.72680664 2.92016602 C4.77589323 5.98678313 3.13501265 6.67393105 0.43359375 8.33984375 C-0.51966797 8.93603516 -1.47292969 9.53222656 -2.45507812 10.14648438 C-3.96231445 11.06397461 -3.96231445 11.06397461 -5.5 12 C-6.47775391 12.60779297 -7.45550781 13.21558594 -8.46289062 13.84179688 C-10.3967084 15.04249954 -12.33590037 16.23459234 -14.28051758 17.41772461 C-15.8720918 18.40297091 -17.44869341 19.41409361 -18.9909668 20.47485352 C-24.76222635 24.41360808 -30.93816961 26.24518386 -37.625 28.125 C-38.73939453 28.46982422 -39.85378906 28.81464844 -41.00195312 29.16992188 C-49.08076398 31.46916403 -49.08076398 31.46916403 -52.8671875 29.671875 C-53.55039063 28.81078125 -54.23359375 27.9496875 -54.9375 27.0625 C-55.36619385 26.55388428 -55.7948877 26.04526855 -56.23657227 25.52124023 C-57.66773891 23.79934815 -59.02408528 22.03540002 -60.375 20.25 C-61.33723141 18.99769007 -62.30076121 17.74637664 -63.265625 16.49609375 C-63.72388672 15.9016748 -64.18214844 15.30725586 -64.65429688 14.69482422 C-66.24400805 12.6726003 -67.91732085 10.735672 -69.625 8.8125 C-71.9375 6.0625 -71.9375 6.0625 -71.9375 4.0625 C-62.37084951 3.07700395 -52.78823204 2.57030731 -43.1875 2.0625 C-40.08847354 1.89708074 -36.98952747 1.730225 -33.890625 1.5625 C-33.13411148 1.52192978 -32.37759796 1.48135956 -31.59815979 1.43955994 C-26.7008689 1.17262822 -21.81023556 0.85087335 -16.91796875 0.50390625 C-11.26620063 0.11795763 -5.66327073 -0.06475156 0 0 Z " fill="#890F18" transform="translate(242.9375,104.9375)"/>
<path d="M0 0 C3.63 0 7.26 0 11 0 C11.33 6.27 11.66 12.54 12 19 C13.60414105 13.12221498 13.60414105 13.12221498 15.20092773 7.24243164 C15.40145752 6.51403076 15.6019873 5.78562988 15.80859375 5.03515625 C16.11494751 3.91185913 16.11494751 3.91185913 16.42749023 2.76586914 C17 1 17 1 18 0 C20.97 0 23.94 0 27 0 C27.33 6.93 27.66 13.86 28 21 C29.60132608 15.21154199 29.60132608 15.21154199 31.20092773 9.42260742 C31.40145752 8.69920166 31.6019873 7.9757959 31.80859375 7.23046875 C32.01282959 6.49207764 32.21706543 5.75368652 32.42749023 4.99291992 C32.9092652 3.31584998 33.44821465 1.65535604 34 0 C37.63 0 41.26 0 45 0 C43.39374488 8.62760986 40.40816566 16.71024099 37.4375 24.9375 C36.9246669 26.37288143 36.41229346 27.80842717 35.90039062 29.24414062 C32.183016 39.63396799 32.183016 39.63396799 31 42 C27.37 42 23.74 42 20 42 C19.67 35.07 19.34 28.14 19 21 C17.02 27.93 15.04 34.86 13 42 C9.04 42 5.08 42 1 42 C0.14871512 27.98420248 -0.12011798 14.04045763 0 0 Z " fill="#090909" transform="translate(93,288)"/>
<path d="M0 0 C1.93166016 0.01740234 1.93166016 0.01740234 3.90234375 0.03515625 C5.19269531 0.04417969 6.48304688 0.05320312 7.8125 0.0625 C8.81152344 0.07410156 9.81054688 0.08570313 10.83984375 0.09765625 C11.76874671 5.7871869 12.11033463 11.40360754 12.33984375 17.16015625 C12.70137262 25.48846665 13.20043028 33.78528111 13.83984375 42.09765625 C9.87984375 42.09765625 5.91984375 42.09765625 1.83984375 42.09765625 C1.83984375 40.11765625 1.83984375 38.13765625 1.83984375 36.09765625 C-1.62515625 36.59265625 -1.62515625 36.59265625 -5.16015625 37.09765625 C-5.65515625 39.57265625 -5.65515625 39.57265625 -6.16015625 42.09765625 C-10.12015625 42.09765625 -14.08015625 42.09765625 -18.16015625 42.09765625 C-17.58381974 36.67638049 -16.23816359 32.07507847 -14.25390625 27.01171875 C-13.96914429 26.26932953 -13.68438232 25.52694031 -13.39099121 24.76205444 C-12.79258581 23.20608971 -12.1906852 21.65146507 -11.58544922 20.09814453 C-10.65585889 17.71162372 -9.73722609 15.32110388 -8.8203125 12.9296875 C-8.23630558 11.41512209 -7.65169193 9.90079046 -7.06640625 8.38671875 C-6.79034546 7.67013092 -6.51428467 6.95354309 -6.2298584 6.21524048 C-3.84922533 0.1189501 -3.84922533 0.1189501 0 0 Z " fill="#0A0A0A" transform="translate(172.16015625,287.90234375)"/>
<path d="M0 0 C0.125 6.625 0.125 6.625 -1 10 C-3.97 9.67 -6.94 9.34 -10 9 C-9.47998908 13.18938378 -8.26454169 15.16595451 -5.4375 18.25 C-2.24047954 22.20351708 -1.06910186 24.84123195 -1.50390625 29.92578125 C-2.52660741 34.20179948 -4.82520744 36.96760654 -8.0625 39.8125 C-12.71454592 42.66375395 -17.71386043 42.50504518 -23 42 C-26.125 40.5 -26.125 40.5 -28 39 C-27.67 35.7 -27.34 32.4 -27 29 C-24 29 -24 29 -22 30 C-19.6670134 30.04022391 -17.33293334 30.04320247 -15 30 C-14.70306193 26.90644517 -14.70200903 25.43181459 -16.49609375 22.83203125 C-17.13675781 22.16558594 -17.77742188 21.49914062 -18.4375 20.8125 C-22.47256217 16.54919189 -23.40819937 14.18613496 -23.3515625 8.32421875 C-22.66104738 3.75914655 -19.78873477 1.35697121 -16.1875 -1.375 C-10.47777919 -3.0063488 -5.40999679 -2.16399872 0 0 Z " fill="#090909" transform="translate(324,289)"/>
<path d="M0 0 C3.96 0 7.92 0 12 0 C10.94967756 10.0562787 9.83402901 20.04941708 8 30 C10.64 30.33 13.28 30.66 16 31 C15.34 34.63 14.68 38.26 14 42 C7.4 42 0.8 42 -6 42 C-5.27608901 34.01435694 -4.1937406 26.11549461 -3 18.1875 C-2.82210937 16.98673828 -2.64421875 15.78597656 -2.4609375 14.54882812 C-1.73241069 9.66932954 -0.96792449 4.83962243 0 0 Z " fill="#0A0A0A" transform="translate(257,288)"/>
<path d="M0 0 C8.48421039 -0.18577525 16.96756436 -0.32771063 25.45330906 -0.41449738 C29.39416655 -0.45616259 33.33362778 -0.51262201 37.27368164 -0.60351562 C41.07987504 -0.6907666 44.88473025 -0.73833929 48.69184685 -0.75901794 C50.14043174 -0.77374321 51.58894739 -0.80250151 53.03695869 -0.84584045 C64.36553363 -1.17126278 64.36553363 -1.17126278 68.38790894 1.71118164 C70.16709725 3.72334268 71.58185101 5.72444888 73 8 C73.96212313 9.18076143 74.93985149 10.34909778 75.9375 11.5 C76.618125 12.325 77.29875 13.15 78 14 C72.89819892 14.13985473 68.15607523 13.64920371 63.1640625 12.6796875 C62.41902466 12.54040329 61.67398682 12.40111908 60.90637207 12.25761414 C58.47813379 11.80245274 56.05161947 11.33870669 53.625 10.875 C51.94007257 10.5578148 50.25501214 10.24133541 48.56982422 9.92553711 C45.97765465 9.43960339 43.38559601 8.9531353 40.79397583 8.46427917 C32.64052172 6.92643484 24.47864738 5.43672406 16.31414795 3.95880127 C14.14502239 3.56612465 11.97605062 3.17260949 9.80712891 2.77880859 C6.53817532 2.1853778 3.26913255 1.59244393 0 1 C0 0.67 0 0.34 0 0 Z " fill="#B92C31" transform="translate(28,170)"/>
<path d="M0 0 C3.96 0 7.92 0 12 0 C12.14793207 5.16417416 11.61495112 9.92517308 10.625 15 C9.31925081 21.98814765 8.2909093 28.96746236 7.4296875 36.0234375 C7 39 7 39 6 42 C2.04 42 -1.92 42 -6 42 C-5.26793434 31.89749384 -3.6510307 21.98398146 -2 12 C-1.78859375 10.71609375 -1.5771875 9.4321875 -1.359375 8.109375 C-0.91086177 5.40548097 -0.45628208 2.70259388 0 0 Z " fill="#0A0A0A" transform="translate(215,288)"/>
<path d="M0 0 C-2.58485874 2.58485874 -4.52624128 2.77022299 -8.08203125 3.5859375 C-9.32533203 3.87726563 -10.56863281 4.16859375 -11.84960938 4.46875 C-13.170435 4.77143581 -14.49139936 5.07351681 -15.8125 5.375 C-24.41732865 7.35634618 -32.87759555 9.46536179 -41.26904297 12.22802734 C-44.70216124 13.19848327 -47.46756204 13.32859888 -51 13 C-49.35130705 9.10308938 -47.51983834 5.44013333 -44 3 C-39.38662084 1.72928634 -34.76081022 1.36259385 -30 1 C-28.02966797 0.83564453 -28.02966797 0.83564453 -26.01953125 0.66796875 C-17.34209849 0.00558541 -8.7021071 -0.12237338 0 0 Z " fill="#B12026" transform="translate(331,99)"/>
<path d="M0 0 C4.95 1.98 4.95 1.98 10 4 C10 4.33 10 4.66 10 5 C-15.08 5 -40.16 5 -66 5 C-66.33 4.34 -66.66 3.68 -67 3 C-44.89 2.67 -22.78 2.34 0 2 C0 1.34 0 0.68 0 0 Z " fill="#E75353" transform="translate(362,233)"/>
<path d="M0 0 C8.25 0.33 16.5 0.66 25 1 C25 1.33 25 1.66 25 2 C18.4 2 11.8 2 5 2 C9.53296506 7.39638698 14.33970366 12.44945358 19.3125 17.4375 C19.93527832 18.06479004 20.55805664 18.69208008 21.19970703 19.33837891 C22.08505127 20.22082275 22.08505127 20.22082275 22.98828125 21.12109375 C23.51977783 21.6514624 24.05127441 22.18183105 24.59887695 22.72827148 C27.80365889 25.63708994 31.31746774 25.22018257 35.4140625 25.31640625 C36.14370209 25.33718735 36.87334167 25.35796844 37.62509155 25.37937927 C39.95829763 25.44481917 42.29161721 25.50373368 44.625 25.5625 C46.20574095 25.60569053 47.78647039 25.64930499 49.3671875 25.69335938 C53.24467504 25.80049481 57.12227685 25.90177782 61 26 C61 26.33 61 26.66 61 27 C31.876862 31.29102905 31.876862 31.29102905 21.79052734 24.46435547 C13.41439731 17.93449369 6.25880427 9.54504926 0 1 C0 0.67 0 0.34 0 0 Z " fill="#A51D23" transform="translate(67,132)"/>
<path d="M0 0 C-2.73648317 1.87474981 -5.4910732 3.72097244 -8.25 5.5625 C-9.02730469 6.09552734 -9.80460938 6.62855469 -10.60546875 7.17773438 C-11.73662109 7.92700195 -11.73662109 7.92700195 -12.890625 8.69140625 C-13.58188477 9.15748291 -14.27314453 9.62355957 -14.98535156 10.10375977 C-17 11 -17 11 -19.14746094 10.80444336 C-21.89952686 9.60939101 -22.66826228 7.59688855 -24 5 C-19.09990705 3.29404171 -14.16873812 1.70286112 -9.1875 0.25 C-8.29417969 -0.01296875 -7.40085938 -0.2759375 -6.48046875 -0.546875 C-3.87469671 -1.02289005 -2.50027202 -0.71597044 0 0 Z " fill="#F6E9EA" transform="translate(216,131)"/>
<path d="M0 0 C3.63 0 7.26 0 11 0 C11 0.33 11 0.66 11 1 C8.69 1 6.38 1 4 1 C6.25961251 3.7353204 8.61744118 6.37123081 11 9 C11.78044678 9.8677002 11.78044678 9.8677002 12.57666016 10.75292969 C14.3402173 12.6917937 16.13497545 14.59736194 17.9375 16.5 C18.51000488 17.13566895 19.08250977 17.77133789 19.67236328 18.42626953 C22.91225996 21.83746711 22.91225996 21.83746711 27.22314453 23.40234375 C29.67103156 23.44923512 29.67103156 23.44923512 33 23 C30.30453103 25.69546897 28.79806422 25.95154803 25 26 C22.63919268 24.28216892 20.91468453 22.75938207 18.9453125 20.6640625 C18.39890106 20.1101181 17.85248962 19.55617371 17.28952026 18.98544312 C15.55097427 17.21438289 13.83854084 15.42022955 12.125 13.625 C10.94948408 12.42294435 9.77241688 11.22240365 8.59375 10.0234375 C0 1.22760885 0 1.22760885 0 0 Z " fill="#B5272C" transform="translate(108,194)"/>
<path d="M0 0 C14.19 0 28.38 0 43 0 C43 0.33 43 0.66 43 1 C34.09 1 25.18 1 16 1 C16 1.66 16 2.32 16 3 C10.22192976 3.2358396 5.48675196 2.86783046 0 1 C0 0.67 0 0.34 0 0 Z " fill="#9C1A21" transform="translate(37,171)"/>
<path d="M0 0 C-2.53605069 2.53605069 -4.46876556 2.79250373 -7.9375 3.625 C-9.52884766 4.01558594 -9.52884766 4.01558594 -11.15234375 4.4140625 C-14 5 -14 5 -17 5 C-17 4.01 -17 3.02 -17 2 C-21.29 2 -25.58 2 -30 2 C-30 1.67 -30 1.34 -30 1 C-19.97562315 0.27095441 -10.05610192 -0.14141393 0 0 Z " fill="#C54044" transform="translate(331,99)"/>
<path d="M0 0 C1.32 0.66 2.64 1.32 4 2 C4 2.33 4 2.66 4 3 C-13.82 3 -31.64 3 -50 3 C-50 2.67 -50 2.34 -50 2 C-49.38834488 1.98969254 -48.77668976 1.97938507 -48.14649963 1.96876526 C-41.80417684 1.86093255 -35.46200286 1.74631658 -29.11987305 1.62768555 C-26.75011292 1.5842619 -24.38032 1.54259251 -22.01049805 1.50268555 C-18.61236667 1.44516232 -15.21440157 1.38141697 -11.81640625 1.31640625 C-10.74975235 1.29969376 -9.68309845 1.28298126 -8.5841217 1.26576233 C-7.60318039 1.24581711 -6.62223907 1.22587189 -5.61157227 1.20532227 C-4.74331314 1.18977798 -3.87505402 1.1742337 -2.98048401 1.15821838 C-0.99919221 1.21537575 -0.99919221 1.21537575 0 0 Z " fill="#E22C2C" transform="translate(346,199)"/>
<path d="M0 0 C2.64 0.99 5.28 1.98 8 3 C8 3.33 8 3.66 8 4 C-6.52 4 -21.04 4 -36 4 C-36 3.67 -36 3.34 -36 3 C-24.12 2.67 -12.24 2.34 0 2 C0 1.34 0 0.68 0 0 Z " fill="#E23D3D" transform="translate(327,164)"/>
<path d="M0 0 C0.0825 0.515625 0.165 1.03125 0.25 1.5625 C1.3085435 5.00276639 3.15378393 7.93664889 5 11 C5.5775 11.969375 6.155 12.93875 6.75 13.9375 C7.1625 14.618125 7.575 15.29875 8 16 C6.25 15.9375 6.25 15.9375 4 15 C1.71663777 11.90512925 0.21230358 8.63691074 -1 5 C-1.66 4.67 -2.32 4.34 -3 4 C-2.01 2.68 -1.02 1.36 0 0 Z " fill="#991F27" transform="translate(244,158)"/>
<path d="M0 0 C0.33 0 0.66 0 1 0 C1 3.96 1 7.92 1 12 C-0.32 12 -1.64 12 -3 12 C-2.69106068 10.3743193 -2.3777305 8.74947252 -2.0625 7.125 C-1.88847656 6.22007812 -1.71445313 5.31515625 -1.53515625 4.3828125 C-1 2 -1 2 0 0 Z " fill="#E9E9E9" transform="translate(173,303)"/>
<path d="M0 0 C2.22889496 -0.05428973 4.45817471 -0.09292338 6.6875 -0.125 C8.54955078 -0.15980469 8.54955078 -0.15980469 10.44921875 -0.1953125 C13.81237857 -0.01032021 15.9985587 0.54232105 19 2 C16 4 16 4 13 4 C13 3.01 13 2.02 13 1 C8.71 1 4.42 1 0 1 C0 0.67 0 0.34 0 0 Z " fill="#C85357" transform="translate(301,100)"/>
<path d="M0 0 C4.95 0 9.9 0 15 0 C10 4 10 4 8 5 C8 4.01 8 3.02 8 2 C5.36 1.67 2.72 1.34 0 1 C0 0.67 0 0.34 0 0 Z " fill="#AC3E44" transform="translate(241,104)"/>
<path d="M0 0 C0 3 0 3 -2.5 5.6875 C-3.325 6.450625 -4.15 7.21375 -5 8 C-6.32 7.34 -7.64 6.68 -9 6 C-6.03 4.02 -3.06 2.04 0 0 Z " fill="#E54747" transform="translate(308,71)"/>
</svg>
